<?xml version="1.0" encoding="UTF-8" standalone="no"?>
<!DOCTYPE svg PUBLIC "-//W3C//DTD SVG 1.1//EN"
 "http://www.w3.org/Graphics/SVG/1.1/DTD/svg11.dtd">
<!-- Generated by graphviz version 2.43.0 (0)
 -->
<!-- Title: %3 Pages: 1 -->
<svg width="1859pt" height="1129pt"
 viewBox="0.00 0.00 1859.29 1129.00" xmlns="http://www.w3.org/2000/svg" xmlns:xlink="http://www.w3.org/1999/xlink">
<g id="graph0" class="graph" transform="scale(1 1) rotate(0) translate(4 1125)">
<title>%3</title>
<polygon fill="white" stroke="transparent" points="-4,4 -4,-1125 1855.29,-1125 1855.29,4 -4,4"/>
<text text-anchor="middle" x="925.65" y="-7.8" font-family="Times,serif" font-size="14.00">Convey field types (dashed nodes = identifiable automatically, dashed edges = field identity)</text>
<!-- source_ip -->
<g id="node1" class="node">
<title>source_ip</title>
<ellipse fill="none" stroke="black" stroke-dasharray="5,2" cx="1257.19" cy="-1103" rx="54.69" ry="18"/>
<text text-anchor="middle" x="1257.19" y="-1099.3" font-family="Times,serif" font-size="14.00">source_ip</text>
</g>
<!-- ip -->
<g id="node2" class="node">
<title>ip</title>
<ellipse fill="none" stroke="black" stroke-dasharray="5,2" cx="1257.19" cy="-1030" rx="27" ry="18"/>
<text text-anchor="middle" x="1257.19" y="-1026.3" font-family="Times,serif" font-size="14.00">ip</text>
</g>
<!-- source_ip&#45;&gt;ip -->
<g id="edge1" class="edge">
<title>source_ip&#45;&gt;ip</title>
<path fill="none" stroke="black" stroke-dasharray="5,2" d="M1257.19,-1084.81C1257.19,-1076.79 1257.19,-1067.05 1257.19,-1058.07"/>
<polygon fill="black" stroke="black" points="1260.69,-1058.03 1257.19,-1048.03 1253.69,-1058.03 1260.69,-1058.03"/>
</g>
<!-- whois -->
<g id="node9" class="node">
<title>whois</title>
<polygon fill="none" stroke="black" points="918.19,-975 860.19,-975 860.19,-939 918.19,-939 918.19,-975"/>
<text text-anchor="middle" x="889.19" y="-953.3" font-family="Times,serif" font-size="14.00">whois</text>
</g>
<!-- ip&#45;&gt;whois -->
<g id="edge9" class="edge">
<title>ip&#45;&gt;whois</title>
<path fill="none" stroke="black" d="M1231.61,-1024.06C1168.33,-1011.85 1004.13,-980.18 928.45,-965.57"/>
<polygon fill="black" stroke="black" points="928.86,-962.09 918.38,-963.63 927.53,-968.96 928.86,-962.09"/>
</g>
<!-- nmap -->
<g id="node58" class="node">
<title>nmap</title>
<polygon fill="none" stroke="black" points="1518.19,-673 1462.19,-673 1462.19,-637 1518.19,-637 1518.19,-673"/>
<text text-anchor="middle" x="1490.19" y="-651.3" font-family="Times,serif" font-size="14.00">nmap</text>
</g>
<!-- ip&#45;&gt;nmap -->
<g id="edge63" class="edge">
<title>ip&#45;&gt;nmap</title>
<path fill="none" stroke="black" d="M1283.89,-1026.28C1343.49,-1019.46 1482.19,-999.17 1482.19,-958 1482.19,-958 1482.19,-958 1482.19,-737 1482.19,-718.97 1484.18,-698.8 1486.17,-683.1"/>
<polygon fill="black" stroke="black" points="1489.66,-683.4 1487.53,-673.02 1482.73,-682.46 1489.66,-683.4"/>
</g>
<!-- destination_ip -->
<g id="node3" class="node">
<title>destination_ip</title>
<ellipse fill="none" stroke="black" stroke-dasharray="5,2" cx="1406.19" cy="-1103" rx="76.09" ry="18"/>
<text text-anchor="middle" x="1406.19" y="-1099.3" font-family="Times,serif" font-size="14.00">destination_ip</text>
</g>
<!-- destination_ip&#45;&gt;ip -->
<g id="edge2" class="edge">
<title>destination_ip&#45;&gt;ip</title>
<path fill="none" stroke="black" stroke-dasharray="5,2" d="M1373.86,-1086.59C1348.21,-1074.37 1312.61,-1057.41 1287.5,-1045.44"/>
<polygon fill="black" stroke="black" points="1288.97,-1042.26 1278.44,-1041.12 1285.96,-1048.58 1288.97,-1042.26"/>
</g>
<!-- any_ip -->
<g id="node4" class="node">
<title>any_ip</title>
<ellipse fill="none" stroke="black" stroke-dasharray="5,2" cx="1144.19" cy="-1103" rx="40.09" ry="18"/>
<text text-anchor="middle" x="1144.19" y="-1099.3" font-family="Times,serif" font-size="14.00">any_ip</text>
</g>
<!-- any_ip&#45;&gt;ip -->
<g id="edge3" class="edge">
<title>any_ip&#45;&gt;ip</title>
<path fill="none" stroke="black" d="M1166.52,-1087.97C1184.62,-1076.6 1210.22,-1060.52 1229.6,-1048.34"/>
<polygon fill="black" stroke="black" points="1231.68,-1051.16 1238.29,-1042.88 1227.96,-1045.23 1231.68,-1051.16"/>
</g>
<!-- port_ip -->
<g id="node5" class="node">
<title>port_ip</title>
<ellipse fill="none" stroke="black" stroke-dasharray="5,2" cx="553.19" cy="-1103" rx="43.59" ry="18"/>
<text text-anchor="middle" x="553.19" y="-1099.3" font-family="Times,serif" font-size="14.00">port_ip</text>
</g>
<!-- port_ip&#45;&gt;ip -->
<g id="edge4" class="edge">
<title>port_ip&#45;&gt;ip</title>
<path fill="none" stroke="black" d="M595.12,-1097.77C721.98,-1084.98 1100.34,-1046.82 1220.29,-1034.72"/>
<polygon fill="black" stroke="black" points="1220.83,-1038.19 1230.43,-1033.7 1220.13,-1031.22 1220.83,-1038.19"/>
</g>
<!-- port -->
<g id="node6" class="node">
<title>port</title>
<ellipse fill="none" stroke="black" stroke-dasharray="5,2" cx="1213.19" cy="-509" rx="30.59" ry="18"/>
<text text-anchor="middle" x="1213.19" y="-505.3" font-family="Times,serif" font-size="14.00">port</text>
</g>
<!-- port_ip&#45;&gt;port -->
<g id="edge5" class="edge">
<title>port_ip&#45;&gt;port</title>
<path fill="none" stroke="black" d="M509.95,-1100.65C384.65,-1096.19 30.19,-1079.28 30.19,-1031 30.19,-1031 30.19,-1031 30.19,-581 30.19,-522.51 963.8,-511.91 1172.25,-510.27"/>
<polygon fill="black" stroke="black" points="1172.49,-513.77 1182.46,-510.19 1172.44,-506.77 1172.49,-513.77"/>
</g>
<!-- urlencode -->
<g id="node23" class="node">
<title>urlencode</title>
<ellipse fill="none" stroke="black" stroke-dasharray="5,2" cx="1213.19" cy="-436" rx="56.59" ry="18"/>
<text text-anchor="middle" x="1213.19" y="-432.3" font-family="Times,serif" font-size="14.00">urlencode</text>
</g>
<!-- port&#45;&gt;urlencode -->
<!-- url -->
<g id="node7" class="node">
<title>url</title>
<ellipse fill="none" stroke="black" stroke-dasharray="5,2" cx="679.19" cy="-811" rx="27" ry="18"/>
<text text-anchor="middle" x="679.19" y="-807.3" font-family="Times,serif" font-size="14.00">url</text>
</g>
<!-- url&#45;&gt;port -->
<g id="edge7" class="edge">
<title>url&#45;&gt;port</title>
<path fill="none" stroke="black" d="M705.77,-806.97C802.36,-795.37 1132.58,-750.54 1198.19,-673 1230.38,-634.96 1225.51,-572.55 1219.25,-537.01"/>
<polygon fill="black" stroke="black" points="1222.63,-536.05 1217.3,-526.9 1215.76,-537.38 1222.63,-536.05"/>
</g>
<!-- hostname -->
<g id="node8" class="node">
<title>hostname</title>
<ellipse fill="none" stroke="black" stroke-dasharray="5,2" cx="1301.19" cy="-738" rx="55.79" ry="18"/>
<text text-anchor="middle" x="1301.19" y="-734.3" font-family="Times,serif" font-size="14.00">hostname</text>
</g>
<!-- url&#45;&gt;hostname -->
<g id="edge6" class="edge">
<title>url&#45;&gt;hostname</title>
<path fill="none" stroke="black" d="M715.95,-807.53C765.99,-804.17 858.36,-798.02 937.19,-793 1002.3,-788.86 1167.24,-792.1 1230.19,-775 1243.14,-771.48 1256.47,-765.46 1268.04,-759.33"/>
<polygon fill="black" stroke="black" points="715.68,-804.04 705.93,-808.2 716.15,-811.02 715.68,-804.04"/>
<polygon fill="black" stroke="black" points="1269.83,-762.34 1276.9,-754.44 1266.45,-756.21 1269.83,-762.34"/>
</g>
<!-- web -->
<g id="node50" class="node">
<title>web</title>
<polygon fill="none" stroke="black" points="677.19,-756 623.19,-756 623.19,-720 677.19,-720 677.19,-756"/>
<text text-anchor="middle" x="650.19" y="-734.3" font-family="Times,serif" font-size="14.00">web</text>
</g>
<!-- url&#45;&gt;web -->
<g id="edge52" class="edge">
<title>url&#45;&gt;web</title>
<path fill="none" stroke="black" d="M672.47,-793.53C669.09,-785.26 664.91,-775.04 661.09,-765.68"/>
<polygon fill="black" stroke="black" points="664.31,-764.3 657.29,-756.37 657.83,-766.95 664.31,-764.3"/>
</g>
<!-- hostname&#45;&gt;ip -->
<g id="edge8" class="edge">
<title>hostname&#45;&gt;ip</title>
<path fill="none" stroke="black" d="M1300.63,-766.51C1300.4,-779.67 1300.19,-795.65 1300.19,-810 1300.19,-958 1300.19,-958 1300.19,-958 1300.19,-976.38 1289.52,-994.07 1278.81,-1007.19"/>
<polygon fill="black" stroke="black" points="1304.13,-766.28 1300.82,-756.22 1297.13,-766.15 1304.13,-766.28"/>
<polygon fill="black" stroke="black" points="1276.17,-1004.9 1272.23,-1014.74 1281.44,-1009.5 1276.17,-1004.9"/>
</g>
<!-- dns -->
<g id="node32" class="node">
<title>dns</title>
<polygon fill="none" stroke="black" points="1444.19,-673 1390.19,-673 1390.19,-637 1444.19,-637 1444.19,-673"/>
<text text-anchor="middle" x="1417.19" y="-651.3" font-family="Times,serif" font-size="14.00">dns</text>
</g>
<!-- hostname&#45;&gt;dns -->
<g id="edge31" class="edge">
<title>hostname&#45;&gt;dns</title>
<path fill="none" stroke="black" d="M1348.33,-728.01C1365.4,-722.79 1383.76,-714.65 1397.19,-702 1402.65,-696.87 1406.69,-689.99 1409.66,-683.12"/>
<polygon fill="black" stroke="black" points="1413.12,-683.86 1413.28,-673.27 1406.55,-681.45 1413.12,-683.86"/>
</g>
<!-- tld -->
<g id="node43" class="node">
<title>tld</title>
<ellipse fill="none" stroke="black" cx="1275.19" cy="-655" rx="27" ry="18"/>
<text text-anchor="middle" x="1275.19" y="-651.3" font-family="Times,serif" font-size="14.00">tld</text>
</g>
<!-- hostname&#45;&gt;tld -->
<g id="edge44" class="edge">
<title>hostname&#45;&gt;tld</title>
<path fill="none" stroke="black" d="M1289.16,-720.28C1285.71,-714.71 1282.32,-708.31 1280.19,-702 1278.23,-696.15 1276.99,-689.66 1276.22,-683.45"/>
<polygon fill="black" stroke="black" points="1279.7,-683.07 1275.33,-673.42 1272.73,-683.69 1279.7,-683.07"/>
<text text-anchor="middle" x="1338.69" y="-694" font-family="Times,serif" font-size="10.00">choose all,ccTLD,gTLD</text>
</g>
<!-- hostname&#45;&gt;nmap -->
<g id="edge61" class="edge">
<title>hostname&#45;&gt;nmap</title>
<path fill="none" stroke="black" d="M1344.36,-726.52C1366.09,-720.55 1392.55,-712.22 1415.19,-702 1429.56,-695.52 1444.53,-686.78 1457.28,-678.67"/>
<polygon fill="black" stroke="black" points="1459.24,-681.57 1465.72,-673.19 1455.43,-675.7 1459.24,-681.57"/>
</g>
<!-- prefix -->
<g id="node11" class="node">
<title>prefix</title>
<ellipse fill="none" stroke="black" cx="1191.19" cy="-884" rx="37.89" ry="18"/>
<text text-anchor="middle" x="1191.19" y="-880.3" font-family="Times,serif" font-size="14.00">prefix</text>
</g>
<!-- whois&#45;&gt;prefix -->
<g id="edge11" class="edge">
<title>whois&#45;&gt;prefix</title>
<path fill="none" stroke="black" d="M918.58,-951.14C966.37,-942.94 1063.69,-924.96 1144.19,-902 1147.1,-901.17 1150.09,-900.25 1153.09,-899.28"/>
<polygon fill="black" stroke="black" points="1154.22,-902.59 1162.57,-896.07 1151.97,-895.96 1154.22,-902.59"/>
</g>
<!-- asn -->
<g id="node12" class="node">
<title>asn</title>
<ellipse fill="none" stroke="black" stroke-dasharray="5,2" cx="1108.19" cy="-884" rx="27" ry="18"/>
<text text-anchor="middle" x="1108.19" y="-880.3" font-family="Times,serif" font-size="14.00">asn</text>
</g>
<!-- whois&#45;&gt;asn -->
<g id="edge12" class="edge">
<title>whois&#45;&gt;asn</title>
<path fill="none" stroke="black" d="M918.49,-948.85C955.02,-939.59 1019.11,-922.23 1072.19,-902 1074.03,-901.3 1075.91,-900.54 1077.79,-899.75"/>
<polygon fill="black" stroke="black" points="1079.39,-902.88 1087.11,-895.62 1076.55,-896.48 1079.39,-902.88"/>
</g>
<!-- abusemail -->
<g id="node13" class="node">
<title>abusemail</title>
<ellipse fill="none" stroke="black" cx="1005.19" cy="-884" rx="57.69" ry="18"/>
<text text-anchor="middle" x="1005.19" y="-880.3" font-family="Times,serif" font-size="14.00">abusemail</text>
</g>
<!-- whois&#45;&gt;abusemail -->
<g id="edge13" class="edge">
<title>whois&#45;&gt;abusemail</title>
<path fill="none" stroke="black" d="M916.98,-938.99C933.3,-929 954.06,-916.3 971.33,-905.72"/>
<polygon fill="black" stroke="black" points="973.31,-908.62 980.01,-900.41 969.65,-902.65 973.31,-908.62"/>
</g>
<!-- country -->
<g id="node14" class="node">
<title>country</title>
<ellipse fill="none" stroke="black" cx="238.19" cy="-582" rx="46.29" ry="18"/>
<text text-anchor="middle" x="238.19" y="-578.3" font-family="Times,serif" font-size="14.00">country</text>
</g>
<!-- whois&#45;&gt;country -->
<g id="edge14" class="edge">
<title>whois&#45;&gt;country</title>
<path fill="none" stroke="black" d="M859.96,-955.93C733.28,-955.23 238.19,-948.45 238.19,-885 238.19,-885 238.19,-885 238.19,-654 238.19,-639.65 238.19,-623.67 238.19,-610.51"/>
<polygon fill="black" stroke="black" points="241.69,-610.22 238.19,-600.22 234.69,-610.22 241.69,-610.22"/>
</g>
<!-- netname -->
<g id="node15" class="node">
<title>netname</title>
<ellipse fill="none" stroke="black" cx="552.19" cy="-884" rx="51.19" ry="18"/>
<text text-anchor="middle" x="552.19" y="-880.3" font-family="Times,serif" font-size="14.00">netname</text>
</g>
<!-- whois&#45;&gt;netname -->
<g id="edge15" class="edge">
<title>whois&#45;&gt;netname</title>
<path fill="none" stroke="black" d="M859.91,-951.12C809.18,-942.48 701.79,-923.39 612.19,-902 608.17,-901.04 604,-899.98 599.83,-898.89"/>
<polygon fill="black" stroke="black" points="600.72,-895.5 590.16,-896.27 598.9,-902.26 600.72,-895.5"/>
</g>
<!-- csirt_contact -->
<g id="node16" class="node">
<title>csirt_contact</title>
<ellipse fill="none" stroke="black" cx="70.19" cy="-509" rx="70.39" ry="18"/>
<text text-anchor="middle" x="70.19" y="-505.3" font-family="Times,serif" font-size="14.00">csirt_contact</text>
</g>
<!-- whois&#45;&gt;csirt_contact -->
<g id="edge16" class="edge">
<title>whois&#45;&gt;csirt_contact</title>
<path fill="none" stroke="black" d="M859.97,-955.04C713.72,-950.02 68.19,-925.6 68.19,-885 68.19,-885 68.19,-885 68.19,-774 68.19,-669.63 -33.65,-636.7 16.19,-545 19.1,-539.66 23.21,-535 27.89,-530.98"/>
<polygon fill="black" stroke="black" points="30.24,-533.6 36.17,-524.82 26.06,-527.98 30.24,-533.6"/>
</g>
<!-- incident_contact -->
<g id="node17" class="node">
<title>incident_contact</title>
<ellipse fill="none" stroke="black" cx="842.19" cy="-884" rx="87.18" ry="18"/>
<text text-anchor="middle" x="842.19" y="-880.3" font-family="Times,serif" font-size="14.00">incident_contact</text>
</g>
<!-- whois&#45;&gt;incident_contact -->
<g id="edge17" class="edge">
<title>whois&#45;&gt;incident_contact</title>
<path fill="none" stroke="black" d="M877.82,-938.81C872.22,-930.35 865.35,-919.98 859.15,-910.61"/>
<polygon fill="black" stroke="black" points="861.9,-908.44 853.47,-902.03 856.07,-912.3 861.9,-908.44"/>
</g>
<!-- cidr -->
<g id="node10" class="node">
<title>cidr</title>
<ellipse fill="none" stroke="black" stroke-dasharray="5,2" cx="1232.19" cy="-811" rx="28.7" ry="18"/>
<text text-anchor="middle" x="1232.19" y="-807.3" font-family="Times,serif" font-size="14.00">cidr</text>
</g>
<!-- cidr&#45;&gt;ip -->
<g id="edge10" class="edge">
<title>cidr&#45;&gt;ip</title>
<path fill="none" stroke="black" d="M1234.18,-829.25C1238.52,-866.92 1248.87,-956.77 1254.08,-1002"/>
<polygon fill="black" stroke="black" points="1250.61,-1002.44 1255.23,-1011.97 1257.56,-1001.64 1250.61,-1002.44"/>
</g>
<!-- prefix&#45;&gt;cidr -->
<g id="edge45" class="edge">
<title>prefix&#45;&gt;cidr</title>
<path fill="none" stroke="black" d="M1200.7,-866.53C1205.72,-857.84 1211.99,-846.99 1217.61,-837.26"/>
<polygon fill="black" stroke="black" points="1220.77,-838.79 1222.74,-828.38 1214.7,-835.29 1220.77,-838.79"/>
</g>
<!-- cc_contact -->
<g id="node18" class="node">
<title>cc_contact</title>
<ellipse fill="none" stroke="black" cx="1005.19" cy="-811" rx="59.29" ry="18"/>
<text text-anchor="middle" x="1005.19" y="-807.3" font-family="Times,serif" font-size="14.00">cc_contact</text>
</g>
<!-- abusemail&#45;&gt;cc_contact -->
<g id="edge18" class="edge">
<title>abusemail&#45;&gt;cc_contact</title>
<path fill="none" stroke="black" d="M1005.19,-865.81C1005.19,-857.79 1005.19,-848.05 1005.19,-839.07"/>
<polygon fill="black" stroke="black" points="1008.69,-839.03 1005.19,-829.03 1001.69,-839.03 1008.69,-839.03"/>
</g>
<!-- email -->
<g id="node40" class="node">
<title>email</title>
<ellipse fill="none" stroke="black" stroke-dasharray="5,2" cx="1145.19" cy="-811" rx="36.29" ry="18"/>
<text text-anchor="middle" x="1145.19" y="-807.3" font-family="Times,serif" font-size="14.00">email</text>
</g>
<!-- abusemail&#45;&gt;email -->
<g id="edge39" class="edge">
<title>abusemail&#45;&gt;email</title>
<path fill="none" stroke="black" stroke-dasharray="5,2" d="M1034.2,-868.29C1056.69,-856.89 1087.88,-841.06 1111.48,-829.1"/>
<polygon fill="black" stroke="black" points="1113.1,-832.2 1120.43,-824.56 1109.93,-825.96 1113.1,-832.2"/>
</g>
<!-- country&#45;&gt;csirt_contact -->
<g id="edge42" class="edge">
<title>country&#45;&gt;csirt_contact</title>
<path fill="none" stroke="black" d="M208.16,-568.31C182.01,-557.26 143.77,-541.1 114.18,-528.59"/>
<polygon fill="black" stroke="black" points="115.47,-525.34 104.9,-524.67 112.75,-531.78 115.47,-525.34"/>
</g>
<!-- plaintext -->
<g id="node19" class="node">
<title>plaintext</title>
<ellipse fill="none" stroke="black" stroke-dasharray="5,2" cx="1265.19" cy="-353" rx="51.99" ry="18"/>
<text text-anchor="middle" x="1265.19" y="-349.3" font-family="Times,serif" font-size="14.00">plaintext</text>
</g>
<!-- bytes -->
<g id="node20" class="node">
<title>bytes</title>
<ellipse fill="none" stroke="black" cx="1209.19" cy="-280" rx="36.29" ry="18"/>
<text text-anchor="middle" x="1209.19" y="-276.3" font-family="Times,serif" font-size="14.00">bytes</text>
</g>
<!-- plaintext&#45;&gt;bytes -->
<g id="edge19" class="edge">
<title>plaintext&#45;&gt;bytes</title>
<path fill="none" stroke="black" d="M1245.9,-327.54C1240.26,-320.38 1234.08,-312.55 1228.43,-305.39"/>
<polygon fill="black" stroke="black" points="1243.26,-329.85 1252.21,-335.53 1248.76,-325.51 1243.26,-329.85"/>
<polygon fill="black" stroke="black" points="1231.05,-303.06 1222.11,-297.38 1225.56,-307.4 1231.05,-303.06"/>
</g>
<!-- custom -->
<g id="node24" class="node">
<title>custom</title>
<polygon fill="none" stroke="black" points="1512.19,-298 1444.19,-298 1444.19,-262 1512.19,-262 1512.19,-298"/>
<text text-anchor="middle" x="1478.19" y="-276.3" font-family="Times,serif" font-size="14.00">custom</text>
</g>
<!-- plaintext&#45;&gt;custom -->
<g id="edge23" class="edge">
<title>plaintext&#45;&gt;custom</title>
<path fill="none" stroke="black" d="M1301.33,-339.96C1338.09,-327.7 1395.11,-308.7 1434.41,-295.59"/>
<polygon fill="black" stroke="black" points="1435.62,-298.88 1444,-292.4 1433.41,-292.24 1435.62,-298.88"/>
</g>
<!-- base64 -->
<g id="node21" class="node">
<title>base64</title>
<ellipse fill="none" stroke="black" stroke-dasharray="5,2" cx="1010.19" cy="-197" rx="44.39" ry="18"/>
<text text-anchor="middle" x="1010.19" y="-193.3" font-family="Times,serif" font-size="14.00">base64</text>
</g>
<!-- bytes&#45;&gt;base64 -->
<g id="edge20" class="edge">
<title>bytes&#45;&gt;base64</title>
<path fill="none" stroke="black" d="M1172.27,-263.97C1137.52,-249.82 1085.62,-228.7 1049.96,-214.19"/>
<polygon fill="black" stroke="black" points="1171.36,-267.38 1181.94,-267.91 1174,-260.9 1171.36,-267.38"/>
<polygon fill="black" stroke="black" points="1050.95,-210.81 1040.37,-210.28 1048.31,-217.29 1050.95,-210.81"/>
</g>
<!-- quoted_printable -->
<g id="node22" class="node">
<title>quoted_printable</title>
<ellipse fill="none" stroke="black" stroke-dasharray="5,2" cx="1162.19" cy="-197" rx="89.88" ry="18"/>
<text text-anchor="middle" x="1162.19" y="-193.3" font-family="Times,serif" font-size="14.00">quoted_printable</text>
</g>
<!-- bytes&#45;&gt;quoted_printable -->
<g id="edge21" class="edge">
<title>bytes&#45;&gt;quoted_printable</title>
<path fill="none" stroke="black" d="M1194.62,-253.89C1189.06,-244.29 1182.7,-233.34 1177.1,-223.69"/>
<polygon fill="black" stroke="black" points="1191.64,-255.72 1199.68,-262.61 1197.69,-252.2 1191.64,-255.72"/>
<polygon fill="black" stroke="black" points="1180.06,-221.82 1172.01,-214.92 1174.01,-225.33 1180.06,-221.82"/>
</g>
<!-- charset -->
<g id="node28" class="node">
<title>charset</title>
<ellipse fill="none" stroke="black" cx="1315.19" cy="-197" rx="45.49" ry="18"/>
<text text-anchor="middle" x="1315.19" y="-193.3" font-family="Times,serif" font-size="14.00">charset</text>
</g>
<!-- bytes&#45;&gt;charset -->
<g id="edge27" class="edge">
<title>bytes&#45;&gt;charset</title>
<path fill="none" stroke="black" d="M1228.14,-264.52C1244.46,-252.05 1268.25,-233.87 1286.84,-219.67"/>
<polygon fill="black" stroke="black" points="1289.14,-222.31 1294.96,-213.46 1284.89,-216.75 1289.14,-222.31"/>
<text text-anchor="middle" x="1292.19" y="-236" font-family="Times,serif" font-size="10.00">encoding</text>
</g>
<!-- urlencode&#45;&gt;plaintext -->
<g id="edge22" class="edge">
<title>urlencode&#45;&gt;plaintext</title>
<path fill="none" stroke="black" d="M1229.57,-409.5C1235.72,-399.92 1242.7,-389.03 1248.85,-379.46"/>
<polygon fill="black" stroke="black" points="1226.43,-407.91 1223.97,-418.22 1232.32,-411.69 1226.43,-407.91"/>
<polygon fill="black" stroke="black" points="1251.98,-381.07 1254.43,-370.76 1246.09,-377.29 1251.98,-381.07"/>
</g>
<!-- external -->
<g id="node25" class="node">
<title>external</title>
<ellipse fill="none" stroke="black" cx="1428.19" cy="-197" rx="49.29" ry="18"/>
<text text-anchor="middle" x="1428.19" y="-193.3" font-family="Times,serif" font-size="14.00">external</text>
</g>
<!-- custom&#45;&gt;external -->
<g id="edge24" class="edge">
<title>custom&#45;&gt;external</title>
<path fill="none" stroke="black" d="M1467.59,-261.82C1460.72,-250.69 1451.64,-235.98 1443.93,-223.49"/>
<polygon fill="black" stroke="black" points="1446.84,-221.55 1438.61,-214.88 1440.89,-225.22 1446.84,-221.55"/>
</g>
<!-- code -->
<g id="node26" class="node">
<title>code</title>
<ellipse fill="none" stroke="black" cx="1528.19" cy="-197" rx="32.49" ry="18"/>
<text text-anchor="middle" x="1528.19" y="-193.3" font-family="Times,serif" font-size="14.00">code</text>
</g>
<!-- custom&#45;&gt;code -->
<g id="edge25" class="edge">
<title>custom&#45;&gt;code</title>
<path fill="none" stroke="black" d="M1488.8,-261.82C1495.76,-250.54 1504.99,-235.59 1512.77,-222.99"/>
<polygon fill="black" stroke="black" points="1515.84,-224.67 1518.12,-214.32 1509.89,-221 1515.84,-224.67"/>
</g>
<!-- reg -->
<g id="node27" class="node">
<title>reg</title>
<ellipse fill="none" stroke="black" cx="1605.19" cy="-197" rx="27" ry="18"/>
<text text-anchor="middle" x="1605.19" y="-193.3" font-family="Times,serif" font-size="14.00">reg</text>
</g>
<!-- custom&#45;&gt;reg -->
<g id="edge26" class="edge">
<title>custom&#45;&gt;reg</title>
<path fill="none" stroke="black" d="M1505.13,-261.82C1526.41,-248.25 1556,-229.38 1577.48,-215.68"/>
<polygon fill="black" stroke="black" points="1579.59,-218.48 1586.14,-210.15 1575.82,-212.58 1579.59,-218.48"/>
</g>
<!-- reg_s -->
<g id="node29" class="node">
<title>reg_s</title>
<ellipse fill="none" stroke="black" cx="1558.19" cy="-124" rx="36" ry="18"/>
<text text-anchor="middle" x="1558.19" y="-120.3" font-family="Times,serif" font-size="14.00">reg_s</text>
</g>
<!-- reg&#45;&gt;reg_s -->
<g id="edge28" class="edge">
<title>reg&#45;&gt;reg_s</title>
<path fill="none" stroke="black" d="M1594.76,-180.24C1588.82,-171.27 1581.25,-159.83 1574.54,-149.69"/>
<polygon fill="black" stroke="black" points="1577.36,-147.61 1568.92,-141.21 1571.52,-151.48 1577.36,-147.61"/>
</g>
<!-- reg_m -->
<g id="node30" class="node">
<title>reg_m</title>
<ellipse fill="none" stroke="black" cx="1651.19" cy="-124" rx="39.79" ry="18"/>
<text text-anchor="middle" x="1651.19" y="-120.3" font-family="Times,serif" font-size="14.00">reg_m</text>
</g>
<!-- reg&#45;&gt;reg_m -->
<g id="edge29" class="edge">
<title>reg&#45;&gt;reg_m</title>
<path fill="none" stroke="black" d="M1615.4,-180.24C1621.13,-171.4 1628.42,-160.15 1634.92,-150.12"/>
<polygon fill="black" stroke="black" points="1637.87,-152 1640.37,-141.7 1632,-148.19 1637.87,-152"/>
</g>
<!-- timestamp -->
<g id="node44" class="node">
<title>timestamp</title>
<ellipse fill="none" stroke="black" stroke-dasharray="5,2" cx="1315.19" cy="-124" rx="60.39" ry="18"/>
<text text-anchor="middle" x="1315.19" y="-120.3" font-family="Times,serif" font-size="14.00">timestamp</text>
</g>
<!-- charset&#45;&gt;timestamp -->
<!-- wrong_url -->
<g id="node31" class="node">
<title>wrong_url</title>
<ellipse fill="none" stroke="black" stroke-dasharray="5,2" cx="679.19" cy="-884" rx="57.69" ry="18"/>
<text text-anchor="middle" x="679.19" y="-880.3" font-family="Times,serif" font-size="14.00">wrong_url</text>
</g>
<!-- wrong_url&#45;&gt;url -->
<g id="edge30" class="edge">
<title>wrong_url&#45;&gt;url</title>
<path fill="none" stroke="black" d="M679.19,-865.81C679.19,-857.79 679.19,-848.05 679.19,-839.07"/>
<polygon fill="black" stroke="black" points="682.69,-839.03 679.19,-829.03 675.69,-839.03 682.69,-839.03"/>
</g>
<!-- spf -->
<g id="node33" class="node">
<title>spf</title>
<ellipse fill="none" stroke="black" cx="1736.19" cy="-582" rx="27" ry="18"/>
<text text-anchor="middle" x="1736.19" y="-578.3" font-family="Times,serif" font-size="14.00">spf</text>
</g>
<!-- dns&#45;&gt;spf -->
<g id="edge32" class="edge">
<title>dns&#45;&gt;spf</title>
<path fill="none" stroke="black" d="M1444.38,-640.15C1447.31,-638.97 1450.28,-637.88 1453.19,-637 1559.4,-604.73 1593.98,-632.27 1700.19,-600 1702.13,-599.41 1704.09,-598.74 1706.05,-598"/>
<polygon fill="black" stroke="black" points="1707.81,-601.06 1715.67,-593.95 1705.09,-594.61 1707.81,-601.06"/>
</g>
<!-- txt -->
<g id="node34" class="node">
<title>txt</title>
<ellipse fill="none" stroke="black" cx="1268.19" cy="-582" rx="27" ry="18"/>
<text text-anchor="middle" x="1268.19" y="-578.3" font-family="Times,serif" font-size="14.00">txt</text>
</g>
<!-- dns&#45;&gt;txt -->
<g id="edge33" class="edge">
<title>dns&#45;&gt;txt</title>
<path fill="none" stroke="black" d="M1389.86,-640.98C1364.13,-628.71 1325.62,-610.37 1298.85,-597.61"/>
<polygon fill="black" stroke="black" points="1300.09,-594.32 1289.56,-593.18 1297.08,-600.64 1300.09,-594.32"/>
</g>
<!-- a -->
<g id="node35" class="node">
<title>a</title>
<ellipse fill="none" stroke="black" cx="1340.19" cy="-582" rx="27" ry="18"/>
<text text-anchor="middle" x="1340.19" y="-578.3" font-family="Times,serif" font-size="14.00">a</text>
</g>
<!-- dns&#45;&gt;a -->
<g id="edge34" class="edge">
<title>dns&#45;&gt;a</title>
<path fill="none" stroke="black" d="M1398.55,-636.81C1387.85,-626.94 1374.32,-614.47 1362.99,-604.02"/>
<polygon fill="black" stroke="black" points="1365.28,-601.37 1355.56,-597.17 1360.54,-606.52 1365.28,-601.37"/>
</g>
<!-- aaaa -->
<g id="node36" class="node">
<title>aaaa</title>
<ellipse fill="none" stroke="black" cx="1417.19" cy="-582" rx="32.49" ry="18"/>
<text text-anchor="middle" x="1417.19" y="-578.3" font-family="Times,serif" font-size="14.00">aaaa</text>
</g>
<!-- dns&#45;&gt;aaaa -->
<g id="edge35" class="edge">
<title>dns&#45;&gt;aaaa</title>
<path fill="none" stroke="black" d="M1417.19,-636.81C1417.19,-628.79 1417.19,-619.05 1417.19,-610.07"/>
<polygon fill="black" stroke="black" points="1420.69,-610.03 1417.19,-600.03 1413.69,-610.03 1420.69,-610.03"/>
</g>
<!-- ns -->
<g id="node37" class="node">
<title>ns</title>
<ellipse fill="none" stroke="black" cx="1494.19" cy="-582" rx="27" ry="18"/>
<text text-anchor="middle" x="1494.19" y="-578.3" font-family="Times,serif" font-size="14.00">ns</text>
</g>
<!-- dns&#45;&gt;ns -->
<g id="edge36" class="edge">
<title>dns&#45;&gt;ns</title>
<path fill="none" stroke="black" d="M1435.83,-636.81C1446.54,-626.94 1460.06,-614.47 1471.4,-604.02"/>
<polygon fill="black" stroke="black" points="1473.85,-606.52 1478.83,-597.17 1469.11,-601.37 1473.85,-606.52"/>
</g>
<!-- mx -->
<g id="node38" class="node">
<title>mx</title>
<ellipse fill="none" stroke="black" cx="1566.19" cy="-582" rx="27" ry="18"/>
<text text-anchor="middle" x="1566.19" y="-578.3" font-family="Times,serif" font-size="14.00">mx</text>
</g>
<!-- dns&#45;&gt;mx -->
<g id="edge37" class="edge">
<title>dns&#45;&gt;mx</title>
<path fill="none" stroke="black" d="M1444.52,-640.98C1470.26,-628.71 1508.76,-610.37 1535.54,-597.61"/>
<polygon fill="black" stroke="black" points="1537.3,-600.64 1544.83,-593.18 1534.29,-594.32 1537.3,-600.64"/>
</g>
<!-- dmarc -->
<g id="node39" class="node">
<title>dmarc</title>
<ellipse fill="none" stroke="black" cx="1651.19" cy="-582" rx="40.09" ry="18"/>
<text text-anchor="middle" x="1651.19" y="-578.3" font-family="Times,serif" font-size="14.00">dmarc</text>
</g>
<!-- dns&#45;&gt;dmarc -->
<g id="edge38" class="edge">
<title>dns&#45;&gt;dmarc</title>
<path fill="none" stroke="black" d="M1444.48,-640.43C1447.39,-639.19 1450.33,-638.02 1453.19,-637 1517.47,-614.1 1536.78,-619.42 1602.19,-600 1605.16,-599.12 1608.22,-598.17 1611.28,-597.18"/>
<polygon fill="black" stroke="black" points="1612.62,-600.42 1621.01,-593.95 1610.42,-593.78 1612.62,-600.42"/>
</g>
<!-- email&#45;&gt;hostname -->
<g id="edge40" class="edge">
<title>email&#45;&gt;hostname</title>
<path fill="none" stroke="black" d="M1173.86,-799.73C1180.51,-797.44 1187.58,-795.08 1194.19,-793 1222.39,-784.15 1232.06,-788.79 1258.19,-775 1264.82,-771.5 1271.36,-766.85 1277.25,-762.06"/>
<polygon fill="black" stroke="black" points="1279.54,-764.7 1284.84,-755.53 1274.97,-759.4 1279.54,-764.7"/>
</g>
<!-- country_name -->
<g id="node41" class="node">
<title>country_name</title>
<ellipse fill="none" stroke="black" cx="134.19" cy="-655" rx="76.09" ry="18"/>
<text text-anchor="middle" x="134.19" y="-651.3" font-family="Times,serif" font-size="14.00">country_name</text>
</g>
<!-- country_name&#45;&gt;country -->
<g id="edge41" class="edge">
<title>country_name&#45;&gt;country</title>
<path fill="none" stroke="black" d="M166.66,-631.84C179.76,-622.89 194.79,-612.63 207.68,-603.83"/>
<polygon fill="black" stroke="black" points="164.34,-629.18 158.05,-637.71 168.29,-634.96 164.34,-629.18"/>
<polygon fill="black" stroke="black" points="209.93,-606.53 216.22,-598 205.99,-600.75 209.93,-606.53"/>
</g>
<!-- phone -->
<g id="node42" class="node">
<title>phone</title>
<ellipse fill="none" stroke="black" stroke-dasharray="5,2" cx="1150.19" cy="-655" rx="38.99" ry="18"/>
<text text-anchor="middle" x="1150.19" y="-651.3" font-family="Times,serif" font-size="14.00">phone</text>
</g>
<!-- phone&#45;&gt;country -->
<g id="edge43" class="edge">
<title>phone&#45;&gt;country</title>
<path fill="none" stroke="black" d="M1121.88,-642.51C1115.5,-640.33 1108.69,-638.33 1102.19,-637 946.85,-605.28 460.67,-589.17 294.52,-584.48"/>
<polygon fill="black" stroke="black" points="294.14,-580.97 284.04,-584.19 293.94,-587.96 294.14,-580.97"/>
</g>
<!-- tld&#45;&gt;country -->
<g id="edge46" class="edge">
<title>tld&#45;&gt;country</title>
<path fill="none" stroke="black" stroke-dasharray="5,2" d="M1250.38,-647.64C1235.37,-644.02 1215.79,-639.68 1198.19,-637 1099.42,-621.97 1073.89,-624.6 974.19,-618 720.56,-601.22 417.23,-589.4 294.17,-584.95"/>
<polygon fill="black" stroke="black" points="294,-581.44 283.88,-584.58 293.74,-588.44 294,-581.44"/>
</g>
<!-- formatted_time -->
<g id="node45" class="node">
<title>formatted_time</title>
<ellipse fill="none" stroke="black" cx="1080.19" cy="-41" rx="82.59" ry="18"/>
<text text-anchor="middle" x="1080.19" y="-37.3" font-family="Times,serif" font-size="14.00">formatted_time</text>
</g>
<!-- timestamp&#45;&gt;formatted_time -->
<g id="edge47" class="edge">
<title>timestamp&#45;&gt;formatted_time</title>
<path fill="none" stroke="black" d="M1277.18,-109.9C1237.81,-96.33 1176.02,-75.03 1132.16,-59.91"/>
<polygon fill="black" stroke="black" points="1133.12,-56.54 1122.53,-56.59 1130.84,-63.16 1133.12,-56.54"/>
<text text-anchor="middle" x="1220.19" y="-80" font-family="Times,serif" font-size="10.00">fmt</text>
</g>
<!-- isotimestamp -->
<g id="node46" class="node">
<title>isotimestamp</title>
<ellipse fill="none" stroke="black" cx="1254.19" cy="-41" rx="73.39" ry="18"/>
<text text-anchor="middle" x="1254.19" y="-37.3" font-family="Times,serif" font-size="14.00">isotimestamp</text>
</g>
<!-- timestamp&#45;&gt;isotimestamp -->
<g id="edge48" class="edge">
<title>timestamp&#45;&gt;isotimestamp</title>
<path fill="none" stroke="black" d="M1302.55,-106.22C1294.05,-94.92 1282.68,-79.83 1273.1,-67.11"/>
<polygon fill="black" stroke="black" points="1275.63,-64.64 1266.82,-58.76 1270.04,-68.86 1275.63,-64.64"/>
</g>
<!-- date -->
<g id="node47" class="node">
<title>date</title>
<ellipse fill="none" stroke="black" cx="1377.19" cy="-41" rx="31.4" ry="18"/>
<text text-anchor="middle" x="1377.19" y="-37.3" font-family="Times,serif" font-size="14.00">date</text>
</g>
<!-- timestamp&#45;&gt;date -->
<g id="edge49" class="edge">
<title>timestamp&#45;&gt;date</title>
<path fill="none" stroke="black" d="M1328.04,-106.22C1337,-94.51 1349.09,-78.72 1359.03,-65.73"/>
<polygon fill="black" stroke="black" points="1361.91,-67.73 1365.21,-57.66 1356.35,-63.48 1361.91,-67.73"/>
</g>
<!-- time -->
<g id="node48" class="node">
<title>time</title>
<ellipse fill="none" stroke="black" cx="1458.19" cy="-41" rx="31.7" ry="18"/>
<text text-anchor="middle" x="1458.19" y="-37.3" font-family="Times,serif" font-size="14.00">time</text>
</g>
<!-- timestamp&#45;&gt;time -->
<g id="edge50" class="edge">
<title>timestamp&#45;&gt;time</title>
<path fill="none" stroke="black" d="M1342.09,-107.76C1366.45,-93.97 1402.3,-73.66 1427.71,-59.27"/>
<polygon fill="black" stroke="black" points="1429.58,-62.23 1436.56,-54.26 1426.13,-56.14 1429.58,-62.23"/>
</g>
<!-- unit -->
<g id="node49" class="node">
<title>unit</title>
<ellipse fill="none" stroke="black" stroke-dasharray="5,2" cx="1317.19" cy="-436" rx="29.5" ry="18"/>
<text text-anchor="middle" x="1317.19" y="-432.3" font-family="Times,serif" font-size="14.00">unit</text>
</g>
<!-- unit&#45;&gt;plaintext -->
<g id="edge51" class="edge">
<title>unit&#45;&gt;plaintext</title>
<path fill="none" stroke="black" d="M1301.29,-410.22C1295.01,-400.44 1287.8,-389.21 1281.48,-379.37"/>
<polygon fill="black" stroke="black" points="1298.57,-412.47 1306.92,-419 1304.46,-408.69 1298.57,-412.47"/>
<polygon fill="black" stroke="black" points="1284.33,-377.33 1275.98,-370.81 1278.44,-381.11 1284.33,-377.33"/>
<text text-anchor="middle" x="1304.69" y="-392" font-family="Times,serif" font-size="10.00">unit</text>
</g>
<!-- http_status -->
<g id="node51" class="node">
<title>http_status</title>
<ellipse fill="none" stroke="black" cx="839.19" cy="-655" rx="63.89" ry="18"/>
<text text-anchor="middle" x="839.19" y="-651.3" font-family="Times,serif" font-size="14.00">http_status</text>
</g>
<!-- web&#45;&gt;http_status -->
<g id="edge53" class="edge">
<title>web&#45;&gt;http_status</title>
<path fill="none" stroke="black" d="M677.27,-725.39C708.29,-712.1 759.52,-690.15 796.04,-674.49"/>
<polygon fill="black" stroke="black" points="797.65,-677.61 805.46,-670.46 794.89,-671.18 797.65,-677.61"/>
</g>
<!-- text -->
<g id="node52" class="node">
<title>text</title>
<ellipse fill="none" stroke="black" cx="645.19" cy="-655" rx="29.5" ry="18"/>
<text text-anchor="middle" x="645.19" y="-651.3" font-family="Times,serif" font-size="14.00">text</text>
</g>
<!-- web&#45;&gt;text -->
<g id="edge54" class="edge">
<title>web&#45;&gt;text</title>
<path fill="none" stroke="black" d="M649.13,-719.82C648.48,-709.19 647.62,-695.31 646.87,-683.2"/>
<polygon fill="black" stroke="black" points="650.36,-682.92 646.25,-673.15 643.38,-683.35 650.36,-682.92"/>
</g>
<!-- html -->
<g id="node53" class="node">
<title>html</title>
<ellipse fill="none" stroke="black" cx="725.19" cy="-655" rx="32.49" ry="18"/>
<text text-anchor="middle" x="725.19" y="-651.3" font-family="Times,serif" font-size="14.00">html</text>
</g>
<!-- web&#45;&gt;html -->
<g id="edge55" class="edge">
<title>web&#45;&gt;html</title>
<path fill="none" stroke="black" d="M666.1,-719.82C677.14,-707.9 691.96,-691.89 704,-678.89"/>
<polygon fill="black" stroke="black" points="706.86,-680.96 711.08,-671.24 701.72,-676.2 706.86,-680.96"/>
</g>
<!-- redirects -->
<g id="node54" class="node">
<title>redirects</title>
<ellipse fill="none" stroke="black" cx="319.19" cy="-655" rx="52.79" ry="18"/>
<text text-anchor="middle" x="319.19" y="-651.3" font-family="Times,serif" font-size="14.00">redirects</text>
</g>
<!-- web&#45;&gt;redirects -->
<g id="edge56" class="edge">
<title>web&#45;&gt;redirects</title>
<path fill="none" stroke="black" d="M623.01,-730.85C574.38,-719.79 469.32,-695.56 381.19,-673 377.06,-671.94 372.77,-670.82 368.48,-669.68"/>
<polygon fill="black" stroke="black" points="369.06,-666.21 358.5,-666.99 367.25,-672.97 369.06,-666.21"/>
</g>
<!-- x_frame_options -->
<g id="node55" class="node">
<title>x_frame_options</title>
<ellipse fill="none" stroke="black" cx="1007.19" cy="-655" rx="86.38" ry="18"/>
<text text-anchor="middle" x="1007.19" y="-651.3" font-family="Times,serif" font-size="14.00">x_frame_options</text>
</g>
<!-- web&#45;&gt;x_frame_options -->
<g id="edge57" class="edge">
<title>web&#45;&gt;x_frame_options</title>
<path fill="none" stroke="black" d="M677.32,-730.85C733.11,-718.19 862.09,-688.92 941.23,-670.97"/>
<polygon fill="black" stroke="black" points="942.12,-674.35 951.1,-668.73 940.57,-667.53 942.12,-674.35"/>
</g>
<!-- csp -->
<g id="node56" class="node">
<title>csp</title>
<ellipse fill="none" stroke="black" cx="417.19" cy="-655" rx="27" ry="18"/>
<text text-anchor="middle" x="417.19" y="-651.3" font-family="Times,serif" font-size="14.00">csp</text>
</g>
<!-- web&#45;&gt;csp -->
<g id="edge58" class="edge">
<title>web&#45;&gt;csp</title>
<path fill="none" stroke="black" d="M623.04,-729.37C584.69,-718.32 512.69,-696.6 453.19,-673 451.36,-672.27 449.49,-671.5 447.62,-670.69"/>
<polygon fill="black" stroke="black" points="448.87,-667.42 438.32,-666.52 446.01,-673.81 448.87,-667.42"/>
</g>
<!-- form_names -->
<g id="node57" class="node">
<title>form_names</title>
<ellipse fill="none" stroke="black" cx="530.19" cy="-655" rx="67.69" ry="18"/>
<text text-anchor="middle" x="530.19" y="-651.3" font-family="Times,serif" font-size="14.00">form_names</text>
</g>
<!-- web&#45;&gt;form_names -->
<g id="edge59" class="edge">
<title>web&#45;&gt;form_names</title>
<path fill="none" stroke="black" d="M624.74,-719.82C606.53,-707.52 581.86,-690.87 562.29,-677.66"/>
<polygon fill="black" stroke="black" points="564.22,-674.75 553.97,-672.05 560.3,-680.55 564.22,-674.75"/>
</g>
<!-- redirects&#45;&gt;url -->
<g id="edge60" class="edge">
<title>redirects&#45;&gt;url</title>
<path fill="none" stroke="black" stroke-dasharray="5,2" d="M350.73,-669.49C418.9,-698.65 579.32,-767.28 647.57,-796.47"/>
<polygon fill="black" stroke="black" points="646.38,-799.77 656.95,-800.48 649.13,-793.33 646.38,-799.77"/>
</g>
<!-- ports -->
<g id="node59" class="node">
<title>ports</title>
<ellipse fill="none" stroke="black" cx="1816.19" cy="-582" rx="35.19" ry="18"/>
<text text-anchor="middle" x="1816.19" y="-578.3" font-family="Times,serif" font-size="14.00">ports</text>
</g>
<!-- nmap&#45;&gt;ports -->
<g id="edge62" class="edge">
<title>nmap&#45;&gt;ports</title>
<path fill="none" stroke="black" d="M1518.2,-650.34C1569.32,-643.28 1680.9,-626.15 1772.19,-600 1774.83,-599.24 1777.54,-598.39 1780.24,-597.49"/>
<polygon fill="black" stroke="black" points="1781.69,-600.69 1789.93,-594.03 1779.34,-594.1 1781.69,-600.69"/>
</g>
<!-- ports&#45;&gt;port -->
<g id="edge64" class="edge">
<title>ports&#45;&gt;port</title>
<path fill="none" stroke="black" stroke-dasharray="5,2" d="M1790.51,-569.73C1784.59,-567.51 1778.25,-565.43 1772.19,-564 1582.17,-519.01 1347.33,-511.36 1254.1,-510.17"/>
<polygon fill="black" stroke="black" points="1254.01,-506.67 1243.97,-510.06 1253.93,-513.66 1254.01,-506.67"/>
</g>
<!-- path -->
<g id="node60" class="node">
<title>path</title>
<ellipse fill="none" stroke="black" stroke-dasharray="5,2" cx="1532.19" cy="-1103" rx="31.7" ry="18"/>
<text text-anchor="middle" x="1532.19" y="-1099.3" font-family="Times,serif" font-size="14.00">path</text>
</g>
</g>
</svg>
