<?xml version="1.0" encoding="UTF-8" standalone="no"?>
<!DOCTYPE svg PUBLIC "-//W3C//DTD SVG 1.1//EN"
 "http://www.w3.org/Graphics/SVG/1.1/DTD/svg11.dtd">
<!-- Generated by graphviz version 2.40.1 (20161225.0304)
 -->
<!-- Title: %3 Pages: 1 -->
<svg width="1414pt" height="1056pt"
     viewBox="0.00 0.00 1413.95 1056.00" xmlns="http://www.w3.org/2000/svg">
<g id="graph0" class="graph" transform="scale(1 1) rotate(0) translate(4 1052)">
<title>%3</title>
<polygon fill="#ffffff" stroke="transparent" points="-4,4 -4,-1052 1409.9464,-1052 1409.9464,4 -4,4"/>
<text text-anchor="middle" x="702.9732" y="-7.8" font-family="Times,serif" font-size="14.00" fill="#000000">Convey field types (dashed nodes = identifiable automatically, dashed edges = field identity)</text>
<!-- source_ip -->
<g id="node1" class="node">
<title>source_ip</title>
<ellipse fill="none" stroke="#000000" stroke-dasharray="5,2" cx="300" cy="-1030" rx="44.6926" ry="18"/>
<text text-anchor="middle" x="300" y="-1026.3" font-family="Times,serif" font-size="14.00" fill="#000000">source_ip</text>
</g>
<!-- ip -->
<g id="node2" class="node">
<title>ip</title>
<ellipse fill="none" stroke="#000000" stroke-dasharray="5,2" cx="479" cy="-957" rx="27" ry="18"/>
<text text-anchor="middle" x="479" y="-953.3" font-family="Times,serif" font-size="14.00" fill="#000000">ip</text>
</g>
<!-- source_ip&#45;&gt;ip -->
<g id="edge1" class="edge">
<title>source_ip&#45;&gt;ip</title>
<path fill="none" stroke="#000000" stroke-dasharray="5,2" d="M331.5896,-1017.1171C363.7882,-1003.9858 413.5113,-983.7077 446.1562,-970.3944"/>
<polygon fill="#000000" stroke="#000000" points="447.7629,-973.5191 455.7007,-966.5019 445.1194,-967.0374 447.7629,-973.5191"/>
</g>
<!-- url -->
<g id="node6" class="node">
<title>url</title>
<ellipse fill="none" stroke="#000000" stroke-dasharray="5,2" cx="871" cy="-884" rx="27" ry="18"/>
<text text-anchor="middle" x="871" y="-880.3" font-family="Times,serif" font-size="14.00" fill="#000000">url</text>
</g>
<!-- ip&#45;&gt;url -->
<g id="edge28" class="edge">
<title>ip&#45;&gt;url</title>
<path fill="none" stroke="#000000" d="M506.1005,-954.5836C554.0369,-950.0228 656.7701,-938.9595 742,-921 774.605,-914.1295 811.0404,-903.388 836.8506,-895.2448"/>
<polygon fill="#000000" stroke="#000000" points="838.0711,-898.5293 846.5335,-892.1544 835.9427,-891.8607 838.0711,-898.5293"/>
</g>
<!-- whois -->
<g id="node8" class="node">
<title>whois</title>
<polygon fill="none" stroke="#000000" points="506,-902 452,-902 452,-866 506,-866 506,-902"/>
<text text-anchor="middle" x="479" y="-880.3" font-family="Times,serif" font-size="14.00" fill="#000000">whois</text>
</g>
<!-- ip&#45;&gt;whois -->
<g id="edge7" class="edge">
<title>ip&#45;&gt;whois</title>
<path fill="none" stroke="#000000" d="M479,-938.9551C479,-930.8828 479,-921.1764 479,-912.1817"/>
<polygon fill="#000000" stroke="#000000" points="482.5001,-912.0903 479,-902.0904 475.5001,-912.0904 482.5001,-912.0903"/>
</g>
<!-- nmap -->
<g id="node55" class="node">
<title>nmap</title>
<polygon fill="none" stroke="#000000" points="127,-600 73,-600 73,-564 127,-564 127,-600"/>
<text text-anchor="middle" x="100" y="-578.3" font-family="Times,serif" font-size="14.00" fill="#000000">nmap</text>
</g>
<!-- ip&#45;&gt;nmap -->
<g id="edge59" class="edge">
<title>ip&#45;&gt;nmap</title>
<path fill="none" stroke="#000000" d="M451.8745,-955.7523C350.545,-950.7363 0,-930.0557 0,-884 0,-884 0,-884 0,-665 0,-630.844 34.97,-608.0595 63.5507,-595.1417"/>
<polygon fill="#000000" stroke="#000000" points="65.1138,-598.2801 72.9386,-591.1369 62.3672,-591.8414 65.1138,-598.2801"/>
</g>
<!-- destination_ip -->
<g id="node3" class="node">
<title>destination_ip</title>
<ellipse fill="none" stroke="#000000" stroke-dasharray="5,2" cx="423" cy="-1030" rx="60.3893" ry="18"/>
<text text-anchor="middle" x="423" y="-1026.3" font-family="Times,serif" font-size="14.00" fill="#000000">destination_ip</text>
</g>
<!-- destination_ip&#45;&gt;ip -->
<g id="edge2" class="edge">
<title>destination_ip&#45;&gt;ip</title>
<path fill="none" stroke="#000000" stroke-dasharray="5,2" d="M436.556,-1012.3287C443.6369,-1003.0983 452.415,-991.6555 460.1474,-981.5758"/>
<polygon fill="#000000" stroke="#000000" points="463.0268,-983.5725 466.3365,-973.5078 457.4728,-979.3118 463.0268,-983.5725"/>
</g>
<!-- any_ip -->
<g id="node4" class="node">
<title>any_ip</title>
<ellipse fill="none" stroke="#000000" stroke-dasharray="5,2" cx="536" cy="-1030" rx="34.394" ry="18"/>
<text text-anchor="middle" x="536" y="-1026.3" font-family="Times,serif" font-size="14.00" fill="#000000">any_ip</text>
</g>
<!-- any_ip&#45;&gt;ip -->
<g id="edge3" class="edge">
<title>any_ip&#45;&gt;ip</title>
<path fill="none" stroke="#000000" d="M522.7798,-1013.0688C515.358,-1003.5638 505.9735,-991.545 497.7983,-981.075"/>
<polygon fill="#000000" stroke="#000000" points="500.4749,-978.8158 491.5618,-973.0879 494.9575,-983.1239 500.4749,-978.8158"/>
</g>
<!-- port_ip -->
<g id="node5" class="node">
<title>port_ip</title>
<ellipse fill="none" stroke="#000000" stroke-dasharray="5,2" cx="625" cy="-1030" rx="36.2938" ry="18"/>
<text text-anchor="middle" x="625" y="-1026.3" font-family="Times,serif" font-size="14.00" fill="#000000">port_ip</text>
</g>
<!-- port_ip&#45;&gt;ip -->
<g id="edge4" class="edge">
<title>port_ip&#45;&gt;ip</title>
<path fill="none" stroke="#000000" d="M599.2342,-1017.1171C574.2993,-1004.6497 536.4795,-985.7397 509.9303,-972.4652"/>
<polygon fill="#000000" stroke="#000000" points="511.2133,-969.1935 500.7037,-967.8519 508.0827,-975.4545 511.2133,-969.1935"/>
</g>
<!-- hostname -->
<g id="node7" class="node">
<title>hostname</title>
<ellipse fill="none" stroke="#000000" stroke-dasharray="5,2" cx="551" cy="-665" rx="44.6926" ry="18"/>
<text text-anchor="middle" x="551" y="-661.3" font-family="Times,serif" font-size="14.00" fill="#000000">hostname</text>
</g>
<!-- url&#45;&gt;hostname -->
<g id="edge5" class="edge">
<title>url&#45;&gt;hostname</title>
<path fill="none" stroke="#000000" d="M856.1954,-857.9937C834.1986,-821.6926 789.4578,-756.2228 734,-720 694.4804,-694.1874 642.3594,-680.0778 603.853,-672.636"/>
<polygon fill="#000000" stroke="#000000" points="853.4212,-860.1766 861.5389,-866.985 859.4387,-856.6004 853.4212,-860.1766"/>
<polygon fill="#000000" stroke="#000000" points="604.3436,-669.1676 593.8748,-670.7972 603.0749,-676.0517 604.3436,-669.1676"/>
</g>
<!-- web -->
<g id="node30" class="node">
<title>web</title>
<polygon fill="none" stroke="#000000" points="1074,-829 1020,-829 1020,-793 1074,-793 1074,-829"/>
<text text-anchor="middle" x="1047" y="-807.3" font-family="Times,serif" font-size="14.00" fill="#000000">web</text>
</g>
<!-- url&#45;&gt;web -->
<g id="edge29" class="edge">
<title>url&#45;&gt;web</title>
<path fill="none" stroke="#000000" d="M894.0089,-874.4565C923.6481,-862.163 975.5113,-840.6516 1010.5436,-826.1211"/>
<polygon fill="#000000" stroke="#000000" points="1012.0498,-829.2856 1019.9458,-822.2213 1009.3679,-822.8197 1012.0498,-829.2856"/>
</g>
<!-- hostname&#45;&gt;ip -->
<g id="edge6" class="edge">
<title>hostname&#45;&gt;ip</title>
<path fill="none" stroke="#000000" d="M505.9243,-666.706C380.7428,-672.0396 38,-690.9398 38,-738 38,-884 38,-884 38,-884 38,-924.7963 335.5416,-947.8254 441.8236,-954.7501"/>
<polygon fill="#000000" stroke="#000000" points="441.8741,-958.2604 452.0773,-955.4066 442.3214,-951.2747 441.8741,-958.2604"/>
</g>
<!-- dns -->
<g id="node37" class="node">
<title>dns</title>
<polygon fill="none" stroke="#000000" points="554,-600 500,-600 500,-564 554,-564 554,-600"/>
<text text-anchor="middle" x="527" y="-578.3" font-family="Times,serif" font-size="14.00" fill="#000000">dns</text>
</g>
<!-- hostname&#45;&gt;dns -->
<g id="edge36" class="edge">
<title>hostname&#45;&gt;dns</title>
<path fill="none" stroke="#000000" d="M545.7924,-646.9902C542.6689,-636.1883 538.63,-622.2204 535.0974,-610.0036"/>
<polygon fill="#000000" stroke="#000000" points="538.4205,-608.8955 532.2804,-600.2612 531.6959,-610.8399 538.4205,-608.8955"/>
</g>
<!-- tld -->
<g id="node48" class="node">
<title>tld</title>
<ellipse fill="none" stroke="#000000" cx="681" cy="-582" rx="27" ry="18"/>
<text text-anchor="middle" x="681" y="-578.3" font-family="Times,serif" font-size="14.00" fill="#000000">tld</text>
</g>
<!-- hostname&#45;&gt;tld -->
<g id="edge48" class="edge">
<title>hostname&#45;&gt;tld</title>
<path fill="none" stroke="#000000" d="M575.1473,-649.5829C597.0575,-635.5941 629.3822,-614.956 652.5406,-600.1702"/>
<polygon fill="#000000" stroke="#000000" points="654.6875,-602.9521 661.2326,-594.6207 650.9205,-597.0521 654.6875,-602.9521"/>
<text text-anchor="middle" x="673" y="-621" font-family="Times,serif" font-size="10.00" fill="#000000">choose all,ccTLD,gTLD</text>
</g>
<!-- hostname&#45;&gt;nmap -->
<g id="edge57" class="edge">
<title>hostname&#45;&gt;nmap</title>
<path fill="none" stroke="#000000" d="M510.1813,-657.4879C423.2632,-641.4919 221.0183,-604.2717 137.3079,-588.866"/>
<polygon fill="#000000" stroke="#000000" points="137.7041,-585.3802 127.2358,-587.0124 136.4371,-592.2646 137.7041,-585.3802"/>
</g>
<!-- prefix -->
<g id="node10" class="node">
<title>prefix</title>
<ellipse fill="none" stroke="#000000" cx="668" cy="-811" rx="31.6951" ry="18"/>
<text text-anchor="middle" x="668" y="-807.3" font-family="Times,serif" font-size="14.00" fill="#000000">prefix</text>
</g>
<!-- whois&#45;&gt;prefix -->
<g id="edge9" class="edge">
<title>whois&#45;&gt;prefix</title>
<path fill="none" stroke="#000000" d="M506.1876,-874.43C536.0128,-863.8079 585.2049,-845.924 627,-829 629.1887,-828.1137 631.4352,-827.1844 633.695,-826.2346"/>
<polygon fill="#000000" stroke="#000000" points="635.1305,-829.4274 642.9455,-822.2737 632.3751,-822.9925 635.1305,-829.4274"/>
</g>
<!-- asn -->
<g id="node11" class="node">
<title>asn</title>
<ellipse fill="none" stroke="#000000" stroke-dasharray="5,2" cx="479" cy="-811" rx="27" ry="18"/>
<text text-anchor="middle" x="479" y="-807.3" font-family="Times,serif" font-size="14.00" fill="#000000">asn</text>
</g>
<!-- whois&#45;&gt;asn -->
<g id="edge10" class="edge">
<title>whois&#45;&gt;asn</title>
<path fill="none" stroke="#000000" d="M479,-865.9551C479,-857.8828 479,-848.1764 479,-839.1817"/>
<polygon fill="#000000" stroke="#000000" points="482.5001,-839.0903 479,-829.0904 475.5001,-839.0904 482.5001,-839.0903"/>
</g>
<!-- abusemail -->
<g id="node12" class="node">
<title>abusemail</title>
<ellipse fill="none" stroke="#000000" cx="571" cy="-811" rx="46.5926" ry="18"/>
<text text-anchor="middle" x="571" y="-807.3" font-family="Times,serif" font-size="14.00" fill="#000000">abusemail</text>
</g>
<!-- whois&#45;&gt;abusemail -->
<g id="edge11" class="edge">
<title>whois&#45;&gt;abusemail</title>
<path fill="none" stroke="#000000" d="M501.7416,-865.9551C513.9634,-856.2573 529.1578,-844.2009 542.1981,-833.8537"/>
<polygon fill="#000000" stroke="#000000" points="544.7455,-836.3004 550.4035,-827.3429 540.3944,-830.8169 544.7455,-836.3004"/>
</g>
<!-- country -->
<g id="node13" class="node">
<title>country</title>
<ellipse fill="none" stroke="#000000" cx="828" cy="-509" rx="37.8943" ry="18"/>
<text text-anchor="middle" x="828" y="-505.3" font-family="Times,serif" font-size="14.00" fill="#000000">country</text>
</g>
<!-- whois&#45;&gt;country -->
<g id="edge12" class="edge">
<title>whois&#45;&gt;country</title>
<path fill="none" stroke="#000000" d="M506.0003,-882.876C577.445,-879.1712 766,-864.3409 766,-811 766,-811 766,-811 766,-582 766,-560.7607 781.4357,-542.5423 796.9035,-529.6179"/>
<polygon fill="#000000" stroke="#000000" points="799.1923,-532.2713 804.9135,-523.354 794.8801,-526.7571 799.1923,-532.2713"/>
</g>
<!-- netname -->
<g id="node14" class="node">
<title>netname</title>
<ellipse fill="none" stroke="#000000" cx="107" cy="-811" rx="40.8928" ry="18"/>
<text text-anchor="middle" x="107" y="-807.3" font-family="Times,serif" font-size="14.00" fill="#000000">netname</text>
</g>
<!-- whois&#45;&gt;netname -->
<g id="edge13" class="edge">
<title>whois&#45;&gt;netname</title>
<path fill="none" stroke="#000000" d="M451.942,-881.015C396.1389,-874.5023 264.4953,-857.293 157,-829 153.8327,-828.1664 150.5823,-827.2178 147.3328,-826.2022"/>
<polygon fill="#000000" stroke="#000000" points="148.2642,-822.8237 137.6709,-823.0022 146.0634,-829.4688 148.2642,-822.8237"/>
</g>
<!-- csirt_contact -->
<g id="node15" class="node">
<title>csirt_contact</title>
<ellipse fill="none" stroke="#000000" cx="222" cy="-811" rx="55.7903" ry="18"/>
<text text-anchor="middle" x="222" y="-807.3" font-family="Times,serif" font-size="14.00" fill="#000000">csirt_contact</text>
</g>
<!-- whois&#45;&gt;csirt_contact -->
<g id="edge14" class="edge">
<title>whois&#45;&gt;csirt_contact</title>
<path fill="none" stroke="#000000" d="M451.9822,-876.3257C409.8831,-864.3676 327.8846,-841.0762 274.0378,-825.7812"/>
<polygon fill="#000000" stroke="#000000" points="274.9028,-822.3885 264.3269,-823.0228 272.9901,-829.1221 274.9028,-822.3885"/>
</g>
<!-- incident_contact -->
<g id="node16" class="node">
<title>incident_contact</title>
<ellipse fill="none" stroke="#000000" cx="365" cy="-811" rx="68.7879" ry="18"/>
<text text-anchor="middle" x="365" y="-807.3" font-family="Times,serif" font-size="14.00" fill="#000000">incident_contact</text>
</g>
<!-- whois&#45;&gt;incident_contact -->
<g id="edge15" class="edge">
<title>whois&#45;&gt;incident_contact</title>
<path fill="none" stroke="#000000" d="M451.9836,-866.7C436.2843,-856.6469 416.3427,-843.8773 399.5149,-833.1016"/>
<polygon fill="#000000" stroke="#000000" points="401.3466,-830.1185 391.0378,-827.6733 397.5717,-836.0135 401.3466,-830.1185"/>
</g>
<!-- cidr -->
<g id="node9" class="node">
<title>cidr</title>
<ellipse fill="none" stroke="#000000" stroke-dasharray="5,2" cx="698" cy="-738" rx="27" ry="18"/>
<text text-anchor="middle" x="698" y="-734.3" font-family="Times,serif" font-size="14.00" fill="#000000">cidr</text>
</g>
<!-- cidr&#45;&gt;ip -->
<g id="edge8" class="edge">
<title>cidr&#45;&gt;ip</title>
<path fill="none" stroke="#000000" d="M706.0869,-755.3897C713.7884,-774.7251 722.3882,-806.2274 709,-829 666.79,-900.7972 568.1071,-935.2413 514.7546,-949.1279"/>
<polygon fill="#000000" stroke="#000000" points="513.8823,-945.7381 505.0311,-951.5611 515.5817,-952.5287 513.8823,-945.7381"/>
</g>
<!-- prefix&#45;&gt;cidr -->
<g id="edge49" class="edge">
<title>prefix&#45;&gt;cidr</title>
<path fill="none" stroke="#000000" d="M675.2622,-793.3287C678.7629,-784.8103 683.0379,-774.4078 686.9324,-764.9312"/>
<polygon fill="#000000" stroke="#000000" points="690.2408,-766.0884 690.8047,-755.5085 683.7662,-763.4275 690.2408,-766.0884"/>
</g>
<!-- email -->
<g id="node45" class="node">
<title>email</title>
<ellipse fill="none" stroke="#000000" stroke-dasharray="5,2" cx="558" cy="-738" rx="30.5947" ry="18"/>
<text text-anchor="middle" x="558" y="-734.3" font-family="Times,serif" font-size="14.00" fill="#000000">email</text>
</g>
<!-- abusemail&#45;&gt;email -->
<g id="edge44" class="edge">
<title>abusemail&#45;&gt;email</title>
<path fill="none" stroke="#000000" stroke-dasharray="5,2" d="M567.7865,-792.9551C566.349,-784.8828 564.6205,-775.1764 563.0187,-766.1817"/>
<polygon fill="#000000" stroke="#000000" points="566.4207,-765.3218 561.2216,-756.0904 559.5291,-766.5491 566.4207,-765.3218"/>
</g>
<!-- plaintext -->
<g id="node17" class="node">
<title>plaintext</title>
<ellipse fill="none" stroke="#000000" stroke-dasharray="5,2" cx="666" cy="-270" rx="41.6928" ry="18"/>
<text text-anchor="middle" x="666" y="-266.3" font-family="Times,serif" font-size="14.00" fill="#000000">plaintext</text>
</g>
<!-- bytes -->
<g id="node18" class="node">
<title>bytes</title>
<ellipse fill="none" stroke="#000000" cx="620" cy="-197" rx="29.4969" ry="18"/>
<text text-anchor="middle" x="620" y="-193.3" font-family="Times,serif" font-size="14.00" fill="#000000">bytes</text>
</g>
<!-- plaintext&#45;&gt;bytes -->
<g id="edge16" class="edge">
<title>plaintext&#45;&gt;bytes</title>
<path fill="none" stroke="#000000" d="M649.3972,-243.6521C645.1176,-236.8606 640.517,-229.5596 636.2554,-222.7965"/>
<polygon fill="#000000" stroke="#000000" points="646.5723,-245.7343 654.8647,-252.3287 652.4946,-242.0024 646.5723,-245.7343"/>
<polygon fill="#000000" stroke="#000000" points="639.0084,-220.6003 630.716,-214.0059 633.0861,-224.3322 639.0084,-220.6003"/>
</g>
<!-- custom -->
<g id="node22" class="node">
<title>custom</title>
<polygon fill="none" stroke="#000000" points="845,-215 789,-215 789,-179 845,-179 845,-215"/>
<text text-anchor="middle" x="817" y="-193.3" font-family="Times,serif" font-size="14.00" fill="#000000">custom</text>
</g>
<!-- plaintext&#45;&gt;custom -->
<g id="edge20" class="edge">
<title>plaintext&#45;&gt;custom</title>
<path fill="none" stroke="#000000" d="M694.0481,-256.4403C718.1276,-244.7992 753.0367,-227.9227 779.5103,-215.1242"/>
<polygon fill="#000000" stroke="#000000" points="781.3666,-218.1143 788.8464,-210.6107 778.3199,-211.8122 781.3666,-218.1143"/>
</g>
<!-- base64 -->
<g id="node19" class="node">
<title>base64</title>
<ellipse fill="none" stroke="#000000" stroke-dasharray="5,2" cx="435" cy="-114" rx="35.194" ry="18"/>
<text text-anchor="middle" x="435" y="-110.3" font-family="Times,serif" font-size="14.00" fill="#000000">base64</text>
</g>
<!-- bytes&#45;&gt;base64 -->
<g id="edge17" class="edge">
<title>bytes&#45;&gt;base64</title>
<path fill="none" stroke="#000000" d="M586.674,-182.0483C554.0961,-167.4323 504.6398,-145.2438 471.1326,-130.2108"/>
<polygon fill="#000000" stroke="#000000" points="585.6367,-185.419 596.1932,-186.3191 588.5021,-179.0323 585.6367,-185.419"/>
<polygon fill="#000000" stroke="#000000" points="472.2642,-126.8825 461.7076,-125.9823 469.3988,-133.2691 472.2642,-126.8825"/>
</g>
<!-- quoted_printable -->
<g id="node20" class="node">
<title>quoted_printable</title>
<ellipse fill="none" stroke="#000000" stroke-dasharray="5,2" cx="558" cy="-114" rx="70.3881" ry="18"/>
<text text-anchor="middle" x="558" y="-110.3" font-family="Times,serif" font-size="14.00" fill="#000000">quoted_printable</text>
</g>
<!-- bytes&#45;&gt;quoted_printable -->
<g id="edge18" class="edge">
<title>bytes&#45;&gt;quoted_printable</title>
<path fill="none" stroke="#000000" d="M601.6868,-172.484C594.0698,-162.287 585.2177,-150.4366 577.4814,-140.08"/>
<polygon fill="#000000" stroke="#000000" points="598.9622,-174.6849 607.7508,-180.6019 604.5703,-170.4957 598.9622,-174.6849"/>
<polygon fill="#000000" stroke="#000000" points="580.0856,-137.7178 571.297,-131.8008 574.4775,-141.907 580.0856,-137.7178"/>
</g>
<!-- charset -->
<g id="node26" class="node">
<title>charset</title>
<ellipse fill="none" stroke="#000000" cx="682" cy="-114" rx="35.9954" ry="18"/>
<text text-anchor="middle" x="682" y="-110.3" font-family="Times,serif" font-size="14.00" fill="#000000">charset</text>
</g>
<!-- bytes&#45;&gt;charset -->
<g id="edge24" class="edge">
<title>bytes&#45;&gt;charset</title>
<path fill="none" stroke="#000000" d="M632.2492,-180.6019C641.0498,-168.8205 653.0798,-152.7158 663.1057,-139.294"/>
<polygon fill="#000000" stroke="#000000" points="666.1701,-141.0401 669.3506,-130.9339 660.5619,-136.8509 666.1701,-141.0401"/>
<text text-anchor="middle" x="673.5" y="-153" font-family="Times,serif" font-size="10.00" fill="#000000">encoding</text>
</g>
<!-- urlencode -->
<g id="node21" class="node">
<title>urlencode</title>
<ellipse fill="none" stroke="#000000" stroke-dasharray="5,2" cx="666" cy="-353" rx="45.4919" ry="18"/>
<text text-anchor="middle" x="666" y="-349.3" font-family="Times,serif" font-size="14.00" fill="#000000">urlencode</text>
</g>
<!-- urlencode&#45;&gt;plaintext -->
<g id="edge19" class="edge">
<title>urlencode&#45;&gt;plaintext</title>
<path fill="none" stroke="#000000" d="M666,-324.9137C666,-316.4042 666,-307.0515 666,-298.5142"/>
<polygon fill="#000000" stroke="#000000" points="662.5001,-324.9902 666,-334.9902 669.5001,-324.9903 662.5001,-324.9902"/>
<polygon fill="#000000" stroke="#000000" points="669.5001,-298.2612 666,-288.2612 662.5001,-298.2613 669.5001,-298.2612"/>
</g>
<!-- external -->
<g id="node23" class="node">
<title>external</title>
<ellipse fill="none" stroke="#000000" cx="775" cy="-114" rx="38.9931" ry="18"/>
<text text-anchor="middle" x="775" y="-110.3" font-family="Times,serif" font-size="14.00" fill="#000000">external</text>
</g>
<!-- custom&#45;&gt;external -->
<g id="edge21" class="edge">
<title>custom&#45;&gt;external</title>
<path fill="none" stroke="#000000" d="M807.8866,-178.9902C802.2343,-167.8203 794.869,-153.2649 788.5418,-140.7612"/>
<polygon fill="#000000" stroke="#000000" points="791.5894,-139.0319 783.9513,-131.6895 785.3435,-142.1925 791.5894,-139.0319"/>
</g>
<!-- code -->
<g id="node24" class="node">
<title>code</title>
<ellipse fill="none" stroke="#000000" cx="859" cy="-114" rx="27.0966" ry="18"/>
<text text-anchor="middle" x="859" y="-110.3" font-family="Times,serif" font-size="14.00" fill="#000000">code</text>
</g>
<!-- custom&#45;&gt;code -->
<g id="edge22" class="edge">
<title>custom&#45;&gt;code</title>
<path fill="none" stroke="#000000" d="M826.1134,-178.9902C831.8426,-167.6683 839.3317,-152.8683 845.7159,-140.252"/>
<polygon fill="#000000" stroke="#000000" points="848.9428,-141.6267 850.335,-131.1237 842.6969,-138.4661 848.9428,-141.6267"/>
</g>
<!-- reg -->
<g id="node25" class="node">
<title>reg</title>
<ellipse fill="none" stroke="#000000" cx="931" cy="-114" rx="27" ry="18"/>
<text text-anchor="middle" x="931" y="-110.3" font-family="Times,serif" font-size="14.00" fill="#000000">reg</text>
</g>
<!-- custom&#45;&gt;reg -->
<g id="edge23" class="edge">
<title>custom&#45;&gt;reg</title>
<path fill="none" stroke="#000000" d="M841.7363,-178.9902C860.2491,-165.5116 885.5323,-147.1037 904.4652,-133.3192"/>
<polygon fill="#000000" stroke="#000000" points="906.6459,-136.0609 912.6701,-127.3455 902.5257,-130.4019 906.6459,-136.0609"/>
</g>
<!-- reg_s -->
<g id="node27" class="node">
<title>reg_s</title>
<ellipse fill="none" stroke="#000000" cx="890" cy="-41" rx="29.795" ry="18"/>
<text text-anchor="middle" x="890" y="-37.3" font-family="Times,serif" font-size="14.00" fill="#000000">reg_s</text>
</g>
<!-- reg&#45;&gt;reg_s -->
<g id="edge25" class="edge">
<title>reg&#45;&gt;reg_s</title>
<path fill="none" stroke="#000000" d="M921.4907,-97.0688C916.4557,-88.1041 910.1648,-76.9033 904.5324,-66.8747"/>
<polygon fill="#000000" stroke="#000000" points="907.5484,-65.0972 899.5997,-58.0922 901.4451,-68.5251 907.5484,-65.0972"/>
</g>
<!-- reg_m -->
<g id="node28" class="node">
<title>reg_m</title>
<ellipse fill="none" stroke="#000000" cx="972" cy="-41" rx="33.5952" ry="18"/>
<text text-anchor="middle" x="972" y="-37.3" font-family="Times,serif" font-size="14.00" fill="#000000">reg_m</text>
</g>
<!-- reg&#45;&gt;reg_m -->
<g id="edge26" class="edge">
<title>reg&#45;&gt;reg_m</title>
<path fill="none" stroke="#000000" d="M940.5093,-97.0688C945.5081,-88.1686 951.7447,-77.0643 957.346,-67.0914"/>
<polygon fill="#000000" stroke="#000000" points="960.4122,-68.7792 962.2576,-58.3463 954.309,-65.3513 960.4122,-68.7792"/>
</g>
<!-- wrong_url -->
<g id="node29" class="node">
<title>wrong_url</title>
<ellipse fill="none" stroke="#000000" stroke-dasharray="5,2" cx="871" cy="-957" rx="47.3916" ry="18"/>
<text text-anchor="middle" x="871" y="-953.3" font-family="Times,serif" font-size="14.00" fill="#000000">wrong_url</text>
</g>
<!-- wrong_url&#45;&gt;url -->
<g id="edge27" class="edge">
<title>wrong_url&#45;&gt;url</title>
<path fill="none" stroke="#000000" d="M871,-938.9551C871,-930.8828 871,-921.1764 871,-912.1817"/>
<polygon fill="#000000" stroke="#000000" points="874.5001,-912.0903 871,-902.0904 867.5001,-912.0904 874.5001,-912.0903"/>
</g>
<!-- http_status -->
<g id="node31" class="node">
<title>http_status</title>
<ellipse fill="none" stroke="#000000" cx="1257" cy="-738" rx="48.9926" ry="18"/>
<text text-anchor="middle" x="1257" y="-734.3" font-family="Times,serif" font-size="14.00" fill="#000000">http_status</text>
</g>
<!-- web&#45;&gt;http_status -->
<g id="edge30" class="edge">
<title>web&#45;&gt;http_status</title>
<path fill="none" stroke="#000000" d="M1074.0239,-801.606C1108.79,-789.5206 1169.6848,-768.3524 1211.6134,-753.7773"/>
<polygon fill="#000000" stroke="#000000" points="1213.0122,-756.9965 1221.3085,-750.407 1210.7137,-750.3846 1213.0122,-756.9965"/>
</g>
<!-- text -->
<g id="node32" class="node">
<title>text</title>
<ellipse fill="none" stroke="#000000" cx="859" cy="-738" rx="27" ry="18"/>
<text text-anchor="middle" x="859" y="-734.3" font-family="Times,serif" font-size="14.00" fill="#000000">text</text>
</g>
<!-- web&#45;&gt;text -->
<g id="edge31" class="edge">
<title>web&#45;&gt;text</title>
<path fill="none" stroke="#000000" d="M1019.9995,-802.2905C989.3201,-792.151 937.9378,-774.4286 895,-756 893.2181,-755.2352 891.3995,-754.4247 889.5731,-753.5874"/>
<polygon fill="#000000" stroke="#000000" points="891.0425,-750.4106 880.5098,-749.2651 888.0293,-756.7289 891.0425,-750.4106"/>
</g>
<!-- html -->
<g id="node33" class="node">
<title>html</title>
<ellipse fill="none" stroke="#000000" cx="931" cy="-738" rx="27.0966" ry="18"/>
<text text-anchor="middle" x="931" y="-734.3" font-family="Times,serif" font-size="14.00" fill="#000000">html</text>
</g>
<!-- web&#45;&gt;html -->
<g id="edge32" class="edge">
<title>web&#45;&gt;html</title>
<path fill="none" stroke="#000000" d="M1019.8032,-793.8847C1001.618,-782.4406 977.7414,-767.4148 959.3267,-755.8263"/>
<polygon fill="#000000" stroke="#000000" points="961.1021,-752.8082 950.7743,-750.4442 957.3737,-758.7327 961.1021,-752.8082"/>
</g>
<!-- redirects -->
<g id="node34" class="node">
<title>redirects</title>
<ellipse fill="none" stroke="#000000" cx="1365" cy="-738" rx="40.8928" ry="18"/>
<text text-anchor="middle" x="1365" y="-734.3" font-family="Times,serif" font-size="14.00" fill="#000000">redirects</text>
</g>
<!-- web&#45;&gt;redirects -->
<g id="edge33" class="edge">
<title>web&#45;&gt;redirects</title>
<path fill="none" stroke="#000000" d="M1074.3161,-806.7242C1123.1326,-798.7894 1228.3495,-780.3533 1315,-756 1318.1086,-755.1263 1321.3018,-754.1551 1324.4984,-753.1293"/>
<polygon fill="#000000" stroke="#000000" points="1325.6524,-756.4339 1334.0169,-749.9312 1323.4229,-749.7984 1325.6524,-756.4339"/>
</g>
<!-- x_frame_options -->
<g id="node35" class="node">
<title>x_frame_options</title>
<ellipse fill="none" stroke="#000000" cx="1047" cy="-738" rx="70.6878" ry="18"/>
<text text-anchor="middle" x="1047" y="-734.3" font-family="Times,serif" font-size="14.00" fill="#000000">x_frame_options</text>
</g>
<!-- web&#45;&gt;x_frame_options -->
<g id="edge34" class="edge">
<title>web&#45;&gt;x_frame_options</title>
<path fill="none" stroke="#000000" d="M1047,-792.9551C1047,-784.8828 1047,-775.1764 1047,-766.1817"/>
<polygon fill="#000000" stroke="#000000" points="1050.5001,-766.0903 1047,-756.0904 1043.5001,-766.0904 1050.5001,-766.0903"/>
</g>
<!-- csp -->
<g id="node36" class="node">
<title>csp</title>
<ellipse fill="none" stroke="#000000" cx="1163" cy="-738" rx="27" ry="18"/>
<text text-anchor="middle" x="1163" y="-734.3" font-family="Times,serif" font-size="14.00" fill="#000000">csp</text>
</g>
<!-- web&#45;&gt;csp -->
<g id="edge35" class="edge">
<title>web&#45;&gt;csp</title>
<path fill="none" stroke="#000000" d="M1074.1968,-793.8847C1092.382,-782.4406 1116.2586,-767.4148 1134.6733,-755.8263"/>
<polygon fill="#000000" stroke="#000000" points="1136.6263,-758.7327 1143.2257,-750.4442 1132.8979,-752.8082 1136.6263,-758.7327"/>
</g>
<!-- redirects&#45;&gt;url -->
<g id="edge50" class="edge">
<title>redirects&#45;&gt;url</title>
<path fill="none" stroke="#000000" stroke-dasharray="5,2" d="M1333.3166,-749.5894C1327.2494,-751.7568 1320.9381,-753.9757 1315,-756 1288.9252,-764.8891 1282.2599,-766.6735 1256,-775 1179.2198,-799.3454 1160.4506,-806.8799 1083,-829 1021.188,-846.6537 948.5592,-864.9772 906.3577,-875.3867"/>
<polygon fill="#000000" stroke="#000000" points="905.4375,-872.0086 896.5625,-877.7953 907.1091,-878.8061 905.4375,-872.0086"/>
</g>
<!-- spf -->
<g id="node38" class="node">
<title>spf</title>
<ellipse fill="none" stroke="#000000" cx="452" cy="-509" rx="27" ry="18"/>
<text text-anchor="middle" x="452" y="-505.3" font-family="Times,serif" font-size="14.00" fill="#000000">spf</text>
</g>
<!-- dns&#45;&gt;spf -->
<g id="edge37" class="edge">
<title>dns&#45;&gt;spf</title>
<path fill="none" stroke="#000000" d="M508.4607,-563.9551C498.2681,-554.0343 485.5396,-541.6452 474.7493,-531.1427"/>
<polygon fill="#000000" stroke="#000000" points="476.9061,-528.3577 467.2989,-523.8909 472.0237,-533.3739 476.9061,-528.3577"/>
</g>
<!-- txt -->
<g id="node39" class="node">
<title>txt</title>
<ellipse fill="none" stroke="#000000" cx="524" cy="-509" rx="27" ry="18"/>
<text text-anchor="middle" x="524" y="-505.3" font-family="Times,serif" font-size="14.00" fill="#000000">txt</text>
</g>
<!-- dns&#45;&gt;txt -->
<g id="edge38" class="edge">
<title>dns&#45;&gt;txt</title>
<path fill="none" stroke="#000000" d="M526.2584,-563.9551C525.9267,-555.8828 525.5278,-546.1764 525.1582,-537.1817"/>
<polygon fill="#000000" stroke="#000000" points="528.6512,-536.9382 524.7434,-527.0904 521.6571,-537.2257 528.6512,-536.9382"/>
</g>
<!-- a -->
<g id="node40" class="node">
<title>a</title>
<ellipse fill="none" stroke="#000000" cx="596" cy="-509" rx="27" ry="18"/>
<text text-anchor="middle" x="596" y="-505.3" font-family="Times,serif" font-size="14.00" fill="#000000">a</text>
</g>
<!-- dns&#45;&gt;a -->
<g id="edge39" class="edge">
<title>dns&#45;&gt;a</title>
<path fill="none" stroke="#000000" d="M544.0562,-563.9551C553.2151,-554.2652 564.5998,-542.2205 574.3746,-531.879"/>
<polygon fill="#000000" stroke="#000000" points="577.1466,-534.0416 581.4722,-524.3699 572.0595,-529.2331 577.1466,-534.0416"/>
</g>
<!-- aaaa -->
<g id="node41" class="node">
<title>aaaa</title>
<ellipse fill="none" stroke="#000000" cx="668" cy="-509" rx="27" ry="18"/>
<text text-anchor="middle" x="668" y="-505.3" font-family="Times,serif" font-size="14.00" fill="#000000">aaaa</text>
</g>
<!-- dns&#45;&gt;aaaa -->
<g id="edge40" class="edge">
<title>dns&#45;&gt;aaaa</title>
<path fill="none" stroke="#000000" d="M554.1862,-567.9249C578.0288,-555.5809 612.6623,-537.65 637.4546,-524.8143"/>
<polygon fill="#000000" stroke="#000000" points="639.1604,-527.8724 646.4316,-520.1666 635.942,-521.6562 639.1604,-527.8724"/>
</g>
<!-- ns -->
<g id="node42" class="node">
<title>ns</title>
<ellipse fill="none" stroke="#000000" cx="740" cy="-509" rx="27" ry="18"/>
<text text-anchor="middle" x="740" y="-505.3" font-family="Times,serif" font-size="14.00" fill="#000000">ns</text>
</g>
<!-- dns&#45;&gt;ns -->
<g id="edge41" class="edge">
<title>dns&#45;&gt;ns</title>
<path fill="none" stroke="#000000" d="M554.1612,-575.0373C589.3155,-565.6922 652.204,-547.836 704,-527 705.799,-526.2763 707.631,-525.498 709.4677,-524.6855"/>
<polygon fill="#000000" stroke="#000000" points="710.9852,-527.8397 718.5593,-520.4313 708.0184,-521.4994 710.9852,-527.8397"/>
</g>
<!-- mx -->
<g id="node43" class="node">
<title>mx</title>
<ellipse fill="none" stroke="#000000" cx="296" cy="-509" rx="27" ry="18"/>
<text text-anchor="middle" x="296" y="-505.3" font-family="Times,serif" font-size="14.00" fill="#000000">mx</text>
</g>
<!-- dns&#45;&gt;mx -->
<g id="edge42" class="edge">
<title>dns&#45;&gt;mx</title>
<path fill="none" stroke="#000000" d="M499.9852,-576.0877C461.8564,-567.3616 390.3907,-549.5992 332,-527 330.1428,-526.2812 328.2529,-525.4993 326.3606,-524.6774"/>
<polygon fill="#000000" stroke="#000000" points="327.5637,-521.3771 317.0198,-520.3397 324.6154,-527.726 327.5637,-521.3771"/>
</g>
<!-- dmarc -->
<g id="node44" class="node">
<title>dmarc</title>
<ellipse fill="none" stroke="#000000" cx="374" cy="-509" rx="33.2948" ry="18"/>
<text text-anchor="middle" x="374" y="-505.3" font-family="Times,serif" font-size="14.00" fill="#000000">dmarc</text>
</g>
<!-- dns&#45;&gt;dmarc -->
<g id="edge43" class="edge">
<title>dns&#45;&gt;dmarc</title>
<path fill="none" stroke="#000000" d="M499.9989,-569.1171C474.4445,-556.9245 435.9762,-538.5704 408.2702,-525.3512"/>
<polygon fill="#000000" stroke="#000000" points="409.4905,-522.0554 398.958,-520.908 406.4761,-528.3732 409.4905,-522.0554"/>
</g>
<!-- timestamp -->
<g id="node49" class="node">
<title>timestamp</title>
<ellipse fill="none" stroke="#000000" stroke-dasharray="5,2" cx="452" cy="-436" rx="48.1917" ry="18"/>
<text text-anchor="middle" x="452" y="-432.3" font-family="Times,serif" font-size="14.00" fill="#000000">timestamp</text>
</g>
<!-- spf&#45;&gt;timestamp -->
<!-- email&#45;&gt;hostname -->
<g id="edge45" class="edge">
<title>email&#45;&gt;hostname</title>
<path fill="none" stroke="#000000" d="M556.2697,-719.9551C555.4956,-711.8828 554.5649,-702.1764 553.7024,-693.1817"/>
<polygon fill="#000000" stroke="#000000" points="557.1733,-692.7106 552.7347,-683.0904 550.2053,-693.3788 557.1733,-692.7106"/>
</g>
<!-- country_name -->
<g id="node46" class="node">
<title>country_name</title>
<ellipse fill="none" stroke="#000000" cx="856" cy="-582" rx="61.99" ry="18"/>
<text text-anchor="middle" x="856" y="-578.3" font-family="Times,serif" font-size="14.00" fill="#000000">country_name</text>
</g>
<!-- country_name&#45;&gt;country -->
<g id="edge46" class="edge">
<title>country_name&#45;&gt;country</title>
<path fill="none" stroke="#000000" d="M845.4058,-554.3795C843.1384,-548.468 840.7441,-542.2257 838.481,-536.3254"/>
<polygon fill="#000000" stroke="#000000" points="842.2295,-555.8717 849.0786,-563.9551 848.7652,-553.3648 842.2295,-555.8717"/>
<polygon fill="#000000" stroke="#000000" points="841.6909,-534.9207 834.8417,-526.8374 835.1552,-537.4276 841.6909,-534.9207"/>
</g>
<!-- phone -->
<g id="node47" class="node">
<title>phone</title>
<ellipse fill="none" stroke="#000000" stroke-dasharray="5,2" cx="968" cy="-582" rx="32.4942" ry="18"/>
<text text-anchor="middle" x="968" y="-578.3" font-family="Times,serif" font-size="14.00" fill="#000000">phone</text>
</g>
<!-- phone&#45;&gt;country -->
<g id="edge47" class="edge">
<title>phone&#45;&gt;country</title>
<path fill="none" stroke="#000000" d="M944.2509,-569.6165C921.8783,-557.9508 888.0965,-540.336 862.7056,-527.0965"/>
<polygon fill="#000000" stroke="#000000" points="864.2526,-523.9559 853.7673,-522.4358 861.0161,-530.1628 864.2526,-523.9559"/>
</g>
<!-- tld&#45;&gt;country -->
<g id="edge51" class="edge">
<title>tld&#45;&gt;country</title>
<path fill="none" stroke="#000000" stroke-dasharray="5,2" d="M702.679,-571.1213C717.4214,-563.7331 737.3752,-553.752 755,-545 767.1838,-538.9499 780.5269,-532.3594 792.4347,-526.4904"/>
<polygon fill="#000000" stroke="#000000" points="794.203,-529.521 801.6272,-521.9624 791.1098,-523.2414 794.203,-529.521"/>
</g>
<!-- formatted_time -->
<g id="node50" class="node">
<title>formatted_time</title>
<ellipse fill="none" stroke="#000000" cx="259" cy="-353" rx="65.7887" ry="18"/>
<text text-anchor="middle" x="259" y="-349.3" font-family="Times,serif" font-size="14.00" fill="#000000">formatted_time</text>
</g>
<!-- timestamp&#45;&gt;formatted_time -->
<g id="edge52" class="edge">
<title>timestamp&#45;&gt;formatted_time</title>
<path fill="none" stroke="#000000" d="M420.13,-422.2942C388.3847,-408.6421 339.3696,-387.5631 303.7333,-372.2376"/>
<polygon fill="#000000" stroke="#000000" points="305.0914,-369.0118 294.5221,-368.2763 302.3259,-375.4424 305.0914,-369.0118"/>
<text text-anchor="middle" x="375" y="-392" font-family="Times,serif" font-size="10.00" fill="#000000">fmt</text>
</g>
<!-- isotimestamp -->
<g id="node51" class="node">
<title>isotimestamp</title>
<ellipse fill="none" stroke="#000000" cx="401" cy="-353" rx="58.4896" ry="18"/>
<text text-anchor="middle" x="401" y="-349.3" font-family="Times,serif" font-size="14.00" fill="#000000">isotimestamp</text>
</g>
<!-- timestamp&#45;&gt;isotimestamp -->
<g id="edge53" class="edge">
<title>timestamp&#45;&gt;isotimestamp</title>
<path fill="none" stroke="#000000" d="M441.1842,-418.3978C434.2668,-407.1401 425.1624,-392.3232 417.3691,-379.6399"/>
<polygon fill="#000000" stroke="#000000" points="420.1934,-377.5507 411.976,-370.8629 414.2293,-381.2154 420.1934,-377.5507"/>
</g>
<!-- date -->
<g id="node52" class="node">
<title>date</title>
<ellipse fill="none" stroke="#000000" cx="504" cy="-353" rx="27" ry="18"/>
<text text-anchor="middle" x="504" y="-349.3" font-family="Times,serif" font-size="14.00" fill="#000000">date</text>
</g>
<!-- timestamp&#45;&gt;date -->
<g id="edge54" class="edge">
<title>timestamp&#45;&gt;date</title>
<path fill="none" stroke="#000000" d="M463.0279,-418.3978C470.3432,-406.7215 480.0572,-391.2164 488.1906,-378.2342"/>
<polygon fill="#000000" stroke="#000000" points="491.1768,-380.0601 493.52,-369.7276 485.2448,-376.3437 491.1768,-380.0601"/>
</g>
<!-- time -->
<g id="node53" class="node">
<title>time</title>
<ellipse fill="none" stroke="#000000" cx="576" cy="-353" rx="27" ry="18"/>
<text text-anchor="middle" x="576" y="-349.3" font-family="Times,serif" font-size="14.00" fill="#000000">time</text>
</g>
<!-- timestamp&#45;&gt;time -->
<g id="edge55" class="edge">
<title>timestamp&#45;&gt;time</title>
<path fill="none" stroke="#000000" d="M475.6153,-420.193C496.3665,-406.3031 526.5756,-386.0825 548.4288,-371.4549"/>
<polygon fill="#000000" stroke="#000000" points="550.5758,-374.2296 556.9391,-365.7585 546.682,-368.4125 550.5758,-374.2296"/>
</g>
<!-- formatted_time&#45;&gt;plaintext -->
<!-- unit -->
<g id="node54" class="node">
<title>unit</title>
<ellipse fill="none" stroke="#000000" stroke-dasharray="5,2" cx="756" cy="-353" rx="27" ry="18"/>
<text text-anchor="middle" x="756" y="-349.3" font-family="Times,serif" font-size="14.00" fill="#000000">unit</text>
</g>
<!-- unit&#45;&gt;plaintext -->
<g id="edge56" class="edge">
<title>unit&#45;&gt;plaintext</title>
<path fill="none" stroke="#000000" d="M732.3936,-331.2296C719.7949,-319.6108 704.2804,-305.303 691.4177,-293.4407"/>
<polygon fill="#000000" stroke="#000000" points="730.1858,-333.9547 739.9098,-338.1613 734.9314,-328.8089 730.1858,-333.9547"/>
<polygon fill="#000000" stroke="#000000" points="693.5253,-290.6232 683.8013,-286.4167 688.7797,-295.7691 693.5253,-290.6232"/>
<text text-anchor="middle" x="724.5" y="-309" font-family="Times,serif" font-size="10.00" fill="#000000">unit</text>
</g>
<!-- ports -->
<g id="node56" class="node">
<title>ports</title>
<ellipse fill="none" stroke="#000000" cx="100" cy="-509" rx="28.6953" ry="18"/>
<text text-anchor="middle" x="100" y="-505.3" font-family="Times,serif" font-size="14.00" fill="#000000">ports</text>
</g>
<!-- nmap&#45;&gt;ports -->
<g id="edge58" class="edge">
<title>nmap&#45;&gt;ports</title>
<path fill="none" stroke="#000000" d="M100,-563.9551C100,-555.8828 100,-546.1764 100,-537.1817"/>
<polygon fill="#000000" stroke="#000000" points="103.5001,-537.0903 100,-527.0904 96.5001,-537.0904 103.5001,-537.0903"/>
</g>
</g>
</svg>
