<?xml version="1.0" encoding="UTF-8" standalone="no"?>
<!DOCTYPE svg PUBLIC "-//W3C//DTD SVG 1.1//EN"
 "http://www.w3.org/Graphics/SVG/1.1/DTD/svg11.dtd">
<!-- Generated by graphviz version 2.40.1 (20161225.0304)
 -->
<!-- Title: %3 Pages: 1 -->
<svg width="1005pt" height="1119pt"
     viewBox="0.00 0.00 1005.44 1119.00" xmlns="http://www.w3.org/2000/svg">
<g id="graph0" class="graph" transform="scale(1 1) rotate(0) translate(4 1115)">
<title>%3</title>
<polygon fill="#ffffff" stroke="transparent" points="-4,4 -4,-1115 1001.4435,-1115 1001.4435,4 -4,4"/>
<text text-anchor="middle" x="498.7217" y="-7.8" font-family="Times,serif" font-size="14.00" fill="#000000">Convey field types (dashed nodes = identifiable automatically, dashed edges = field identity)</text>
<!-- source_ip -->
<g id="node1" class="node">
<title>source_ip</title>
<ellipse fill="none" stroke="#000000" stroke-dasharray="5,2" cx="44.846" cy="-1093" rx="44.6926" ry="18"/>
<text text-anchor="middle" x="44.846" y="-1089.3" font-family="Times,serif" font-size="14.00" fill="#000000">source_ip</text>
</g>
<!-- ip -->
<g id="node2" class="node">
<title>ip</title>
<ellipse fill="none" stroke="#000000" stroke-dasharray="5,2" cx="223.846" cy="-1020" rx="27" ry="18"/>
<text text-anchor="middle" x="223.846" y="-1016.3" font-family="Times,serif" font-size="14.00" fill="#000000">ip</text>
</g>
<!-- source_ip&#45;&gt;ip -->
<g id="edge1" class="edge">
<title>source_ip&#45;&gt;ip</title>
<path fill="none" stroke="#000000" stroke-dasharray="5,2" d="M76.4356,-1080.1171C108.6342,-1066.9858 158.3574,-1046.7077 191.0022,-1033.3944"/>
<polygon fill="#000000" stroke="#000000" points="192.6089,-1036.5191 200.5468,-1029.5019 189.9655,-1030.0374 192.6089,-1036.5191"/>
</g>
<!-- url -->
<g id="node6" class="node">
<title>url</title>
<ellipse fill="none" stroke="#000000" stroke-dasharray="5,2" cx="108.846" cy="-801" rx="27" ry="18"/>
<text text-anchor="middle" x="108.846" y="-797.3" font-family="Times,serif" font-size="14.00" fill="#000000">url</text>
</g>
<!-- ip&#45;&gt;url -->
<g id="edge28" class="edge">
<title>ip&#45;&gt;url</title>
<path fill="none" stroke="#000000" d="M200.4985,-1010.7439C161.6427,-993.8838 85.0017,-954.074 54.846,-892 47.8545,-877.6084 48.791,-870.81 54.846,-856 60.4957,-842.1815 71.4766,-829.9617 82.0691,-820.5715"/>
<polygon fill="#000000" stroke="#000000" points="84.5577,-823.0537 89.9989,-813.9628 80.0761,-817.6763 84.5577,-823.0537"/>
</g>
<!-- whois -->
<g id="node8" class="node">
<title>whois</title>
<polygon fill="none" stroke="#000000" points="573.846,-965 519.846,-965 519.846,-929 573.846,-929 573.846,-965"/>
<text text-anchor="middle" x="546.846" y="-943.3" font-family="Times,serif" font-size="14.00" fill="#000000">whois</text>
</g>
<!-- ip&#45;&gt;whois -->
<g id="edge7" class="edge">
<title>ip&#45;&gt;whois</title>
<path fill="none" stroke="#000000" d="M249.4613,-1014.2108C306.2567,-1001.3747 442.9667,-970.4774 509.379,-955.4678"/>
<polygon fill="#000000" stroke="#000000" points="510.4288,-958.8189 519.4112,-953.2004 508.8856,-951.9911 510.4288,-958.8189"/>
</g>
<!-- nmap -->
<g id="node55" class="node">
<title>nmap</title>
<polygon fill="none" stroke="#000000" points="995.846,-663 941.846,-663 941.846,-627 995.846,-627 995.846,-663"/>
<text text-anchor="middle" x="968.846" y="-641.3" font-family="Times,serif" font-size="14.00" fill="#000000">nmap</text>
</g>
<!-- ip&#45;&gt;nmap -->
<g id="edge59" class="edge">
<title>ip&#45;&gt;nmap</title>
<path fill="none" stroke="#000000" d="M250.9135,-1018.7636C383.6977,-1012.5237 959.846,-983.3546 959.846,-947 959.846,-947 959.846,-947 959.846,-728 959.846,-709.7464 962.0241,-689.3656 964.2373,-673.368"/>
<polygon fill="#000000" stroke="#000000" points="967.7589,-673.4754 965.7487,-663.0731 960.8332,-672.4586 967.7589,-673.4754"/>
</g>
<!-- destination_ip -->
<g id="node3" class="node">
<title>destination_ip</title>
<ellipse fill="none" stroke="#000000" stroke-dasharray="5,2" cx="167.846" cy="-1093" rx="60.3893" ry="18"/>
<text text-anchor="middle" x="167.846" y="-1089.3" font-family="Times,serif" font-size="14.00" fill="#000000">destination_ip</text>
</g>
<!-- destination_ip&#45;&gt;ip -->
<g id="edge2" class="edge">
<title>destination_ip&#45;&gt;ip</title>
<path fill="none" stroke="#000000" stroke-dasharray="5,2" d="M181.4021,-1075.3287C188.483,-1066.0983 197.261,-1054.6555 204.9934,-1044.5758"/>
<polygon fill="#000000" stroke="#000000" points="207.8729,-1046.5725 211.1825,-1036.5078 202.3188,-1042.3118 207.8729,-1046.5725"/>
</g>
<!-- any_ip -->
<g id="node4" class="node">
<title>any_ip</title>
<ellipse fill="none" stroke="#000000" stroke-dasharray="5,2" cx="280.846" cy="-1093" rx="34.394" ry="18"/>
<text text-anchor="middle" x="280.846" y="-1089.3" font-family="Times,serif" font-size="14.00" fill="#000000">any_ip</text>
</g>
<!-- any_ip&#45;&gt;ip -->
<g id="edge3" class="edge">
<title>any_ip&#45;&gt;ip</title>
<path fill="none" stroke="#000000" d="M267.6258,-1076.0688C260.204,-1066.5638 250.8195,-1054.545 242.6443,-1044.075"/>
<polygon fill="#000000" stroke="#000000" points="245.3209,-1041.8158 236.4078,-1036.0879 239.8035,-1046.1239 245.3209,-1041.8158"/>
</g>
<!-- port_ip -->
<g id="node5" class="node">
<title>port_ip</title>
<ellipse fill="none" stroke="#000000" stroke-dasharray="5,2" cx="369.846" cy="-1093" rx="36.2938" ry="18"/>
<text text-anchor="middle" x="369.846" y="-1089.3" font-family="Times,serif" font-size="14.00" fill="#000000">port_ip</text>
</g>
<!-- port_ip&#45;&gt;ip -->
<g id="edge4" class="edge">
<title>port_ip&#45;&gt;ip</title>
<path fill="none" stroke="#000000" d="M344.0802,-1080.1171C319.1454,-1067.6497 281.3255,-1048.7397 254.7763,-1035.4652"/>
<polygon fill="#000000" stroke="#000000" points="256.0593,-1032.1935 245.5497,-1030.8519 252.9288,-1038.4545 256.0593,-1032.1935"/>
</g>
<!-- hostname -->
<g id="node7" class="node">
<title>hostname</title>
<ellipse fill="none" stroke="#000000" stroke-dasharray="5,2" cx="338.846" cy="-728" rx="44.6926" ry="18"/>
<text text-anchor="middle" x="338.846" y="-724.3" font-family="Times,serif" font-size="14.00" fill="#000000">hostname</text>
</g>
<!-- url&#45;&gt;hostname -->
<g id="edge5" class="edge">
<title>url&#45;&gt;hostname</title>
<path fill="none" stroke="#000000" d="M136.1315,-782.4069C146.8759,-775.783 159.5661,-768.7866 171.846,-764 208.6596,-749.6504 252.3825,-740.4866 285.8545,-734.9973"/>
<polygon fill="#000000" stroke="#000000" points="134.1728,-779.5047 127.6156,-787.8266 137.9312,-785.4102 134.1728,-779.5047"/>
<polygon fill="#000000" stroke="#000000" points="286.5635,-738.4287 295.8943,-733.41 285.4704,-731.5146 286.5635,-738.4287"/>
</g>
<!-- web -->
<g id="node30" class="node">
<title>web</title>
<polygon fill="none" stroke="#000000" points="308.846,-517 254.846,-517 254.846,-481 308.846,-481 308.846,-517"/>
<text text-anchor="middle" x="281.846" y="-495.3" font-family="Times,serif" font-size="14.00" fill="#000000">web</text>
</g>
<!-- url&#45;&gt;web -->
<g id="edge29" class="edge">
<title>url&#45;&gt;web</title>
<path fill="none" stroke="#000000" d="M108.846,-782.6997C108.846,-767.9349 108.846,-746.6302 108.846,-728 108.846,-728 108.846,-728 108.846,-572 108.846,-542.7219 194.0186,-518.5905 244.8393,-506.7977"/>
<polygon fill="#000000" stroke="#000000" points="245.8349,-510.1609 254.8148,-504.5384 244.2886,-503.3338 245.8349,-510.1609"/>
</g>
<!-- hostname&#45;&gt;ip -->
<g id="edge6" class="edge">
<title>hostname&#45;&gt;ip</title>
<path fill="none" stroke="#000000" d="M301.0258,-738.0167C255.7181,-751.1545 185.846,-775.5421 185.846,-801 185.846,-947 185.846,-947 185.846,-947 185.846,-964.8152 194.8607,-982.5939 204.1086,-996.1454"/>
<polygon fill="#000000" stroke="#000000" points="201.4069,-998.3807 210.1271,-1004.3981 207.0627,-994.2561 201.4069,-998.3807"/>
</g>
<!-- dns -->
<g id="node37" class="node">
<title>dns</title>
<polygon fill="none" stroke="#000000" points="405.846,-663 351.846,-663 351.846,-627 405.846,-627 405.846,-663"/>
<text text-anchor="middle" x="378.846" y="-641.3" font-family="Times,serif" font-size="14.00" fill="#000000">dns</text>
</g>
<!-- hostname&#45;&gt;dns -->
<g id="edge36" class="edge">
<title>hostname&#45;&gt;dns</title>
<path fill="none" stroke="#000000" d="M347.5254,-709.9902C352.8353,-698.9722 359.7326,-684.6604 365.7026,-672.2727"/>
<polygon fill="#000000" stroke="#000000" points="368.8569,-673.7892 370.0454,-663.2612 362.551,-670.7502 368.8569,-673.7892"/>
</g>
<!-- tld -->
<g id="node48" class="node">
<title>tld</title>
<ellipse fill="none" stroke="#000000" cx="825.846" cy="-645" rx="27" ry="18"/>
<text text-anchor="middle" x="825.846" y="-641.3" font-family="Times,serif" font-size="14.00" fill="#000000">tld</text>
</g>
<!-- hostname&#45;&gt;tld -->
<g id="edge48" class="edge">
<title>hostname&#45;&gt;tld</title>
<path fill="none" stroke="#000000" d="M381.4164,-722.0476C491.9298,-706.571 780.0907,-666.054 789.846,-663 791.7466,-662.405 793.6701,-661.7194 795.588,-660.9708"/>
<polygon fill="#000000" stroke="#000000" points="797.2547,-664.0613 804.9975,-656.8295 794.4348,-657.6544 797.2547,-664.0613"/>
<text text-anchor="middle" x="712.846" y="-684" font-family="Times,serif" font-size="10.00" fill="#000000">choose all,ccTLD,gTLD</text>
</g>
<!-- hostname&#45;&gt;nmap -->
<g id="edge57" class="edge">
<title>hostname&#45;&gt;nmap</title>
<path fill="none" stroke="#000000" d="M383.7738,-726.3605C462.0141,-723.0296 628.1822,-713.8457 766.846,-692 825.0864,-682.8245 891.4662,-666.1578 931.745,-655.3371"/>
<polygon fill="#000000" stroke="#000000" points="932.9117,-658.6472 941.6478,-652.653 931.0804,-651.891 932.9117,-658.6472"/>
</g>
<!-- prefix -->
<g id="node10" class="node">
<title>prefix</title>
<ellipse fill="none" stroke="#000000" cx="467.846" cy="-874" rx="31.6951" ry="18"/>
<text text-anchor="middle" x="467.846" y="-870.3" font-family="Times,serif" font-size="14.00" fill="#000000">prefix</text>
</g>
<!-- whois&#45;&gt;prefix -->
<g id="edge9" class="edge">
<title>whois&#45;&gt;prefix</title>
<path fill="none" stroke="#000000" d="M527.3179,-928.9551C516.6261,-919.0752 503.2849,-906.7473 491.9493,-896.2727"/>
<polygon fill="#000000" stroke="#000000" points="494.1991,-893.5861 484.4793,-889.3699 489.4484,-898.7272 494.1991,-893.5861"/>
</g>
<!-- asn -->
<g id="node11" class="node">
<title>asn</title>
<ellipse fill="none" stroke="#000000" stroke-dasharray="5,2" cx="390.846" cy="-874" rx="27" ry="18"/>
<text text-anchor="middle" x="390.846" y="-870.3" font-family="Times,serif" font-size="14.00" fill="#000000">asn</text>
</g>
<!-- whois&#45;&gt;asn -->
<g id="edge10" class="edge">
<title>whois&#45;&gt;asn</title>
<path fill="none" stroke="#000000" d="M519.558,-934.8104C495.1557,-923.8345 458.4689,-907.1473 426.846,-892 425.0972,-891.1623 423.3045,-890.2947 421.498,-889.4136"/>
<polygon fill="#000000" stroke="#000000" points="423.0063,-886.255 412.4896,-884.9703 419.9098,-892.5329 423.0063,-886.255"/>
</g>
<!-- abusemail -->
<g id="node12" class="node">
<title>abusemail</title>
<ellipse fill="none" stroke="#000000" cx="298.846" cy="-874" rx="46.5926" ry="18"/>
<text text-anchor="middle" x="298.846" y="-870.3" font-family="Times,serif" font-size="14.00" fill="#000000">abusemail</text>
</g>
<!-- whois&#45;&gt;abusemail -->
<g id="edge11" class="edge">
<title>whois&#45;&gt;abusemail</title>
<path fill="none" stroke="#000000" d="M519.7387,-939.5297C482.4812,-929.195 413.4021,-909.7928 354.846,-892 351.4704,-890.9743 347.9861,-889.8976 344.4838,-888.8024"/>
<polygon fill="#000000" stroke="#000000" points="345.2314,-885.3682 334.6416,-885.6938 343.1231,-892.0432 345.2314,-885.3682"/>
</g>
<!-- country -->
<g id="node13" class="node">
<title>country</title>
<ellipse fill="none" stroke="#000000" cx="774.846" cy="-572" rx="37.8943" ry="18"/>
<text text-anchor="middle" x="774.846" y="-568.3" font-family="Times,serif" font-size="14.00" fill="#000000">country</text>
</g>
<!-- whois&#45;&gt;country -->
<g id="edge12" class="edge">
<title>whois&#45;&gt;country</title>
<path fill="none" stroke="#000000" d="M573.9714,-944.8002C645.5735,-938.6664 838.051,-919.9669 894.846,-892 905.2817,-886.8613 913.846,-885.6322 913.846,-874 913.846,-874 913.846,-874 913.846,-645 913.846,-602.5337 862.3644,-584.7187 822.0627,-577.2786"/>
<polygon fill="#000000" stroke="#000000" points="822.5376,-573.8094 812.0955,-575.6019 821.3763,-580.7124 822.5376,-573.8094"/>
</g>
<!-- netname -->
<g id="node14" class="node">
<title>netname</title>
<ellipse fill="none" stroke="#000000" cx="558.846" cy="-874" rx="40.8928" ry="18"/>
<text text-anchor="middle" x="558.846" y="-870.3" font-family="Times,serif" font-size="14.00" fill="#000000">netname</text>
</g>
<!-- whois&#45;&gt;netname -->
<g id="edge13" class="edge">
<title>whois&#45;&gt;netname</title>
<path fill="none" stroke="#000000" d="M549.8123,-928.9551C551.1393,-920.8828 552.7348,-911.1764 554.2134,-902.1817"/>
<polygon fill="#000000" stroke="#000000" points="557.7038,-902.5257 555.8723,-892.0904 550.7965,-901.3902 557.7038,-902.5257"/>
</g>
<!-- csirt_contact -->
<g id="node15" class="node">
<title>csirt_contact</title>
<ellipse fill="none" stroke="#000000" cx="673.846" cy="-874" rx="55.7903" ry="18"/>
<text text-anchor="middle" x="673.846" y="-870.3" font-family="Times,serif" font-size="14.00" fill="#000000">csirt_contact</text>
</g>
<!-- whois&#45;&gt;csirt_contact -->
<g id="edge14" class="edge">
<title>whois&#45;&gt;csirt_contact</title>
<path fill="none" stroke="#000000" d="M574.0907,-931.3397C592.5464,-920.7313 617.1468,-906.5909 637.2997,-895.0069"/>
<polygon fill="#000000" stroke="#000000" points="639.2826,-897.9042 646.2082,-889.8863 635.7941,-891.8354 639.2826,-897.9042"/>
</g>
<!-- incident_contact -->
<g id="node16" class="node">
<title>incident_contact</title>
<ellipse fill="none" stroke="#000000" cx="816.846" cy="-874" rx="68.7879" ry="18"/>
<text text-anchor="middle" x="816.846" y="-870.3" font-family="Times,serif" font-size="14.00" fill="#000000">incident_contact</text>
</g>
<!-- whois&#45;&gt;incident_contact -->
<g id="edge15" class="edge">
<title>whois&#45;&gt;incident_contact</title>
<path fill="none" stroke="#000000" d="M573.9709,-939.6662C616.989,-928.0354 701.8264,-905.0979 758.9522,-889.6528"/>
<polygon fill="#000000" stroke="#000000" points="760.1873,-892.9446 768.9272,-886.9558 758.3603,-886.1872 760.1873,-892.9446"/>
</g>
<!-- cidr -->
<g id="node9" class="node">
<title>cidr</title>
<ellipse fill="none" stroke="#000000" stroke-dasharray="5,2" cx="244.846" cy="-801" rx="27" ry="18"/>
<text text-anchor="middle" x="244.846" y="-797.3" font-family="Times,serif" font-size="14.00" fill="#000000">cidr</text>
</g>
<!-- cidr&#45;&gt;ip -->
<g id="edge8" class="edge">
<title>cidr&#45;&gt;ip</title>
<path fill="none" stroke="#000000" d="M243.1115,-819.089C239.4602,-857.1663 230.9576,-945.8363 226.5713,-991.5793"/>
<polygon fill="#000000" stroke="#000000" points="223.0709,-991.4164 225.6003,-1001.7049 230.039,-992.0846 223.0709,-991.4164"/>
</g>
<!-- prefix&#45;&gt;cidr -->
<g id="edge49" class="edge">
<title>prefix&#45;&gt;cidr</title>
<path fill="none" stroke="#000000" d="M442.9527,-862.296C437.6963,-860.0445 432.138,-857.8231 426.846,-856 363.9634,-834.3371 344.2933,-841.8877 281.846,-819 279.7207,-818.221 277.5546,-817.3591 275.3905,-816.4468"/>
<polygon fill="#000000" stroke="#000000" points="276.6008,-813.153 266.0468,-812.2242 273.7181,-819.5319 276.6008,-813.153"/>
</g>
<!-- email -->
<g id="node45" class="node">
<title>email</title>
<ellipse fill="none" stroke="#000000" stroke-dasharray="5,2" cx="321.846" cy="-801" rx="30.5947" ry="18"/>
<text text-anchor="middle" x="321.846" y="-797.3" font-family="Times,serif" font-size="14.00" fill="#000000">email</text>
</g>
<!-- abusemail&#45;&gt;email -->
<g id="edge44" class="edge">
<title>abusemail&#45;&gt;email</title>
<path fill="none" stroke="#000000" stroke-dasharray="5,2" d="M304.5314,-855.9551C307.1495,-847.6453 310.3133,-837.6038 313.2164,-828.3897"/>
<polygon fill="#000000" stroke="#000000" points="316.5591,-829.427 316.226,-818.8374 309.8827,-827.3234 316.5591,-829.427"/>
</g>
<!-- plaintext -->
<g id="node17" class="node">
<title>plaintext</title>
<ellipse fill="none" stroke="#000000" stroke-dasharray="5,2" cx="677.846" cy="-416" rx="41.6928" ry="18"/>
<text text-anchor="middle" x="677.846" y="-412.3" font-family="Times,serif" font-size="14.00" fill="#000000">plaintext</text>
</g>
<!-- bytes -->
<g id="node18" class="node">
<title>bytes</title>
<ellipse fill="none" stroke="#000000" cx="801.846" cy="-343" rx="29.4969" ry="18"/>
<text text-anchor="middle" x="801.846" y="-339.3" font-family="Times,serif" font-size="14.00" fill="#000000">bytes</text>
</g>
<!-- plaintext&#45;&gt;bytes -->
<g id="edge16" class="edge">
<title>plaintext&#45;&gt;bytes</title>
<path fill="none" stroke="#000000" d="M711.3359,-396.2842C730.0473,-385.2686 753.1875,-371.6458 771.3861,-360.932"/>
<polygon fill="#000000" stroke="#000000" points="709.4832,-393.3134 702.6412,-401.4028 713.0345,-399.3457 709.4832,-393.3134"/>
<polygon fill="#000000" stroke="#000000" points="773.5609,-363.7133 780.4028,-355.6238 770.0096,-357.681 773.5609,-363.7133"/>
</g>
<!-- custom -->
<g id="node22" class="node">
<title>custom</title>
<polygon fill="none" stroke="#000000" points="667.846,-205 611.846,-205 611.846,-169 667.846,-169 667.846,-205"/>
<text text-anchor="middle" x="639.846" y="-183.3" font-family="Times,serif" font-size="14.00" fill="#000000">custom</text>
</g>
<!-- plaintext&#45;&gt;custom -->
<g id="edge20" class="edge">
<title>plaintext&#45;&gt;custom</title>
<path fill="none" stroke="#000000" d="M672.8889,-397.8536C665.9239,-371.6179 653.3654,-321.468 646.846,-278 643.7173,-257.1393 641.9497,-233.3663 640.9735,-215.351"/>
<polygon fill="#000000" stroke="#000000" points="644.4621,-215.0314 640.4745,-205.2157 637.4706,-215.3758 644.4621,-215.0314"/>
</g>
<!-- base64 -->
<g id="node19" class="node">
<title>base64</title>
<ellipse fill="none" stroke="#000000" stroke-dasharray="5,2" cx="690.846" cy="-260" rx="35.194" ry="18"/>
<text text-anchor="middle" x="690.846" y="-256.3" font-family="Times,serif" font-size="14.00" fill="#000000">base64</text>
</g>
<!-- bytes&#45;&gt;base64 -->
<g id="edge17" class="edge">
<title>bytes&#45;&gt;base64</title>
<path fill="none" stroke="#000000" d="M775.0042,-322.9291C758.0302,-310.2368 736.1277,-293.8593 718.922,-280.9938"/>
<polygon fill="#000000" stroke="#000000" points="772.9117,-325.7347 783.0164,-328.9202 777.1037,-320.1287 772.9117,-325.7347"/>
<polygon fill="#000000" stroke="#000000" points="720.9997,-278.1771 710.895,-274.9916 716.8077,-283.7831 720.9997,-278.1771"/>
</g>
<!-- quoted_printable -->
<g id="node20" class="node">
<title>quoted_printable</title>
<ellipse fill="none" stroke="#000000" stroke-dasharray="5,2" cx="813.846" cy="-260" rx="70.3881" ry="18"/>
<text text-anchor="middle" x="813.846" y="-256.3" font-family="Times,serif" font-size="14.00" fill="#000000">quoted_printable</text>
</g>
<!-- bytes&#45;&gt;quoted_printable -->
<g id="edge18" class="edge">
<title>bytes&#45;&gt;quoted_printable</title>
<path fill="none" stroke="#000000" d="M805.9067,-314.9137C807.1507,-306.3096 808.5192,-296.8436 809.7646,-288.23"/>
<polygon fill="#000000" stroke="#000000" points="802.4168,-314.5923 804.4498,-324.9902 809.3448,-315.594 802.4168,-314.5923"/>
<polygon fill="#000000" stroke="#000000" points="813.2388,-288.6592 811.2058,-278.2612 806.3109,-287.6575 813.2388,-288.6592"/>
</g>
<!-- charset -->
<g id="node26" class="node">
<title>charset</title>
<ellipse fill="none" stroke="#000000" cx="937.846" cy="-260" rx="35.9954" ry="18"/>
<text text-anchor="middle" x="937.846" y="-256.3" font-family="Times,serif" font-size="14.00" fill="#000000">charset</text>
</g>
<!-- bytes&#45;&gt;charset -->
<g id="edge24" class="edge">
<title>bytes&#45;&gt;charset</title>
<path fill="none" stroke="#000000" d="M822.798,-330.2131C845.0596,-316.627 880.5163,-294.988 906.1878,-279.3208"/>
<polygon fill="#000000" stroke="#000000" points="908.1098,-282.2482 914.8224,-274.0512 904.4631,-276.2731 908.1098,-282.2482"/>
<text text-anchor="middle" x="897.346" y="-299" font-family="Times,serif" font-size="10.00" fill="#000000">encoding</text>
</g>
<!-- base64&#45;&gt;custom -->
<!-- urlencode -->
<g id="node21" class="node">
<title>urlencode</title>
<ellipse fill="none" stroke="#000000" stroke-dasharray="5,2" cx="601.846" cy="-499" rx="45.4919" ry="18"/>
<text text-anchor="middle" x="601.846" y="-495.3" font-family="Times,serif" font-size="14.00" fill="#000000">urlencode</text>
</g>
<!-- urlencode&#45;&gt;plaintext -->
<g id="edge19" class="edge">
<title>urlencode&#45;&gt;plaintext</title>
<path fill="none" stroke="#000000" d="M624.4492,-474.315C634.29,-463.5678 645.7889,-451.0098 655.5901,-440.3058"/>
<polygon fill="#000000" stroke="#000000" points="621.7652,-472.0635 617.5933,-481.8023 626.9279,-476.7907 621.7652,-472.0635"/>
<polygon fill="#000000" stroke="#000000" points="658.2071,-442.6305 662.379,-432.8916 653.0444,-437.9033 658.2071,-442.6305"/>
</g>
<!-- external -->
<g id="node23" class="node">
<title>external</title>
<ellipse fill="none" stroke="#000000" cx="555.846" cy="-114" rx="38.9931" ry="18"/>
<text text-anchor="middle" x="555.846" y="-110.3" font-family="Times,serif" font-size="14.00" fill="#000000">external</text>
</g>
<!-- custom&#45;&gt;external -->
<g id="edge21" class="edge">
<title>custom&#45;&gt;external</title>
<path fill="none" stroke="#000000" d="M619.082,-168.9551C607.9503,-159.2811 594.1177,-147.2599 582.2309,-136.9297"/>
<polygon fill="#000000" stroke="#000000" points="584.2134,-134.0156 574.3695,-130.0978 579.6217,-139.2992 584.2134,-134.0156"/>
</g>
<!-- code -->
<g id="node24" class="node">
<title>code</title>
<ellipse fill="none" stroke="#000000" cx="639.846" cy="-114" rx="27.0966" ry="18"/>
<text text-anchor="middle" x="639.846" y="-110.3" font-family="Times,serif" font-size="14.00" fill="#000000">code</text>
</g>
<!-- custom&#45;&gt;code -->
<g id="edge22" class="edge">
<title>custom&#45;&gt;code</title>
<path fill="none" stroke="#000000" d="M639.846,-168.9551C639.846,-160.8828 639.846,-151.1764 639.846,-142.1817"/>
<polygon fill="#000000" stroke="#000000" points="643.3461,-142.0903 639.846,-132.0904 636.3461,-142.0904 643.3461,-142.0903"/>
</g>
<!-- reg -->
<g id="node25" class="node">
<title>reg</title>
<ellipse fill="none" stroke="#000000" cx="711.846" cy="-114" rx="27" ry="18"/>
<text text-anchor="middle" x="711.846" y="-110.3" font-family="Times,serif" font-size="14.00" fill="#000000">reg</text>
</g>
<!-- custom&#45;&gt;reg -->
<g id="edge23" class="edge">
<title>custom&#45;&gt;reg</title>
<path fill="none" stroke="#000000" d="M657.6438,-168.9551C667.2946,-159.1702 679.3137,-146.9842 689.5799,-136.5753"/>
<polygon fill="#000000" stroke="#000000" points="692.1563,-138.9474 696.6866,-129.3699 687.1726,-134.0319 692.1563,-138.9474"/>
</g>
<!-- reg_s -->
<g id="node27" class="node">
<title>reg_s</title>
<ellipse fill="none" stroke="#000000" cx="670.846" cy="-41" rx="29.795" ry="18"/>
<text text-anchor="middle" x="670.846" y="-37.3" font-family="Times,serif" font-size="14.00" fill="#000000">reg_s</text>
</g>
<!-- reg&#45;&gt;reg_s -->
<g id="edge25" class="edge">
<title>reg&#45;&gt;reg_s</title>
<path fill="none" stroke="#000000" d="M702.3367,-97.0688C697.3017,-88.1041 691.0109,-76.9033 685.3784,-66.8747"/>
<polygon fill="#000000" stroke="#000000" points="688.3944,-65.0972 680.4458,-58.0922 682.2911,-68.5251 688.3944,-65.0972"/>
</g>
<!-- reg_m -->
<g id="node28" class="node">
<title>reg_m</title>
<ellipse fill="none" stroke="#000000" cx="752.846" cy="-41" rx="33.5952" ry="18"/>
<text text-anchor="middle" x="752.846" y="-37.3" font-family="Times,serif" font-size="14.00" fill="#000000">reg_m</text>
</g>
<!-- reg&#45;&gt;reg_m -->
<g id="edge26" class="edge">
<title>reg&#45;&gt;reg_m</title>
<path fill="none" stroke="#000000" d="M721.3553,-97.0688C726.3541,-88.1686 732.5907,-77.0643 738.192,-67.0914"/>
<polygon fill="#000000" stroke="#000000" points="741.2582,-68.7792 743.1036,-58.3463 735.155,-65.3513 741.2582,-68.7792"/>
</g>
<!-- wrong_url -->
<g id="node29" class="node">
<title>wrong_url</title>
<ellipse fill="none" stroke="#000000" stroke-dasharray="5,2" cx="110.846" cy="-874" rx="47.3916" ry="18"/>
<text text-anchor="middle" x="110.846" y="-870.3" font-family="Times,serif" font-size="14.00" fill="#000000">wrong_url</text>
</g>
<!-- wrong_url&#45;&gt;url -->
<g id="edge27" class="edge">
<title>wrong_url&#45;&gt;url</title>
<path fill="none" stroke="#000000" d="M110.3516,-855.9551C110.1305,-847.8828 109.8646,-838.1764 109.6181,-829.1817"/>
<polygon fill="#000000" stroke="#000000" points="113.1143,-828.9907 109.3416,-819.0904 106.1169,-829.1825 113.1143,-828.9907"/>
</g>
<!-- http_status -->
<g id="node31" class="node">
<title>http_status</title>
<ellipse fill="none" stroke="#000000" cx="178.846" cy="-416" rx="48.9926" ry="18"/>
<text text-anchor="middle" x="178.846" y="-412.3" font-family="Times,serif" font-size="14.00" fill="#000000">http_status</text>
</g>
<!-- web&#45;&gt;http_status -->
<g id="edge30" class="edge">
<title>web&#45;&gt;http_status</title>
<path fill="none" stroke="#000000" d="M259.4966,-480.9902C244.2807,-468.7289 224.0027,-452.3884 207.5867,-439.16"/>
<polygon fill="#000000" stroke="#000000" points="209.3842,-436.1135 199.4015,-432.5642 204.992,-441.564 209.3842,-436.1135"/>
</g>
<!-- text -->
<g id="node32" class="node">
<title>text</title>
<ellipse fill="none" stroke="#000000" cx="272.846" cy="-416" rx="27" ry="18"/>
<text text-anchor="middle" x="272.846" y="-412.3" font-family="Times,serif" font-size="14.00" fill="#000000">text</text>
</g>
<!-- web&#45;&gt;text -->
<g id="edge31" class="edge">
<title>web&#45;&gt;text</title>
<path fill="none" stroke="#000000" d="M279.8932,-480.9902C278.7256,-470.2225 277.2169,-456.309 275.8952,-444.1199"/>
<polygon fill="#000000" stroke="#000000" points="279.3528,-443.539 274.7951,-433.9746 272.3936,-444.2937 279.3528,-443.539"/>
</g>
<!-- html -->
<g id="node33" class="node">
<title>html</title>
<ellipse fill="none" stroke="#000000" cx="344.846" cy="-416" rx="27.0966" ry="18"/>
<text text-anchor="middle" x="344.846" y="-412.3" font-family="Times,serif" font-size="14.00" fill="#000000">html</text>
</g>
<!-- web&#45;&gt;html -->
<g id="edge32" class="edge">
<title>web&#45;&gt;html</title>
<path fill="none" stroke="#000000" d="M295.5161,-480.9902C304.5407,-469.1006 316.4767,-453.3754 326.3472,-440.3715"/>
<polygon fill="#000000" stroke="#000000" points="329.2257,-442.3682 332.4838,-432.2867 323.6499,-438.136 329.2257,-442.3682"/>
</g>
<!-- redirects -->
<g id="node34" class="node">
<title>redirects</title>
<ellipse fill="none" stroke="#000000" cx="70.846" cy="-416" rx="40.8928" ry="18"/>
<text text-anchor="middle" x="70.846" y="-412.3" font-family="Times,serif" font-size="14.00" fill="#000000">redirects</text>
</g>
<!-- web&#45;&gt;redirects -->
<g id="edge33" class="edge">
<title>web&#45;&gt;redirects</title>
<path fill="none" stroke="#000000" d="M254.6934,-488.3191C218.2424,-473.9806 153.205,-448.3971 111.0636,-431.8202"/>
<polygon fill="#000000" stroke="#000000" points="112.2441,-428.5235 101.6569,-428.1199 109.6816,-435.0377 112.2441,-428.5235"/>
</g>
<!-- x_frame_options -->
<g id="node35" class="node">
<title>x_frame_options</title>
<ellipse fill="none" stroke="#000000" cx="460.846" cy="-416" rx="70.6878" ry="18"/>
<text text-anchor="middle" x="460.846" y="-412.3" font-family="Times,serif" font-size="14.00" fill="#000000">x_frame_options</text>
</g>
<!-- web&#45;&gt;x_frame_options -->
<g id="edge34" class="edge">
<title>web&#45;&gt;x_frame_options</title>
<path fill="none" stroke="#000000" d="M309.0323,-486.3941C337.8182,-473.0464 383.6773,-451.7821 417.4675,-436.1141"/>
<polygon fill="#000000" stroke="#000000" points="419.054,-439.2364 426.6538,-431.8545 416.1093,-432.8859 419.054,-439.2364"/>
</g>
<!-- csp -->
<g id="node36" class="node">
<title>csp</title>
<ellipse fill="none" stroke="#000000" cx="576.846" cy="-416" rx="27" ry="18"/>
<text text-anchor="middle" x="576.846" y="-412.3" font-family="Times,serif" font-size="14.00" fill="#000000">csp</text>
</g>
<!-- web&#45;&gt;csp -->
<g id="edge35" class="edge">
<title>web&#45;&gt;csp</title>
<path fill="none" stroke="#000000" d="M308.8981,-494.2281C356.6682,-485.3606 458.6825,-464.4367 540.846,-434 542.7135,-433.3082 544.6114,-432.5474 546.5097,-431.7414"/>
<polygon fill="#000000" stroke="#000000" points="548.2384,-434.7991 555.8667,-427.4466 545.3183,-428.4372 548.2384,-434.7991"/>
</g>
<!-- timestamp -->
<g id="node49" class="node">
<title>timestamp</title>
<ellipse fill="none" stroke="#000000" stroke-dasharray="5,2" cx="272.846" cy="-343" rx="48.1917" ry="18"/>
<text text-anchor="middle" x="272.846" y="-339.3" font-family="Times,serif" font-size="14.00" fill="#000000">timestamp</text>
</g>
<!-- text&#45;&gt;timestamp -->
<!-- redirects&#45;&gt;url -->
<g id="edge50" class="edge">
<title>redirects&#45;&gt;url</title>
<path fill="none" stroke="#000000" stroke-dasharray="5,2" d="M70.846,-434.1342C70.846,-450.9491 70.846,-476.6649 70.846,-499 70.846,-728 70.846,-728 70.846,-728 70.846,-745.8152 79.8607,-763.5939 89.1086,-777.1454"/>
<polygon fill="#000000" stroke="#000000" points="86.4069,-779.3807 95.1271,-785.3981 92.0627,-775.2561 86.4069,-779.3807"/>
</g>
<!-- spf -->
<g id="node38" class="node">
<title>spf</title>
<ellipse fill="none" stroke="#000000" cx="163.846" cy="-572" rx="27" ry="18"/>
<text text-anchor="middle" x="163.846" y="-568.3" font-family="Times,serif" font-size="14.00" fill="#000000">spf</text>
</g>
<!-- dns&#45;&gt;spf -->
<g id="edge37" class="edge">
<title>dns&#45;&gt;spf</title>
<path fill="none" stroke="#000000" d="M351.679,-638.1585C316.1815,-628.8798 252.3602,-611.0282 199.846,-590 198.0459,-589.2792 196.213,-588.5031 194.3756,-587.6923"/>
<polygon fill="#000000" stroke="#000000" points="195.8235,-584.5056 185.2821,-583.4428 192.8599,-590.8473 195.8235,-584.5056"/>
</g>
<!-- txt -->
<g id="node39" class="node">
<title>txt</title>
<ellipse fill="none" stroke="#000000" cx="235.846" cy="-572" rx="27" ry="18"/>
<text text-anchor="middle" x="235.846" y="-568.3" font-family="Times,serif" font-size="14.00" fill="#000000">txt</text>
</g>
<!-- dns&#45;&gt;txt -->
<g id="edge38" class="edge">
<title>dns&#45;&gt;txt</title>
<path fill="none" stroke="#000000" d="M351.6122,-631.0974C327.325,-618.6991 291.8033,-600.5656 266.5222,-587.6599"/>
<polygon fill="#000000" stroke="#000000" points="267.8771,-584.4219 257.3791,-582.9924 264.6944,-590.6565 267.8771,-584.4219"/>
</g>
<!-- a -->
<g id="node40" class="node">
<title>a</title>
<ellipse fill="none" stroke="#000000" cx="307.846" cy="-572" rx="27" ry="18"/>
<text text-anchor="middle" x="307.846" y="-568.3" font-family="Times,serif" font-size="14.00" fill="#000000">a</text>
</g>
<!-- dns&#45;&gt;a -->
<g id="edge39" class="edge">
<title>dns&#45;&gt;a</title>
<path fill="none" stroke="#000000" d="M361.2955,-626.9551C351.7787,-617.1702 339.9265,-604.9842 329.8029,-594.5753"/>
<polygon fill="#000000" stroke="#000000" points="332.2761,-592.0983 322.7949,-587.3699 327.2581,-596.9788 332.2761,-592.0983"/>
</g>
<!-- aaaa -->
<g id="node41" class="node">
<title>aaaa</title>
<ellipse fill="none" stroke="#000000" cx="379.846" cy="-572" rx="27" ry="18"/>
<text text-anchor="middle" x="379.846" y="-568.3" font-family="Times,serif" font-size="14.00" fill="#000000">aaaa</text>
</g>
<!-- dns&#45;&gt;aaaa -->
<g id="edge40" class="edge">
<title>dns&#45;&gt;aaaa</title>
<path fill="none" stroke="#000000" d="M379.0932,-626.9551C379.2038,-618.8828 379.3368,-609.1764 379.46,-600.1817"/>
<polygon fill="#000000" stroke="#000000" points="382.9608,-600.1374 379.5982,-590.0904 375.9615,-600.0414 382.9608,-600.1374"/>
</g>
<!-- ns -->
<g id="node42" class="node">
<title>ns</title>
<ellipse fill="none" stroke="#000000" cx="451.846" cy="-572" rx="27" ry="18"/>
<text text-anchor="middle" x="451.846" y="-568.3" font-family="Times,serif" font-size="14.00" fill="#000000">ns</text>
</g>
<!-- dns&#45;&gt;ns -->
<g id="edge41" class="edge">
<title>dns&#45;&gt;ns</title>
<path fill="none" stroke="#000000" d="M396.891,-626.9551C406.6758,-617.1702 418.8619,-604.9842 429.2707,-594.5753"/>
<polygon fill="#000000" stroke="#000000" points="431.8799,-596.9159 436.4761,-587.3699 426.9301,-591.9662 431.8799,-596.9159"/>
</g>
<!-- mx -->
<g id="node43" class="node">
<title>mx</title>
<ellipse fill="none" stroke="#000000" cx="523.846" cy="-572" rx="27" ry="18"/>
<text text-anchor="middle" x="523.846" y="-568.3" font-family="Times,serif" font-size="14.00" fill="#000000">mx</text>
</g>
<!-- dns&#45;&gt;mx -->
<g id="edge42" class="edge">
<title>dns&#45;&gt;mx</title>
<path fill="none" stroke="#000000" d="M406.1194,-631.2693C430.8151,-618.8362 467.1676,-600.5346 492.9327,-587.5633"/>
<polygon fill="#000000" stroke="#000000" points="494.5468,-590.6692 501.9049,-583.0462 491.399,-584.4169 494.5468,-590.6692"/>
</g>
<!-- dmarc -->
<g id="node44" class="node">
<title>dmarc</title>
<ellipse fill="none" stroke="#000000" cx="601.846" cy="-572" rx="33.2948" ry="18"/>
<text text-anchor="middle" x="601.846" y="-568.3" font-family="Times,serif" font-size="14.00" fill="#000000">dmarc</text>
</g>
<!-- dns&#45;&gt;dmarc -->
<g id="edge43" class="edge">
<title>dns&#45;&gt;dmarc</title>
<path fill="none" stroke="#000000" d="M406.1377,-637.7165C441.8384,-627.9599 506.1639,-609.5923 559.846,-590 562.1097,-589.1738 564.4274,-588.2903 566.7546,-587.3747"/>
<polygon fill="#000000" stroke="#000000" points="568.3243,-590.5144 576.2597,-583.4945 565.6786,-584.0336 568.3243,-590.5144"/>
</g>
<!-- a&#45;&gt;web -->
<!-- dmarc&#45;&gt;urlencode -->
<!-- email&#45;&gt;hostname -->
<g id="edge45" class="edge">
<title>email&#45;&gt;hostname</title>
<path fill="none" stroke="#000000" d="M326.0483,-782.9551C327.9485,-774.7951 330.2377,-764.9652 332.3514,-755.8887"/>
<polygon fill="#000000" stroke="#000000" points="335.7738,-756.6236 334.6332,-746.0904 328.9563,-755.0359 335.7738,-756.6236"/>
</g>
<!-- country_name -->
<g id="node46" class="node">
<title>country_name</title>
<ellipse fill="none" stroke="#000000" cx="636.846" cy="-645" rx="61.99" ry="18"/>
<text text-anchor="middle" x="636.846" y="-641.3" font-family="Times,serif" font-size="14.00" fill="#000000">country_name</text>
</g>
<!-- country_name&#45;&gt;country -->
<g id="edge46" class="edge">
<title>country_name&#45;&gt;country</title>
<path fill="none" stroke="#000000" d="M675.8619,-624.3611C696.2707,-613.5652 721.0242,-600.471 740.6718,-590.0777"/>
<polygon fill="#000000" stroke="#000000" points="673.9928,-621.3903 666.79,-629.1601 677.266,-627.5779 673.9928,-621.3903"/>
<polygon fill="#000000" stroke="#000000" points="742.382,-593.1326 749.5849,-585.3628 739.1088,-586.945 742.382,-593.1326"/>
</g>
<!-- phone -->
<g id="node47" class="node">
<title>phone</title>
<ellipse fill="none" stroke="#000000" stroke-dasharray="5,2" cx="748.846" cy="-645" rx="32.4942" ry="18"/>
<text text-anchor="middle" x="748.846" y="-641.3" font-family="Times,serif" font-size="14.00" fill="#000000">phone</text>
</g>
<!-- phone&#45;&gt;country -->
<g id="edge47" class="edge">
<title>phone&#45;&gt;country</title>
<path fill="none" stroke="#000000" d="M755.1399,-627.3287C758.1198,-618.962 761.7472,-608.7776 765.0735,-599.4382"/>
<polygon fill="#000000" stroke="#000000" points="768.4619,-600.3562 768.52,-589.7615 761.8676,-598.0075 768.4619,-600.3562"/>
</g>
<!-- tld&#45;&gt;country -->
<g id="edge51" class="edge">
<title>tld&#45;&gt;country</title>
<path fill="none" stroke="#000000" stroke-dasharray="5,2" d="M814.2733,-628.4352C807.8904,-619.2988 799.8281,-607.7587 792.6597,-597.4981"/>
<polygon fill="#000000" stroke="#000000" points="795.5013,-595.4541 786.9051,-589.261 789.763,-599.4631 795.5013,-595.4541"/>
</g>
<!-- formatted_time -->
<g id="node50" class="node">
<title>formatted_time</title>
<ellipse fill="none" stroke="#000000" cx="78.846" cy="-260" rx="65.7887" ry="18"/>
<text text-anchor="middle" x="78.846" y="-256.3" font-family="Times,serif" font-size="14.00" fill="#000000">formatted_time</text>
</g>
<!-- timestamp&#45;&gt;formatted_time -->
<g id="edge52" class="edge">
<title>timestamp&#45;&gt;formatted_time</title>
<path fill="none" stroke="#000000" d="M240.8109,-329.2942C208.9011,-315.6421 159.6321,-294.5631 123.8111,-279.2376"/>
<polygon fill="#000000" stroke="#000000" points="125.1228,-275.992 114.5522,-275.2763 122.3694,-282.4278 125.1228,-275.992"/>
<text text-anchor="middle" x="194.846" y="-299" font-family="Times,serif" font-size="10.00" fill="#000000">fmt</text>
</g>
<!-- isotimestamp -->
<g id="node51" class="node">
<title>isotimestamp</title>
<ellipse fill="none" stroke="#000000" cx="220.846" cy="-260" rx="58.4896" ry="18"/>
<text text-anchor="middle" x="220.846" y="-256.3" font-family="Times,serif" font-size="14.00" fill="#000000">isotimestamp</text>
</g>
<!-- timestamp&#45;&gt;isotimestamp -->
<g id="edge53" class="edge">
<title>timestamp&#45;&gt;isotimestamp</title>
<path fill="none" stroke="#000000" d="M261.8182,-325.3978C254.7651,-314.1401 245.4822,-299.3232 237.5361,-286.6399"/>
<polygon fill="#000000" stroke="#000000" points="240.3125,-284.479 232.0373,-277.8629 234.3805,-288.1954 240.3125,-284.479"/>
</g>
<!-- date -->
<g id="node52" class="node">
<title>date</title>
<ellipse fill="none" stroke="#000000" cx="323.846" cy="-260" rx="27" ry="18"/>
<text text-anchor="middle" x="323.846" y="-256.3" font-family="Times,serif" font-size="14.00" fill="#000000">date</text>
</g>
<!-- timestamp&#45;&gt;date -->
<g id="edge54" class="edge">
<title>timestamp&#45;&gt;date</title>
<path fill="none" stroke="#000000" d="M283.6618,-325.3978C290.7674,-313.8338 300.1807,-298.5142 308.1101,-285.6094"/>
<polygon fill="#000000" stroke="#000000" points="311.3144,-287.0801 313.5676,-276.7276 305.3503,-283.4154 311.3144,-287.0801"/>
</g>
<!-- time -->
<g id="node53" class="node">
<title>time</title>
<ellipse fill="none" stroke="#000000" cx="395.846" cy="-260" rx="27" ry="18"/>
<text text-anchor="middle" x="395.846" y="-256.3" font-family="Times,serif" font-size="14.00" fill="#000000">time</text>
</g>
<!-- timestamp&#45;&gt;time -->
<g id="edge55" class="edge">
<title>timestamp&#45;&gt;time</title>
<path fill="none" stroke="#000000" d="M296.2709,-327.193C316.7322,-313.3858 346.4638,-293.323 368.1092,-278.7167"/>
<polygon fill="#000000" stroke="#000000" points="370.2186,-281.5157 376.5501,-273.0208 366.3031,-275.7132 370.2186,-281.5157"/>
</g>
<!-- unit -->
<g id="node54" class="node">
<title>unit</title>
<ellipse fill="none" stroke="#000000" stroke-dasharray="5,2" cx="691.846" cy="-499" rx="27" ry="18"/>
<text text-anchor="middle" x="691.846" y="-495.3" font-family="Times,serif" font-size="14.00" fill="#000000">unit</text>
</g>
<!-- unit&#45;&gt;plaintext -->
<g id="edge56" class="edge">
<title>unit&#45;&gt;plaintext</title>
<path fill="none" stroke="#000000" d="M687.0962,-470.8403C685.6341,-462.172 684.0254,-452.6347 682.5653,-443.9786"/>
<polygon fill="#000000" stroke="#000000" points="683.6936,-471.7117 688.8082,-480.9902 690.5961,-470.5474 683.6936,-471.7117"/>
<polygon fill="#000000" stroke="#000000" points="685.9925,-443.2532 680.8779,-433.9746 679.09,-444.4175 685.9925,-443.2532"/>
<text text-anchor="middle" x="693.346" y="-455" font-family="Times,serif" font-size="10.00" fill="#000000">unit</text>
</g>
<!-- ports -->
<g id="node56" class="node">
<title>ports</title>
<ellipse fill="none" stroke="#000000" cx="968.846" cy="-572" rx="28.6953" ry="18"/>
<text text-anchor="middle" x="968.846" y="-568.3" font-family="Times,serif" font-size="14.00" fill="#000000">ports</text>
</g>
<!-- nmap&#45;&gt;ports -->
<g id="edge58" class="edge">
<title>nmap&#45;&gt;ports</title>
<path fill="none" stroke="#000000" d="M968.846,-626.9551C968.846,-618.8828 968.846,-609.1764 968.846,-600.1817"/>
<polygon fill="#000000" stroke="#000000" points="972.3461,-600.0903 968.846,-590.0904 965.3461,-600.0904 972.3461,-600.0903"/>
</g>
</g>
</svg>
