<?xml version="1.0" encoding="UTF-8" standalone="no"?>
<!DOCTYPE svg PUBLIC "-//W3C//DTD SVG 1.1//EN"
 "http://www.w3.org/Graphics/SVG/1.1/DTD/svg11.dtd">
<!-- Generated by graphviz version 2.40.1 (20161225.0304)
 -->
<!-- Title: %3 Pages: 1 -->
<svg width="1120pt" height="1129pt"
     viewBox="0.00 0.00 1120.00 1129.00" xmlns="http://www.w3.org/2000/svg">
<g id="graph0" class="graph" transform="scale(1 1) rotate(0) translate(4 1125)">
<title>%3</title>
<polygon fill="#ffffff" stroke="transparent" points="-4,4 -4,-1125 1116,-1125 1116,4 -4,4"/>
<text text-anchor="middle" x="556" y="-7.8" font-family="Times,serif" font-size="14.00" fill="#000000">Convey field types (dashed nodes = identifiable automatically, dashed edges = field identity)</text>
<!-- source_ip -->
<g id="node1" class="node">
<title>source_ip</title>
<ellipse fill="none" stroke="#000000" stroke-dasharray="5,2" cx="624" cy="-1103" rx="44.6926" ry="18"/>
<text text-anchor="middle" x="624" y="-1099.3" font-family="Times,serif" font-size="14.00" fill="#000000">source_ip</text>
</g>
<!-- ip -->
<g id="node2" class="node">
<title>ip</title>
<ellipse fill="none" stroke="#000000" stroke-dasharray="5,2" cx="747" cy="-1030" rx="27" ry="18"/>
<text text-anchor="middle" x="747" y="-1026.3" font-family="Times,serif" font-size="14.00" fill="#000000">ip</text>
</g>
<!-- source_ip&#45;&gt;ip -->
<g id="edge1" class="edge">
<title>source_ip&#45;&gt;ip</title>
<path fill="none" stroke="#000000" stroke-dasharray="5,2" d="M649.1877,-1088.0512C669.1466,-1076.2057 697.0552,-1059.642 717.9551,-1047.238"/>
<polygon fill="#000000" stroke="#000000" points="719.9114,-1050.147 726.7246,-1042.0334 716.3387,-1044.1274 719.9114,-1050.147"/>
</g>
<!-- url -->
<g id="node7" class="node">
<title>url</title>
<ellipse fill="none" stroke="#000000" stroke-dasharray="5,2" cx="996" cy="-811" rx="27" ry="18"/>
<text text-anchor="middle" x="996" y="-807.3" font-family="Times,serif" font-size="14.00" fill="#000000">url</text>
</g>
<!-- ip&#45;&gt;url -->
<g id="edge30" class="edge">
<title>ip&#45;&gt;url</title>
<path fill="none" stroke="#000000" d="M773.0972,-1024.5452C823.3735,-1012.482 932.768,-978.3339 979,-902 990.4678,-883.0655 994.5167,-858.1636 995.8102,-839.1965"/>
<polygon fill="#000000" stroke="#000000" points="999.3124,-839.2277 996.2819,-829.0756 992.32,-838.9018 999.3124,-839.2277"/>
</g>
<!-- whois -->
<g id="node9" class="node">
<title>whois</title>
<polygon fill="none" stroke="#000000" points="531,-975 477,-975 477,-939 531,-939 531,-975"/>
<text text-anchor="middle" x="504" y="-953.3" font-family="Times,serif" font-size="14.00" fill="#000000">whois</text>
</g>
<!-- ip&#45;&gt;whois -->
<g id="edge9" class="edge">
<title>ip&#45;&gt;whois</title>
<path fill="none" stroke="#000000" d="M722.3626,-1022.5986C679.5801,-1009.7463 591.329,-983.2346 541.1035,-968.1463"/>
<polygon fill="#000000" stroke="#000000" points="541.8759,-964.7239 531.2917,-965.1987 539.8618,-971.4279 541.8759,-964.7239"/>
</g>
<!-- nmap -->
<g id="node56" class="node">
<title>nmap</title>
<polygon fill="none" stroke="#000000" points="416,-673 362,-673 362,-637 416,-637 416,-673"/>
<text text-anchor="middle" x="389" y="-651.3" font-family="Times,serif" font-size="14.00" fill="#000000">nmap</text>
</g>
<!-- ip&#45;&gt;nmap -->
<g id="edge61" class="edge">
<title>ip&#45;&gt;nmap</title>
<path fill="none" stroke="#000000" d="M719.6914,-1028.4609C594.5558,-1021.2317 82,-989.6295 82,-957 82,-957 82,-957 82,-774.5 82,-649.0248 227.7118,-720.6764 352.3116,-672.8781"/>
<polygon fill="#000000" stroke="#000000" points="353.6988,-676.0922 361.6236,-669.0603 351.0434,-669.6154 353.6988,-676.0922"/>
</g>
<!-- destination_ip -->
<g id="node3" class="node">
<title>destination_ip</title>
<ellipse fill="none" stroke="#000000" stroke-dasharray="5,2" cx="747" cy="-1103" rx="60.3893" ry="18"/>
<text text-anchor="middle" x="747" y="-1099.3" font-family="Times,serif" font-size="14.00" fill="#000000">destination_ip</text>
</g>
<!-- destination_ip&#45;&gt;ip -->
<g id="edge2" class="edge">
<title>destination_ip&#45;&gt;ip</title>
<path fill="none" stroke="#000000" stroke-dasharray="5,2" d="M747,-1084.9551C747,-1076.8828 747,-1067.1764 747,-1058.1817"/>
<polygon fill="#000000" stroke="#000000" points="750.5001,-1058.0903 747,-1048.0904 743.5001,-1058.0904 750.5001,-1058.0903"/>
</g>
<!-- any_ip -->
<g id="node4" class="node">
<title>any_ip</title>
<ellipse fill="none" stroke="#000000" stroke-dasharray="5,2" cx="860" cy="-1103" rx="34.394" ry="18"/>
<text text-anchor="middle" x="860" y="-1099.3" font-family="Times,serif" font-size="14.00" fill="#000000">any_ip</text>
</g>
<!-- any_ip&#45;&gt;ip -->
<g id="edge3" class="edge">
<title>any_ip&#45;&gt;ip</title>
<path fill="none" stroke="#000000" d="M838.2125,-1088.9249C820.1929,-1077.2839 794.4822,-1060.6743 774.9482,-1048.055"/>
<polygon fill="#000000" stroke="#000000" points="776.7565,-1045.0564 766.4575,-1042.5699 772.958,-1050.9362 776.7565,-1045.0564"/>
</g>
<!-- port_ip -->
<g id="node5" class="node">
<title>port_ip</title>
<ellipse fill="none" stroke="#000000" stroke-dasharray="5,2" cx="413" cy="-1103" rx="36.2938" ry="18"/>
<text text-anchor="middle" x="413" y="-1099.3" font-family="Times,serif" font-size="14.00" fill="#000000">port_ip</text>
</g>
<!-- port_ip&#45;&gt;ip -->
<g id="edge4" class="edge">
<title>port_ip&#45;&gt;ip</title>
<path fill="none" stroke="#000000" d="M446.5544,-1095.6662C509.8355,-1081.8354 646.2708,-1052.0157 711.223,-1037.8195"/>
<polygon fill="#000000" stroke="#000000" points="711.9895,-1041.2347 721.0115,-1035.6801 710.4948,-1034.3961 711.9895,-1041.2347"/>
</g>
<!-- port -->
<g id="node6" class="node">
<title>port</title>
<ellipse fill="none" stroke="#000000" stroke-dasharray="5,2" cx="232" cy="-509" rx="27" ry="18"/>
<text text-anchor="middle" x="232" y="-505.3" font-family="Times,serif" font-size="14.00" fill="#000000">port</text>
</g>
<!-- port_ip&#45;&gt;port -->
<g id="edge5" class="edge">
<title>port_ip&#45;&gt;port</title>
<path fill="none" stroke="#000000" d="M376.711,-1100.3965C275.9314,-1092.6842 0,-1068.0902 0,-1030 0,-1030 0,-1030 0,-582 0,-541.619 129.5063,-520.8286 195.0004,-512.8964"/>
<polygon fill="#000000" stroke="#000000" points="195.4079,-516.3727 204.9326,-511.7327 194.5932,-509.4202 195.4079,-516.3727"/>
</g>
<!-- urlencode -->
<g id="node22" class="node">
<title>urlencode</title>
<ellipse fill="none" stroke="#000000" stroke-dasharray="5,2" cx="232" cy="-436" rx="45.4919" ry="18"/>
<text text-anchor="middle" x="232" y="-432.3" font-family="Times,serif" font-size="14.00" fill="#000000">urlencode</text>
</g>
<!-- port&#45;&gt;urlencode -->
<!-- url&#45;&gt;port -->
<g id="edge7" class="edge">
<title>url&#45;&gt;port</title>
<path fill="none" stroke="#000000" d="M1022.3222,-806.4676C1056.5471,-798.8911 1112,-780.1169 1112,-738 1112,-738 1112,-738 1112,-582 1112,-539.0385 437.0951,-515.3376 269.3807,-510.1112"/>
<polygon fill="#000000" stroke="#000000" points="269.4048,-506.6103 259.3016,-509.8004 269.189,-513.607 269.4048,-506.6103"/>
</g>
<!-- hostname -->
<g id="node8" class="node">
<title>hostname</title>
<ellipse fill="none" stroke="#000000" stroke-dasharray="5,2" cx="522" cy="-738" rx="44.6926" ry="18"/>
<text text-anchor="middle" x="522" y="-734.3" font-family="Times,serif" font-size="14.00" fill="#000000">hostname</text>
</g>
<!-- url&#45;&gt;hostname -->
<g id="edge6" class="edge">
<title>url&#45;&gt;hostname</title>
<path fill="none" stroke="#000000" d="M961.8951,-799.9145C935.0286,-791.5895 896.482,-780.5404 862,-774 762.2919,-755.0879 644.1124,-745.3797 576.6082,-741.0171"/>
<polygon fill="#000000" stroke="#000000" points="960.998,-803.3013 971.5872,-802.9567 963.0944,-796.6225 960.998,-803.3013"/>
<polygon fill="#000000" stroke="#000000" points="576.8229,-737.5238 566.6223,-740.387 576.382,-744.5099 576.8229,-737.5238"/>
</g>
<!-- web -->
<g id="node31" class="node">
<title>web</title>
<polygon fill="none" stroke="#000000" points="868,-756 814,-756 814,-720 868,-720 868,-756"/>
<text text-anchor="middle" x="841" y="-734.3" font-family="Times,serif" font-size="14.00" fill="#000000">web</text>
</g>
<!-- url&#45;&gt;web -->
<g id="edge31" class="edge">
<title>url&#45;&gt;web</title>
<path fill="none" stroke="#000000" d="M974.7591,-799.621C960.5173,-792.1066 941.2767,-782.1752 924,-774 908.8597,-766.8357 891.9305,-759.3933 877.3301,-753.1476"/>
<polygon fill="#000000" stroke="#000000" points="878.6864,-749.9211 868.1141,-749.2311 875.9485,-756.3635 878.6864,-749.9211"/>
</g>
<!-- hostname&#45;&gt;ip -->
<g id="edge8" class="edge">
<title>hostname&#45;&gt;ip</title>
<path fill="none" stroke="#000000" d="M565.2903,-743.2076C653.9687,-754.4633 848,-782.3631 848,-811 848,-957 848,-957 848,-957 848,-990.4333 811.1978,-1010.103 782.0237,-1020.4432"/>
<polygon fill="#000000" stroke="#000000" points="780.881,-1017.1346 772.4866,-1023.5987 783.0798,-1023.7804 780.881,-1017.1346"/>
</g>
<!-- dns -->
<g id="node38" class="node">
<title>dns</title>
<polygon fill="none" stroke="#000000" points="492,-673 438,-673 438,-637 492,-637 492,-673"/>
<text text-anchor="middle" x="465" y="-651.3" font-family="Times,serif" font-size="14.00" fill="#000000">dns</text>
</g>
<!-- hostname&#45;&gt;dns -->
<g id="edge38" class="edge">
<title>hostname&#45;&gt;dns</title>
<path fill="none" stroke="#000000" d="M509.9118,-720.3978C502.1586,-709.1081 491.9473,-694.239 483.2207,-681.5319"/>
<polygon fill="#000000" stroke="#000000" points="486.0111,-679.4125 477.4649,-673.1506 480.2408,-683.3753 486.0111,-679.4125"/>
</g>
<!-- tld -->
<g id="node49" class="node">
<title>tld</title>
<ellipse fill="none" stroke="#000000" cx="317" cy="-655" rx="27" ry="18"/>
<text text-anchor="middle" x="317" y="-651.3" font-family="Times,serif" font-size="14.00" fill="#000000">tld</text>
</g>
<!-- hostname&#45;&gt;tld -->
<g id="edge50" class="edge">
<title>hostname&#45;&gt;tld</title>
<path fill="none" stroke="#000000" d="M478.5143,-733.3521C432.9472,-727.7667 365.1022,-717.2075 344,-702 337.0217,-696.971 331.5845,-689.5413 327.4775,-682.0664"/>
<polygon fill="#000000" stroke="#000000" points="330.4767,-680.2289 322.9709,-672.7513 324.1754,-683.2775 330.4767,-680.2289"/>
<text text-anchor="middle" x="394" y="-694" font-family="Times,serif" font-size="10.00" fill="#000000">choose all,ccTLD,gTLD</text>
</g>
<!-- hostname&#45;&gt;nmap -->
<g id="edge59" class="edge">
<title>hostname&#45;&gt;nmap</title>
<path fill="none" stroke="#000000" d="M497.6058,-722.7765C477.2577,-710.0781 447.9747,-691.8038 424.9418,-677.4298"/>
<polygon fill="#000000" stroke="#000000" points="426.7884,-674.4566 416.4518,-672.1316 423.0824,-680.3951 426.7884,-674.4566"/>
</g>
<!-- prefix -->
<g id="node11" class="node">
<title>prefix</title>
<ellipse fill="none" stroke="#000000" cx="750" cy="-884" rx="31.6951" ry="18"/>
<text text-anchor="middle" x="750" y="-880.3" font-family="Times,serif" font-size="14.00" fill="#000000">prefix</text>
</g>
<!-- whois&#45;&gt;prefix -->
<g id="edge11" class="edge">
<title>whois&#45;&gt;prefix</title>
<path fill="none" stroke="#000000" d="M531.2601,-951.0754C570.9176,-942.1454 646.5965,-923.9274 709,-902 711.2278,-901.2172 713.5041,-900.3668 715.7861,-899.4757"/>
<polygon fill="#000000" stroke="#000000" points="717.1694,-902.6913 725.0892,-895.6537 714.5093,-896.2165 717.1694,-902.6913"/>
</g>
<!-- asn -->
<g id="node12" class="node">
<title>asn</title>
<ellipse fill="none" stroke="#000000" stroke-dasharray="5,2" cx="561" cy="-884" rx="27" ry="18"/>
<text text-anchor="middle" x="561" y="-880.3" font-family="Times,serif" font-size="14.00" fill="#000000">asn</text>
</g>
<!-- whois&#45;&gt;asn -->
<g id="edge12" class="edge">
<title>whois&#45;&gt;asn</title>
<path fill="none" stroke="#000000" d="M518.0899,-938.9551C525.3015,-929.7191 534.1836,-918.3438 541.9924,-908.343"/>
<polygon fill="#000000" stroke="#000000" points="544.8434,-910.3788 548.2391,-900.3429 539.3261,-906.0707 544.8434,-910.3788"/>
</g>
<!-- abusemail -->
<g id="node13" class="node">
<title>abusemail</title>
<ellipse fill="none" stroke="#000000" cx="653" cy="-884" rx="46.5926" ry="18"/>
<text text-anchor="middle" x="653" y="-880.3" font-family="Times,serif" font-size="14.00" fill="#000000">abusemail</text>
</g>
<!-- whois&#45;&gt;abusemail -->
<g id="edge13" class="edge">
<title>whois&#45;&gt;abusemail</title>
<path fill="none" stroke="#000000" d="M531.3289,-943.6107C554.749,-932.1364 588.7347,-915.4857 614.838,-902.6968"/>
<polygon fill="#000000" stroke="#000000" points="616.624,-905.7194 624.0642,-898.1766 613.5442,-899.4333 616.624,-905.7194"/>
</g>
<!-- country -->
<g id="node14" class="node">
<title>country</title>
<ellipse fill="none" stroke="#000000" cx="134" cy="-582" rx="37.8943" ry="18"/>
<text text-anchor="middle" x="134" y="-578.3" font-family="Times,serif" font-size="14.00" fill="#000000">country</text>
</g>
<!-- whois&#45;&gt;country -->
<g id="edge14" class="edge">
<title>whois&#45;&gt;country</title>
<path fill="none" stroke="#000000" d="M476.9002,-955.0275C402.9076,-949.3121 198.9684,-931.2621 139,-902 128.546,-896.8989 120,-895.6322 120,-884 120,-884 120,-884 120,-655 120,-639.7807 122.9713,-623.0908 126.1763,-609.5155"/>
<polygon fill="#000000" stroke="#000000" points="129.5702,-610.3702 128.6273,-599.8174 122.7836,-608.655 129.5702,-610.3702"/>
</g>
<!-- netname -->
<g id="node15" class="node">
<title>netname</title>
<ellipse fill="none" stroke="#000000" cx="189" cy="-884" rx="40.8928" ry="18"/>
<text text-anchor="middle" x="189" y="-880.3" font-family="Times,serif" font-size="14.00" fill="#000000">netname</text>
</g>
<!-- whois&#45;&gt;netname -->
<g id="edge15" class="edge">
<title>whois&#45;&gt;netname</title>
<path fill="none" stroke="#000000" d="M476.9922,-952.6906C428.7261,-944.7031 324.693,-926.1873 239,-902 235.8923,-901.1228 232.6998,-900.1491 229.5038,-899.1215"/>
<polygon fill="#000000" stroke="#000000" points="230.5802,-895.791 219.9862,-895.9203 228.3486,-902.4257 230.5802,-895.791"/>
</g>
<!-- csirt_contact -->
<g id="node16" class="node">
<title>csirt_contact</title>
<ellipse fill="none" stroke="#000000" cx="304" cy="-884" rx="55.7903" ry="18"/>
<text text-anchor="middle" x="304" y="-880.3" font-family="Times,serif" font-size="14.00" fill="#000000">csirt_contact</text>
</g>
<!-- whois&#45;&gt;csirt_contact -->
<g id="edge16" class="edge">
<title>whois&#45;&gt;csirt_contact</title>
<path fill="none" stroke="#000000" d="M476.6102,-947.0027C444.2614,-935.1954 389.9184,-915.3602 350.8424,-901.0975"/>
<polygon fill="#000000" stroke="#000000" points="351.8533,-897.7407 341.2594,-897.5997 349.4532,-904.3163 351.8533,-897.7407"/>
</g>
<!-- incident_contact -->
<g id="node17" class="node">
<title>incident_contact</title>
<ellipse fill="none" stroke="#000000" cx="447" cy="-884" rx="68.7879" ry="18"/>
<text text-anchor="middle" x="447" y="-880.3" font-family="Times,serif" font-size="14.00" fill="#000000">incident_contact</text>
</g>
<!-- whois&#45;&gt;incident_contact -->
<g id="edge17" class="edge">
<title>whois&#45;&gt;incident_contact</title>
<path fill="none" stroke="#000000" d="M489.9101,-938.9551C483.0766,-930.2033 474.7431,-919.5307 467.2442,-909.9268"/>
<polygon fill="#000000" stroke="#000000" points="469.8409,-907.5652 460.9278,-901.8374 464.3235,-911.8733 469.8409,-907.5652"/>
</g>
<!-- cidr -->
<g id="node10" class="node">
<title>cidr</title>
<ellipse fill="none" stroke="#000000" stroke-dasharray="5,2" cx="772" cy="-811" rx="27" ry="18"/>
<text text-anchor="middle" x="772" y="-807.3" font-family="Times,serif" font-size="14.00" fill="#000000">cidr</text>
</g>
<!-- cidr&#45;&gt;ip -->
<g id="edge10" class="edge">
<title>cidr&#45;&gt;ip</title>
<path fill="none" stroke="#000000" d="M779.6973,-828.4429C783.9603,-839.0675 788.8259,-853.0482 791,-866 799.3145,-915.5321 777.0732,-971.7742 761.2648,-1003.8559"/>
<polygon fill="#000000" stroke="#000000" points="758.026,-1002.5032 756.6062,-1013.0024 764.2635,-1005.6801 758.026,-1002.5032"/>
</g>
<!-- prefix&#45;&gt;cidr -->
<g id="edge51" class="edge">
<title>prefix&#45;&gt;cidr</title>
<path fill="none" stroke="#000000" d="M755.4382,-865.9551C757.9159,-857.7337 760.9044,-847.8173 763.6569,-838.6841"/>
<polygon fill="#000000" stroke="#000000" points="767.0899,-839.422 766.6244,-828.8374 760.3876,-837.4021 767.0899,-839.422"/>
</g>
<!-- email -->
<g id="node46" class="node">
<title>email</title>
<ellipse fill="none" stroke="#000000" stroke-dasharray="5,2" cx="583" cy="-811" rx="30.5947" ry="18"/>
<text text-anchor="middle" x="583" y="-807.3" font-family="Times,serif" font-size="14.00" fill="#000000">email</text>
</g>
<!-- abusemail&#45;&gt;email -->
<g id="edge46" class="edge">
<title>abusemail&#45;&gt;email</title>
<path fill="none" stroke="#000000" stroke-dasharray="5,2" d="M636.7646,-867.0688C627.4047,-857.3078 615.5028,-844.8957 605.2777,-834.2325"/>
<polygon fill="#000000" stroke="#000000" points="607.6364,-831.6353 598.189,-826.8399 602.5839,-836.4802 607.6364,-831.6353"/>
</g>
<!-- plaintext -->
<g id="node18" class="node">
<title>plaintext</title>
<ellipse fill="none" stroke="#000000" stroke-dasharray="5,2" cx="277" cy="-353" rx="41.6928" ry="18"/>
<text text-anchor="middle" x="277" y="-349.3" font-family="Times,serif" font-size="14.00" fill="#000000">plaintext</text>
</g>
<!-- bytes -->
<g id="node19" class="node">
<title>bytes</title>
<ellipse fill="none" stroke="#000000" cx="231" cy="-280" rx="29.4969" ry="18"/>
<text text-anchor="middle" x="231" y="-276.3" font-family="Times,serif" font-size="14.00" fill="#000000">bytes</text>
</g>
<!-- plaintext&#45;&gt;bytes -->
<g id="edge18" class="edge">
<title>plaintext&#45;&gt;bytes</title>
<path fill="none" stroke="#000000" d="M260.3972,-326.6521C256.1176,-319.8606 251.517,-312.5596 247.2554,-305.7965"/>
<polygon fill="#000000" stroke="#000000" points="257.5723,-328.7343 265.8647,-335.3287 263.4946,-325.0024 257.5723,-328.7343"/>
<polygon fill="#000000" stroke="#000000" points="250.0084,-303.6003 241.716,-297.0059 244.0861,-307.3322 250.0084,-303.6003"/>
</g>
<!-- custom -->
<g id="node23" class="node">
<title>custom</title>
<polygon fill="none" stroke="#000000" points="487,-298 431,-298 431,-262 487,-262 487,-298"/>
<text text-anchor="middle" x="459" y="-276.3" font-family="Times,serif" font-size="14.00" fill="#000000">custom</text>
</g>
<!-- plaintext&#45;&gt;custom -->
<g id="edge22" class="edge">
<title>plaintext&#45;&gt;custom</title>
<path fill="none" stroke="#000000" d="M307.8738,-340.6165C339.2576,-328.0286 387.911,-308.5137 421.494,-295.0436"/>
<polygon fill="#000000" stroke="#000000" points="422.9893,-298.215 430.9676,-291.2438 420.3834,-291.7181 422.9893,-298.215"/>
</g>
<!-- base64 -->
<g id="node20" class="node">
<title>base64</title>
<ellipse fill="none" stroke="#000000" stroke-dasharray="5,2" cx="77" cy="-197" rx="35.194" ry="18"/>
<text text-anchor="middle" x="77" y="-193.3" font-family="Times,serif" font-size="14.00" fill="#000000">base64</text>
</g>
<!-- bytes&#45;&gt;base64 -->
<g id="edge19" class="edge">
<title>bytes&#45;&gt;base64</title>
<path fill="none" stroke="#000000" d="M200.0156,-263.3006C173.9953,-249.2767 136.9031,-229.2854 110.2622,-214.927"/>
<polygon fill="#000000" stroke="#000000" points="198.4721,-266.4447 208.9356,-268.1081 201.7932,-260.2827 198.4721,-266.4447"/>
<polygon fill="#000000" stroke="#000000" points="111.7736,-211.7657 101.3101,-210.1022 108.4525,-217.9277 111.7736,-211.7657"/>
</g>
<!-- quoted_printable -->
<g id="node21" class="node">
<title>quoted_printable</title>
<ellipse fill="none" stroke="#000000" stroke-dasharray="5,2" cx="200" cy="-197" rx="70.3881" ry="18"/>
<text text-anchor="middle" x="200" y="-193.3" font-family="Times,serif" font-size="14.00" fill="#000000">quoted_printable</text>
</g>
<!-- bytes&#45;&gt;quoted_printable -->
<g id="edge20" class="edge">
<title>bytes&#45;&gt;quoted_printable</title>
<path fill="none" stroke="#000000" d="M220.9088,-252.9816C217.5095,-243.8804 213.7134,-233.7167 210.2984,-224.5732"/>
<polygon fill="#000000" stroke="#000000" points="217.648,-254.2545 224.4257,-262.3978 224.2055,-251.8053 217.648,-254.2545"/>
<polygon fill="#000000" stroke="#000000" points="213.5568,-223.2939 206.7791,-215.1506 206.9993,-225.7431 213.5568,-223.2939"/>
</g>
<!-- charset -->
<g id="node27" class="node">
<title>charset</title>
<ellipse fill="none" stroke="#000000" cx="324" cy="-197" rx="35.9954" ry="18"/>
<text text-anchor="middle" x="324" y="-193.3" font-family="Times,serif" font-size="14.00" fill="#000000">charset</text>
</g>
<!-- bytes&#45;&gt;charset -->
<g id="edge26" class="edge">
<title>bytes&#45;&gt;charset</title>
<path fill="none" stroke="#000000" d="M247.6265,-265.1613C261.8147,-252.4987 282.4375,-234.0934 298.6778,-219.5994"/>
<polygon fill="#000000" stroke="#000000" points="301.1205,-222.1106 306.2508,-212.8407 296.4595,-216.888 301.1205,-222.1106"/>
<text text-anchor="middle" x="303.5" y="-236" font-family="Times,serif" font-size="10.00" fill="#000000">encoding</text>
</g>
<!-- urlencode&#45;&gt;plaintext -->
<g id="edge21" class="edge">
<title>urlencode&#45;&gt;plaintext</title>
<path fill="none" stroke="#000000" d="M246.3186,-409.5901C251.5004,-400.0326 257.3524,-389.2389 262.5458,-379.66"/>
<polygon fill="#000000" stroke="#000000" points="243.2328,-407.9385 241.5433,-418.3978 249.3865,-411.275 243.2328,-407.9385"/>
<polygon fill="#000000" stroke="#000000" points="265.781,-381.0361 267.4704,-370.5768 259.6272,-377.6997 265.781,-381.0361"/>
</g>
<!-- external -->
<g id="node24" class="node">
<title>external</title>
<ellipse fill="none" stroke="#000000" cx="417" cy="-197" rx="38.9931" ry="18"/>
<text text-anchor="middle" x="417" y="-193.3" font-family="Times,serif" font-size="14.00" fill="#000000">external</text>
</g>
<!-- custom&#45;&gt;external -->
<g id="edge23" class="edge">
<title>custom&#45;&gt;external</title>
<path fill="none" stroke="#000000" d="M449.8866,-261.9902C444.2343,-250.8203 436.869,-236.2649 430.5418,-223.7612"/>
<polygon fill="#000000" stroke="#000000" points="433.5894,-222.0319 425.9513,-214.6895 427.3435,-225.1925 433.5894,-222.0319"/>
</g>
<!-- code -->
<g id="node25" class="node">
<title>code</title>
<ellipse fill="none" stroke="#000000" cx="501" cy="-197" rx="27.0966" ry="18"/>
<text text-anchor="middle" x="501" y="-193.3" font-family="Times,serif" font-size="14.00" fill="#000000">code</text>
</g>
<!-- custom&#45;&gt;code -->
<g id="edge24" class="edge">
<title>custom&#45;&gt;code</title>
<path fill="none" stroke="#000000" d="M468.1134,-261.9902C473.8426,-250.6683 481.3317,-235.8683 487.7159,-223.252"/>
<polygon fill="#000000" stroke="#000000" points="490.9428,-224.6267 492.335,-214.1237 484.6969,-221.4661 490.9428,-224.6267"/>
</g>
<!-- reg -->
<g id="node26" class="node">
<title>reg</title>
<ellipse fill="none" stroke="#000000" cx="573" cy="-197" rx="27" ry="18"/>
<text text-anchor="middle" x="573" y="-193.3" font-family="Times,serif" font-size="14.00" fill="#000000">reg</text>
</g>
<!-- custom&#45;&gt;reg -->
<g id="edge25" class="edge">
<title>custom&#45;&gt;reg</title>
<path fill="none" stroke="#000000" d="M483.7363,-261.9902C502.2491,-248.5116 527.5323,-230.1037 546.4652,-216.3192"/>
<polygon fill="#000000" stroke="#000000" points="548.6459,-219.0609 554.6701,-210.3455 544.5257,-213.4019 548.6459,-219.0609"/>
</g>
<!-- reg_s -->
<g id="node28" class="node">
<title>reg_s</title>
<ellipse fill="none" stroke="#000000" cx="614" cy="-124" rx="29.795" ry="18"/>
<text text-anchor="middle" x="614" y="-120.3" font-family="Times,serif" font-size="14.00" fill="#000000">reg_s</text>
</g>
<!-- reg&#45;&gt;reg_s -->
<g id="edge27" class="edge">
<title>reg&#45;&gt;reg_s</title>
<path fill="none" stroke="#000000" d="M582.5093,-180.0688C587.5443,-171.1041 593.8352,-159.9033 599.4676,-149.8747"/>
<polygon fill="#000000" stroke="#000000" points="602.5549,-151.5251 604.4003,-141.0922 596.4516,-148.0972 602.5549,-151.5251"/>
</g>
<!-- reg_m -->
<g id="node29" class="node">
<title>reg_m</title>
<ellipse fill="none" stroke="#000000" cx="532" cy="-124" rx="33.5952" ry="18"/>
<text text-anchor="middle" x="532" y="-120.3" font-family="Times,serif" font-size="14.00" fill="#000000">reg_m</text>
</g>
<!-- reg&#45;&gt;reg_m -->
<g id="edge28" class="edge">
<title>reg&#45;&gt;reg_m</title>
<path fill="none" stroke="#000000" d="M563.4907,-180.0688C558.4919,-171.1686 552.2553,-160.0643 546.654,-150.0914"/>
<polygon fill="#000000" stroke="#000000" points="549.691,-148.3513 541.7424,-141.3463 543.5878,-151.7792 549.691,-148.3513"/>
</g>
<!-- timestamp -->
<g id="node50" class="node">
<title>timestamp</title>
<ellipse fill="none" stroke="#000000" stroke-dasharray="5,2" cx="324" cy="-124" rx="48.1917" ry="18"/>
<text text-anchor="middle" x="324" y="-120.3" font-family="Times,serif" font-size="14.00" fill="#000000">timestamp</text>
</g>
<!-- charset&#45;&gt;timestamp -->
<!-- wrong_url -->
<g id="node30" class="node">
<title>wrong_url</title>
<ellipse fill="none" stroke="#000000" stroke-dasharray="5,2" cx="923" cy="-884" rx="47.3916" ry="18"/>
<text text-anchor="middle" x="923" y="-880.3" font-family="Times,serif" font-size="14.00" fill="#000000">wrong_url</text>
</g>
<!-- wrong_url&#45;&gt;url -->
<g id="edge29" class="edge">
<title>wrong_url&#45;&gt;url</title>
<path fill="none" stroke="#000000" d="M939.9312,-867.0688C949.9239,-857.0761 962.6949,-844.3051 973.5237,-833.4763"/>
<polygon fill="#000000" stroke="#000000" points="976.0561,-835.8937 980.6523,-826.3477 971.1063,-830.9439 976.0561,-835.8937"/>
</g>
<!-- http_status -->
<g id="node32" class="node">
<title>http_status</title>
<ellipse fill="none" stroke="#000000" cx="935" cy="-655" rx="48.9926" ry="18"/>
<text text-anchor="middle" x="935" y="-651.3" font-family="Times,serif" font-size="14.00" fill="#000000">http_status</text>
</g>
<!-- web&#45;&gt;http_status -->
<g id="edge32" class="edge">
<title>web&#45;&gt;http_status</title>
<path fill="none" stroke="#000000" d="M861.3966,-719.9902C875.0644,-707.9218 893.2078,-691.9016 908.0608,-678.7867"/>
<polygon fill="#000000" stroke="#000000" points="910.7452,-681.0857 915.9246,-671.8432 906.1119,-675.8384 910.7452,-681.0857"/>
</g>
<!-- text -->
<g id="node33" class="node">
<title>text</title>
<ellipse fill="none" stroke="#000000" cx="769" cy="-655" rx="27" ry="18"/>
<text text-anchor="middle" x="769" y="-651.3" font-family="Times,serif" font-size="14.00" fill="#000000">text</text>
</g>
<!-- web&#45;&gt;text -->
<g id="edge33" class="edge">
<title>web&#45;&gt;text</title>
<path fill="none" stroke="#000000" d="M825.3771,-719.9902C814.828,-707.8295 800.7981,-691.6561 789.3735,-678.4861"/>
<polygon fill="#000000" stroke="#000000" points="791.8478,-675.9972 782.6511,-670.7367 786.5601,-680.5841 791.8478,-675.9972"/>
</g>
<!-- html -->
<g id="node34" class="node">
<title>html</title>
<ellipse fill="none" stroke="#000000" cx="841" cy="-655" rx="27.0966" ry="18"/>
<text text-anchor="middle" x="841" y="-651.3" font-family="Times,serif" font-size="14.00" fill="#000000">html</text>
</g>
<!-- web&#45;&gt;html -->
<g id="edge34" class="edge">
<title>web&#45;&gt;html</title>
<path fill="none" stroke="#000000" d="M841,-719.9902C841,-709.2963 841,-695.4994 841,-683.3706"/>
<polygon fill="#000000" stroke="#000000" points="844.5001,-683.2612 841,-673.2612 837.5001,-683.2613 844.5001,-683.2612"/>
</g>
<!-- redirects -->
<g id="node35" class="node">
<title>redirects</title>
<ellipse fill="none" stroke="#000000" cx="1043" cy="-655" rx="40.8928" ry="18"/>
<text text-anchor="middle" x="1043" y="-651.3" font-family="Times,serif" font-size="14.00" fill="#000000">redirects</text>
</g>
<!-- web&#45;&gt;redirects -->
<g id="edge35" class="edge">
<title>web&#45;&gt;redirects</title>
<path fill="none" stroke="#000000" d="M868.2426,-726.8063C903.0631,-712.4988 963.6007,-687.6245 1003.4864,-671.2358"/>
<polygon fill="#000000" stroke="#000000" points="1004.9858,-674.4037 1012.9052,-667.3657 1002.3253,-667.929 1004.9858,-674.4037"/>
</g>
<!-- x_frame_options -->
<g id="node36" class="node">
<title>x_frame_options</title>
<ellipse fill="none" stroke="#000000" cx="581" cy="-655" rx="70.6878" ry="18"/>
<text text-anchor="middle" x="581" y="-651.3" font-family="Times,serif" font-size="14.00" fill="#000000">x_frame_options</text>
</g>
<!-- web&#45;&gt;x_frame_options -->
<g id="edge36" class="edge">
<title>web&#45;&gt;x_frame_options</title>
<path fill="none" stroke="#000000" d="M813.6669,-729.2744C771.4445,-715.7957 689.552,-689.6531 635.0645,-672.259"/>
<polygon fill="#000000" stroke="#000000" points="635.8159,-668.825 625.2251,-669.118 633.6871,-675.4934 635.8159,-668.825"/>
</g>
<!-- csp -->
<g id="node37" class="node">
<title>csp</title>
<ellipse fill="none" stroke="#000000" cx="697" cy="-655" rx="27" ry="18"/>
<text text-anchor="middle" x="697" y="-651.3" font-family="Times,serif" font-size="14.00" fill="#000000">csp</text>
</g>
<!-- web&#45;&gt;csp -->
<g id="edge37" class="edge">
<title>web&#45;&gt;csp</title>
<path fill="none" stroke="#000000" d="M813.9147,-722.3883C788.9539,-708.0012 752.0021,-686.7026 726.3475,-671.9156"/>
<polygon fill="#000000" stroke="#000000" points="727.8618,-668.7487 717.4501,-666.7872 724.3662,-674.8134 727.8618,-668.7487"/>
</g>
<!-- redirects&#45;&gt;url -->
<g id="edge52" class="edge">
<title>redirects&#45;&gt;url</title>
<path fill="none" stroke="#000000" stroke-dasharray="5,2" d="M1037.5266,-673.167C1029.3758,-700.2208 1013.9822,-751.3143 1004.3996,-783.1204"/>
<polygon fill="#000000" stroke="#000000" points="1000.9251,-782.5203 1001.3915,-793.1048 1007.6275,-784.5396 1000.9251,-782.5203"/>
</g>
<!-- spf -->
<g id="node39" class="node">
<title>spf</title>
<ellipse fill="none" stroke="#000000" cx="462" cy="-582" rx="27" ry="18"/>
<text text-anchor="middle" x="462" y="-578.3" font-family="Times,serif" font-size="14.00" fill="#000000">spf</text>
</g>
<!-- dns&#45;&gt;spf -->
<g id="edge39" class="edge">
<title>dns&#45;&gt;spf</title>
<path fill="none" stroke="#000000" d="M464.2584,-636.9551C463.9267,-628.8828 463.5278,-619.1764 463.1582,-610.1817"/>
<polygon fill="#000000" stroke="#000000" points="466.6512,-609.9382 462.7434,-600.0904 459.6571,-610.2257 466.6512,-609.9382"/>
</g>
<!-- txt -->
<g id="node40" class="node">
<title>txt</title>
<ellipse fill="none" stroke="#000000" cx="534" cy="-582" rx="27" ry="18"/>
<text text-anchor="middle" x="534" y="-578.3" font-family="Times,serif" font-size="14.00" fill="#000000">txt</text>
</g>
<!-- dns&#45;&gt;txt -->
<g id="edge40" class="edge">
<title>dns&#45;&gt;txt</title>
<path fill="none" stroke="#000000" d="M482.0562,-636.9551C491.2151,-627.2652 502.5998,-615.2205 512.3746,-604.879"/>
<polygon fill="#000000" stroke="#000000" points="515.1466,-607.0416 519.4722,-597.3699 510.0595,-602.2331 515.1466,-607.0416"/>
</g>
<!-- a -->
<g id="node41" class="node">
<title>a</title>
<ellipse fill="none" stroke="#000000" cx="606" cy="-582" rx="27" ry="18"/>
<text text-anchor="middle" x="606" y="-578.3" font-family="Times,serif" font-size="14.00" fill="#000000">a</text>
</g>
<!-- dns&#45;&gt;a -->
<g id="edge41" class="edge">
<title>dns&#45;&gt;a</title>
<path fill="none" stroke="#000000" d="M492.1862,-640.9249C516.0288,-628.5809 550.6623,-610.65 575.4546,-597.8143"/>
<polygon fill="#000000" stroke="#000000" points="577.1604,-600.8724 584.4316,-593.1666 573.942,-594.6562 577.1604,-600.8724"/>
</g>
<!-- aaaa -->
<g id="node42" class="node">
<title>aaaa</title>
<ellipse fill="none" stroke="#000000" cx="678" cy="-582" rx="27" ry="18"/>
<text text-anchor="middle" x="678" y="-578.3" font-family="Times,serif" font-size="14.00" fill="#000000">aaaa</text>
</g>
<!-- dns&#45;&gt;aaaa -->
<g id="edge42" class="edge">
<title>dns&#45;&gt;aaaa</title>
<path fill="none" stroke="#000000" d="M492.2553,-640.6416C495.1709,-639.3263 498.1226,-638.0835 501,-637 561.6321,-614.1685 581.3679,-622.8315 642,-600 643.8637,-599.2982 645.7587,-598.5296 647.6548,-597.7177"/>
<polygon fill="#000000" stroke="#000000" points="649.3897,-600.772 657.0059,-593.407 646.4591,-594.4149 649.3897,-600.772"/>
</g>
<!-- ns -->
<g id="node43" class="node">
<title>ns</title>
<ellipse fill="none" stroke="#000000" cx="750" cy="-582" rx="27" ry="18"/>
<text text-anchor="middle" x="750" y="-578.3" font-family="Times,serif" font-size="14.00" fill="#000000">ns</text>
</g>
<!-- dns&#45;&gt;ns -->
<g id="edge43" class="edge">
<title>dns&#45;&gt;ns</title>
<path fill="none" stroke="#000000" d="M492.1663,-640.3892C495.0993,-639.1231 498.0794,-637.9608 501,-637 592.2723,-606.974 622.7277,-630.026 714,-600 715.8918,-599.3777 717.8085,-598.6708 719.7212,-597.906"/>
<polygon fill="#000000" stroke="#000000" points="721.4058,-600.9871 729.1167,-593.7213 718.5578,-594.5927 721.4058,-600.9871"/>
</g>
<!-- mx -->
<g id="node44" class="node">
<title>mx</title>
<ellipse fill="none" stroke="#000000" cx="306" cy="-582" rx="27" ry="18"/>
<text text-anchor="middle" x="306" y="-578.3" font-family="Times,serif" font-size="14.00" fill="#000000">mx</text>
</g>
<!-- dns&#45;&gt;mx -->
<g id="edge44" class="edge">
<title>dns&#45;&gt;mx</title>
<path fill="none" stroke="#000000" d="M437.8949,-642.7872C433.5825,-640.8487 429.17,-638.8677 425,-637 388.14,-620.4908 378.5156,-617.2575 342,-600 340.2468,-599.1714 338.4508,-598.311 336.6416,-597.4354"/>
<polygon fill="#000000" stroke="#000000" points="338.1448,-594.2743 327.626,-593.0072 335.0588,-600.5574 338.1448,-594.2743"/>
</g>
<!-- dmarc -->
<g id="node45" class="node">
<title>dmarc</title>
<ellipse fill="none" stroke="#000000" cx="384" cy="-582" rx="33.2948" ry="18"/>
<text text-anchor="middle" x="384" y="-578.3" font-family="Times,serif" font-size="14.00" fill="#000000">dmarc</text>
</g>
<!-- dns&#45;&gt;dmarc -->
<g id="edge45" class="edge">
<title>dns&#45;&gt;dmarc</title>
<path fill="none" stroke="#000000" d="M444.9775,-636.9551C434.0911,-627.1438 420.5259,-614.9184 408.9559,-604.4912"/>
<polygon fill="#000000" stroke="#000000" points="411.0937,-601.7061 401.3222,-597.6113 406.4074,-606.906 411.0937,-601.7061"/>
</g>
<!-- email&#45;&gt;hostname -->
<g id="edge47" class="edge">
<title>email&#45;&gt;hostname</title>
<path fill="none" stroke="#000000" d="M569.4621,-794.7989C561.6305,-785.4266 551.611,-773.4362 542.798,-762.8894"/>
<polygon fill="#000000" stroke="#000000" points="545.4479,-760.6023 536.35,-755.1729 540.0764,-765.0908 545.4479,-760.6023"/>
</g>
<!-- country_name -->
<g id="node47" class="node">
<title>country_name</title>
<ellipse fill="none" stroke="#000000" cx="210" cy="-655" rx="61.99" ry="18"/>
<text text-anchor="middle" x="210" y="-651.3" font-family="Times,serif" font-size="14.00" fill="#000000">country_name</text>
</g>
<!-- country_name&#45;&gt;country -->
<g id="edge48" class="edge">
<title>country_name&#45;&gt;country</title>
<path fill="none" stroke="#000000" d="M184.6083,-630.6106C176.0987,-622.4369 166.6377,-613.3494 158.2202,-605.2641"/>
<polygon fill="#000000" stroke="#000000" points="182.3525,-633.2969 191.9891,-637.7 187.2016,-628.2485 182.3525,-633.2969"/>
<polygon fill="#000000" stroke="#000000" points="160.4769,-602.5787 150.8403,-598.1756 155.6278,-607.6271 160.4769,-602.5787"/>
</g>
<!-- phone -->
<g id="node48" class="node">
<title>phone</title>
<ellipse fill="none" stroke="#000000" stroke-dasharray="5,2" cx="60" cy="-655" rx="32.4942" ry="18"/>
<text text-anchor="middle" x="60" y="-651.3" font-family="Times,serif" font-size="14.00" fill="#000000">phone</text>
</g>
<!-- phone&#45;&gt;country -->
<g id="edge49" class="edge">
<title>phone&#45;&gt;country</title>
<path fill="none" stroke="#000000" d="M76.0569,-639.1601C86.0037,-629.3477 98.9615,-616.565 110.1005,-605.5766"/>
<polygon fill="#000000" stroke="#000000" points="112.801,-607.829 117.462,-598.3145 107.885,-602.8456 112.801,-607.829"/>
</g>
<!-- tld&#45;&gt;country -->
<g id="edge53" class="edge">
<title>tld&#45;&gt;country</title>
<path fill="none" stroke="#000000" stroke-dasharray="5,2" d="M295.4733,-643.7739C290.7486,-641.4404 285.7406,-639.0651 281,-637 245.5384,-621.552 204.2052,-606.3248 174.4156,-595.8235"/>
<polygon fill="#000000" stroke="#000000" points="175.3756,-592.4513 164.7807,-592.4498 173.0622,-599.058 175.3756,-592.4513"/>
</g>
<!-- formatted_time -->
<g id="node51" class="node">
<title>formatted_time</title>
<ellipse fill="none" stroke="#000000" cx="131" cy="-41" rx="65.7887" ry="18"/>
<text text-anchor="middle" x="131" y="-37.3" font-family="Times,serif" font-size="14.00" fill="#000000">formatted_time</text>
</g>
<!-- timestamp&#45;&gt;formatted_time -->
<g id="edge54" class="edge">
<title>timestamp&#45;&gt;formatted_time</title>
<path fill="none" stroke="#000000" d="M292.13,-110.2942C260.3847,-96.6421 211.3696,-75.5631 175.7333,-60.2376"/>
<polygon fill="#000000" stroke="#000000" points="177.0914,-57.0118 166.5221,-56.2763 174.3259,-63.4424 177.0914,-57.0118"/>
<text text-anchor="middle" x="247" y="-80" font-family="Times,serif" font-size="10.00" fill="#000000">fmt</text>
</g>
<!-- isotimestamp -->
<g id="node52" class="node">
<title>isotimestamp</title>
<ellipse fill="none" stroke="#000000" cx="273" cy="-41" rx="58.4896" ry="18"/>
<text text-anchor="middle" x="273" y="-37.3" font-family="Times,serif" font-size="14.00" fill="#000000">isotimestamp</text>
</g>
<!-- timestamp&#45;&gt;isotimestamp -->
<g id="edge55" class="edge">
<title>timestamp&#45;&gt;isotimestamp</title>
<path fill="none" stroke="#000000" d="M313.1842,-106.3978C306.2668,-95.1401 297.1624,-80.3232 289.3691,-67.6399"/>
<polygon fill="#000000" stroke="#000000" points="292.1934,-65.5507 283.976,-58.8629 286.2293,-69.2154 292.1934,-65.5507"/>
</g>
<!-- date -->
<g id="node53" class="node">
<title>date</title>
<ellipse fill="none" stroke="#000000" cx="376" cy="-41" rx="27" ry="18"/>
<text text-anchor="middle" x="376" y="-37.3" font-family="Times,serif" font-size="14.00" fill="#000000">date</text>
</g>
<!-- timestamp&#45;&gt;date -->
<g id="edge56" class="edge">
<title>timestamp&#45;&gt;date</title>
<path fill="none" stroke="#000000" d="M335.0279,-106.3978C342.3432,-94.7215 352.0572,-79.2164 360.1906,-66.2342"/>
<polygon fill="#000000" stroke="#000000" points="363.1768,-68.0601 365.52,-57.7276 357.2448,-64.3437 363.1768,-68.0601"/>
</g>
<!-- time -->
<g id="node54" class="node">
<title>time</title>
<ellipse fill="none" stroke="#000000" cx="448" cy="-41" rx="27" ry="18"/>
<text text-anchor="middle" x="448" y="-37.3" font-family="Times,serif" font-size="14.00" fill="#000000">time</text>
</g>
<!-- timestamp&#45;&gt;time -->
<g id="edge57" class="edge">
<title>timestamp&#45;&gt;time</title>
<path fill="none" stroke="#000000" d="M347.6153,-108.193C368.3665,-94.3031 398.5756,-74.0825 420.4288,-59.4549"/>
<polygon fill="#000000" stroke="#000000" points="422.5758,-62.2296 428.9391,-53.7585 418.682,-56.4125 422.5758,-62.2296"/>
</g>
<!-- unit -->
<g id="node55" class="node">
<title>unit</title>
<ellipse fill="none" stroke="#000000" stroke-dasharray="5,2" cx="322" cy="-436" rx="27" ry="18"/>
<text text-anchor="middle" x="322" y="-432.3" font-family="Times,serif" font-size="14.00" fill="#000000">unit</text>
</g>
<!-- unit&#45;&gt;plaintext -->
<g id="edge58" class="edge">
<title>unit&#45;&gt;plaintext</title>
<path fill="none" stroke="#000000" d="M307.9006,-409.9944C302.6552,-400.3196 296.6986,-389.333 291.4245,-379.6052"/>
<polygon fill="#000000" stroke="#000000" points="304.8328,-411.6795 312.676,-418.8023 310.9866,-408.3431 304.8328,-411.6795"/>
<polygon fill="#000000" stroke="#000000" points="294.4657,-377.8712 286.6226,-370.7483 288.312,-381.2076 294.4657,-377.8712"/>
<text text-anchor="middle" x="311.5" y="-392" font-family="Times,serif" font-size="10.00" fill="#000000">unit</text>
</g>
<!-- ports -->
<g id="node57" class="node">
<title>ports</title>
<ellipse fill="none" stroke="#000000" cx="232" cy="-582" rx="28.6953" ry="18"/>
<text text-anchor="middle" x="232" y="-578.3" font-family="Times,serif" font-size="14.00" fill="#000000">ports</text>
</g>
<!-- nmap&#45;&gt;ports -->
<g id="edge60" class="edge">
<title>nmap&#45;&gt;ports</title>
<path fill="none" stroke="#000000" d="M361.7102,-640.731C358.8013,-639.3983 355.8606,-638.127 353,-637 326.7006,-626.6389 317.8129,-630.5199 292,-619 280.9623,-614.074 269.5108,-607.4417 259.6075,-601.1529"/>
<polygon fill="#000000" stroke="#000000" points="261.2905,-598.0717 251.0043,-595.5329 257.4621,-603.9321 261.2905,-598.0717"/>
</g>
<!-- ports&#45;&gt;port -->
<g id="edge62" class="edge">
<title>ports&#45;&gt;port</title>
<path fill="none" stroke="#000000" stroke-dasharray="5,2" d="M232,-563.9551C232,-555.8828 232,-546.1764 232,-537.1817"/>
<polygon fill="#000000" stroke="#000000" points="235.5001,-537.0903 232,-527.0904 228.5001,-537.0904 235.5001,-537.0903"/>
</g>
</g>
</svg>
