<?xml version="1.0" encoding="UTF-8" standalone="no"?>
<!DOCTYPE svg PUBLIC "-//W3C//DTD SVG 1.1//EN"
 "http://www.w3.org/Graphics/SVG/1.1/DTD/svg11.dtd">
<!-- Generated by graphviz version 2.40.1 (20161225.0304)
 -->
<!-- Title: %3 Pages: 1 -->
<svg width="2054pt" height="1129pt"
     viewBox="0.00 0.00 2053.54 1129.00" xmlns="http://www.w3.org/2000/svg">
<g id="graph0" class="graph" transform="scale(1 1) rotate(0) translate(4 1125)">
<title>%3</title>
<polygon fill="#ffffff" stroke="transparent" points="-4,4 -4,-1125 2049.5415,-1125 2049.5415,4 -4,4"/>
<text text-anchor="middle" x="1022.7708" y="-7.8" font-family="Times,serif" font-size="14.00" fill="#000000">Convey field types (dashed nodes = identifiable automatically, dashed edges = field identity)</text>
<!-- source_ip -->
<g id="node1" class="node">
<title>source_ip</title>
<ellipse fill="none" stroke="#000000" stroke-dasharray="5,2" cx="1206.7445" cy="-1103" rx="44.6926" ry="18"/>
<text text-anchor="middle" x="1206.7445" y="-1099.3" font-family="Times,serif" font-size="14.00" fill="#000000">source_ip</text>
</g>
<!-- ip -->
<g id="node2" class="node">
<title>ip</title>
<ellipse fill="none" stroke="#000000" stroke-dasharray="5,2" cx="1109.7445" cy="-1030" rx="27" ry="18"/>
<text text-anchor="middle" x="1109.7445" y="-1026.3" font-family="Times,serif" font-size="14.00" fill="#000000">ip</text>
</g>
<!-- source_ip&#45;&gt;ip -->
<g id="edge1" class="edge">
<title>source_ip&#45;&gt;ip</title>
<path fill="none" stroke="#000000" stroke-dasharray="5,2" d="M1185.2171,-1086.7989C1170.7123,-1075.883 1151.4882,-1061.4153 1136.0723,-1049.8137"/>
<polygon fill="#000000" stroke="#000000" points="1138.0486,-1046.9206 1127.9539,-1043.704 1133.8394,-1052.5137 1138.0486,-1046.9206"/>
</g>
<!-- url -->
<g id="node7" class="node">
<title>url</title>
<ellipse fill="none" stroke="#000000" stroke-dasharray="5,2" cx="997.7445" cy="-811" rx="27" ry="18"/>
<text text-anchor="middle" x="997.7445" y="-807.3" font-family="Times,serif" font-size="14.00" fill="#000000">url</text>
</g>
<!-- ip&#45;&gt;url -->
<g id="edge30" class="edge">
<title>ip&#45;&gt;url</title>
<path fill="none" stroke="#000000" d="M1100.9561,-1012.8154C1081.4097,-974.5953 1034.238,-882.3578 1011.0562,-837.0291"/>
<polygon fill="#000000" stroke="#000000" points="1014.1616,-835.4143 1006.4921,-828.1047 1007.9293,-838.6017 1014.1616,-835.4143"/>
</g>
<!-- whois -->
<g id="node9" class="node">
<title>whois</title>
<polygon fill="none" stroke="#000000" points="501.7445,-975 447.7445,-975 447.7445,-939 501.7445,-939 501.7445,-975"/>
<text text-anchor="middle" x="474.7445" y="-953.3" font-family="Times,serif" font-size="14.00" fill="#000000">whois</text>
</g>
<!-- ip&#45;&gt;whois -->
<g id="edge9" class="edge">
<title>ip&#45;&gt;whois</title>
<path fill="none" stroke="#000000" d="M1082.865,-1026.9099C982.3718,-1015.3572 628.5776,-974.6847 512.1784,-961.3034"/>
<polygon fill="#000000" stroke="#000000" points="512.3203,-957.7968 501.986,-960.1317 511.5208,-964.751 512.3203,-957.7968"/>
</g>
<!-- nmap -->
<g id="node57" class="node">
<title>nmap</title>
<polygon fill="none" stroke="#000000" points="1354.7445,-673 1300.7445,-673 1300.7445,-637 1354.7445,-637 1354.7445,-673"/>
<text text-anchor="middle" x="1327.7445" y="-651.3" font-family="Times,serif" font-size="14.00" fill="#000000">nmap</text>
</g>
<!-- ip&#45;&gt;nmap -->
<g id="edge63" class="edge">
<title>ip&#45;&gt;nmap</title>
<path fill="none" stroke="#000000" d="M1136.3126,-1025.7326C1189.4443,-1016.445 1303.7445,-992.3564 1303.7445,-957 1303.7445,-957 1303.7445,-957 1303.7445,-738 1303.7445,-719.0507 1309.5888,-698.5917 1315.5094,-682.7274"/>
<polygon fill="#000000" stroke="#000000" points="1318.9227,-683.614 1319.3505,-673.0278 1312.4144,-681.0367 1318.9227,-683.614"/>
</g>
<!-- destination_ip -->
<g id="node3" class="node">
<title>destination_ip</title>
<ellipse fill="none" stroke="#000000" stroke-dasharray="5,2" cx="996.7445" cy="-1103" rx="60.3893" ry="18"/>
<text text-anchor="middle" x="996.7445" y="-1099.3" font-family="Times,serif" font-size="14.00" fill="#000000">destination_ip</text>
</g>
<!-- destination_ip&#45;&gt;ip -->
<g id="edge2" class="edge">
<title>destination_ip&#45;&gt;ip</title>
<path fill="none" stroke="#000000" stroke-dasharray="5,2" d="M1022.1039,-1086.6174C1039.7747,-1075.2018 1063.3554,-1059.9682 1081.6058,-1048.1781"/>
<polygon fill="#000000" stroke="#000000" points="1083.5872,-1051.065 1090.0877,-1042.6987 1079.7887,-1045.1852 1083.5872,-1051.065"/>
</g>
<!-- any_ip -->
<g id="node4" class="node">
<title>any_ip</title>
<ellipse fill="none" stroke="#000000" stroke-dasharray="5,2" cx="1109.7445" cy="-1103" rx="34.394" ry="18"/>
<text text-anchor="middle" x="1109.7445" y="-1099.3" font-family="Times,serif" font-size="14.00" fill="#000000">any_ip</text>
</g>
<!-- any_ip&#45;&gt;ip -->
<g id="edge3" class="edge">
<title>any_ip&#45;&gt;ip</title>
<path fill="none" stroke="#000000" d="M1109.7445,-1084.9551C1109.7445,-1076.8828 1109.7445,-1067.1764 1109.7445,-1058.1817"/>
<polygon fill="#000000" stroke="#000000" points="1113.2446,-1058.0903 1109.7445,-1048.0904 1106.2446,-1058.0904 1113.2446,-1058.0903"/>
</g>
<!-- port_ip -->
<g id="node5" class="node">
<title>port_ip</title>
<ellipse fill="none" stroke="#000000" stroke-dasharray="5,2" cx="1603.7445" cy="-1103" rx="36.2938" ry="18"/>
<text text-anchor="middle" x="1603.7445" y="-1099.3" font-family="Times,serif" font-size="14.00" fill="#000000">port_ip</text>
</g>
<!-- port_ip&#45;&gt;ip -->
<g id="edge4" class="edge">
<title>port_ip&#45;&gt;ip</title>
<path fill="none" stroke="#000000" d="M1568.6133,-1097.8085C1478.1959,-1084.4473 1238.1305,-1048.972 1146.234,-1035.3922"/>
<polygon fill="#000000" stroke="#000000" points="1146.6906,-1031.9217 1136.2863,-1033.9222 1145.6672,-1038.8465 1146.6906,-1031.9217"/>
</g>
<!-- port -->
<g id="node6" class="node">
<title>port</title>
<ellipse fill="none" stroke="#000000" stroke-dasharray="5,2" cx="1629.7445" cy="-509" rx="27" ry="18"/>
<text text-anchor="middle" x="1629.7445" y="-505.3" font-family="Times,serif" font-size="14.00" fill="#000000">port</text>
</g>
<!-- port_ip&#45;&gt;port -->
<g id="edge5" class="edge">
<title>port_ip&#45;&gt;port</title>
<path fill="none" stroke="#000000" d="M1632.3084,-1091.7673C1656.3174,-1080.2317 1686.7445,-1059.7447 1686.7445,-1030 1686.7445,-1030 1686.7445,-1030 1686.7445,-582 1686.7445,-560.6998 1671.4822,-541.8969 1656.7526,-528.7102"/>
<polygon fill="#000000" stroke="#000000" points="1658.6371,-525.7228 1648.7247,-521.9818 1654.1406,-531.0878 1658.6371,-525.7228"/>
</g>
<!-- urlencode -->
<g id="node22" class="node">
<title>urlencode</title>
<ellipse fill="none" stroke="#000000" stroke-dasharray="5,2" cx="1629.7445" cy="-436" rx="45.4919" ry="18"/>
<text text-anchor="middle" x="1629.7445" y="-432.3" font-family="Times,serif" font-size="14.00" fill="#000000">urlencode</text>
</g>
<!-- port&#45;&gt;urlencode -->
<!-- url&#45;&gt;port -->
<g id="edge7" class="edge">
<title>url&#45;&gt;port</title>
<path fill="none" stroke="#000000" d="M1016.1805,-797.6569C1039.8595,-779.2488 1079.8005,-743.5811 1095.7445,-702 1100.0784,-690.6975 1104.9937,-695.5456 1090.7445,-637 1086.5483,-619.7589 1079.1406,-617.4164 1075.7445,-600 1072.6823,-584.2958 1065.0042,-575.8594 1075.7445,-564 1110.4227,-525.7085 1473.5759,-513.0142 1592.368,-509.8694"/>
<polygon fill="#000000" stroke="#000000" points="1592.5336,-513.3664 1602.4403,-509.6103 1592.3536,-506.3687 1592.5336,-513.3664"/>
</g>
<!-- hostname -->
<g id="node8" class="node">
<title>hostname</title>
<ellipse fill="none" stroke="#000000" stroke-dasharray="5,2" cx="1183.7445" cy="-738" rx="44.6926" ry="18"/>
<text text-anchor="middle" x="1183.7445" y="-734.3" font-family="Times,serif" font-size="14.00" fill="#000000">hostname</text>
</g>
<!-- url&#45;&gt;hostname -->
<g id="edge6" class="edge">
<title>url&#45;&gt;hostname</title>
<path fill="none" stroke="#000000" d="M1033.6176,-802.9843C1058.5964,-796.8086 1092.3813,-787.2561 1120.7445,-775 1131.2639,-770.4544 1142.2048,-764.5091 1151.9595,-758.7181"/>
<polygon fill="#000000" stroke="#000000" points="1032.7333,-799.5971 1023.8318,-805.3429 1034.3735,-806.4023 1032.7333,-799.5971"/>
<polygon fill="#000000" stroke="#000000" points="1153.822,-761.6818 1160.5383,-753.4878 1150.1781,-755.705 1153.822,-761.6818"/>
</g>
<!-- web -->
<g id="node49" class="node">
<title>web</title>
<polygon fill="none" stroke="#000000" points="705.7445,-756 651.7445,-756 651.7445,-720 705.7445,-720 705.7445,-756"/>
<text text-anchor="middle" x="678.7445" y="-734.3" font-family="Times,serif" font-size="14.00" fill="#000000">web</text>
</g>
<!-- url&#45;&gt;web -->
<g id="edge52" class="edge">
<title>url&#45;&gt;web</title>
<path fill="none" stroke="#000000" d="M972.1787,-805.1495C915.9028,-792.2713 781.1233,-761.4284 715.6674,-746.4494"/>
<polygon fill="#000000" stroke="#000000" points="716.3088,-743.0058 705.78,-744.1868 714.7472,-749.8294 716.3088,-743.0058"/>
</g>
<!-- hostname&#45;&gt;ip -->
<g id="edge8" class="edge">
<title>hostname&#45;&gt;ip</title>
<path fill="none" stroke="#000000" d="M1184.134,-756.2994C1184.4148,-771.0636 1184.7445,-792.368 1184.7445,-811 1184.7445,-957 1184.7445,-957 1184.7445,-957 1184.7445,-982.7998 1161.6725,-1002.4371 1141.1218,-1014.8112"/>
<polygon fill="#000000" stroke="#000000" points="1139.2328,-1011.8583 1132.247,-1019.8238 1142.6754,-1017.9533 1139.2328,-1011.8583"/>
</g>
<!-- dns -->
<g id="node31" class="node">
<title>dns</title>
<polygon fill="none" stroke="#000000" points="1282.7445,-673 1228.7445,-673 1228.7445,-637 1282.7445,-637 1282.7445,-673"/>
<text text-anchor="middle" x="1255.7445" y="-651.3" font-family="Times,serif" font-size="14.00" fill="#000000">dns</text>
</g>
<!-- hostname&#45;&gt;dns -->
<g id="edge31" class="edge">
<title>hostname&#45;&gt;dns</title>
<path fill="none" stroke="#000000" d="M1198.663,-720.8023C1208.6914,-709.2418 1222.0898,-693.7964 1233.3855,-680.775"/>
<polygon fill="#000000" stroke="#000000" points="1236.1891,-682.8843 1240.098,-673.0369 1230.9013,-678.2974 1236.1891,-682.8843"/>
</g>
<!-- tld -->
<g id="node42" class="node">
<title>tld</title>
<ellipse fill="none" stroke="#000000" cx="1054.7445" cy="-655" rx="27" ry="18"/>
<text text-anchor="middle" x="1054.7445" y="-651.3" font-family="Times,serif" font-size="14.00" fill="#000000">tld</text>
</g>
<!-- hostname&#45;&gt;tld -->
<g id="edge44" class="edge">
<title>hostname&#45;&gt;tld</title>
<path fill="none" stroke="#000000" d="M1153.0174,-724.8528C1139.6279,-718.6213 1123.9985,-710.6495 1110.7445,-702 1099.4508,-694.6297 1087.8853,-685.2813 1078.2191,-676.8663"/>
<polygon fill="#000000" stroke="#000000" points="1080.3911,-674.114 1070.5938,-670.0811 1075.7378,-679.3434 1080.3911,-674.114"/>
<text text-anchor="middle" x="1160.7445" y="-694" font-family="Times,serif" font-size="10.00" fill="#000000">choose all,ccTLD,gTLD</text>
</g>
<!-- hostname&#45;&gt;nmap -->
<g id="edge61" class="edge">
<title>hostname&#45;&gt;nmap</title>
<path fill="none" stroke="#000000" d="M1209.4888,-723.1613C1232.3563,-709.9807 1266.019,-690.5779 1291.5868,-675.8409"/>
<polygon fill="#000000" stroke="#000000" points="1293.3458,-678.8669 1300.2619,-670.8407 1289.8502,-672.8021 1293.3458,-678.8669"/>
</g>
<!-- prefix -->
<g id="node11" class="node">
<title>prefix</title>
<ellipse fill="none" stroke="#000000" cx="395.7445" cy="-884" rx="31.6951" ry="18"/>
<text text-anchor="middle" x="395.7445" y="-880.3" font-family="Times,serif" font-size="14.00" fill="#000000">prefix</text>
</g>
<!-- whois&#45;&gt;prefix -->
<g id="edge11" class="edge">
<title>whois&#45;&gt;prefix</title>
<path fill="none" stroke="#000000" d="M455.2164,-938.9551C444.5246,-929.0752 431.1834,-916.7473 419.8478,-906.2727"/>
<polygon fill="#000000" stroke="#000000" points="422.0976,-903.5861 412.3778,-899.3699 417.3469,-908.7272 422.0976,-903.5861"/>
</g>
<!-- asn -->
<g id="node12" class="node">
<title>asn</title>
<ellipse fill="none" stroke="#000000" stroke-dasharray="5,2" cx="178.7445" cy="-884" rx="27" ry="18"/>
<text text-anchor="middle" x="178.7445" y="-880.3" font-family="Times,serif" font-size="14.00" fill="#000000">asn</text>
</g>
<!-- whois&#45;&gt;asn -->
<g id="edge12" class="edge">
<title>whois&#45;&gt;asn</title>
<path fill="none" stroke="#000000" d="M447.5827,-955.1796C390.4569,-951.0275 259.8438,-939.7413 219.7445,-921 212.459,-917.595 205.5464,-912.4494 199.5443,-907.0693"/>
<polygon fill="#000000" stroke="#000000" points="201.59,-904.1777 191.9745,-899.7289 196.717,-909.203 201.59,-904.1777"/>
</g>
<!-- abusemail -->
<g id="node13" class="node">
<title>abusemail</title>
<ellipse fill="none" stroke="#000000" cx="1109.7445" cy="-884" rx="46.5926" ry="18"/>
<text text-anchor="middle" x="1109.7445" y="-880.3" font-family="Times,serif" font-size="14.00" fill="#000000">abusemail</text>
</g>
<!-- whois&#45;&gt;abusemail -->
<g id="edge13" class="edge">
<title>whois&#45;&gt;abusemail</title>
<path fill="none" stroke="#000000" d="M501.8685,-955.0904C581.2008,-949.3232 819.5762,-930.697 1015.7445,-902 1029.7682,-899.9485 1044.8822,-897.2658 1058.8032,-894.6003"/>
<polygon fill="#000000" stroke="#000000" points="1059.5508,-898.0205 1068.6963,-892.6716 1058.2114,-891.1498 1059.5508,-898.0205"/>
</g>
<!-- country -->
<g id="node14" class="node">
<title>country</title>
<ellipse fill="none" stroke="#000000" cx="211.7445" cy="-582" rx="37.8943" ry="18"/>
<text text-anchor="middle" x="211.7445" y="-578.3" font-family="Times,serif" font-size="14.00" fill="#000000">country</text>
</g>
<!-- whois&#45;&gt;country -->
<g id="edge14" class="edge">
<title>whois&#45;&gt;country</title>
<path fill="none" stroke="#000000" d="M447.5497,-954.7522C397.8291,-950.2558 294.5387,-939.0115 263.7445,-921 245.4702,-910.3113 233.7445,-905.1707 233.7445,-884 233.7445,-884 233.7445,-884 233.7445,-696.5 233.7445,-666.4832 226.3627,-632.8223 220.151,-609.8107"/>
<polygon fill="#000000" stroke="#000000" points="223.4807,-608.7217 217.4101,-600.0386 216.7408,-610.6123 223.4807,-608.7217"/>
</g>
<!-- netname -->
<g id="node15" class="node">
<title>netname</title>
<ellipse fill="none" stroke="#000000" cx="486.7445" cy="-884" rx="40.8928" ry="18"/>
<text text-anchor="middle" x="486.7445" y="-880.3" font-family="Times,serif" font-size="14.00" fill="#000000">netname</text>
</g>
<!-- whois&#45;&gt;netname -->
<g id="edge15" class="edge">
<title>whois&#45;&gt;netname</title>
<path fill="none" stroke="#000000" d="M477.7108,-938.9551C479.0378,-930.8828 480.6333,-921.1764 482.1119,-912.1817"/>
<polygon fill="#000000" stroke="#000000" points="485.6023,-912.5257 483.7708,-902.0904 478.695,-911.3902 485.6023,-912.5257"/>
</g>
<!-- csirt_contact -->
<g id="node16" class="node">
<title>csirt_contact</title>
<ellipse fill="none" stroke="#000000" cx="265.7445" cy="-509" rx="55.7903" ry="18"/>
<text text-anchor="middle" x="265.7445" y="-505.3" font-family="Times,serif" font-size="14.00" fill="#000000">csirt_contact</text>
</g>
<!-- whois&#45;&gt;csirt_contact -->
<g id="edge16" class="edge">
<title>whois&#45;&gt;csirt_contact</title>
<path fill="none" stroke="#000000" d="M447.3525,-952.7402C393.2223,-943.5465 277.7445,-919.7446 277.7445,-884 277.7445,-884 277.7445,-884 277.7445,-582 277.7445,-567.1023 275.281,-550.7182 272.5863,-537.2531"/>
<polygon fill="#000000" stroke="#000000" points="275.9413,-536.2058 270.4184,-527.1644 269.0975,-537.6765 275.9413,-536.2058"/>
</g>
<!-- incident_contact -->
<g id="node17" class="node">
<title>incident_contact</title>
<ellipse fill="none" stroke="#000000" cx="614.7445" cy="-884" rx="68.7879" ry="18"/>
<text text-anchor="middle" x="614.7445" y="-880.3" font-family="Times,serif" font-size="14.00" fill="#000000">incident_contact</text>
</g>
<!-- whois&#45;&gt;incident_contact -->
<g id="edge17" class="edge">
<title>whois&#45;&gt;incident_contact</title>
<path fill="none" stroke="#000000" d="M502.0703,-942.7516C522.7941,-931.9456 551.5873,-916.932 574.8791,-904.787"/>
<polygon fill="#000000" stroke="#000000" points="576.5833,-907.8457 583.832,-900.1187 573.3468,-901.6388 576.5833,-907.8457"/>
</g>
<!-- cidr -->
<g id="node10" class="node">
<title>cidr</title>
<ellipse fill="none" stroke="#000000" stroke-dasharray="5,2" cx="611.7445" cy="-811" rx="27" ry="18"/>
<text text-anchor="middle" x="611.7445" y="-807.3" font-family="Times,serif" font-size="14.00" fill="#000000">cidr</text>
</g>
<!-- cidr&#45;&gt;ip -->
<g id="edge10" class="edge">
<title>cidr&#45;&gt;ip</title>
<path fill="none" stroke="#000000" d="M634.2845,-820.9122C714.262,-856.083 984.6211,-974.9759 1077.8377,-1015.9687"/>
<polygon fill="#000000" stroke="#000000" points="1076.4895,-1019.1992 1087.0524,-1020.0209 1079.3074,-1012.7915 1076.4895,-1019.1992"/>
</g>
<!-- prefix&#45;&gt;cidr -->
<g id="edge45" class="edge">
<title>prefix&#45;&gt;cidr</title>
<path fill="none" stroke="#000000" d="M420.7181,-872.5191C425.9687,-870.2514 431.5044,-867.967 436.7445,-866 484.5055,-848.0717 541.015,-831.0453 576.6241,-820.8117"/>
<polygon fill="#000000" stroke="#000000" points="577.8739,-824.0949 586.5299,-817.9854 575.9533,-817.3635 577.8739,-824.0949"/>
</g>
<!-- email -->
<g id="node39" class="node">
<title>email</title>
<ellipse fill="none" stroke="#000000" stroke-dasharray="5,2" cx="1118.7445" cy="-811" rx="30.5947" ry="18"/>
<text text-anchor="middle" x="1118.7445" y="-807.3" font-family="Times,serif" font-size="14.00" fill="#000000">email</text>
</g>
<!-- abusemail&#45;&gt;email -->
<g id="edge39" class="edge">
<title>abusemail&#45;&gt;email</title>
<path fill="none" stroke="#000000" stroke-dasharray="5,2" d="M1111.9692,-865.9551C1112.9644,-857.8828 1114.1611,-848.1764 1115.2701,-839.1817"/>
<polygon fill="#000000" stroke="#000000" points="1118.7642,-839.4435 1116.5142,-829.0904 1111.8168,-838.5869 1118.7642,-839.4435"/>
</g>
<!-- country&#45;&gt;csirt_contact -->
<g id="edge42" class="edge">
<title>country&#45;&gt;csirt_contact</title>
<path fill="none" stroke="#000000" d="M224.5418,-564.7C231.1031,-555.8301 239.2287,-544.8455 246.5253,-534.9815"/>
<polygon fill="#000000" stroke="#000000" points="249.5308,-536.8039 252.664,-526.6829 243.9031,-532.6409 249.5308,-536.8039"/>
</g>
<!-- plaintext -->
<g id="node18" class="node">
<title>plaintext</title>
<ellipse fill="none" stroke="#000000" stroke-dasharray="5,2" cx="1674.7445" cy="-353" rx="41.6928" ry="18"/>
<text text-anchor="middle" x="1674.7445" y="-349.3" font-family="Times,serif" font-size="14.00" fill="#000000">plaintext</text>
</g>
<!-- bytes -->
<g id="node19" class="node">
<title>bytes</title>
<ellipse fill="none" stroke="#000000" cx="1628.7445" cy="-280" rx="29.4969" ry="18"/>
<text text-anchor="middle" x="1628.7445" y="-276.3" font-family="Times,serif" font-size="14.00" fill="#000000">bytes</text>
</g>
<!-- plaintext&#45;&gt;bytes -->
<g id="edge18" class="edge">
<title>plaintext&#45;&gt;bytes</title>
<path fill="none" stroke="#000000" d="M1658.1417,-326.6521C1653.8621,-319.8606 1649.2616,-312.5596 1644.9999,-305.7965"/>
<polygon fill="#000000" stroke="#000000" points="1655.3168,-328.7343 1663.6092,-335.3287 1661.2391,-325.0024 1655.3168,-328.7343"/>
<polygon fill="#000000" stroke="#000000" points="1647.7529,-303.6003 1639.4605,-297.0059 1641.8307,-307.3322 1647.7529,-303.6003"/>
</g>
<!-- custom -->
<g id="node23" class="node">
<title>custom</title>
<polygon fill="none" stroke="#000000" points="1884.7445,-298 1828.7445,-298 1828.7445,-262 1884.7445,-262 1884.7445,-298"/>
<text text-anchor="middle" x="1856.7445" y="-276.3" font-family="Times,serif" font-size="14.00" fill="#000000">custom</text>
</g>
<!-- plaintext&#45;&gt;custom -->
<g id="edge22" class="edge">
<title>plaintext&#45;&gt;custom</title>
<path fill="none" stroke="#000000" d="M1705.6183,-340.6165C1737.0021,-328.0286 1785.6555,-308.5137 1819.2386,-295.0436"/>
<polygon fill="#000000" stroke="#000000" points="1820.7338,-298.215 1828.7121,-291.2438 1818.1279,-291.7181 1820.7338,-298.215"/>
</g>
<!-- base64 -->
<g id="node20" class="node">
<title>base64</title>
<ellipse fill="none" stroke="#000000" stroke-dasharray="5,2" cx="1474.7445" cy="-197" rx="35.194" ry="18"/>
<text text-anchor="middle" x="1474.7445" y="-193.3" font-family="Times,serif" font-size="14.00" fill="#000000">base64</text>
</g>
<!-- bytes&#45;&gt;base64 -->
<g id="edge19" class="edge">
<title>bytes&#45;&gt;base64</title>
<path fill="none" stroke="#000000" d="M1597.7602,-263.3006C1571.7399,-249.2767 1534.6476,-229.2854 1508.0067,-214.927"/>
<polygon fill="#000000" stroke="#000000" points="1596.2166,-266.4447 1606.6801,-268.1081 1599.5377,-260.2827 1596.2166,-266.4447"/>
<polygon fill="#000000" stroke="#000000" points="1509.5181,-211.7657 1499.0547,-210.1022 1506.197,-217.9277 1509.5181,-211.7657"/>
</g>
<!-- quoted_printable -->
<g id="node21" class="node">
<title>quoted_printable</title>
<ellipse fill="none" stroke="#000000" stroke-dasharray="5,2" cx="1597.7445" cy="-197" rx="70.3881" ry="18"/>
<text text-anchor="middle" x="1597.7445" y="-193.3" font-family="Times,serif" font-size="14.00" fill="#000000">quoted_printable</text>
</g>
<!-- bytes&#45;&gt;quoted_printable -->
<g id="edge20" class="edge">
<title>bytes&#45;&gt;quoted_printable</title>
<path fill="none" stroke="#000000" d="M1618.6533,-252.9816C1615.2541,-243.8804 1611.458,-233.7167 1608.0429,-224.5732"/>
<polygon fill="#000000" stroke="#000000" points="1615.3925,-254.2545 1622.1702,-262.3978 1621.9501,-251.8053 1615.3925,-254.2545"/>
<polygon fill="#000000" stroke="#000000" points="1611.3014,-223.2939 1604.5237,-215.1506 1604.7438,-225.7431 1611.3014,-223.2939"/>
</g>
<!-- charset -->
<g id="node27" class="node">
<title>charset</title>
<ellipse fill="none" stroke="#000000" cx="1721.7445" cy="-197" rx="35.9954" ry="18"/>
<text text-anchor="middle" x="1721.7445" y="-193.3" font-family="Times,serif" font-size="14.00" fill="#000000">charset</text>
</g>
<!-- bytes&#45;&gt;charset -->
<g id="edge26" class="edge">
<title>bytes&#45;&gt;charset</title>
<path fill="none" stroke="#000000" d="M1645.3711,-265.1613C1659.5592,-252.4987 1680.182,-234.0934 1696.4223,-219.5994"/>
<polygon fill="#000000" stroke="#000000" points="1698.865,-222.1106 1703.9953,-212.8407 1694.204,-216.888 1698.865,-222.1106"/>
<text text-anchor="middle" x="1700.2445" y="-236" font-family="Times,serif" font-size="10.00" fill="#000000">encoding</text>
</g>
<!-- urlencode&#45;&gt;plaintext -->
<g id="edge21" class="edge">
<title>urlencode&#45;&gt;plaintext</title>
<path fill="none" stroke="#000000" d="M1644.0631,-409.5901C1649.2449,-400.0326 1655.0969,-389.2389 1660.2903,-379.66"/>
<polygon fill="#000000" stroke="#000000" points="1640.9773,-407.9385 1639.2879,-418.3978 1647.131,-411.275 1640.9773,-407.9385"/>
<polygon fill="#000000" stroke="#000000" points="1663.5255,-381.0361 1665.2149,-370.5768 1657.3718,-377.6997 1663.5255,-381.0361"/>
</g>
<!-- external -->
<g id="node24" class="node">
<title>external</title>
<ellipse fill="none" stroke="#000000" cx="1814.7445" cy="-197" rx="38.9931" ry="18"/>
<text text-anchor="middle" x="1814.7445" y="-193.3" font-family="Times,serif" font-size="14.00" fill="#000000">external</text>
</g>
<!-- custom&#45;&gt;external -->
<g id="edge23" class="edge">
<title>custom&#45;&gt;external</title>
<path fill="none" stroke="#000000" d="M1847.6311,-261.9902C1841.9789,-250.8203 1834.6135,-236.2649 1828.2863,-223.7612"/>
<polygon fill="#000000" stroke="#000000" points="1831.3339,-222.0319 1823.6958,-214.6895 1825.088,-225.1925 1831.3339,-222.0319"/>
</g>
<!-- code -->
<g id="node25" class="node">
<title>code</title>
<ellipse fill="none" stroke="#000000" cx="1898.7445" cy="-197" rx="27.0966" ry="18"/>
<text text-anchor="middle" x="1898.7445" y="-193.3" font-family="Times,serif" font-size="14.00" fill="#000000">code</text>
</g>
<!-- custom&#45;&gt;code -->
<g id="edge24" class="edge">
<title>custom&#45;&gt;code</title>
<path fill="none" stroke="#000000" d="M1865.8579,-261.9902C1871.5871,-250.6683 1879.0762,-235.8683 1885.4604,-223.252"/>
<polygon fill="#000000" stroke="#000000" points="1888.6873,-224.6267 1890.0795,-214.1237 1882.4414,-221.4661 1888.6873,-224.6267"/>
</g>
<!-- reg -->
<g id="node26" class="node">
<title>reg</title>
<ellipse fill="none" stroke="#000000" cx="1970.7445" cy="-197" rx="27" ry="18"/>
<text text-anchor="middle" x="1970.7445" y="-193.3" font-family="Times,serif" font-size="14.00" fill="#000000">reg</text>
</g>
<!-- custom&#45;&gt;reg -->
<g id="edge25" class="edge">
<title>custom&#45;&gt;reg</title>
<path fill="none" stroke="#000000" d="M1881.4808,-261.9902C1899.9936,-248.5116 1925.2768,-230.1037 1944.2097,-216.3192"/>
<polygon fill="#000000" stroke="#000000" points="1946.3904,-219.0609 1952.4146,-210.3455 1942.2702,-213.4019 1946.3904,-219.0609"/>
</g>
<!-- reg_s -->
<g id="node28" class="node">
<title>reg_s</title>
<ellipse fill="none" stroke="#000000" cx="1929.7445" cy="-124" rx="29.795" ry="18"/>
<text text-anchor="middle" x="1929.7445" y="-120.3" font-family="Times,serif" font-size="14.00" fill="#000000">reg_s</text>
</g>
<!-- reg&#45;&gt;reg_s -->
<g id="edge27" class="edge">
<title>reg&#45;&gt;reg_s</title>
<path fill="none" stroke="#000000" d="M1961.2352,-180.0688C1956.2002,-171.1041 1949.9094,-159.9033 1944.2769,-149.8747"/>
<polygon fill="#000000" stroke="#000000" points="1947.2929,-148.0972 1939.3443,-141.0922 1941.1896,-151.5251 1947.2929,-148.0972"/>
</g>
<!-- reg_m -->
<g id="node29" class="node">
<title>reg_m</title>
<ellipse fill="none" stroke="#000000" cx="2011.7445" cy="-124" rx="33.5952" ry="18"/>
<text text-anchor="middle" x="2011.7445" y="-120.3" font-family="Times,serif" font-size="14.00" fill="#000000">reg_m</text>
</g>
<!-- reg&#45;&gt;reg_m -->
<g id="edge28" class="edge">
<title>reg&#45;&gt;reg_m</title>
<path fill="none" stroke="#000000" d="M1980.2538,-180.0688C1985.2526,-171.1686 1991.4892,-160.0643 1997.0905,-150.0914"/>
<polygon fill="#000000" stroke="#000000" points="2000.1567,-151.7792 2002.0021,-141.3463 1994.0535,-148.3513 2000.1567,-151.7792"/>
</g>
<!-- timestamp -->
<g id="node43" class="node">
<title>timestamp</title>
<ellipse fill="none" stroke="#000000" stroke-dasharray="5,2" cx="1721.7445" cy="-124" rx="48.1917" ry="18"/>
<text text-anchor="middle" x="1721.7445" y="-120.3" font-family="Times,serif" font-size="14.00" fill="#000000">timestamp</text>
</g>
<!-- charset&#45;&gt;timestamp -->
<!-- wrong_url -->
<g id="node30" class="node">
<title>wrong_url</title>
<ellipse fill="none" stroke="#000000" stroke-dasharray="5,2" cx="959.7445" cy="-884" rx="47.3916" ry="18"/>
<text text-anchor="middle" x="959.7445" y="-880.3" font-family="Times,serif" font-size="14.00" fill="#000000">wrong_url</text>
</g>
<!-- wrong_url&#45;&gt;url -->
<g id="edge29" class="edge">
<title>wrong_url&#45;&gt;url</title>
<path fill="none" stroke="#000000" d="M968.9433,-866.3287C973.5374,-857.5031 979.1844,-846.6549 984.2574,-836.9095"/>
<polygon fill="#000000" stroke="#000000" points="987.3793,-838.4922 988.8922,-828.0059 981.1702,-835.26 987.3793,-838.4922"/>
</g>
<!-- spf -->
<g id="node32" class="node">
<title>spf</title>
<ellipse fill="none" stroke="#000000" cx="1111.7445" cy="-582" rx="27" ry="18"/>
<text text-anchor="middle" x="1111.7445" y="-578.3" font-family="Times,serif" font-size="14.00" fill="#000000">spf</text>
</g>
<!-- dns&#45;&gt;spf -->
<g id="edge32" class="edge">
<title>dns&#45;&gt;spf</title>
<path fill="none" stroke="#000000" d="M1228.6592,-641.2693C1204.2414,-628.8908 1168.3485,-610.6951 1142.7819,-597.7342"/>
<polygon fill="#000000" stroke="#000000" points="1144.0363,-594.4461 1133.5344,-593.0462 1140.8711,-600.6897 1144.0363,-594.4461"/>
</g>
<!-- txt -->
<g id="node33" class="node">
<title>txt</title>
<ellipse fill="none" stroke="#000000" cx="1183.7445" cy="-582" rx="27" ry="18"/>
<text text-anchor="middle" x="1183.7445" y="-578.3" font-family="Times,serif" font-size="14.00" fill="#000000">txt</text>
</g>
<!-- dns&#45;&gt;txt -->
<g id="edge33" class="edge">
<title>dns&#45;&gt;txt</title>
<path fill="none" stroke="#000000" d="M1237.9468,-636.9551C1228.296,-627.1702 1216.2768,-614.9842 1206.0106,-604.5753"/>
<polygon fill="#000000" stroke="#000000" points="1208.418,-602.0319 1198.9039,-597.3699 1203.4342,-606.9474 1208.418,-602.0319"/>
</g>
<!-- a -->
<g id="node34" class="node">
<title>a</title>
<ellipse fill="none" stroke="#000000" cx="1255.7445" cy="-582" rx="27" ry="18"/>
<text text-anchor="middle" x="1255.7445" y="-578.3" font-family="Times,serif" font-size="14.00" fill="#000000">a</text>
</g>
<!-- dns&#45;&gt;a -->
<g id="edge34" class="edge">
<title>dns&#45;&gt;a</title>
<path fill="none" stroke="#000000" d="M1255.7445,-636.9551C1255.7445,-628.8828 1255.7445,-619.1764 1255.7445,-610.1817"/>
<polygon fill="#000000" stroke="#000000" points="1259.2446,-610.0903 1255.7445,-600.0904 1252.2446,-610.0904 1259.2446,-610.0903"/>
</g>
<!-- aaaa -->
<g id="node35" class="node">
<title>aaaa</title>
<ellipse fill="none" stroke="#000000" cx="1327.7445" cy="-582" rx="27" ry="18"/>
<text text-anchor="middle" x="1327.7445" y="-578.3" font-family="Times,serif" font-size="14.00" fill="#000000">aaaa</text>
</g>
<!-- dns&#45;&gt;aaaa -->
<g id="edge35" class="edge">
<title>dns&#45;&gt;aaaa</title>
<path fill="none" stroke="#000000" d="M1273.5423,-636.9551C1283.1931,-627.1702 1295.2122,-614.9842 1305.4784,-604.5753"/>
<polygon fill="#000000" stroke="#000000" points="1308.0548,-606.9474 1312.5851,-597.3699 1303.0711,-602.0319 1308.0548,-606.9474"/>
</g>
<!-- ns -->
<g id="node36" class="node">
<title>ns</title>
<ellipse fill="none" stroke="#000000" cx="1399.7445" cy="-582" rx="27" ry="18"/>
<text text-anchor="middle" x="1399.7445" y="-578.3" font-family="Times,serif" font-size="14.00" fill="#000000">ns</text>
</g>
<!-- dns&#45;&gt;ns -->
<g id="edge36" class="edge">
<title>dns&#45;&gt;ns</title>
<path fill="none" stroke="#000000" d="M1282.8298,-641.2693C1307.2476,-628.8908 1343.1406,-610.6951 1368.7071,-597.7342"/>
<polygon fill="#000000" stroke="#000000" points="1370.6179,-600.6897 1377.9547,-593.0462 1367.4527,-594.4461 1370.6179,-600.6897"/>
</g>
<!-- mx -->
<g id="node37" class="node">
<title>mx</title>
<ellipse fill="none" stroke="#000000" cx="1471.7445" cy="-582" rx="27" ry="18"/>
<text text-anchor="middle" x="1471.7445" y="-578.3" font-family="Times,serif" font-size="14.00" fill="#000000">mx</text>
</g>
<!-- dns&#45;&gt;mx -->
<g id="edge37" class="edge">
<title>dns&#45;&gt;mx</title>
<path fill="none" stroke="#000000" d="M1282.9942,-640.6264C1285.9108,-639.3141 1288.8644,-638.0761 1291.7445,-637 1353.6438,-613.8721 1373.8452,-623.1279 1435.7445,-600 1437.6101,-599.303 1439.5064,-598.538 1441.4036,-597.729"/>
<polygon fill="#000000" stroke="#000000" points="1443.1355,-600.7849 1450.7575,-593.4258 1440.2099,-594.4255 1443.1355,-600.7849"/>
</g>
<!-- dmarc -->
<g id="node38" class="node">
<title>dmarc</title>
<ellipse fill="none" stroke="#000000" cx="1549.7445" cy="-582" rx="33.2948" ry="18"/>
<text text-anchor="middle" x="1549.7445" y="-578.3" font-family="Times,serif" font-size="14.00" fill="#000000">dmarc</text>
</g>
<!-- dns&#45;&gt;dmarc -->
<g id="edge38" class="edge">
<title>dns&#45;&gt;dmarc</title>
<path fill="none" stroke="#000000" d="M1282.9086,-640.3821C1285.8419,-639.1174 1288.8228,-637.9574 1291.7445,-637 1384.3006,-606.6718 1414.3376,-627.5964 1507.7445,-600 1510.0555,-599.3173 1512.4093,-598.5431 1514.7633,-597.7089"/>
<polygon fill="#000000" stroke="#000000" points="1516.2596,-600.8832 1524.332,-594.0213 1513.7423,-594.3515 1516.2596,-600.8832"/>
</g>
<!-- email&#45;&gt;hostname -->
<g id="edge40" class="edge">
<title>email&#45;&gt;hostname</title>
<path fill="none" stroke="#000000" d="M1133.1701,-794.7989C1141.5153,-785.4266 1152.1918,-773.4362 1161.5827,-762.8894"/>
<polygon fill="#000000" stroke="#000000" points="1164.4175,-764.9689 1168.4536,-755.1729 1159.1896,-760.3139 1164.4175,-764.9689"/>
</g>
<!-- country_name -->
<g id="node40" class="node">
<title>country_name</title>
<ellipse fill="none" stroke="#000000" cx="61.7445" cy="-655" rx="61.99" ry="18"/>
<text text-anchor="middle" x="61.7445" y="-651.3" font-family="Times,serif" font-size="14.00" fill="#000000">country_name</text>
</g>
<!-- country_name&#45;&gt;country -->
<g id="edge41" class="edge">
<title>country_name&#45;&gt;country</title>
<path fill="none" stroke="#000000" d="M102.8524,-634.9942C125.7579,-623.8468 154.0042,-610.1003 175.988,-599.4015"/>
<polygon fill="#000000" stroke="#000000" points="101.0158,-631.9955 93.5557,-639.5186 104.079,-638.2897 101.0158,-631.9955"/>
<polygon fill="#000000" stroke="#000000" points="177.5323,-602.5425 184.9924,-595.0194 174.4691,-596.2483 177.5323,-602.5425"/>
</g>
<!-- phone -->
<g id="node41" class="node">
<title>phone</title>
<ellipse fill="none" stroke="#000000" stroke-dasharray="5,2" cx="173.7445" cy="-655" rx="32.4942" ry="18"/>
<text text-anchor="middle" x="173.7445" y="-651.3" font-family="Times,serif" font-size="14.00" fill="#000000">phone</text>
</g>
<!-- phone&#45;&gt;country -->
<g id="edge43" class="edge">
<title>phone&#45;&gt;country</title>
<path fill="none" stroke="#000000" d="M182.75,-637.7C187.2739,-629.0093 192.8546,-618.2885 197.908,-608.5807"/>
<polygon fill="#000000" stroke="#000000" points="201.0269,-610.1692 202.5397,-599.6829 194.8177,-606.937 201.0269,-610.1692"/>
</g>
<!-- tld&#45;&gt;country -->
<g id="edge46" class="edge">
<title>tld&#45;&gt;country</title>
<path fill="none" stroke="#000000" stroke-dasharray="5,2" d="M1034.3615,-643.0717C1029.3998,-640.6624 1024.0035,-638.432 1018.7445,-637 874.3501,-597.6824 411.0151,-585.7098 259.8998,-582.8027"/>
<polygon fill="#000000" stroke="#000000" points="259.6316,-579.2971 249.5677,-582.6088 259.5002,-586.2959 259.6316,-579.2971"/>
</g>
<!-- formatted_time -->
<g id="node44" class="node">
<title>formatted_time</title>
<ellipse fill="none" stroke="#000000" cx="1528.7445" cy="-41" rx="65.7887" ry="18"/>
<text text-anchor="middle" x="1528.7445" y="-37.3" font-family="Times,serif" font-size="14.00" fill="#000000">formatted_time</text>
</g>
<!-- timestamp&#45;&gt;formatted_time -->
<g id="edge47" class="edge">
<title>timestamp&#45;&gt;formatted_time</title>
<path fill="none" stroke="#000000" d="M1689.8745,-110.2942C1658.1292,-96.6421 1609.1142,-75.5631 1573.4778,-60.2376"/>
<polygon fill="#000000" stroke="#000000" points="1574.8359,-57.0118 1564.2666,-56.2763 1572.0704,-63.4424 1574.8359,-57.0118"/>
<text text-anchor="middle" x="1643.7445" y="-80" font-family="Times,serif" font-size="10.00" fill="#000000">fmt</text>
</g>
<!-- isotimestamp -->
<g id="node45" class="node">
<title>isotimestamp</title>
<ellipse fill="none" stroke="#000000" cx="1670.7445" cy="-41" rx="58.4896" ry="18"/>
<text text-anchor="middle" x="1670.7445" y="-37.3" font-family="Times,serif" font-size="14.00" fill="#000000">isotimestamp</text>
</g>
<!-- timestamp&#45;&gt;isotimestamp -->
<g id="edge48" class="edge">
<title>timestamp&#45;&gt;isotimestamp</title>
<path fill="none" stroke="#000000" d="M1710.9287,-106.3978C1704.0113,-95.1401 1694.907,-80.3232 1687.1136,-67.6399"/>
<polygon fill="#000000" stroke="#000000" points="1689.9379,-65.5507 1681.7205,-58.8629 1683.9738,-69.2154 1689.9379,-65.5507"/>
</g>
<!-- date -->
<g id="node46" class="node">
<title>date</title>
<ellipse fill="none" stroke="#000000" cx="1773.7445" cy="-41" rx="27" ry="18"/>
<text text-anchor="middle" x="1773.7445" y="-37.3" font-family="Times,serif" font-size="14.00" fill="#000000">date</text>
</g>
<!-- timestamp&#45;&gt;date -->
<g id="edge49" class="edge">
<title>timestamp&#45;&gt;date</title>
<path fill="none" stroke="#000000" d="M1732.7724,-106.3978C1740.0877,-94.7215 1749.8017,-79.2164 1757.9352,-66.2342"/>
<polygon fill="#000000" stroke="#000000" points="1760.9213,-68.0601 1763.2646,-57.7276 1754.9894,-64.3437 1760.9213,-68.0601"/>
</g>
<!-- time -->
<g id="node47" class="node">
<title>time</title>
<ellipse fill="none" stroke="#000000" cx="1845.7445" cy="-41" rx="27" ry="18"/>
<text text-anchor="middle" x="1845.7445" y="-37.3" font-family="Times,serif" font-size="14.00" fill="#000000">time</text>
</g>
<!-- timestamp&#45;&gt;time -->
<g id="edge50" class="edge">
<title>timestamp&#45;&gt;time</title>
<path fill="none" stroke="#000000" d="M1745.3598,-108.193C1766.111,-94.3031 1796.3201,-74.0825 1818.1734,-59.4549"/>
<polygon fill="#000000" stroke="#000000" points="1820.3203,-62.2296 1826.6836,-53.7585 1816.4265,-56.4125 1820.3203,-62.2296"/>
</g>
<!-- unit -->
<g id="node48" class="node">
<title>unit</title>
<ellipse fill="none" stroke="#000000" stroke-dasharray="5,2" cx="1719.7445" cy="-436" rx="27" ry="18"/>
<text text-anchor="middle" x="1719.7445" y="-432.3" font-family="Times,serif" font-size="14.00" fill="#000000">unit</text>
</g>
<!-- unit&#45;&gt;plaintext -->
<g id="edge51" class="edge">
<title>unit&#45;&gt;plaintext</title>
<path fill="none" stroke="#000000" d="M1705.6451,-409.9944C1700.3997,-400.3196 1694.4431,-389.333 1689.1691,-379.6052"/>
<polygon fill="#000000" stroke="#000000" points="1702.5773,-411.6795 1710.4205,-418.8023 1708.7311,-408.3431 1702.5773,-411.6795"/>
<polygon fill="#000000" stroke="#000000" points="1692.2103,-377.8712 1684.3671,-370.7483 1686.0565,-381.2076 1692.2103,-377.8712"/>
<text text-anchor="middle" x="1708.2445" y="-392" font-family="Times,serif" font-size="10.00" fill="#000000">unit</text>
</g>
<!-- http_status -->
<g id="node50" class="node">
<title>http_status</title>
<ellipse fill="none" stroke="#000000" cx="960.7445" cy="-655" rx="48.9926" ry="18"/>
<text text-anchor="middle" x="960.7445" y="-651.3" font-family="Times,serif" font-size="14.00" fill="#000000">http_status</text>
</g>
<!-- web&#45;&gt;http_status -->
<g id="edge53" class="edge">
<title>web&#45;&gt;http_status</title>
<path fill="none" stroke="#000000" d="M706.0326,-730.2576C748.2623,-718.2361 831.9658,-694.2502 902.7445,-673 906.2851,-671.937 909.9438,-670.8275 913.622,-669.7042"/>
<polygon fill="#000000" stroke="#000000" points="914.8037,-673.0027 923.3355,-666.7211 912.7486,-666.3112 914.8037,-673.0027"/>
</g>
<!-- text -->
<g id="node51" class="node">
<title>text</title>
<ellipse fill="none" stroke="#000000" cx="432.7445" cy="-655" rx="27" ry="18"/>
<text text-anchor="middle" x="432.7445" y="-651.3" font-family="Times,serif" font-size="14.00" fill="#000000">text</text>
</g>
<!-- web&#45;&gt;text -->
<g id="edge54" class="edge">
<title>web&#45;&gt;text</title>
<path fill="none" stroke="#000000" d="M651.738,-731.1611C611.2816,-720.578 532.8461,-698.745 468.7445,-673 466.9451,-672.2773 465.1128,-671.4998 463.2759,-670.6878"/>
<polygon fill="#000000" stroke="#000000" points="464.7247,-667.5016 454.1836,-666.4353 461.759,-673.8423 464.7247,-667.5016"/>
</g>
<!-- html -->
<g id="node52" class="node">
<title>html</title>
<ellipse fill="none" stroke="#000000" cx="504.7445" cy="-655" rx="27.0966" ry="18"/>
<text text-anchor="middle" x="504.7445" y="-651.3" font-family="Times,serif" font-size="14.00" fill="#000000">html</text>
</g>
<!-- web&#45;&gt;html -->
<g id="edge55" class="edge">
<title>web&#45;&gt;html</title>
<path fill="none" stroke="#000000" d="M651.6835,-725.4822C623.7949,-712.5282 579.1017,-691.6195 540.7445,-673 539.1887,-672.2448 537.5972,-671.4673 535.9915,-670.679"/>
<polygon fill="#000000" stroke="#000000" points="537.3037,-667.4233 526.7888,-666.1244 534.1987,-673.697 537.3037,-667.4233"/>
</g>
<!-- redirects -->
<g id="node53" class="node">
<title>redirects</title>
<ellipse fill="none" stroke="#000000" cx="346.7445" cy="-655" rx="40.8928" ry="18"/>
<text text-anchor="middle" x="346.7445" y="-651.3" font-family="Times,serif" font-size="14.00" fill="#000000">redirects</text>
</g>
<!-- web&#45;&gt;redirects -->
<g id="edge56" class="edge">
<title>web&#45;&gt;redirects</title>
<path fill="none" stroke="#000000" d="M651.6066,-732.9804C600.9706,-723.3427 488.8771,-700.7242 396.7445,-673 393.6524,-672.0695 390.4712,-671.057 387.283,-670.0023"/>
<polygon fill="#000000" stroke="#000000" points="388.3745,-666.6766 377.7799,-666.7514 386.1087,-673.2998 388.3745,-666.6766"/>
</g>
<!-- x_frame_options -->
<g id="node54" class="node">
<title>x_frame_options</title>
<ellipse fill="none" stroke="#000000" cx="620.7445" cy="-655" rx="70.6878" ry="18"/>
<text text-anchor="middle" x="620.7445" y="-651.3" font-family="Times,serif" font-size="14.00" fill="#000000">x_frame_options</text>
</g>
<!-- web&#45;&gt;x_frame_options -->
<g id="edge57" class="edge">
<title>web&#45;&gt;x_frame_options</title>
<path fill="none" stroke="#000000" d="M666.1594,-719.9902C658.2549,-708.6787 647.9245,-693.8955 639.1137,-681.2869"/>
<polygon fill="#000000" stroke="#000000" points="641.9021,-679.1668 633.3051,-672.9746 636.1642,-683.1764 641.9021,-679.1668"/>
</g>
<!-- csp -->
<g id="node55" class="node">
<title>csp</title>
<ellipse fill="none" stroke="#000000" cx="736.7445" cy="-655" rx="27" ry="18"/>
<text text-anchor="middle" x="736.7445" y="-651.3" font-family="Times,serif" font-size="14.00" fill="#000000">csp</text>
</g>
<!-- web&#45;&gt;csp -->
<g id="edge58" class="edge">
<title>web&#45;&gt;csp</title>
<path fill="none" stroke="#000000" d="M691.3297,-719.9902C699.5048,-708.2913 710.2749,-692.8789 719.2751,-679.9993"/>
<polygon fill="#000000" stroke="#000000" points="722.3105,-681.7659 725.1696,-671.5642 716.5726,-677.7563 722.3105,-681.7659"/>
</g>
<!-- form_names -->
<g id="node56" class="node">
<title>form_names</title>
<ellipse fill="none" stroke="#000000" cx="837.7445" cy="-655" rx="55.7903" ry="18"/>
<text text-anchor="middle" x="837.7445" y="-651.3" font-family="Times,serif" font-size="14.00" fill="#000000">form_names</text>
</g>
<!-- web&#45;&gt;form_names -->
<g id="edge59" class="edge">
<title>web&#45;&gt;form_names</title>
<path fill="none" stroke="#000000" d="M706.0776,-723.7318C731.7958,-710.3066 770.5547,-690.0739 799.3683,-675.0329"/>
<polygon fill="#000000" stroke="#000000" points="801.0995,-678.0774 808.3447,-670.3471 797.8602,-671.872 801.0995,-678.0774"/>
</g>
<!-- redirects&#45;&gt;url -->
<g id="edge60" class="edge">
<title>redirects&#45;&gt;url</title>
<path fill="none" stroke="#000000" stroke-dasharray="5,2" d="M375.746,-667.7761C398.8183,-677.7149 432.0465,-691.5295 461.7445,-702 540.9163,-729.9132 560.8531,-737.5308 642.7445,-756 757.4299,-781.8653 895.7034,-799.4604 960.6429,-806.9404"/>
<polygon fill="#000000" stroke="#000000" points="960.4583,-810.4419 970.7899,-808.0952 961.2499,-803.4868 960.4583,-810.4419"/>
</g>
<!-- ports -->
<g id="node58" class="node">
<title>ports</title>
<ellipse fill="none" stroke="#000000" cx="1629.7445" cy="-582" rx="28.6953" ry="18"/>
<text text-anchor="middle" x="1629.7445" y="-578.3" font-family="Times,serif" font-size="14.00" fill="#000000">ports</text>
</g>
<!-- nmap&#45;&gt;ports -->
<g id="edge62" class="edge">
<title>nmap&#45;&gt;ports</title>
<path fill="none" stroke="#000000" d="M1354.9062,-651.51C1403.3907,-644.806 1507.6384,-628.235 1591.7445,-600 1593.8812,-599.2827 1596.0552,-598.4766 1598.2265,-597.6136"/>
<polygon fill="#000000" stroke="#000000" points="1599.8111,-600.7418 1607.604,-593.5639 1597.0358,-594.3154 1599.8111,-600.7418"/>
</g>
<!-- ports&#45;&gt;port -->
<g id="edge64" class="edge">
<title>ports&#45;&gt;port</title>
<path fill="none" stroke="#000000" stroke-dasharray="5,2" d="M1629.7445,-563.9551C1629.7445,-555.8828 1629.7445,-546.1764 1629.7445,-537.1817"/>
<polygon fill="#000000" stroke="#000000" points="1633.2446,-537.0903 1629.7445,-527.0904 1626.2446,-537.0904 1633.2446,-537.0903"/>
</g>
</g>
</svg>
