<?xml version="1.0" encoding="UTF-8" standalone="no"?>
<!DOCTYPE svg PUBLIC "-//W3C//DTD SVG 1.1//EN"
 "http://www.w3.org/Graphics/SVG/1.1/DTD/svg11.dtd">
<!-- Generated by graphviz version 2.43.0 (0)
 -->
<!-- Title: %3 Pages: 1 -->
<svg width="2022pt" height="1129pt"
 viewBox="0.00 0.00 2021.79 1129.00" xmlns="http://www.w3.org/2000/svg" xmlns:xlink="http://www.w3.org/1999/xlink">
<g id="graph0" class="graph" transform="scale(1 1) rotate(0) translate(4 1125)">
<title>%3</title>
<polygon fill="white" stroke="transparent" points="-4,4 -4,-1125 2017.79,-1125 2017.79,4 -4,4"/>
<text text-anchor="middle" x="1006.9" y="-7.8" font-family="Times,serif" font-size="14.00">Convey field types (dashed nodes = identifiable automatically, dashed edges = field identity)</text>
<!-- source_ip -->
<g id="node1" class="node">
<title>source_ip</title>
<ellipse fill="none" stroke="black" stroke-dasharray="5,2" cx="1063.2" cy="-1103" rx="54.69" ry="18"/>
<text text-anchor="middle" x="1063.2" y="-1099.3" font-family="Times,serif" font-size="14.00">source_ip</text>
</g>
<!-- ip -->
<g id="node2" class="node">
<title>ip</title>
<ellipse fill="none" stroke="black" stroke-dasharray="5,2" cx="1063.2" cy="-1030" rx="27" ry="18"/>
<text text-anchor="middle" x="1063.2" y="-1026.3" font-family="Times,serif" font-size="14.00">ip</text>
</g>
<!-- source_ip&#45;&gt;ip -->
<g id="edge1" class="edge">
<title>source_ip&#45;&gt;ip</title>
<path fill="none" stroke="black" stroke-dasharray="5,2" d="M1063.2,-1084.81C1063.2,-1076.79 1063.2,-1067.05 1063.2,-1058.07"/>
<polygon fill="black" stroke="black" points="1066.7,-1058.03 1063.2,-1048.03 1059.7,-1058.03 1066.7,-1058.03"/>
</g>
<!-- whois -->
<g id="node9" class="node">
<title>whois</title>
<polygon fill="none" stroke="black" points="1510.2,-975 1452.2,-975 1452.2,-939 1510.2,-939 1510.2,-975"/>
<text text-anchor="middle" x="1481.2" y="-953.3" font-family="Times,serif" font-size="14.00">whois</text>
</g>
<!-- ip&#45;&gt;whois -->
<g id="edge9" class="edge">
<title>ip&#45;&gt;whois</title>
<path fill="none" stroke="black" d="M1089.03,-1024.61C1159.85,-1012.58 1357.45,-979.02 1442,-964.66"/>
<polygon fill="black" stroke="black" points="1442.7,-968.09 1451.97,-962.96 1441.53,-961.19 1442.7,-968.09"/>
</g>
<!-- nmap -->
<g id="node57" class="node">
<title>nmap</title>
<polygon fill="none" stroke="black" points="1214.2,-673 1158.2,-673 1158.2,-637 1214.2,-637 1214.2,-673"/>
<text text-anchor="middle" x="1186.2" y="-651.3" font-family="Times,serif" font-size="14.00">nmap</text>
</g>
<!-- ip&#45;&gt;nmap -->
<g id="edge62" class="edge">
<title>ip&#45;&gt;nmap</title>
<path fill="none" stroke="black" d="M1048.86,-1014.61C1037.03,-1001.16 1022.2,-979.92 1022.2,-958 1022.2,-958 1022.2,-958 1022.2,-737 1022.2,-733.49 1100.35,-696.23 1148.75,-673.49"/>
<polygon fill="black" stroke="black" points="1150.44,-676.56 1158,-669.14 1147.46,-670.22 1150.44,-676.56"/>
</g>
<!-- destination_ip -->
<g id="node3" class="node">
<title>destination_ip</title>
<ellipse fill="none" stroke="black" stroke-dasharray="5,2" cx="1212.2" cy="-1103" rx="76.09" ry="18"/>
<text text-anchor="middle" x="1212.2" y="-1099.3" font-family="Times,serif" font-size="14.00">destination_ip</text>
</g>
<!-- destination_ip&#45;&gt;ip -->
<g id="edge2" class="edge">
<title>destination_ip&#45;&gt;ip</title>
<path fill="none" stroke="black" stroke-dasharray="5,2" d="M1179.87,-1086.59C1154.21,-1074.37 1118.62,-1057.41 1093.51,-1045.44"/>
<polygon fill="black" stroke="black" points="1094.97,-1042.26 1084.44,-1041.12 1091.96,-1048.58 1094.97,-1042.26"/>
</g>
<!-- any_ip -->
<g id="node4" class="node">
<title>any_ip</title>
<ellipse fill="none" stroke="black" stroke-dasharray="5,2" cx="950.2" cy="-1103" rx="40.09" ry="18"/>
<text text-anchor="middle" x="950.2" y="-1099.3" font-family="Times,serif" font-size="14.00">any_ip</text>
</g>
<!-- any_ip&#45;&gt;ip -->
<g id="edge3" class="edge">
<title>any_ip&#45;&gt;ip</title>
<path fill="none" stroke="black" d="M972.52,-1087.97C990.62,-1076.6 1016.22,-1060.52 1035.6,-1048.34"/>
<polygon fill="black" stroke="black" points="1037.69,-1051.16 1044.29,-1042.88 1033.96,-1045.23 1037.69,-1051.16"/>
</g>
<!-- port_ip -->
<g id="node5" class="node">
<title>port_ip</title>
<ellipse fill="none" stroke="black" stroke-dasharray="5,2" cx="534.2" cy="-1103" rx="43.59" ry="18"/>
<text text-anchor="middle" x="534.2" y="-1099.3" font-family="Times,serif" font-size="14.00">port_ip</text>
</g>
<!-- port_ip&#45;&gt;ip -->
<g id="edge4" class="edge">
<title>port_ip&#45;&gt;ip</title>
<path fill="none" stroke="black" d="M575.27,-1096.49C675.53,-1083.03 931.54,-1048.67 1026.78,-1035.89"/>
<polygon fill="black" stroke="black" points="1027.35,-1039.34 1036.8,-1034.54 1026.42,-1032.4 1027.35,-1039.34"/>
</g>
<!-- port -->
<g id="node6" class="node">
<title>port</title>
<ellipse fill="none" stroke="black" stroke-dasharray="5,2" cx="286.2" cy="-509" rx="30.59" ry="18"/>
<text text-anchor="middle" x="286.2" y="-505.3" font-family="Times,serif" font-size="14.00">port</text>
</g>
<!-- port_ip&#45;&gt;port -->
<g id="edge5" class="edge">
<title>port_ip&#45;&gt;port</title>
<path fill="none" stroke="black" d="M491.07,-1100.2C411.17,-1095.69 248.2,-1080.43 248.2,-1031 248.2,-1031 248.2,-1031 248.2,-581 248.2,-563.57 257.21,-546.27 266.46,-533.12"/>
<polygon fill="black" stroke="black" points="269.27,-535.21 272.48,-525.11 263.67,-531 269.27,-535.21"/>
</g>
<!-- urlencode -->
<g id="node22" class="node">
<title>urlencode</title>
<ellipse fill="none" stroke="black" stroke-dasharray="5,2" cx="286.2" cy="-436" rx="56.59" ry="18"/>
<text text-anchor="middle" x="286.2" y="-432.3" font-family="Times,serif" font-size="14.00">urlencode</text>
</g>
<!-- port&#45;&gt;urlencode -->
<!-- url -->
<g id="node7" class="node">
<title>url</title>
<ellipse fill="none" stroke="black" stroke-dasharray="5,2" cx="907.2" cy="-811" rx="27" ry="18"/>
<text text-anchor="middle" x="907.2" y="-807.3" font-family="Times,serif" font-size="14.00">url</text>
</g>
<!-- url&#45;&gt;port -->
<g id="edge7" class="edge">
<title>url&#45;&gt;port</title>
<path fill="none" stroke="black" d="M880.11,-809.79C760.59,-808.53 286.2,-799.7 286.2,-739 286.2,-739 286.2,-739 286.2,-581 286.2,-566.65 286.2,-550.67 286.2,-537.51"/>
<polygon fill="black" stroke="black" points="289.7,-537.22 286.2,-527.22 282.7,-537.22 289.7,-537.22"/>
</g>
<!-- hostname -->
<g id="node8" class="node">
<title>hostname</title>
<ellipse fill="none" stroke="black" stroke-dasharray="5,2" cx="1231.2" cy="-738" rx="55.79" ry="18"/>
<text text-anchor="middle" x="1231.2" y="-734.3" font-family="Times,serif" font-size="14.00">hostname</text>
</g>
<!-- url&#45;&gt;hostname -->
<g id="edge6" class="edge">
<title>url&#45;&gt;hostname</title>
<path fill="none" stroke="black" d="M942.16,-801.55C973.34,-794.08 1020.24,-783 1061.2,-774 1099.07,-765.68 1141.82,-756.88 1174.98,-750.18"/>
<polygon fill="black" stroke="black" points="941.13,-798.2 932.22,-803.93 942.76,-805 941.13,-798.2"/>
<polygon fill="black" stroke="black" points="1175.84,-753.58 1184.95,-748.18 1174.45,-746.72 1175.84,-753.58"/>
</g>
<!-- web -->
<g id="node49" class="node">
<title>web</title>
<polygon fill="none" stroke="black" points="746.2,-756 692.2,-756 692.2,-720 746.2,-720 746.2,-756"/>
<text text-anchor="middle" x="719.2" y="-734.3" font-family="Times,serif" font-size="14.00">web</text>
</g>
<!-- url&#45;&gt;web -->
<g id="edge51" class="edge">
<title>url&#45;&gt;web</title>
<path fill="none" stroke="black" d="M884.14,-801.29C852.19,-789.23 794.09,-767.28 756.07,-752.93"/>
<polygon fill="black" stroke="black" points="756.99,-749.53 746.39,-749.27 754.51,-756.08 756.99,-749.53"/>
</g>
<!-- hostname&#45;&gt;ip -->
<g id="edge8" class="edge">
<title>hostname&#45;&gt;ip</title>
<path fill="none" stroke="black" d="M1194.68,-759.06C1159.44,-780.54 1107.77,-818.11 1082.2,-866 1059.19,-909.09 1058.48,-967.57 1060.51,-1001.5"/>
<polygon fill="black" stroke="black" points="1196.9,-761.81 1203.7,-753.69 1193.32,-755.79 1196.9,-761.81"/>
<polygon fill="black" stroke="black" points="1057.03,-1001.89 1061.25,-1011.61 1064.01,-1001.38 1057.03,-1001.89"/>
</g>
<!-- dns -->
<g id="node31" class="node">
<title>dns</title>
<polygon fill="none" stroke="black" points="1286.2,-673 1232.2,-673 1232.2,-637 1286.2,-637 1286.2,-673"/>
<text text-anchor="middle" x="1259.2" y="-651.3" font-family="Times,serif" font-size="14.00">dns</text>
</g>
<!-- hostname&#45;&gt;dns -->
<g id="edge30" class="edge">
<title>hostname&#45;&gt;dns</title>
<path fill="none" stroke="black" d="M1237.13,-719.82C1240.85,-709.08 1245.71,-695.03 1249.92,-682.84"/>
<polygon fill="black" stroke="black" points="1253.31,-683.75 1253.27,-673.15 1246.69,-681.46 1253.31,-683.75"/>
</g>
<!-- tld -->
<g id="node42" class="node">
<title>tld</title>
<ellipse fill="none" stroke="black" cx="1439.2" cy="-655" rx="27" ry="18"/>
<text text-anchor="middle" x="1439.2" y="-651.3" font-family="Times,serif" font-size="14.00">tld</text>
</g>
<!-- hostname&#45;&gt;tld -->
<g id="edge43" class="edge">
<title>hostname&#45;&gt;tld</title>
<path fill="none" stroke="black" d="M1265.54,-723.62C1304.73,-708.36 1368.35,-683.59 1406.73,-668.64"/>
<polygon fill="black" stroke="black" points="1408.34,-671.77 1416.39,-664.88 1405.8,-665.25 1408.34,-671.77"/>
<text text-anchor="middle" x="1405.7" y="-694" font-family="Times,serif" font-size="10.00">choose all,ccTLD,gTLD</text>
</g>
<!-- hostname&#45;&gt;nmap -->
<g id="edge60" class="edge">
<title>hostname&#45;&gt;nmap</title>
<path fill="none" stroke="black" d="M1221.87,-720.22C1215.76,-709.21 1207.64,-694.6 1200.69,-682.1"/>
<polygon fill="black" stroke="black" points="1203.58,-680.08 1195.66,-673.04 1197.46,-683.48 1203.58,-680.08"/>
</g>
<!-- prefix -->
<g id="node11" class="node">
<title>prefix</title>
<ellipse fill="none" stroke="black" cx="1941.2" cy="-884" rx="37.89" ry="18"/>
<text text-anchor="middle" x="1941.2" y="-880.3" font-family="Times,serif" font-size="14.00">prefix</text>
</g>
<!-- whois&#45;&gt;prefix -->
<g id="edge11" class="edge">
<title>whois&#45;&gt;prefix</title>
<path fill="none" stroke="black" d="M1510.33,-955.44C1591.59,-953.57 1819.3,-946.16 1889.2,-921 1898.6,-917.61 1907.9,-912.08 1915.97,-906.36"/>
<polygon fill="black" stroke="black" points="1918.31,-908.98 1924.2,-900.17 1914.1,-903.38 1918.31,-908.98"/>
</g>
<!-- asn -->
<g id="node12" class="node">
<title>asn</title>
<ellipse fill="none" stroke="black" stroke-dasharray="5,2" cx="1430.2" cy="-884" rx="27" ry="18"/>
<text text-anchor="middle" x="1430.2" y="-880.3" font-family="Times,serif" font-size="14.00">asn</text>
</g>
<!-- whois&#45;&gt;asn -->
<g id="edge12" class="edge">
<title>whois&#45;&gt;asn</title>
<path fill="none" stroke="black" d="M1468.85,-938.81C1462.38,-929.8 1454.34,-918.61 1447.28,-908.78"/>
<polygon fill="black" stroke="black" points="1450.06,-906.66 1441.38,-900.58 1444.38,-910.74 1450.06,-906.66"/>
</g>
<!-- abusemail -->
<g id="node13" class="node">
<title>abusemail</title>
<ellipse fill="none" stroke="black" cx="1533.2" cy="-884" rx="57.69" ry="18"/>
<text text-anchor="middle" x="1533.2" y="-880.3" font-family="Times,serif" font-size="14.00">abusemail</text>
</g>
<!-- whois&#45;&gt;abusemail -->
<g id="edge13" class="edge">
<title>whois&#45;&gt;abusemail</title>
<path fill="none" stroke="black" d="M1493.78,-938.81C1500.04,-930.27 1507.73,-919.77 1514.65,-910.32"/>
<polygon fill="black" stroke="black" points="1517.64,-912.16 1520.72,-902.03 1511.99,-908.03 1517.64,-912.16"/>
</g>
<!-- country -->
<g id="node14" class="node">
<title>country</title>
<ellipse fill="none" stroke="black" cx="1675.2" cy="-582" rx="46.29" ry="18"/>
<text text-anchor="middle" x="1675.2" y="-578.3" font-family="Times,serif" font-size="14.00">country</text>
</g>
<!-- whois&#45;&gt;country -->
<g id="edge14" class="edge">
<title>whois&#45;&gt;country</title>
<path fill="none" stroke="black" d="M1510.23,-948.8C1523.58,-945.6 1539.65,-941.91 1554.2,-939 1625.12,-924.79 1875.2,-957.34 1875.2,-885 1875.2,-885 1875.2,-885 1875.2,-654 1875.2,-622.65 1786.84,-601.61 1727.58,-591.02"/>
<polygon fill="black" stroke="black" points="1728.06,-587.55 1717.61,-589.29 1726.86,-594.45 1728.06,-587.55"/>
</g>
<!-- netname -->
<g id="node15" class="node">
<title>netname</title>
<ellipse fill="none" stroke="black" cx="1142.2" cy="-884" rx="51.19" ry="18"/>
<text text-anchor="middle" x="1142.2" y="-880.3" font-family="Times,serif" font-size="14.00">netname</text>
</g>
<!-- whois&#45;&gt;netname -->
<g id="edge15" class="edge">
<title>whois&#45;&gt;netname</title>
<path fill="none" stroke="black" d="M1452.1,-951.21C1401.17,-942.63 1292.67,-923.53 1202.2,-902 1198.17,-901.04 1194,-899.99 1189.83,-898.89"/>
<polygon fill="black" stroke="black" points="1190.72,-895.51 1180.16,-896.28 1188.9,-902.27 1190.72,-895.51"/>
</g>
<!-- csirt_contact -->
<g id="node16" class="node">
<title>csirt_contact</title>
<ellipse fill="none" stroke="black" cx="1603.2" cy="-509" rx="70.39" ry="18"/>
<text text-anchor="middle" x="1603.2" y="-505.3" font-family="Times,serif" font-size="14.00">csirt_contact</text>
</g>
<!-- whois&#45;&gt;csirt_contact -->
<g id="edge16" class="edge">
<title>whois&#45;&gt;csirt_contact</title>
<path fill="none" stroke="black" d="M1510.29,-951.84C1538.71,-946.06 1580.47,-932.61 1600.2,-902 1608.86,-888.55 1600.61,-881.99 1600.2,-866 1597.56,-764.16 1585,-738.74 1590.2,-637 1591.96,-602.52 1596.39,-562.99 1599.59,-537.31"/>
<polygon fill="black" stroke="black" points="1603.08,-537.57 1600.87,-527.21 1596.14,-536.69 1603.08,-537.57"/>
</g>
<!-- incident_contact -->
<g id="node17" class="node">
<title>incident_contact</title>
<ellipse fill="none" stroke="black" cx="1298.2" cy="-884" rx="87.18" ry="18"/>
<text text-anchor="middle" x="1298.2" y="-880.3" font-family="Times,serif" font-size="14.00">incident_contact</text>
</g>
<!-- whois&#45;&gt;incident_contact -->
<g id="edge17" class="edge">
<title>whois&#45;&gt;incident_contact</title>
<path fill="none" stroke="black" d="M1451.79,-944.59C1423.56,-933.64 1380.4,-916.89 1347.01,-903.94"/>
<polygon fill="black" stroke="black" points="1348.02,-900.58 1337.43,-900.22 1345.49,-907.1 1348.02,-900.58"/>
</g>
<!-- cidr -->
<g id="node10" class="node">
<title>cidr</title>
<ellipse fill="none" stroke="black" stroke-dasharray="5,2" cx="1985.2" cy="-811" rx="28.7" ry="18"/>
<text text-anchor="middle" x="1985.2" y="-807.3" font-family="Times,serif" font-size="14.00">cidr</text>
</g>
<!-- cidr&#45;&gt;ip -->
<g id="edge10" class="edge">
<title>cidr&#45;&gt;ip</title>
<path fill="none" stroke="black" d="M1991.61,-828.62C1998.04,-848.38 2004.81,-881.26 1988.2,-902 1963.99,-932.21 1941.28,-914.08 1903.2,-921 1594.92,-977.04 1217.83,-1014.62 1100.09,-1025.64"/>
<polygon fill="black" stroke="black" points="1099.46,-1022.18 1089.83,-1026.59 1100.11,-1029.15 1099.46,-1022.18"/>
</g>
<!-- prefix&#45;&gt;cidr -->
<g id="edge44" class="edge">
<title>prefix&#45;&gt;cidr</title>
<path fill="none" stroke="black" d="M1951.4,-866.53C1956.84,-857.75 1963.65,-846.76 1969.73,-836.96"/>
<polygon fill="black" stroke="black" points="1972.75,-838.72 1975.05,-828.38 1966.8,-835.03 1972.75,-838.72"/>
</g>
<!-- email -->
<g id="node39" class="node">
<title>email</title>
<ellipse fill="none" stroke="black" stroke-dasharray="5,2" cx="1464.2" cy="-811" rx="36.29" ry="18"/>
<text text-anchor="middle" x="1464.2" y="-807.3" font-family="Times,serif" font-size="14.00">email</text>
</g>
<!-- abusemail&#45;&gt;email -->
<g id="edge38" class="edge">
<title>abusemail&#45;&gt;email</title>
<path fill="none" stroke="black" stroke-dasharray="5,2" d="M1517.19,-866.53C1508.18,-857.26 1496.78,-845.53 1486.87,-835.33"/>
<polygon fill="black" stroke="black" points="1489.12,-832.62 1479.64,-827.89 1484.1,-837.5 1489.12,-832.62"/>
</g>
<!-- country&#45;&gt;csirt_contact -->
<g id="edge41" class="edge">
<title>country&#45;&gt;csirt_contact</title>
<path fill="none" stroke="black" d="M1658.86,-564.89C1649.51,-555.67 1637.61,-543.94 1627.21,-533.68"/>
<polygon fill="black" stroke="black" points="1629.55,-531.07 1619.97,-526.54 1624.63,-536.05 1629.55,-531.07"/>
</g>
<!-- plaintext -->
<g id="node18" class="node">
<title>plaintext</title>
<ellipse fill="none" stroke="black" stroke-dasharray="5,2" cx="355.2" cy="-353" rx="51.99" ry="18"/>
<text text-anchor="middle" x="355.2" y="-349.3" font-family="Times,serif" font-size="14.00">plaintext</text>
</g>
<!-- bytes -->
<g id="node19" class="node">
<title>bytes</title>
<ellipse fill="none" stroke="black" cx="239.2" cy="-280" rx="36.29" ry="18"/>
<text text-anchor="middle" x="239.2" y="-276.3" font-family="Times,serif" font-size="14.00">bytes</text>
</g>
<!-- plaintext&#45;&gt;bytes -->
<g id="edge18" class="edge">
<title>plaintext&#45;&gt;bytes</title>
<path fill="none" stroke="black" d="M322.03,-331.7C305.78,-321.75 286.33,-309.85 270.36,-300.07"/>
<polygon fill="black" stroke="black" points="320.24,-334.71 330.6,-336.94 323.89,-328.74 320.24,-334.71"/>
<polygon fill="black" stroke="black" points="271.76,-296.83 261.41,-294.6 268.11,-302.8 271.76,-296.83"/>
</g>
<!-- custom -->
<g id="node23" class="node">
<title>custom</title>
<polygon fill="none" stroke="black" points="546.2,-298 478.2,-298 478.2,-262 546.2,-262 546.2,-298"/>
<text text-anchor="middle" x="512.2" y="-276.3" font-family="Times,serif" font-size="14.00">custom</text>
</g>
<!-- plaintext&#45;&gt;custom -->
<g id="edge22" class="edge">
<title>plaintext&#45;&gt;custom</title>
<path fill="none" stroke="black" d="M385.47,-338.31C409.04,-327.65 442.08,-312.71 468.51,-300.75"/>
<polygon fill="black" stroke="black" points="470.25,-303.81 477.92,-296.5 467.37,-297.43 470.25,-303.81"/>
</g>
<!-- base64 -->
<g id="node20" class="node">
<title>base64</title>
<ellipse fill="none" stroke="black" stroke-dasharray="5,2" cx="44.2" cy="-197" rx="44.39" ry="18"/>
<text text-anchor="middle" x="44.2" y="-193.3" font-family="Times,serif" font-size="14.00">base64</text>
</g>
<!-- bytes&#45;&gt;base64 -->
<g id="edge19" class="edge">
<title>bytes&#45;&gt;base64</title>
<path fill="none" stroke="black" d="M202.61,-263.8C168.61,-249.68 118.12,-228.71 83.32,-214.25"/>
<polygon fill="black" stroke="black" points="201.5,-267.13 212.08,-267.74 204.19,-260.67 201.5,-267.13"/>
<polygon fill="black" stroke="black" points="84.53,-210.96 73.95,-210.36 81.84,-217.43 84.53,-210.96"/>
</g>
<!-- quoted_printable -->
<g id="node21" class="node">
<title>quoted_printable</title>
<ellipse fill="none" stroke="black" stroke-dasharray="5,2" cx="196.2" cy="-197" rx="89.88" ry="18"/>
<text text-anchor="middle" x="196.2" y="-193.3" font-family="Times,serif" font-size="14.00">quoted_printable</text>
</g>
<!-- bytes&#45;&gt;quoted_printable -->
<g id="edge20" class="edge">
<title>bytes&#45;&gt;quoted_printable</title>
<path fill="none" stroke="black" d="M225.5,-253.19C220.53,-243.84 214.92,-233.28 209.95,-223.91"/>
<polygon fill="black" stroke="black" points="222.51,-255.03 230.29,-262.22 228.69,-251.74 222.51,-255.03"/>
<polygon fill="black" stroke="black" points="213.02,-222.23 205.24,-215.04 206.84,-225.51 213.02,-222.23"/>
</g>
<!-- charset -->
<g id="node27" class="node">
<title>charset</title>
<ellipse fill="none" stroke="black" cx="349.2" cy="-197" rx="45.49" ry="18"/>
<text text-anchor="middle" x="349.2" y="-193.3" font-family="Times,serif" font-size="14.00">charset</text>
</g>
<!-- bytes&#45;&gt;charset -->
<g id="edge26" class="edge">
<title>bytes&#45;&gt;charset</title>
<path fill="none" stroke="black" d="M258.61,-264.71C275.69,-252.12 300.81,-233.63 320.26,-219.31"/>
<polygon fill="black" stroke="black" points="322.51,-222 328.48,-213.25 318.35,-216.36 322.51,-222"/>
<text text-anchor="middle" x="325.2" y="-236" font-family="Times,serif" font-size="10.00">encoding</text>
</g>
<!-- urlencode&#45;&gt;plaintext -->
<g id="edge21" class="edge">
<title>urlencode&#45;&gt;plaintext</title>
<path fill="none" stroke="black" d="M307.03,-410.54C315.74,-400.32 325.84,-388.46 334.54,-378.25"/>
<polygon fill="black" stroke="black" points="304.31,-408.33 300.49,-418.22 309.64,-412.87 304.31,-408.33"/>
<polygon fill="black" stroke="black" points="337.33,-380.37 341.15,-370.48 332,-375.83 337.33,-380.37"/>
</g>
<!-- external -->
<g id="node24" class="node">
<title>external</title>
<ellipse fill="none" stroke="black" cx="462.2" cy="-197" rx="49.29" ry="18"/>
<text text-anchor="middle" x="462.2" y="-193.3" font-family="Times,serif" font-size="14.00">external</text>
</g>
<!-- custom&#45;&gt;external -->
<g id="edge23" class="edge">
<title>custom&#45;&gt;external</title>
<path fill="none" stroke="black" d="M501.59,-261.82C494.72,-250.69 485.64,-235.98 477.93,-223.49"/>
<polygon fill="black" stroke="black" points="480.84,-221.55 472.61,-214.88 474.89,-225.22 480.84,-221.55"/>
</g>
<!-- code -->
<g id="node25" class="node">
<title>code</title>
<ellipse fill="none" stroke="black" cx="562.2" cy="-197" rx="32.49" ry="18"/>
<text text-anchor="middle" x="562.2" y="-193.3" font-family="Times,serif" font-size="14.00">code</text>
</g>
<!-- custom&#45;&gt;code -->
<g id="edge24" class="edge">
<title>custom&#45;&gt;code</title>
<path fill="none" stroke="black" d="M522.8,-261.82C529.77,-250.54 538.99,-235.59 546.77,-222.99"/>
<polygon fill="black" stroke="black" points="549.84,-224.67 552.12,-214.32 543.89,-221 549.84,-224.67"/>
</g>
<!-- reg -->
<g id="node26" class="node">
<title>reg</title>
<ellipse fill="none" stroke="black" cx="639.2" cy="-197" rx="27" ry="18"/>
<text text-anchor="middle" x="639.2" y="-193.3" font-family="Times,serif" font-size="14.00">reg</text>
</g>
<!-- custom&#45;&gt;reg -->
<g id="edge25" class="edge">
<title>custom&#45;&gt;reg</title>
<path fill="none" stroke="black" d="M539.13,-261.82C560.41,-248.25 590,-229.38 611.48,-215.68"/>
<polygon fill="black" stroke="black" points="613.59,-218.48 620.14,-210.15 609.83,-212.58 613.59,-218.48"/>
</g>
<!-- reg_s -->
<g id="node28" class="node">
<title>reg_s</title>
<ellipse fill="none" stroke="black" cx="592.2" cy="-124" rx="36" ry="18"/>
<text text-anchor="middle" x="592.2" y="-120.3" font-family="Times,serif" font-size="14.00">reg_s</text>
</g>
<!-- reg&#45;&gt;reg_s -->
<g id="edge27" class="edge">
<title>reg&#45;&gt;reg_s</title>
<path fill="none" stroke="black" d="M628.77,-180.24C622.82,-171.27 615.25,-159.83 608.54,-149.69"/>
<polygon fill="black" stroke="black" points="611.36,-147.61 602.92,-141.21 605.53,-151.48 611.36,-147.61"/>
</g>
<!-- reg_m -->
<g id="node29" class="node">
<title>reg_m</title>
<ellipse fill="none" stroke="black" cx="685.2" cy="-124" rx="39.79" ry="18"/>
<text text-anchor="middle" x="685.2" y="-120.3" font-family="Times,serif" font-size="14.00">reg_m</text>
</g>
<!-- reg&#45;&gt;reg_m -->
<g id="edge28" class="edge">
<title>reg&#45;&gt;reg_m</title>
<path fill="none" stroke="black" d="M649.4,-180.24C655.14,-171.4 662.42,-160.15 668.92,-150.12"/>
<polygon fill="black" stroke="black" points="671.87,-152 674.37,-141.7 666,-148.19 671.87,-152"/>
</g>
<!-- timestamp -->
<g id="node43" class="node">
<title>timestamp</title>
<ellipse fill="none" stroke="black" stroke-dasharray="5,2" cx="349.2" cy="-124" rx="60.39" ry="18"/>
<text text-anchor="middle" x="349.2" y="-120.3" font-family="Times,serif" font-size="14.00">timestamp</text>
</g>
<!-- charset&#45;&gt;timestamp -->
<!-- wrong_url -->
<g id="node30" class="node">
<title>wrong_url</title>
<ellipse fill="none" stroke="black" stroke-dasharray="5,2" cx="907.2" cy="-884" rx="57.69" ry="18"/>
<text text-anchor="middle" x="907.2" y="-880.3" font-family="Times,serif" font-size="14.00">wrong_url</text>
</g>
<!-- wrong_url&#45;&gt;url -->
<g id="edge29" class="edge">
<title>wrong_url&#45;&gt;url</title>
<path fill="none" stroke="black" d="M907.2,-865.81C907.2,-857.79 907.2,-848.05 907.2,-839.07"/>
<polygon fill="black" stroke="black" points="910.7,-839.03 907.2,-829.03 903.7,-839.03 910.7,-839.03"/>
</g>
<!-- spf -->
<g id="node32" class="node">
<title>spf</title>
<ellipse fill="none" stroke="black" cx="1038.2" cy="-582" rx="27" ry="18"/>
<text text-anchor="middle" x="1038.2" y="-578.3" font-family="Times,serif" font-size="14.00">spf</text>
</g>
<!-- dns&#45;&gt;spf -->
<g id="edge31" class="edge">
<title>dns&#45;&gt;spf</title>
<path fill="none" stroke="black" d="M1231.91,-640.43C1229,-639.19 1226.06,-638.02 1223.2,-637 1158.92,-614.1 1138.47,-622.9 1074.2,-600 1072.29,-599.32 1070.35,-598.58 1068.41,-597.79"/>
<polygon fill="black" stroke="black" points="1069.41,-594.4 1058.84,-593.6 1066.6,-600.82 1069.41,-594.4"/>
</g>
<!-- txt -->
<g id="node33" class="node">
<title>txt</title>
<ellipse fill="none" stroke="black" cx="1110.2" cy="-582" rx="27" ry="18"/>
<text text-anchor="middle" x="1110.2" y="-578.3" font-family="Times,serif" font-size="14.00">txt</text>
</g>
<!-- dns&#45;&gt;txt -->
<g id="edge32" class="edge">
<title>dns&#45;&gt;txt</title>
<path fill="none" stroke="black" d="M1231.87,-640.98C1206.13,-628.71 1167.63,-610.37 1140.85,-597.61"/>
<polygon fill="black" stroke="black" points="1142.1,-594.32 1131.56,-593.18 1139.09,-600.64 1142.1,-594.32"/>
</g>
<!-- a -->
<g id="node34" class="node">
<title>a</title>
<ellipse fill="none" stroke="black" cx="1182.2" cy="-582" rx="27" ry="18"/>
<text text-anchor="middle" x="1182.2" y="-578.3" font-family="Times,serif" font-size="14.00">a</text>
</g>
<!-- dns&#45;&gt;a -->
<g id="edge33" class="edge">
<title>dns&#45;&gt;a</title>
<path fill="none" stroke="black" d="M1240.56,-636.81C1229.85,-626.94 1216.33,-614.47 1204.99,-604.02"/>
<polygon fill="black" stroke="black" points="1207.28,-601.37 1197.56,-597.17 1202.54,-606.52 1207.28,-601.37"/>
</g>
<!-- aaaa -->
<g id="node35" class="node">
<title>aaaa</title>
<ellipse fill="none" stroke="black" cx="1259.2" cy="-582" rx="32.49" ry="18"/>
<text text-anchor="middle" x="1259.2" y="-578.3" font-family="Times,serif" font-size="14.00">aaaa</text>
</g>
<!-- dns&#45;&gt;aaaa -->
<g id="edge34" class="edge">
<title>dns&#45;&gt;aaaa</title>
<path fill="none" stroke="black" d="M1259.2,-636.81C1259.2,-628.79 1259.2,-619.05 1259.2,-610.07"/>
<polygon fill="black" stroke="black" points="1262.7,-610.03 1259.2,-600.03 1255.7,-610.03 1262.7,-610.03"/>
</g>
<!-- ns -->
<g id="node36" class="node">
<title>ns</title>
<ellipse fill="none" stroke="black" cx="1336.2" cy="-582" rx="27" ry="18"/>
<text text-anchor="middle" x="1336.2" y="-578.3" font-family="Times,serif" font-size="14.00">ns</text>
</g>
<!-- dns&#45;&gt;ns -->
<g id="edge35" class="edge">
<title>dns&#45;&gt;ns</title>
<path fill="none" stroke="black" d="M1277.84,-636.81C1288.54,-626.94 1302.06,-614.47 1313.4,-604.02"/>
<polygon fill="black" stroke="black" points="1315.85,-606.52 1320.83,-597.17 1311.11,-601.37 1315.85,-606.52"/>
</g>
<!-- mx -->
<g id="node37" class="node">
<title>mx</title>
<ellipse fill="none" stroke="black" cx="1408.2" cy="-582" rx="27" ry="18"/>
<text text-anchor="middle" x="1408.2" y="-578.3" font-family="Times,serif" font-size="14.00">mx</text>
</g>
<!-- dns&#45;&gt;mx -->
<g id="edge36" class="edge">
<title>dns&#45;&gt;mx</title>
<path fill="none" stroke="black" d="M1286.52,-640.98C1312.26,-628.71 1350.77,-610.37 1377.54,-597.61"/>
<polygon fill="black" stroke="black" points="1379.31,-600.64 1386.83,-593.18 1376.3,-594.32 1379.31,-600.64"/>
</g>
<!-- dmarc -->
<g id="node38" class="node">
<title>dmarc</title>
<ellipse fill="none" stroke="black" cx="1493.2" cy="-582" rx="40.09" ry="18"/>
<text text-anchor="middle" x="1493.2" y="-578.3" font-family="Times,serif" font-size="14.00">dmarc</text>
</g>
<!-- dns&#45;&gt;dmarc -->
<g id="edge37" class="edge">
<title>dns&#45;&gt;dmarc</title>
<path fill="none" stroke="black" d="M1286.29,-646.55C1322.45,-636.5 1388.42,-617.8 1444.2,-600 1447.1,-599.07 1450.1,-598.09 1453.11,-597.09"/>
<polygon fill="black" stroke="black" points="1454.34,-600.37 1462.69,-593.85 1452.1,-593.74 1454.34,-600.37"/>
</g>
<!-- email&#45;&gt;hostname -->
<g id="edge39" class="edge">
<title>email&#45;&gt;hostname</title>
<path fill="none" stroke="black" d="M1433.74,-800.72C1394.78,-788.85 1326.81,-768.14 1280.45,-754.01"/>
<polygon fill="black" stroke="black" points="1281.2,-750.58 1270.62,-751.01 1279.16,-757.28 1281.2,-750.58"/>
</g>
<!-- country_name -->
<g id="node40" class="node">
<title>country_name</title>
<ellipse fill="none" stroke="black" cx="1675.2" cy="-655" rx="76.09" ry="18"/>
<text text-anchor="middle" x="1675.2" y="-651.3" font-family="Times,serif" font-size="14.00">country_name</text>
</g>
<!-- country_name&#45;&gt;country -->
<g id="edge40" class="edge">
<title>country_name&#45;&gt;country</title>
<path fill="none" stroke="black" d="M1675.2,-626.75C1675.2,-621.28 1675.2,-615.52 1675.2,-610.05"/>
<polygon fill="black" stroke="black" points="1671.7,-626.81 1675.2,-636.81 1678.7,-626.81 1671.7,-626.81"/>
<polygon fill="black" stroke="black" points="1678.7,-610.03 1675.2,-600.03 1671.7,-610.03 1678.7,-610.03"/>
</g>
<!-- phone -->
<g id="node41" class="node">
<title>phone</title>
<ellipse fill="none" stroke="black" stroke-dasharray="5,2" cx="1808.2" cy="-655" rx="38.99" ry="18"/>
<text text-anchor="middle" x="1808.2" y="-651.3" font-family="Times,serif" font-size="14.00">phone</text>
</g>
<!-- phone&#45;&gt;country -->
<g id="edge42" class="edge">
<title>phone&#45;&gt;country</title>
<path fill="none" stroke="black" d="M1783.49,-640.81C1763.02,-629.89 1733.67,-614.22 1710.69,-601.95"/>
<polygon fill="black" stroke="black" points="1712.06,-598.71 1701.59,-597.09 1708.76,-604.89 1712.06,-598.71"/>
</g>
<!-- tld&#45;&gt;country -->
<g id="edge45" class="edge">
<title>tld&#45;&gt;country</title>
<path fill="none" stroke="black" stroke-dasharray="5,2" d="M1463.56,-646.67C1502.79,-634.87 1580.53,-611.48 1630.09,-596.57"/>
<polygon fill="black" stroke="black" points="1631.34,-599.85 1639.9,-593.62 1629.32,-593.15 1631.34,-599.85"/>
</g>
<!-- formatted_time -->
<g id="node44" class="node">
<title>formatted_time</title>
<ellipse fill="none" stroke="black" cx="114.2" cy="-41" rx="82.59" ry="18"/>
<text text-anchor="middle" x="114.2" y="-37.3" font-family="Times,serif" font-size="14.00">formatted_time</text>
</g>
<!-- timestamp&#45;&gt;formatted_time -->
<g id="edge46" class="edge">
<title>timestamp&#45;&gt;formatted_time</title>
<path fill="none" stroke="black" d="M311.18,-109.9C271.81,-96.33 210.02,-75.03 166.16,-59.91"/>
<polygon fill="black" stroke="black" points="167.13,-56.54 156.53,-56.59 164.84,-63.16 167.13,-56.54"/>
<text text-anchor="middle" x="255.2" y="-80" font-family="Times,serif" font-size="10.00">fmt</text>
</g>
<!-- isotimestamp -->
<g id="node45" class="node">
<title>isotimestamp</title>
<ellipse fill="none" stroke="black" cx="288.2" cy="-41" rx="73.39" ry="18"/>
<text text-anchor="middle" x="288.2" y="-37.3" font-family="Times,serif" font-size="14.00">isotimestamp</text>
</g>
<!-- timestamp&#45;&gt;isotimestamp -->
<g id="edge47" class="edge">
<title>timestamp&#45;&gt;isotimestamp</title>
<path fill="none" stroke="black" d="M336.56,-106.22C328.05,-94.92 316.68,-79.83 307.11,-67.11"/>
<polygon fill="black" stroke="black" points="309.63,-64.64 300.82,-58.76 304.04,-68.86 309.63,-64.64"/>
</g>
<!-- date -->
<g id="node46" class="node">
<title>date</title>
<ellipse fill="none" stroke="black" cx="411.2" cy="-41" rx="31.4" ry="18"/>
<text text-anchor="middle" x="411.2" y="-37.3" font-family="Times,serif" font-size="14.00">date</text>
</g>
<!-- timestamp&#45;&gt;date -->
<g id="edge48" class="edge">
<title>timestamp&#45;&gt;date</title>
<path fill="none" stroke="black" d="M362.04,-106.22C371,-94.51 383.09,-78.72 393.04,-65.73"/>
<polygon fill="black" stroke="black" points="395.91,-67.73 399.21,-57.66 390.35,-63.48 395.91,-67.73"/>
</g>
<!-- time -->
<g id="node47" class="node">
<title>time</title>
<ellipse fill="none" stroke="black" cx="492.2" cy="-41" rx="31.7" ry="18"/>
<text text-anchor="middle" x="492.2" y="-37.3" font-family="Times,serif" font-size="14.00">time</text>
</g>
<!-- timestamp&#45;&gt;time -->
<g id="edge49" class="edge">
<title>timestamp&#45;&gt;time</title>
<path fill="none" stroke="black" d="M376.09,-107.76C400.45,-93.97 436.3,-73.66 461.71,-59.27"/>
<polygon fill="black" stroke="black" points="463.58,-62.23 470.56,-54.26 460.13,-56.14 463.58,-62.23"/>
</g>
<!-- unit -->
<g id="node48" class="node">
<title>unit</title>
<ellipse fill="none" stroke="black" stroke-dasharray="5,2" cx="390.2" cy="-436" rx="29.5" ry="18"/>
<text text-anchor="middle" x="390.2" y="-432.3" font-family="Times,serif" font-size="14.00">unit</text>
</g>
<!-- unit&#45;&gt;plaintext -->
<g id="edge50" class="edge">
<title>unit&#45;&gt;plaintext</title>
<path fill="none" stroke="black" d="M378.89,-408.83C374.95,-399.73 370.54,-389.52 366.6,-380.4"/>
<polygon fill="black" stroke="black" points="375.76,-410.43 382.94,-418.22 382.19,-407.65 375.76,-410.43"/>
<polygon fill="black" stroke="black" points="369.74,-378.83 362.56,-371.04 363.31,-381.61 369.74,-378.83"/>
<text text-anchor="middle" x="385.7" y="-392" font-family="Times,serif" font-size="10.00">unit</text>
</g>
<!-- http_status -->
<g id="node50" class="node">
<title>http_status</title>
<ellipse fill="none" stroke="black" cx="953.2" cy="-655" rx="63.89" ry="18"/>
<text text-anchor="middle" x="953.2" y="-651.3" font-family="Times,serif" font-size="14.00">http_status</text>
</g>
<!-- web&#45;&gt;http_status -->
<g id="edge52" class="edge">
<title>web&#45;&gt;http_status</title>
<path fill="none" stroke="black" d="M746.5,-727.55C785.3,-714.12 856.99,-689.3 904.89,-672.72"/>
<polygon fill="black" stroke="black" points="906.13,-676 914.43,-669.42 903.84,-669.38 906.13,-676"/>
</g>
<!-- text -->
<g id="node51" class="node">
<title>text</title>
<ellipse fill="none" stroke="black" cx="617.2" cy="-655" rx="29.5" ry="18"/>
<text text-anchor="middle" x="617.2" y="-651.3" font-family="Times,serif" font-size="14.00">text</text>
</g>
<!-- web&#45;&gt;text -->
<g id="edge53" class="edge">
<title>web&#45;&gt;text</title>
<path fill="none" stroke="black" d="M697.56,-719.82C681.38,-706.97 659.22,-689.37 642.26,-675.9"/>
<polygon fill="black" stroke="black" points="644.41,-673.14 634.41,-669.67 640.06,-678.63 644.41,-673.14"/>
</g>
<!-- html -->
<g id="node52" class="node">
<title>html</title>
<ellipse fill="none" stroke="black" cx="346.2" cy="-655" rx="32.49" ry="18"/>
<text text-anchor="middle" x="346.2" y="-651.3" font-family="Times,serif" font-size="14.00">html</text>
</g>
<!-- web&#45;&gt;html -->
<g id="edge54" class="edge">
<title>web&#45;&gt;html</title>
<path fill="none" stroke="black" d="M692.17,-733.58C635.17,-725.99 498.76,-705.73 388.2,-673 385.6,-672.23 382.94,-671.36 380.28,-670.43"/>
<polygon fill="black" stroke="black" points="381.38,-667.11 370.79,-666.88 378.93,-673.66 381.38,-667.11"/>
</g>
<!-- redirects -->
<g id="node53" class="node">
<title>redirects</title>
<ellipse fill="none" stroke="black" cx="1087.2" cy="-655" rx="52.79" ry="18"/>
<text text-anchor="middle" x="1087.2" y="-651.3" font-family="Times,serif" font-size="14.00">redirects</text>
</g>
<!-- web&#45;&gt;redirects -->
<g id="edge55" class="edge">
<title>web&#45;&gt;redirects</title>
<path fill="none" stroke="black" d="M746.44,-731.95C800.18,-721.85 923.57,-697.97 1026.2,-673 1030.22,-672.02 1034.38,-670.96 1038.56,-669.87"/>
<polygon fill="black" stroke="black" points="1039.49,-673.24 1048.25,-667.27 1037.68,-666.48 1039.49,-673.24"/>
</g>
<!-- x_frame_options -->
<g id="node54" class="node">
<title>x_frame_options</title>
<ellipse fill="none" stroke="black" cx="483.2" cy="-655" rx="86.38" ry="18"/>
<text text-anchor="middle" x="483.2" y="-651.3" font-family="Times,serif" font-size="14.00">x_frame_options</text>
</g>
<!-- web&#45;&gt;x_frame_options -->
<g id="edge56" class="edge">
<title>web&#45;&gt;x_frame_options</title>
<path fill="none" stroke="black" d="M692.12,-727.71C654.18,-714.68 584.4,-690.74 535.98,-674.12"/>
<polygon fill="black" stroke="black" points="536.89,-670.73 526.3,-670.79 534.62,-677.35 536.89,-670.73"/>
</g>
<!-- csp -->
<g id="node55" class="node">
<title>csp</title>
<ellipse fill="none" stroke="black" cx="691.2" cy="-655" rx="27" ry="18"/>
<text text-anchor="middle" x="691.2" y="-651.3" font-family="Times,serif" font-size="14.00">csp</text>
</g>
<!-- web&#45;&gt;csp -->
<g id="edge57" class="edge">
<title>web&#45;&gt;csp</title>
<path fill="none" stroke="black" d="M713.26,-719.82C709.5,-708.94 704.55,-694.64 700.3,-682.34"/>
<polygon fill="black" stroke="black" points="703.51,-680.91 696.93,-672.6 696.89,-683.19 703.51,-680.91"/>
</g>
<!-- form_names -->
<g id="node56" class="node">
<title>form_names</title>
<ellipse fill="none" stroke="black" cx="804.2" cy="-655" rx="67.69" ry="18"/>
<text text-anchor="middle" x="804.2" y="-651.3" font-family="Times,serif" font-size="14.00">form_names</text>
</g>
<!-- web&#45;&gt;form_names -->
<g id="edge58" class="edge">
<title>web&#45;&gt;form_names</title>
<path fill="none" stroke="black" d="M737.22,-719.82C749.44,-708.18 765.76,-692.63 779.23,-679.79"/>
<polygon fill="black" stroke="black" points="781.95,-682.03 786.78,-672.6 777.12,-676.96 781.95,-682.03"/>
</g>
<!-- redirects&#45;&gt;url -->
<g id="edge59" class="edge">
<title>redirects&#45;&gt;url</title>
<path fill="none" stroke="black" stroke-dasharray="5,2" d="M1050.73,-668.16C1036.66,-673.84 1020.93,-681.48 1008.2,-691 972.48,-717.71 940.94,-759.26 922.97,-785.54"/>
<polygon fill="black" stroke="black" points="919.86,-783.89 917.19,-794.14 925.67,-787.79 919.86,-783.89"/>
</g>
<!-- ports -->
<g id="node58" class="node">
<title>ports</title>
<ellipse fill="none" stroke="black" cx="654.2" cy="-582" rx="35.19" ry="18"/>
<text text-anchor="middle" x="654.2" y="-578.3" font-family="Times,serif" font-size="14.00">ports</text>
</g>
<!-- nmap&#45;&gt;ports -->
<g id="edge61" class="edge">
<title>nmap&#45;&gt;ports</title>
<path fill="none" stroke="black" d="M1157.86,-639.88C1154.98,-638.78 1152.06,-637.79 1149.2,-637 988.06,-592.46 787.9,-584.4 699.62,-583.12"/>
<polygon fill="black" stroke="black" points="699.47,-579.62 689.42,-582.99 699.38,-586.61 699.47,-579.62"/>
</g>
<!-- ports&#45;&gt;port -->
<g id="edge63" class="edge">
<title>ports&#45;&gt;port</title>
<path fill="none" stroke="black" stroke-dasharray="5,2" d="M621.86,-574.76C554.16,-561.7 397.74,-531.52 324.87,-517.46"/>
<polygon fill="black" stroke="black" points="325.22,-513.97 314.74,-515.51 323.9,-520.84 325.22,-513.97"/>
</g>
</g>
</svg>
