<?xml version="1.0" encoding="UTF-8" standalone="no"?>
<!DOCTYPE svg PUBLIC "-//W3C//DTD SVG 1.1//EN"
 "http://www.w3.org/Graphics/SVG/1.1/DTD/svg11.dtd">
<!-- Generated by graphviz version 2.40.1 (20161225.0304)
 -->
<!-- Title: %3 Pages: 1 -->
<svg width="1470pt" height="1119pt"
     viewBox="0.00 0.00 1470.49 1119.00" xmlns="http://www.w3.org/2000/svg">
<g id="graph0" class="graph" transform="scale(1 1) rotate(0) translate(4 1115)">
<title>%3</title>
<polygon fill="#ffffff" stroke="transparent" points="-4,4 -4,-1115 1466.4913,-1115 1466.4913,4 -4,4"/>
<text text-anchor="middle" x="731.2457" y="-7.8" font-family="Times,serif" font-size="14.00" fill="#000000">Convey field types (dashed nodes = identifiable automatically, dashed edges = field identity)</text>
<!-- source_ip -->
<g id="node1" class="node">
<title>source_ip</title>
<ellipse fill="none" stroke="#000000" stroke-dasharray="5,2" cx="396.7468" cy="-1093" rx="44.6926" ry="18"/>
<text text-anchor="middle" x="396.7468" y="-1089.3" font-family="Times,serif" font-size="14.00" fill="#000000">source_ip</text>
</g>
<!-- ip -->
<g id="node2" class="node">
<title>ip</title>
<ellipse fill="none" stroke="#000000" stroke-dasharray="5,2" cx="519.7468" cy="-1020" rx="27" ry="18"/>
<text text-anchor="middle" x="519.7468" y="-1016.3" font-family="Times,serif" font-size="14.00" fill="#000000">ip</text>
</g>
<!-- source_ip&#45;&gt;ip -->
<g id="edge1" class="edge">
<title>source_ip&#45;&gt;ip</title>
<path fill="none" stroke="#000000" stroke-dasharray="5,2" d="M421.9345,-1078.0512C441.8935,-1066.2057 469.802,-1049.642 490.7019,-1037.238"/>
<polygon fill="#000000" stroke="#000000" points="492.6582,-1040.147 499.4714,-1032.0334 489.0856,-1034.1274 492.6582,-1040.147"/>
</g>
<!-- url -->
<g id="node7" class="node">
<title>url</title>
<ellipse fill="none" stroke="#000000" stroke-dasharray="5,2" cx="435.7468" cy="-801" rx="27" ry="18"/>
<text text-anchor="middle" x="435.7468" y="-797.3" font-family="Times,serif" font-size="14.00" fill="#000000">url</text>
</g>
<!-- ip&#45;&gt;url -->
<g id="edge30" class="edge">
<title>ip&#45;&gt;url</title>
<path fill="none" stroke="#000000" d="M503.5284,-1005.4978C497.5173,-999.3799 491.1096,-991.8573 486.7468,-984 458.6953,-933.4801 445.1522,-866.3948 439.3978,-829.082"/>
<polygon fill="#000000" stroke="#000000" points="442.8259,-828.3351 437.9149,-818.9472 435.8996,-829.3485 442.8259,-828.3351"/>
</g>
<!-- whois -->
<g id="node9" class="node">
<title>whois</title>
<polygon fill="none" stroke="#000000" points="890.7468,-965 836.7468,-965 836.7468,-929 890.7468,-929 890.7468,-965"/>
<text text-anchor="middle" x="863.7468" y="-943.3" font-family="Times,serif" font-size="14.00" fill="#000000">whois</text>
</g>
<!-- ip&#45;&gt;whois -->
<g id="edge9" class="edge">
<title>ip&#45;&gt;whois</title>
<path fill="none" stroke="#000000" d="M545.6027,-1014.5131C605.9436,-1001.7082 756.2501,-969.8118 826.4817,-954.908"/>
<polygon fill="#000000" stroke="#000000" points="827.586,-958.2517 836.6416,-952.752 826.1328,-951.4042 827.586,-958.2517"/>
</g>
<!-- nmap -->
<g id="node56" class="node">
<title>nmap</title>
<polygon fill="none" stroke="#000000" points="340.7468,-663 286.7468,-663 286.7468,-627 340.7468,-627 340.7468,-663"/>
<text text-anchor="middle" x="313.7468" y="-641.3" font-family="Times,serif" font-size="14.00" fill="#000000">nmap</text>
</g>
<!-- ip&#45;&gt;nmap -->
<g id="edge61" class="edge">
<title>ip&#45;&gt;nmap</title>
<path fill="none" stroke="#000000" d="M493.109,-1016.3301C437.2016,-1007.8797 312.7468,-984.8209 312.7468,-947 312.7468,-947 312.7468,-947 312.7468,-728 312.7468,-709.8514 312.9888,-689.4723 313.2347,-673.4494"/>
<polygon fill="#000000" stroke="#000000" points="316.7393,-673.1891 313.4027,-663.1334 309.7403,-673.0751 316.7393,-673.1891"/>
</g>
<!-- destination_ip -->
<g id="node3" class="node">
<title>destination_ip</title>
<ellipse fill="none" stroke="#000000" stroke-dasharray="5,2" cx="519.7468" cy="-1093" rx="60.3893" ry="18"/>
<text text-anchor="middle" x="519.7468" y="-1089.3" font-family="Times,serif" font-size="14.00" fill="#000000">destination_ip</text>
</g>
<!-- destination_ip&#45;&gt;ip -->
<g id="edge2" class="edge">
<title>destination_ip&#45;&gt;ip</title>
<path fill="none" stroke="#000000" stroke-dasharray="5,2" d="M519.7468,-1074.9551C519.7468,-1066.8828 519.7468,-1057.1764 519.7468,-1048.1817"/>
<polygon fill="#000000" stroke="#000000" points="523.2469,-1048.0903 519.7468,-1038.0904 516.2469,-1048.0904 523.2469,-1048.0903"/>
</g>
<!-- any_ip -->
<g id="node4" class="node">
<title>any_ip</title>
<ellipse fill="none" stroke="#000000" stroke-dasharray="5,2" cx="632.7468" cy="-1093" rx="34.394" ry="18"/>
<text text-anchor="middle" x="632.7468" y="-1089.3" font-family="Times,serif" font-size="14.00" fill="#000000">any_ip</text>
</g>
<!-- any_ip&#45;&gt;ip -->
<g id="edge3" class="edge">
<title>any_ip&#45;&gt;ip</title>
<path fill="none" stroke="#000000" d="M610.9593,-1078.9249C592.9397,-1067.2839 567.229,-1050.6743 547.695,-1038.055"/>
<polygon fill="#000000" stroke="#000000" points="549.5033,-1035.0564 539.2044,-1032.5699 545.7048,-1040.9362 549.5033,-1035.0564"/>
</g>
<!-- port_ip -->
<g id="node5" class="node">
<title>port_ip</title>
<ellipse fill="none" stroke="#000000" stroke-dasharray="5,2" cx="990.7468" cy="-1093" rx="36.2938" ry="18"/>
<text text-anchor="middle" x="990.7468" y="-1089.3" font-family="Times,serif" font-size="14.00" fill="#000000">port_ip</text>
</g>
<!-- port_ip&#45;&gt;ip -->
<g id="edge4" class="edge">
<title>port_ip&#45;&gt;ip</title>
<path fill="none" stroke="#000000" d="M955.7301,-1087.5728C868.9692,-1074.1258 644.69,-1039.3649 556.3147,-1025.6676"/>
<polygon fill="#000000" stroke="#000000" points="556.6475,-1022.1775 546.2294,-1024.1045 555.5753,-1029.0949 556.6475,-1022.1775"/>
</g>
<!-- port -->
<g id="node6" class="node">
<title>port</title>
<ellipse fill="none" stroke="#000000" stroke-dasharray="5,2" cx="882.7468" cy="-728" rx="27" ry="18"/>
<text text-anchor="middle" x="882.7468" y="-724.3" font-family="Times,serif" font-size="14.00" fill="#000000">port</text>
</g>
<!-- port_ip&#45;&gt;port -->
<g id="edge5" class="edge">
<title>port_ip&#45;&gt;port</title>
<path fill="none" stroke="#000000" d="M1027.1128,-1090.9933C1102.0588,-1085.8607 1266.7468,-1069.0068 1266.7468,-1020 1266.7468,-1020 1266.7468,-1020 1266.7468,-801 1266.7468,-765.9246 1016.2857,-739.8904 919.916,-731.1714"/>
<polygon fill="#000000" stroke="#000000" points="920.0205,-727.6669 909.749,-730.2643 919.3983,-734.6392 920.0205,-727.6669"/>
</g>
<!-- url&#45;&gt;port -->
<g id="edge7" class="edge">
<title>url&#45;&gt;port</title>
<path fill="none" stroke="#000000" d="M461.401,-795.0799C477.9937,-791.3557 500.0871,-786.5924 519.7468,-783 638.5376,-761.2938 780.3122,-741.5928 845.9934,-732.8171"/>
<polygon fill="#000000" stroke="#000000" points="846.7869,-736.2425 856.2382,-731.4546 845.864,-729.3036 846.7869,-736.2425"/>
</g>
<!-- hostname -->
<g id="node8" class="node">
<title>hostname</title>
<ellipse fill="none" stroke="#000000" stroke-dasharray="5,2" cx="543.7468" cy="-728" rx="44.6926" ry="18"/>
<text text-anchor="middle" x="543.7468" y="-724.3" font-family="Times,serif" font-size="14.00" fill="#000000">hostname</text>
</g>
<!-- url&#45;&gt;hostname -->
<g id="edge6" class="edge">
<title>url&#45;&gt;hostname</title>
<path fill="none" stroke="#000000" d="M452.796,-775.8127C456.4119,-771.532 460.4479,-767.3836 464.7468,-764 475.1203,-755.8354 487.6429,-749.0436 499.6298,-743.6409"/>
<polygon fill="#000000" stroke="#000000" points="449.774,-773.9976 446.4015,-784.0413 455.3012,-778.2929 449.774,-773.9976"/>
<polygon fill="#000000" stroke="#000000" points="501.2552,-746.7527 509.0769,-739.6062 498.5058,-740.3152 501.2552,-746.7527"/>
</g>
<!-- web -->
<g id="node31" class="node">
<title>web</title>
<polygon fill="none" stroke="#000000" points="660.7468,-517 606.7468,-517 606.7468,-481 660.7468,-481 660.7468,-517"/>
<text text-anchor="middle" x="633.7468" y="-495.3" font-family="Times,serif" font-size="14.00" fill="#000000">web</text>
</g>
<!-- url&#45;&gt;web -->
<g id="edge31" class="edge">
<title>url&#45;&gt;web</title>
<path fill="none" stroke="#000000" d="M431.9092,-783.0936C429.0891,-768.3727 425.7468,-746.9321 425.7468,-728 425.7468,-728 425.7468,-728 425.7468,-572 425.7468,-536.2582 536.4775,-513.8107 596.3542,-504.2852"/>
<polygon fill="#000000" stroke="#000000" points="597.2062,-507.6951 606.5545,-502.7091 596.1372,-500.7772 597.2062,-507.6951"/>
</g>
<!-- hostname&#45;&gt;ip -->
<g id="edge8" class="edge">
<title>hostname&#45;&gt;ip</title>
<path fill="none" stroke="#000000" d="M526.7521,-744.9567C514.7329,-758.8013 500.7468,-779.5251 500.7468,-801 500.7468,-947 500.7468,-947 500.7468,-947 500.7468,-962.5493 504.834,-979.3783 509.2171,-992.9551"/>
<polygon fill="#000000" stroke="#000000" points="505.9865,-994.3223 512.5637,-1002.6284 512.6018,-992.0336 505.9865,-994.3223"/>
</g>
<!-- dns -->
<g id="node38" class="node">
<title>dns</title>
<polygon fill="none" stroke="#000000" points="699.7468,-663 645.7468,-663 645.7468,-627 699.7468,-627 699.7468,-663"/>
<text text-anchor="middle" x="672.7468" y="-641.3" font-family="Times,serif" font-size="14.00" fill="#000000">dns</text>
</g>
<!-- hostname&#45;&gt;dns -->
<g id="edge38" class="edge">
<title>hostname&#45;&gt;dns</title>
<path fill="none" stroke="#000000" d="M567.7084,-712.5829C587.1344,-700.084 614.8105,-682.2768 636.8775,-668.0787"/>
<polygon fill="#000000" stroke="#000000" points="638.8204,-670.9906 645.3362,-662.6363 635.0327,-665.1038 638.8204,-670.9906"/>
</g>
<!-- tld -->
<g id="node49" class="node">
<title>tld</title>
<ellipse fill="none" stroke="#000000" cx="1143.7468" cy="-645" rx="27" ry="18"/>
<text text-anchor="middle" x="1143.7468" y="-641.3" font-family="Times,serif" font-size="14.00" fill="#000000">tld</text>
</g>
<!-- hostname&#45;&gt;tld -->
<g id="edge50" class="edge">
<title>hostname&#45;&gt;tld</title>
<path fill="none" stroke="#000000" d="M586.4163,-722.0974C698.8806,-706.5398 1001.9665,-664.6129 1107.1759,-650.059"/>
<polygon fill="#000000" stroke="#000000" points="1107.8737,-653.4959 1117.2997,-648.6585 1106.9144,-646.5619 1107.8737,-653.4959"/>
<text text-anchor="middle" x="928.7468" y="-684" font-family="Times,serif" font-size="10.00" fill="#000000">choose all,ccTLD,gTLD</text>
</g>
<!-- hostname&#45;&gt;nmap -->
<g id="edge59" class="edge">
<title>hostname&#45;&gt;nmap</title>
<path fill="none" stroke="#000000" d="M510.3029,-715.9311C467.6776,-700.5489 394.2539,-674.0526 350.2241,-658.1635"/>
<polygon fill="#000000" stroke="#000000" points="351.359,-654.8522 340.7646,-654.7499 348.9828,-661.4366 351.359,-654.8522"/>
</g>
<!-- prefix -->
<g id="node11" class="node">
<title>prefix</title>
<ellipse fill="none" stroke="#000000" cx="810.7468" cy="-874" rx="31.6951" ry="18"/>
<text text-anchor="middle" x="810.7468" y="-870.3" font-family="Times,serif" font-size="14.00" fill="#000000">prefix</text>
</g>
<!-- whois&#45;&gt;prefix -->
<g id="edge11" class="edge">
<title>whois&#45;&gt;prefix</title>
<path fill="none" stroke="#000000" d="M850.6457,-928.9551C844.102,-919.9421 836.0792,-908.8918 828.9481,-899.0697"/>
<polygon fill="#000000" stroke="#000000" points="831.678,-896.8723 822.9706,-890.8365 826.0135,-900.9849 831.678,-896.8723"/>
</g>
<!-- asn -->
<g id="node12" class="node">
<title>asn</title>
<ellipse fill="none" stroke="#000000" stroke-dasharray="5,2" cx="1173.7468" cy="-874" rx="27" ry="18"/>
<text text-anchor="middle" x="1173.7468" y="-870.3" font-family="Times,serif" font-size="14.00" fill="#000000">asn</text>
</g>
<!-- whois&#45;&gt;asn -->
<g id="edge12" class="edge">
<title>whois&#45;&gt;asn</title>
<path fill="none" stroke="#000000" d="M890.819,-943.9859C940.7166,-937.904 1050.1033,-922.1055 1137.7468,-892 1139.6303,-891.353 1141.5406,-890.627 1143.4484,-889.8476"/>
<polygon fill="#000000" stroke="#000000" points="1145.149,-892.9204 1152.8308,-885.6238 1142.2754,-886.5374 1145.149,-892.9204"/>
</g>
<!-- abusemail -->
<g id="node13" class="node">
<title>abusemail</title>
<ellipse fill="none" stroke="#000000" cx="613.7468" cy="-874" rx="46.5926" ry="18"/>
<text text-anchor="middle" x="613.7468" y="-870.3" font-family="Times,serif" font-size="14.00" fill="#000000">abusemail</text>
</g>
<!-- whois&#45;&gt;abusemail -->
<g id="edge13" class="edge">
<title>whois&#45;&gt;abusemail</title>
<path fill="none" stroke="#000000" d="M836.6701,-939.6432C799.0937,-929.361 729.0588,-909.934 669.7468,-892 666.3699,-890.9789 662.8845,-889.9056 659.3815,-888.8128"/>
<polygon fill="#000000" stroke="#000000" points="660.1277,-885.3782 649.538,-885.7084 658.0222,-892.0541 660.1277,-885.3782"/>
</g>
<!-- country -->
<g id="node14" class="node">
<title>country</title>
<ellipse fill="none" stroke="#000000" cx="1258.7468" cy="-572" rx="37.8943" ry="18"/>
<text text-anchor="middle" x="1258.7468" y="-568.3" font-family="Times,serif" font-size="14.00" fill="#000000">country</text>
</g>
<!-- whois&#45;&gt;country -->
<g id="edge14" class="edge">
<title>whois&#45;&gt;country</title>
<path fill="none" stroke="#000000" d="M890.9753,-944.7633C962.3706,-938.5706 1153.3508,-919.8017 1209.7468,-892 1220.1802,-886.8567 1228.7468,-885.6322 1228.7468,-874 1228.7468,-874 1228.7468,-874 1228.7468,-645 1228.7468,-628.6817 1235.2394,-611.7476 1242.1838,-598.3022"/>
<polygon fill="#000000" stroke="#000000" points="1245.4491,-599.6306 1247.2338,-589.1872 1239.326,-596.2382 1245.4491,-599.6306"/>
</g>
<!-- netname -->
<g id="node15" class="node">
<title>netname</title>
<ellipse fill="none" stroke="#000000" cx="719.7468" cy="-874" rx="40.8928" ry="18"/>
<text text-anchor="middle" x="719.7468" y="-870.3" font-family="Times,serif" font-size="14.00" fill="#000000">netname</text>
</g>
<!-- whois&#45;&gt;netname -->
<g id="edge15" class="edge">
<title>whois&#45;&gt;netname</title>
<path fill="none" stroke="#000000" d="M836.6615,-933.2693C813.833,-921.6965 780.9746,-905.0391 755.9018,-892.3285"/>
<polygon fill="#000000" stroke="#000000" points="757.2126,-889.0691 746.7107,-887.6692 754.0475,-895.3126 757.2126,-889.0691"/>
</g>
<!-- csirt_contact -->
<g id="node16" class="node">
<title>csirt_contact</title>
<ellipse fill="none" stroke="#000000" cx="916.7468" cy="-874" rx="55.7903" ry="18"/>
<text text-anchor="middle" x="916.7468" y="-870.3" font-family="Times,serif" font-size="14.00" fill="#000000">csirt_contact</text>
</g>
<!-- whois&#45;&gt;csirt_contact -->
<g id="edge16" class="edge">
<title>whois&#45;&gt;csirt_contact</title>
<path fill="none" stroke="#000000" d="M876.848,-928.9551C883.2494,-920.138 891.0663,-909.3713 898.0792,-899.712"/>
<polygon fill="#000000" stroke="#000000" points="900.9364,-901.734 903.9793,-891.5855 895.2719,-897.6213 900.9364,-901.734"/>
</g>
<!-- incident_contact -->
<g id="node17" class="node">
<title>incident_contact</title>
<ellipse fill="none" stroke="#000000" cx="1059.7468" cy="-874" rx="68.7879" ry="18"/>
<text text-anchor="middle" x="1059.7468" y="-870.3" font-family="Times,serif" font-size="14.00" fill="#000000">incident_contact</text>
</g>
<!-- whois&#45;&gt;incident_contact -->
<g id="edge17" class="edge">
<title>whois&#45;&gt;incident_contact</title>
<path fill="none" stroke="#000000" d="M890.9998,-936.8497C921.7052,-925.4135 972.2513,-906.5876 1010.0327,-892.516"/>
<polygon fill="#000000" stroke="#000000" points="1011.6828,-895.6364 1019.8323,-888.8661 1009.2395,-889.0766 1011.6828,-895.6364"/>
</g>
<!-- cidr -->
<g id="node10" class="node">
<title>cidr</title>
<ellipse fill="none" stroke="#000000" stroke-dasharray="5,2" cx="555.7468" cy="-801" rx="27" ry="18"/>
<text text-anchor="middle" x="555.7468" y="-797.3" font-family="Times,serif" font-size="14.00" fill="#000000">cidr</text>
</g>
<!-- cidr&#45;&gt;ip -->
<g id="edge10" class="edge">
<title>cidr&#45;&gt;ip</title>
<path fill="none" stroke="#000000" d="M552.7601,-819.1693C546.4743,-857.4082 531.8431,-946.4145 524.3495,-992.0003"/>
<polygon fill="#000000" stroke="#000000" points="520.8614,-991.643 522.6929,-1002.0783 527.7687,-992.7785 520.8614,-991.643"/>
</g>
<!-- prefix&#45;&gt;cidr -->
<g id="edge51" class="edge">
<title>prefix&#45;&gt;cidr</title>
<path fill="none" stroke="#000000" d="M786.3525,-862.2978C780.964,-859.9939 775.2264,-857.7512 769.7468,-856 692.7794,-831.4031 668.0759,-845.5116 591.7468,-819 589.8656,-818.3466 587.957,-817.6156 586.0505,-816.8323"/>
<polygon fill="#000000" stroke="#000000" points="587.2261,-813.5229 576.6717,-812.5983 584.3459,-819.9029 587.2261,-813.5229"/>
</g>
<!-- email -->
<g id="node46" class="node">
<title>email</title>
<ellipse fill="none" stroke="#000000" stroke-dasharray="5,2" cx="631.7468" cy="-801" rx="30.5947" ry="18"/>
<text text-anchor="middle" x="631.7468" y="-797.3" font-family="Times,serif" font-size="14.00" fill="#000000">email</text>
</g>
<!-- abusemail&#45;&gt;email -->
<g id="edge46" class="edge">
<title>abusemail&#45;&gt;email</title>
<path fill="none" stroke="#000000" stroke-dasharray="5,2" d="M618.1963,-855.9551C620.2234,-847.7337 622.6686,-837.8173 624.9206,-828.6841"/>
<polygon fill="#000000" stroke="#000000" points="628.3527,-829.3845 627.3486,-818.8374 621.5562,-827.7086 628.3527,-829.3845"/>
</g>
<!-- plaintext -->
<g id="node18" class="node">
<title>plaintext</title>
<ellipse fill="none" stroke="#000000" stroke-dasharray="5,2" cx="283.7468" cy="-416" rx="41.6928" ry="18"/>
<text text-anchor="middle" x="283.7468" y="-412.3" font-family="Times,serif" font-size="14.00" fill="#000000">plaintext</text>
</g>
<!-- bytes -->
<g id="node19" class="node">
<title>bytes</title>
<ellipse fill="none" stroke="#000000" cx="210.7468" cy="-343" rx="29.4969" ry="18"/>
<text text-anchor="middle" x="210.7468" y="-339.3" font-family="Times,serif" font-size="14.00" fill="#000000">bytes</text>
</g>
<!-- plaintext&#45;&gt;bytes -->
<g id="edge18" class="edge">
<title>plaintext&#45;&gt;bytes</title>
<path fill="none" stroke="#000000" d="M259.8733,-392.1265C251.4143,-383.6675 241.9234,-374.1765 233.5553,-365.8084"/>
<polygon fill="#000000" stroke="#000000" points="257.636,-394.839 267.182,-399.4352 262.5858,-389.8892 257.636,-394.839"/>
<polygon fill="#000000" stroke="#000000" points="235.7938,-363.0972 226.2478,-358.501 230.844,-368.0469 235.7938,-363.0972"/>
</g>
<!-- custom -->
<g id="node23" class="node">
<title>custom</title>
<polygon fill="none" stroke="#000000" points="262.7468,-205 206.7468,-205 206.7468,-169 262.7468,-169 262.7468,-205"/>
<text text-anchor="middle" x="234.7468" y="-183.3" font-family="Times,serif" font-size="14.00" fill="#000000">custom</text>
</g>
<!-- plaintext&#45;&gt;custom -->
<g id="edge22" class="edge">
<title>plaintext&#45;&gt;custom</title>
<path fill="none" stroke="#000000" d="M295.9927,-398.5562C317.2982,-365.8582 356.2246,-293.9664 326.7468,-242 315.0691,-221.4134 292.2861,-207.7067 272.315,-199.1252"/>
<polygon fill="#000000" stroke="#000000" points="273.3825,-195.7826 262.7979,-195.3165 270.7816,-202.2815 273.3825,-195.7826"/>
</g>
<!-- base64 -->
<g id="node20" class="node">
<title>base64</title>
<ellipse fill="none" stroke="#000000" stroke-dasharray="5,2" cx="124.7468" cy="-260" rx="35.194" ry="18"/>
<text text-anchor="middle" x="124.7468" y="-256.3" font-family="Times,serif" font-size="14.00" fill="#000000">base64</text>
</g>
<!-- bytes&#45;&gt;base64 -->
<g id="edge19" class="edge">
<title>bytes&#45;&gt;base64</title>
<path fill="none" stroke="#000000" d="M187.731,-320.7871C175.6101,-309.089 160.7647,-294.7615 148.5315,-282.955"/>
<polygon fill="#000000" stroke="#000000" points="185.347,-323.3505 194.9731,-327.7765 190.2082,-318.3136 185.347,-323.3505"/>
<polygon fill="#000000" stroke="#000000" points="150.9259,-280.4017 141.2999,-275.9756 146.0648,-285.4385 150.9259,-280.4017"/>
</g>
<!-- quoted_printable -->
<g id="node21" class="node">
<title>quoted_printable</title>
<ellipse fill="none" stroke="#000000" stroke-dasharray="5,2" cx="247.7468" cy="-260" rx="70.3881" ry="18"/>
<text text-anchor="middle" x="247.7468" y="-256.3" font-family="Times,serif" font-size="14.00" fill="#000000">quoted_printable</text>
</g>
<!-- bytes&#45;&gt;quoted_printable -->
<g id="edge20" class="edge">
<title>bytes&#45;&gt;quoted_printable</title>
<path fill="none" stroke="#000000" d="M222.7912,-315.9816C226.8484,-306.8804 231.3792,-296.7167 235.4552,-287.5732"/>
<polygon fill="#000000" stroke="#000000" points="219.4685,-314.8392 218.5936,-325.3978 225.862,-317.6893 219.4685,-314.8392"/>
<polygon fill="#000000" stroke="#000000" points="238.7807,-288.7092 239.6556,-278.1506 232.3872,-285.8591 238.7807,-288.7092"/>
</g>
<!-- charset -->
<g id="node27" class="node">
<title>charset</title>
<ellipse fill="none" stroke="#000000" cx="35.7468" cy="-260" rx="35.9954" ry="18"/>
<text text-anchor="middle" x="35.7468" y="-256.3" font-family="Times,serif" font-size="14.00" fill="#000000">charset</text>
</g>
<!-- bytes&#45;&gt;charset -->
<g id="edge26" class="edge">
<title>bytes&#45;&gt;charset</title>
<path fill="none" stroke="#000000" d="M185.2548,-333.9548C166.7939,-327.1549 141.3859,-317.2778 119.7468,-307 102.0812,-298.6095 83.0123,-288.068 67.515,-279.0957"/>
<polygon fill="#000000" stroke="#000000" points="69.2399,-276.0498 58.8408,-274.0224 65.7058,-282.0922 69.2399,-276.0498"/>
<text text-anchor="middle" x="139.2468" y="-299" font-family="Times,serif" font-size="10.00" fill="#000000">encoding</text>
</g>
<!-- base64&#45;&gt;custom -->
<!-- urlencode -->
<g id="node22" class="node">
<title>urlencode</title>
<ellipse fill="none" stroke="#000000" stroke-dasharray="5,2" cx="446.7468" cy="-499" rx="45.4919" ry="18"/>
<text text-anchor="middle" x="446.7468" y="-495.3" font-family="Times,serif" font-size="14.00" fill="#000000">urlencode</text>
</g>
<!-- urlencode&#45;&gt;plaintext -->
<g id="edge21" class="edge">
<title>urlencode&#45;&gt;plaintext</title>
<path fill="none" stroke="#000000" d="M409.7929,-480.183C382.8778,-466.4777 346.6064,-448.0083 319.8833,-434.4008"/>
<polygon fill="#000000" stroke="#000000" points="408.2267,-483.3131 418.7261,-484.7318 411.4031,-477.0752 408.2267,-483.3131"/>
<polygon fill="#000000" stroke="#000000" points="321.3597,-431.225 310.8603,-429.8062 318.1833,-437.4628 321.3597,-431.225"/>
</g>
<!-- external -->
<g id="node24" class="node">
<title>external</title>
<ellipse fill="none" stroke="#000000" cx="150.7468" cy="-114" rx="38.9931" ry="18"/>
<text text-anchor="middle" x="150.7468" y="-110.3" font-family="Times,serif" font-size="14.00" fill="#000000">external</text>
</g>
<!-- custom&#45;&gt;external -->
<g id="edge23" class="edge">
<title>custom&#45;&gt;external</title>
<path fill="none" stroke="#000000" d="M213.9828,-168.9551C202.8511,-159.2811 189.0185,-147.2599 177.1317,-136.9297"/>
<polygon fill="#000000" stroke="#000000" points="179.1142,-134.0156 169.2703,-130.0978 174.5225,-139.2992 179.1142,-134.0156"/>
</g>
<!-- code -->
<g id="node25" class="node">
<title>code</title>
<ellipse fill="none" stroke="#000000" cx="234.7468" cy="-114" rx="27.0966" ry="18"/>
<text text-anchor="middle" x="234.7468" y="-110.3" font-family="Times,serif" font-size="14.00" fill="#000000">code</text>
</g>
<!-- custom&#45;&gt;code -->
<g id="edge24" class="edge">
<title>custom&#45;&gt;code</title>
<path fill="none" stroke="#000000" d="M234.7468,-168.9551C234.7468,-160.8828 234.7468,-151.1764 234.7468,-142.1817"/>
<polygon fill="#000000" stroke="#000000" points="238.2469,-142.0903 234.7468,-132.0904 231.2469,-142.0904 238.2469,-142.0903"/>
</g>
<!-- reg -->
<g id="node26" class="node">
<title>reg</title>
<ellipse fill="none" stroke="#000000" cx="306.7468" cy="-114" rx="27" ry="18"/>
<text text-anchor="middle" x="306.7468" y="-110.3" font-family="Times,serif" font-size="14.00" fill="#000000">reg</text>
</g>
<!-- custom&#45;&gt;reg -->
<g id="edge25" class="edge">
<title>custom&#45;&gt;reg</title>
<path fill="none" stroke="#000000" d="M252.5446,-168.9551C262.1954,-159.1702 274.2145,-146.9842 284.4807,-136.5753"/>
<polygon fill="#000000" stroke="#000000" points="287.0572,-138.9474 291.5874,-129.3699 282.0734,-134.0319 287.0572,-138.9474"/>
</g>
<!-- reg_s -->
<g id="node28" class="node">
<title>reg_s</title>
<ellipse fill="none" stroke="#000000" cx="265.7468" cy="-41" rx="29.795" ry="18"/>
<text text-anchor="middle" x="265.7468" y="-37.3" font-family="Times,serif" font-size="14.00" fill="#000000">reg_s</text>
</g>
<!-- reg&#45;&gt;reg_s -->
<g id="edge27" class="edge">
<title>reg&#45;&gt;reg_s</title>
<path fill="none" stroke="#000000" d="M297.2376,-97.0688C292.2025,-88.1041 285.9117,-76.9033 280.2792,-66.8747"/>
<polygon fill="#000000" stroke="#000000" points="283.2952,-65.0972 275.3466,-58.0922 277.1919,-68.5251 283.2952,-65.0972"/>
</g>
<!-- reg_m -->
<g id="node29" class="node">
<title>reg_m</title>
<ellipse fill="none" stroke="#000000" cx="347.7468" cy="-41" rx="33.5952" ry="18"/>
<text text-anchor="middle" x="347.7468" y="-37.3" font-family="Times,serif" font-size="14.00" fill="#000000">reg_m</text>
</g>
<!-- reg&#45;&gt;reg_m -->
<g id="edge28" class="edge">
<title>reg&#45;&gt;reg_m</title>
<path fill="none" stroke="#000000" d="M316.2561,-97.0688C321.2549,-88.1686 327.4915,-77.0643 333.0928,-67.0914"/>
<polygon fill="#000000" stroke="#000000" points="336.1591,-68.7792 338.0044,-58.3463 330.0558,-65.3513 336.1591,-68.7792"/>
</g>
<!-- wrong_url -->
<g id="node30" class="node">
<title>wrong_url</title>
<ellipse fill="none" stroke="#000000" stroke-dasharray="5,2" cx="387.7468" cy="-874" rx="47.3916" ry="18"/>
<text text-anchor="middle" x="387.7468" y="-870.3" font-family="Times,serif" font-size="14.00" fill="#000000">wrong_url</text>
</g>
<!-- wrong_url&#45;&gt;url -->
<g id="edge29" class="edge">
<title>wrong_url&#45;&gt;url</title>
<path fill="none" stroke="#000000" d="M399.3663,-856.3287C405.3749,-847.1906 412.8093,-835.8841 419.3883,-825.8785"/>
<polygon fill="#000000" stroke="#000000" points="422.3227,-827.7863 424.8924,-817.5078 416.4738,-823.9405 422.3227,-827.7863"/>
</g>
<!-- http_status -->
<g id="node32" class="node">
<title>http_status</title>
<ellipse fill="none" stroke="#000000" cx="564.7468" cy="-416" rx="48.9926" ry="18"/>
<text text-anchor="middle" x="564.7468" y="-412.3" font-family="Times,serif" font-size="14.00" fill="#000000">http_status</text>
</g>
<!-- web&#45;&gt;http_status -->
<g id="edge32" class="edge">
<title>web&#45;&gt;http_status</title>
<path fill="none" stroke="#000000" d="M618.7749,-480.9902C609.1508,-469.4135 596.5038,-454.2004 585.8656,-441.4037"/>
<polygon fill="#000000" stroke="#000000" points="588.3009,-438.8582 579.2167,-433.4058 582.9181,-443.3331 588.3009,-438.8582"/>
</g>
<!-- text -->
<g id="node33" class="node">
<title>text</title>
<ellipse fill="none" stroke="#000000" cx="890.7468" cy="-416" rx="27" ry="18"/>
<text text-anchor="middle" x="890.7468" y="-412.3" font-family="Times,serif" font-size="14.00" fill="#000000">text</text>
</g>
<!-- web&#45;&gt;text -->
<g id="edge33" class="edge">
<title>web&#45;&gt;text</title>
<path fill="none" stroke="#000000" d="M660.7955,-492.6948C702.974,-482.4974 786.6413,-460.7963 854.7468,-434 856.6,-433.2708 858.4868,-432.481 860.3767,-431.6529"/>
<polygon fill="#000000" stroke="#000000" points="862.1281,-434.698 869.7111,-427.2988 859.169,-428.3542 862.1281,-434.698"/>
</g>
<!-- html -->
<g id="node34" class="node">
<title>html</title>
<ellipse fill="none" stroke="#000000" cx="470.7468" cy="-416" rx="27.0966" ry="18"/>
<text text-anchor="middle" x="470.7468" y="-412.3" font-family="Times,serif" font-size="14.00" fill="#000000">html</text>
</g>
<!-- web&#45;&gt;html -->
<g id="edge34" class="edge">
<title>web&#45;&gt;html</title>
<path fill="none" stroke="#000000" d="M606.4643,-485.1077C577.5147,-470.3664 531.8617,-447.1199 501.6156,-431.7185"/>
<polygon fill="#000000" stroke="#000000" points="502.8769,-428.4331 492.3775,-427.0144 499.7006,-434.671 502.8769,-428.4331"/>
</g>
<!-- redirects -->
<g id="node35" class="node">
<title>redirects</title>
<ellipse fill="none" stroke="#000000" cx="384.7468" cy="-416" rx="40.8928" ry="18"/>
<text text-anchor="middle" x="384.7468" y="-412.3" font-family="Times,serif" font-size="14.00" fill="#000000">redirects</text>
</g>
<!-- web&#45;&gt;redirects -->
<g id="edge35" class="edge">
<title>web&#45;&gt;redirects</title>
<path fill="none" stroke="#000000" d="M606.6239,-490.4236C568.2429,-478.2231 495.9368,-455.0023 434.7468,-434 431.8726,-433.0135 428.9103,-431.9829 425.9302,-430.9358"/>
<polygon fill="#000000" stroke="#000000" points="427.0318,-427.6129 416.437,-427.5695 424.6922,-434.2104 427.0318,-427.6129"/>
</g>
<!-- x_frame_options -->
<g id="node36" class="node">
<title>x_frame_options</title>
<ellipse fill="none" stroke="#000000" cx="702.7468" cy="-416" rx="70.6878" ry="18"/>
<text text-anchor="middle" x="702.7468" y="-412.3" font-family="Times,serif" font-size="14.00" fill="#000000">x_frame_options</text>
</g>
<!-- web&#45;&gt;x_frame_options -->
<g id="edge36" class="edge">
<title>web&#45;&gt;x_frame_options</title>
<path fill="none" stroke="#000000" d="M648.7188,-480.9902C658.2778,-469.4917 670.8191,-454.4058 681.4122,-441.6634"/>
<polygon fill="#000000" stroke="#000000" points="684.3398,-443.6168 688.0411,-433.6895 678.9569,-439.1418 684.3398,-443.6168"/>
</g>
<!-- csp -->
<g id="node37" class="node">
<title>csp</title>
<ellipse fill="none" stroke="#000000" cx="818.7468" cy="-416" rx="27" ry="18"/>
<text text-anchor="middle" x="818.7468" y="-412.3" font-family="Times,serif" font-size="14.00" fill="#000000">csp</text>
</g>
<!-- web&#45;&gt;csp -->
<g id="edge37" class="edge">
<title>web&#45;&gt;csp</title>
<path fill="none" stroke="#000000" d="M660.8541,-487.6782C690.8612,-475.0286 740.5659,-453.7293 782.7468,-434 784.5033,-433.1785 786.302,-432.3235 788.113,-431.4521"/>
<polygon fill="#000000" stroke="#000000" points="789.6917,-434.5762 797.1341,-427.0355 786.6137,-428.2892 789.6917,-434.5762"/>
</g>
<!-- timestamp -->
<g id="node50" class="node">
<title>timestamp</title>
<ellipse fill="none" stroke="#000000" stroke-dasharray="5,2" cx="890.7468" cy="-343" rx="48.1917" ry="18"/>
<text text-anchor="middle" x="890.7468" y="-339.3" font-family="Times,serif" font-size="14.00" fill="#000000">timestamp</text>
</g>
<!-- text&#45;&gt;timestamp -->
<!-- redirects&#45;&gt;url -->
<g id="edge52" class="edge">
<title>redirects&#45;&gt;url</title>
<path fill="none" stroke="#000000" stroke-dasharray="5,2" d="M380.9613,-434.043C377.7793,-450.795 373.7468,-476.4696 373.7468,-499 373.7468,-728 373.7468,-728 373.7468,-728 373.7468,-750.3721 390.8729,-769.3925 407.1231,-782.4044"/>
<polygon fill="#000000" stroke="#000000" points="405.3459,-785.4465 415.4457,-788.6471 409.5462,-779.8467 405.3459,-785.4465"/>
</g>
<!-- spf -->
<g id="node39" class="node">
<title>spf</title>
<ellipse fill="none" stroke="#000000" cx="636.7468" cy="-572" rx="27" ry="18"/>
<text text-anchor="middle" x="636.7468" y="-568.3" font-family="Times,serif" font-size="14.00" fill="#000000">spf</text>
</g>
<!-- dns&#45;&gt;spf -->
<g id="edge39" class="edge">
<title>dns&#45;&gt;spf</title>
<path fill="none" stroke="#000000" d="M663.8479,-626.9551C659.6004,-618.3419 654.4352,-607.8681 649.758,-598.3837"/>
<polygon fill="#000000" stroke="#000000" points="652.8575,-596.7554 645.2954,-589.3347 646.5794,-599.8514 652.8575,-596.7554"/>
</g>
<!-- txt -->
<g id="node40" class="node">
<title>txt</title>
<ellipse fill="none" stroke="#000000" cx="708.7468" cy="-572" rx="27" ry="18"/>
<text text-anchor="middle" x="708.7468" y="-568.3" font-family="Times,serif" font-size="14.00" fill="#000000">txt</text>
</g>
<!-- dns&#45;&gt;txt -->
<g id="edge40" class="edge">
<title>dns&#45;&gt;txt</title>
<path fill="none" stroke="#000000" d="M681.6457,-626.9551C685.8933,-618.3419 691.0585,-607.8681 695.7357,-598.3837"/>
<polygon fill="#000000" stroke="#000000" points="698.9143,-599.8514 700.1982,-589.3347 692.6362,-596.7554 698.9143,-599.8514"/>
</g>
<!-- a -->
<g id="node41" class="node">
<title>a</title>
<ellipse fill="none" stroke="#000000" cx="924.7468" cy="-572" rx="27" ry="18"/>
<text text-anchor="middle" x="924.7468" y="-568.3" font-family="Times,serif" font-size="14.00" fill="#000000">a</text>
</g>
<!-- dns&#45;&gt;a -->
<g id="edge41" class="edge">
<title>dns&#45;&gt;a</title>
<path fill="none" stroke="#000000" d="M699.9134,-640.031C741.4173,-632.0081 822.747,-614.5783 888.7468,-590 890.6131,-589.305 892.51,-588.5416 894.4077,-587.7338"/>
<polygon fill="#000000" stroke="#000000" points="896.1384,-590.7904 903.7628,-583.4339 893.2149,-584.43 896.1384,-590.7904"/>
</g>
<!-- aaaa -->
<g id="node42" class="node">
<title>aaaa</title>
<ellipse fill="none" stroke="#000000" cx="780.7468" cy="-572" rx="27" ry="18"/>
<text text-anchor="middle" x="780.7468" y="-568.3" font-family="Times,serif" font-size="14.00" fill="#000000">aaaa</text>
</g>
<!-- dns&#45;&gt;aaaa -->
<g id="edge42" class="edge">
<title>dns&#45;&gt;aaaa</title>
<path fill="none" stroke="#000000" d="M699.4435,-626.9551C715.6765,-615.9827 736.3766,-601.991 752.827,-590.8717"/>
<polygon fill="#000000" stroke="#000000" points="755.1487,-593.527 761.4736,-585.0273 751.2287,-587.7276 755.1487,-593.527"/>
</g>
<!-- ns -->
<g id="node43" class="node">
<title>ns</title>
<ellipse fill="none" stroke="#000000" cx="852.7468" cy="-572" rx="27" ry="18"/>
<text text-anchor="middle" x="852.7468" y="-568.3" font-family="Times,serif" font-size="14.00" fill="#000000">ns</text>
</g>
<!-- dns&#45;&gt;ns -->
<g id="edge43" class="edge">
<title>dns&#45;&gt;ns</title>
<path fill="none" stroke="#000000" d="M699.8735,-635.545C729.0636,-625.1616 776.6926,-607.6114 816.7468,-590 818.5219,-589.2195 820.3352,-588.3967 822.1575,-587.55"/>
<polygon fill="#000000" stroke="#000000" points="823.7111,-590.6866 831.2094,-583.2016 820.68,-584.3769 823.7111,-590.6866"/>
</g>
<!-- mx -->
<g id="node44" class="node">
<title>mx</title>
<ellipse fill="none" stroke="#000000" cx="564.7468" cy="-572" rx="27" ry="18"/>
<text text-anchor="middle" x="564.7468" y="-568.3" font-family="Times,serif" font-size="14.00" fill="#000000">mx</text>
</g>
<!-- dns&#45;&gt;mx -->
<g id="edge44" class="edge">
<title>dns&#45;&gt;mx</title>
<path fill="none" stroke="#000000" d="M646.0502,-626.9551C629.8172,-615.9827 609.1171,-601.991 592.6666,-590.8717"/>
<polygon fill="#000000" stroke="#000000" points="594.265,-587.7276 584.02,-585.0273 590.345,-593.527 594.265,-587.7276"/>
</g>
<!-- dmarc -->
<g id="node45" class="node">
<title>dmarc</title>
<ellipse fill="none" stroke="#000000" cx="486.7468" cy="-572" rx="33.2948" ry="18"/>
<text text-anchor="middle" x="486.7468" y="-568.3" font-family="Times,serif" font-size="14.00" fill="#000000">dmarc</text>
</g>
<!-- dns&#45;&gt;dmarc -->
<g id="edge45" class="edge">
<title>dns&#45;&gt;dmarc</title>
<path fill="none" stroke="#000000" d="M645.5492,-634.9822C616.501,-624.1965 569.177,-606.377 528.7468,-590 526.6559,-589.153 524.5112,-588.2721 522.3506,-587.3752"/>
<polygon fill="#000000" stroke="#000000" points="523.4671,-584.0479 512.8923,-583.3968 520.7529,-590.5003 523.4671,-584.0479"/>
</g>
<!-- a&#45;&gt;web -->
<!-- dmarc&#45;&gt;urlencode -->
<!-- email&#45;&gt;hostname -->
<g id="edge47" class="edge">
<title>email&#45;&gt;hostname</title>
<path fill="none" stroke="#000000" d="M613.9387,-786.2274C601.6797,-776.058 585.1559,-762.3507 571.2201,-750.7903"/>
<polygon fill="#000000" stroke="#000000" points="573.2969,-747.9656 563.3657,-744.2747 568.8276,-753.3532 573.2969,-747.9656"/>
</g>
<!-- country_name -->
<g id="node47" class="node">
<title>country_name</title>
<ellipse fill="none" stroke="#000000" cx="1400.7468" cy="-645" rx="61.99" ry="18"/>
<text text-anchor="middle" x="1400.7468" y="-641.3" font-family="Times,serif" font-size="14.00" fill="#000000">country_name</text>
</g>
<!-- country_name&#45;&gt;country -->
<g id="edge48" class="edge">
<title>country_name&#45;&gt;country</title>
<path fill="none" stroke="#000000" d="M1361.2142,-624.6769C1339.92,-613.7299 1313.8918,-600.3492 1293.397,-589.8131"/>
<polygon fill="#000000" stroke="#000000" points="1359.7904,-627.8803 1370.2843,-629.3397 1362.9909,-621.6548 1359.7904,-627.8803"/>
<polygon fill="#000000" stroke="#000000" points="1294.9006,-586.6507 1284.4067,-585.1913 1291.7001,-592.8762 1294.9006,-586.6507"/>
</g>
<!-- phone -->
<g id="node48" class="node">
<title>phone</title>
<ellipse fill="none" stroke="#000000" stroke-dasharray="5,2" cx="1288.7468" cy="-645" rx="32.4942" ry="18"/>
<text text-anchor="middle" x="1288.7468" y="-641.3" font-family="Times,serif" font-size="14.00" fill="#000000">phone</text>
</g>
<!-- phone&#45;&gt;country -->
<g id="edge49" class="edge">
<title>phone&#45;&gt;country</title>
<path fill="none" stroke="#000000" d="M1281.4847,-627.3287C1278.0097,-618.873 1273.7718,-608.5607 1269.9004,-599.1404"/>
<polygon fill="#000000" stroke="#000000" points="1273.0846,-597.6805 1266.0461,-589.7615 1266.61,-600.3414 1273.0846,-597.6805"/>
</g>
<!-- tld&#45;&gt;country -->
<g id="edge53" class="edge">
<title>tld&#45;&gt;country</title>
<path fill="none" stroke="#000000" stroke-dasharray="5,2" d="M1163.516,-632.4509C1181.0815,-621.3006 1207.0577,-604.8114 1227.445,-591.8698"/>
<polygon fill="#000000" stroke="#000000" points="1229.5165,-594.7006 1236.0834,-586.3864 1225.765,-588.7907 1229.5165,-594.7006"/>
</g>
<!-- formatted_time -->
<g id="node51" class="node">
<title>formatted_time</title>
<ellipse fill="none" stroke="#000000" cx="697.7468" cy="-260" rx="65.7887" ry="18"/>
<text text-anchor="middle" x="697.7468" y="-256.3" font-family="Times,serif" font-size="14.00" fill="#000000">formatted_time</text>
</g>
<!-- timestamp&#45;&gt;formatted_time -->
<g id="edge54" class="edge">
<title>timestamp&#45;&gt;formatted_time</title>
<path fill="none" stroke="#000000" d="M858.8768,-329.2942C827.1315,-315.6421 778.1165,-294.5631 742.4801,-279.2376"/>
<polygon fill="#000000" stroke="#000000" points="743.8382,-276.0118 733.2689,-275.2763 741.0727,-282.4424 743.8382,-276.0118"/>
<text text-anchor="middle" x="812.7468" y="-299" font-family="Times,serif" font-size="10.00" fill="#000000">fmt</text>
</g>
<!-- isotimestamp -->
<g id="node52" class="node">
<title>isotimestamp</title>
<ellipse fill="none" stroke="#000000" cx="839.7468" cy="-260" rx="58.4896" ry="18"/>
<text text-anchor="middle" x="839.7468" y="-256.3" font-family="Times,serif" font-size="14.00" fill="#000000">isotimestamp</text>
</g>
<!-- timestamp&#45;&gt;isotimestamp -->
<g id="edge55" class="edge">
<title>timestamp&#45;&gt;isotimestamp</title>
<path fill="none" stroke="#000000" d="M879.931,-325.3978C873.0136,-314.1401 863.9093,-299.3232 856.1159,-286.6399"/>
<polygon fill="#000000" stroke="#000000" points="858.9402,-284.5507 850.7228,-277.8629 852.9761,-288.2154 858.9402,-284.5507"/>
</g>
<!-- date -->
<g id="node53" class="node">
<title>date</title>
<ellipse fill="none" stroke="#000000" cx="942.7468" cy="-260" rx="27" ry="18"/>
<text text-anchor="middle" x="942.7468" y="-256.3" font-family="Times,serif" font-size="14.00" fill="#000000">date</text>
</g>
<!-- timestamp&#45;&gt;date -->
<g id="edge56" class="edge">
<title>timestamp&#45;&gt;date</title>
<path fill="none" stroke="#000000" d="M901.7747,-325.3978C909.09,-313.7215 918.804,-298.2164 926.9375,-285.2342"/>
<polygon fill="#000000" stroke="#000000" points="929.9236,-287.0601 932.2669,-276.7276 923.9917,-283.3437 929.9236,-287.0601"/>
</g>
<!-- time -->
<g id="node54" class="node">
<title>time</title>
<ellipse fill="none" stroke="#000000" cx="1014.7468" cy="-260" rx="27" ry="18"/>
<text text-anchor="middle" x="1014.7468" y="-256.3" font-family="Times,serif" font-size="14.00" fill="#000000">time</text>
</g>
<!-- timestamp&#45;&gt;time -->
<g id="edge57" class="edge">
<title>timestamp&#45;&gt;time</title>
<path fill="none" stroke="#000000" d="M914.3622,-327.193C935.1133,-313.3031 965.3224,-293.0825 987.1757,-278.4549"/>
<polygon fill="#000000" stroke="#000000" points="989.3226,-281.2296 995.6859,-272.7585 985.4288,-275.4125 989.3226,-281.2296"/>
</g>
<!-- unit -->
<g id="node55" class="node">
<title>unit</title>
<ellipse fill="none" stroke="#000000" stroke-dasharray="5,2" cx="283.7468" cy="-499" rx="27" ry="18"/>
<text text-anchor="middle" x="283.7468" y="-495.3" font-family="Times,serif" font-size="14.00" fill="#000000">unit</text>
</g>
<!-- unit&#45;&gt;plaintext -->
<g id="edge58" class="edge">
<title>unit&#45;&gt;plaintext</title>
<path fill="none" stroke="#000000" d="M283.7468,-470.9137C283.7468,-462.4042 283.7468,-453.0515 283.7468,-444.5142"/>
<polygon fill="#000000" stroke="#000000" points="280.2469,-470.9902 283.7468,-480.9902 287.2469,-470.9903 280.2469,-470.9902"/>
<polygon fill="#000000" stroke="#000000" points="287.2469,-444.2612 283.7468,-434.2612 280.2469,-444.2613 287.2469,-444.2612"/>
<text text-anchor="middle" x="292.2468" y="-455" font-family="Times,serif" font-size="10.00" fill="#000000">unit</text>
</g>
<!-- ports -->
<g id="node57" class="node">
<title>ports</title>
<ellipse fill="none" stroke="#000000" cx="313.7468" cy="-572" rx="28.6953" ry="18"/>
<text text-anchor="middle" x="313.7468" y="-568.3" font-family="Times,serif" font-size="14.00" fill="#000000">ports</text>
</g>
<!-- nmap&#45;&gt;ports -->
<g id="edge60" class="edge">
<title>nmap&#45;&gt;ports</title>
<path fill="none" stroke="#000000" d="M313.7468,-626.9551C313.7468,-618.8828 313.7468,-609.1764 313.7468,-600.1817"/>
<polygon fill="#000000" stroke="#000000" points="317.2469,-600.0903 313.7468,-590.0904 310.2469,-600.0904 317.2469,-600.0903"/>
</g>
</g>
</svg>
