<?xml version="1.0" encoding="UTF-8" standalone="no"?>
<!DOCTYPE svg PUBLIC "-//W3C//DTD SVG 1.1//EN"
 "http://www.w3.org/Graphics/SVG/1.1/DTD/svg11.dtd">
<!-- Generated by graphviz version 2.40.1 (20161225.0304)
 -->
<!-- Title: %3 Pages: 1 -->
<svg width="1731pt" height="1129pt"
     viewBox="0.00 0.00 1731.10 1129.00" xmlns="http://www.w3.org/2000/svg">
<g id="graph0" class="graph" transform="scale(1 1) rotate(0) translate(4 1125)">
<title>%3</title>
<polygon fill="#ffffff" stroke="transparent" points="-4,4 -4,-1125 1727.0969,-1125 1727.0969,4 -4,4"/>
<text text-anchor="middle" x="861.5484" y="-7.8" font-family="Times,serif" font-size="14.00" fill="#000000">Convey field types (dashed nodes = identifiable automatically, dashed edges = field identity)</text>
<!-- source_ip -->
<g id="node1" class="node">
<title>source_ip</title>
<ellipse fill="none" stroke="#000000" stroke-dasharray="5,2" cx="911.0969" cy="-1103" rx="44.6926" ry="18"/>
<text text-anchor="middle" x="911.0969" y="-1099.3" font-family="Times,serif" font-size="14.00" fill="#000000">source_ip</text>
</g>
<!-- ip -->
<g id="node2" class="node">
<title>ip</title>
<ellipse fill="none" stroke="#000000" stroke-dasharray="5,2" cx="911.0969" cy="-1030" rx="27" ry="18"/>
<text text-anchor="middle" x="911.0969" y="-1026.3" font-family="Times,serif" font-size="14.00" fill="#000000">ip</text>
</g>
<!-- source_ip&#45;&gt;ip -->
<g id="edge1" class="edge">
<title>source_ip&#45;&gt;ip</title>
<path fill="none" stroke="#000000" stroke-dasharray="5,2" d="M911.0969,-1084.9551C911.0969,-1076.8828 911.0969,-1067.1764 911.0969,-1058.1817"/>
<polygon fill="#000000" stroke="#000000" points="914.597,-1058.0903 911.0969,-1048.0904 907.597,-1058.0904 914.597,-1058.0903"/>
</g>
<!-- whois -->
<g id="node9" class="node">
<title>whois</title>
<polygon fill="none" stroke="#000000" points="1261.0969,-975 1207.0969,-975 1207.0969,-939 1261.0969,-939 1261.0969,-975"/>
<text text-anchor="middle" x="1234.0969" y="-953.3" font-family="Times,serif" font-size="14.00" fill="#000000">whois</text>
</g>
<!-- ip&#45;&gt;whois -->
<g id="edge9" class="edge">
<title>ip&#45;&gt;whois</title>
<path fill="none" stroke="#000000" d="M936.7121,-1024.2108C993.5076,-1011.3747 1130.2175,-980.4774 1196.6299,-965.4678"/>
<polygon fill="#000000" stroke="#000000" points="1197.6797,-968.8189 1206.6621,-963.2004 1196.1365,-961.9911 1197.6797,-968.8189"/>
</g>
<!-- nmap -->
<g id="node57" class="node">
<title>nmap</title>
<polygon fill="none" stroke="#000000" points="1003.0969,-673 949.0969,-673 949.0969,-637 1003.0969,-637 1003.0969,-673"/>
<text text-anchor="middle" x="976.0969" y="-651.3" font-family="Times,serif" font-size="14.00" fill="#000000">nmap</text>
</g>
<!-- ip&#45;&gt;nmap -->
<g id="edge62" class="edge">
<title>ip&#45;&gt;nmap</title>
<path fill="none" stroke="#000000" d="M895.4602,-1015.0526C882.8134,-1001.2936 867.0969,-979.6405 867.0969,-957 867.0969,-957 867.0969,-957 867.0969,-738 867.0969,-719.3283 908.0943,-692.3406 939.8026,-674.2601"/>
<polygon fill="#000000" stroke="#000000" points="941.8566,-677.1214 948.8728,-669.1827 938.4373,-671.0134 941.8566,-677.1214"/>
</g>
<!-- destination_ip -->
<g id="node3" class="node">
<title>destination_ip</title>
<ellipse fill="none" stroke="#000000" stroke-dasharray="5,2" cx="1034.0969" cy="-1103" rx="60.3893" ry="18"/>
<text text-anchor="middle" x="1034.0969" y="-1099.3" font-family="Times,serif" font-size="14.00" fill="#000000">destination_ip</text>
</g>
<!-- destination_ip&#45;&gt;ip -->
<g id="edge2" class="edge">
<title>destination_ip&#45;&gt;ip</title>
<path fill="none" stroke="#000000" stroke-dasharray="5,2" d="M1006.7992,-1086.7989C987.0364,-1075.0698 960.3645,-1059.2401 940.1978,-1047.2713"/>
<polygon fill="#000000" stroke="#000000" points="941.8239,-1044.1664 931.438,-1042.0724 938.2512,-1050.186 941.8239,-1044.1664"/>
</g>
<!-- any_ip -->
<g id="node4" class="node">
<title>any_ip</title>
<ellipse fill="none" stroke="#000000" stroke-dasharray="5,2" cx="814.0969" cy="-1103" rx="34.394" ry="18"/>
<text text-anchor="middle" x="814.0969" y="-1099.3" font-family="Times,serif" font-size="14.00" fill="#000000">any_ip</text>
</g>
<!-- any_ip&#45;&gt;ip -->
<g id="edge3" class="edge">
<title>any_ip&#45;&gt;ip</title>
<path fill="none" stroke="#000000" d="M834.1953,-1087.8744C848.8036,-1076.8805 868.7196,-1061.8921 884.6235,-1049.9233"/>
<polygon fill="#000000" stroke="#000000" points="887.1015,-1052.4388 892.987,-1043.6291 882.8923,-1046.8457 887.1015,-1052.4388"/>
</g>
<!-- port_ip -->
<g id="node5" class="node">
<title>port_ip</title>
<ellipse fill="none" stroke="#000000" stroke-dasharray="5,2" cx="439.0969" cy="-1103" rx="36.2938" ry="18"/>
<text text-anchor="middle" x="439.0969" y="-1099.3" font-family="Times,serif" font-size="14.00" fill="#000000">port_ip</text>
</g>
<!-- port_ip&#45;&gt;ip -->
<g id="edge4" class="edge">
<title>port_ip&#45;&gt;ip</title>
<path fill="none" stroke="#000000" d="M474.188,-1097.5728C561.133,-1084.1258 785.8884,-1049.3649 874.4513,-1035.6676"/>
<polygon fill="#000000" stroke="#000000" points="875.2106,-1039.0919 884.5581,-1034.1045 874.1406,-1032.1742 875.2106,-1039.0919"/>
</g>
<!-- port -->
<g id="node6" class="node">
<title>port</title>
<ellipse fill="none" stroke="#000000" stroke-dasharray="5,2" cx="199.0969" cy="-509" rx="27" ry="18"/>
<text text-anchor="middle" x="199.0969" y="-505.3" font-family="Times,serif" font-size="14.00" fill="#000000">port</text>
</g>
<!-- port_ip&#45;&gt;port -->
<g id="edge5" class="edge">
<title>port_ip&#45;&gt;port</title>
<path fill="none" stroke="#000000" d="M402.7532,-1101.0639C327.398,-1096.0539 161.0969,-1079.4011 161.0969,-1030 161.0969,-1030 161.0969,-1030 161.0969,-582 161.0969,-564.1848 170.1115,-546.4061 179.3595,-532.8546"/>
<polygon fill="#000000" stroke="#000000" points="182.3136,-534.7439 185.378,-524.6019 176.6578,-530.6193 182.3136,-534.7439"/>
</g>
<!-- urlencode -->
<g id="node22" class="node">
<title>urlencode</title>
<ellipse fill="none" stroke="#000000" stroke-dasharray="5,2" cx="199.0969" cy="-436" rx="45.4919" ry="18"/>
<text text-anchor="middle" x="199.0969" y="-432.3" font-family="Times,serif" font-size="14.00" fill="#000000">urlencode</text>
</g>
<!-- port&#45;&gt;urlencode -->
<!-- url -->
<g id="node7" class="node">
<title>url</title>
<ellipse fill="none" stroke="#000000" stroke-dasharray="5,2" cx="711.0969" cy="-811" rx="27" ry="18"/>
<text text-anchor="middle" x="711.0969" y="-807.3" font-family="Times,serif" font-size="14.00" fill="#000000">url</text>
</g>
<!-- url&#45;&gt;port -->
<g id="edge7" class="edge">
<title>url&#45;&gt;port</title>
<path fill="none" stroke="#000000" d="M683.931,-810.0192C578.0817,-805.8432 199.0969,-787.4394 199.0969,-738 199.0969,-738 199.0969,-738 199.0969,-582 199.0969,-567.2996 199.0969,-550.934 199.0969,-537.4302"/>
<polygon fill="#000000" stroke="#000000" points="202.597,-537.3003 199.0969,-527.3003 195.597,-537.3004 202.597,-537.3003"/>
</g>
<!-- hostname -->
<g id="node8" class="node">
<title>hostname</title>
<ellipse fill="none" stroke="#000000" stroke-dasharray="5,2" cx="1012.0969" cy="-738" rx="44.6926" ry="18"/>
<text text-anchor="middle" x="1012.0969" y="-734.3" font-family="Times,serif" font-size="14.00" fill="#000000">hostname</text>
</g>
<!-- url&#45;&gt;hostname -->
<g id="edge6" class="edge">
<title>url&#45;&gt;hostname</title>
<path fill="none" stroke="#000000" d="M746.4664,-802.422C800.3706,-789.3489 903.2062,-764.4087 963.8979,-749.6894"/>
<polygon fill="#000000" stroke="#000000" points="745.3939,-799.0806 736.5006,-804.839 747.0438,-805.8834 745.3939,-799.0806"/>
<polygon fill="#000000" stroke="#000000" points="964.7332,-753.0884 973.6265,-747.33 963.0833,-746.2856 964.7332,-753.0884"/>
</g>
<!-- web -->
<g id="node49" class="node">
<title>web</title>
<polygon fill="none" stroke="#000000" points="636.0969,-756 582.0969,-756 582.0969,-720 636.0969,-720 636.0969,-756"/>
<text text-anchor="middle" x="609.0969" y="-734.3" font-family="Times,serif" font-size="14.00" fill="#000000">web</text>
</g>
<!-- url&#45;&gt;web -->
<g id="edge51" class="edge">
<title>url&#45;&gt;web</title>
<path fill="none" stroke="#000000" d="M692.3885,-797.6107C678.5774,-787.7262 659.3989,-774.0005 642.9262,-762.2112"/>
<polygon fill="#000000" stroke="#000000" points="644.7704,-759.227 634.6014,-756.2532 640.6964,-764.9194 644.7704,-759.227"/>
</g>
<!-- hostname&#45;&gt;ip -->
<g id="edge8" class="edge">
<title>hostname&#45;&gt;ip</title>
<path fill="none" stroke="#000000" d="M990.867,-763.3274C971.5413,-787.9014 943.9736,-827.0867 930.0969,-866 913.922,-911.3578 910.7943,-967.8162 910.5551,-1001.2692"/>
<polygon fill="#000000" stroke="#000000" points="993.8021,-765.2617 997.3231,-755.2691 988.3391,-760.8849 993.8021,-765.2617"/>
<polygon fill="#000000" stroke="#000000" points="907.0556,-1001.688 910.57,-1011.6829 914.0556,-1001.6778 907.0556,-1001.688"/>
</g>
<!-- dns -->
<g id="node31" class="node">
<title>dns</title>
<polygon fill="none" stroke="#000000" points="1075.0969,-673 1021.0969,-673 1021.0969,-637 1075.0969,-637 1075.0969,-673"/>
<text text-anchor="middle" x="1048.0969" y="-651.3" font-family="Times,serif" font-size="14.00" fill="#000000">dns</text>
</g>
<!-- hostname&#45;&gt;dns -->
<g id="edge30" class="edge">
<title>hostname&#45;&gt;dns</title>
<path fill="none" stroke="#000000" d="M1019.9083,-719.9902C1024.6404,-709.0802 1030.7732,-694.9407 1036.1095,-682.6376"/>
<polygon fill="#000000" stroke="#000000" points="1039.4081,-683.8282 1040.1763,-673.2612 1032.9861,-681.0427 1039.4081,-683.8282"/>
</g>
<!-- tld -->
<g id="node42" class="node">
<title>tld</title>
<ellipse fill="none" stroke="#000000" cx="1218.0969" cy="-655" rx="27" ry="18"/>
<text text-anchor="middle" x="1218.0969" y="-651.3" font-family="Times,serif" font-size="14.00" fill="#000000">tld</text>
</g>
<!-- hostname&#45;&gt;tld -->
<g id="edge43" class="edge">
<title>hostname&#45;&gt;tld</title>
<path fill="none" stroke="#000000" d="M1043.8329,-725.2131C1082.329,-709.7026 1146.875,-683.6962 1185.6767,-668.0625"/>
<polygon fill="#000000" stroke="#000000" points="1186.9879,-671.3077 1194.9553,-664.324 1184.3718,-664.8149 1186.9879,-671.3077"/>
<text text-anchor="middle" x="1177.0969" y="-694" font-family="Times,serif" font-size="10.00" fill="#000000">choose all,ccTLD,gTLD</text>
</g>
<!-- hostname&#45;&gt;nmap -->
<g id="edge60" class="edge">
<title>hostname&#45;&gt;nmap</title>
<path fill="none" stroke="#000000" d="M1004.2854,-719.9902C999.5534,-709.0802 993.4206,-694.9407 988.0843,-682.6376"/>
<polygon fill="#000000" stroke="#000000" points="991.2076,-681.0427 984.0174,-673.2612 984.7857,-683.8282 991.2076,-681.0427"/>
</g>
<!-- prefix -->
<g id="node11" class="node">
<title>prefix</title>
<ellipse fill="none" stroke="#000000" cx="1658.0969" cy="-884" rx="31.6951" ry="18"/>
<text text-anchor="middle" x="1658.0969" y="-880.3" font-family="Times,serif" font-size="14.00" fill="#000000">prefix</text>
</g>
<!-- whois&#45;&gt;prefix -->
<g id="edge11" class="edge">
<title>whois&#45;&gt;prefix</title>
<path fill="none" stroke="#000000" d="M1261.1889,-956.4289C1336.7204,-954.5218 1548.2815,-946.9463 1612.0969,-921 1620.4221,-917.6151 1628.4411,-912.208 1635.3868,-906.5611"/>
<polygon fill="#000000" stroke="#000000" points="1637.7595,-909.136 1643.0016,-899.9289 1633.162,-903.8574 1637.7595,-909.136"/>
</g>
<!-- asn -->
<g id="node12" class="node">
<title>asn</title>
<ellipse fill="none" stroke="#000000" stroke-dasharray="5,2" cx="1222.0969" cy="-884" rx="27" ry="18"/>
<text text-anchor="middle" x="1222.0969" y="-880.3" font-family="Times,serif" font-size="14.00" fill="#000000">asn</text>
</g>
<!-- whois&#45;&gt;asn -->
<g id="edge12" class="edge">
<title>whois&#45;&gt;asn</title>
<path fill="none" stroke="#000000" d="M1231.1306,-938.9551C1229.8037,-930.8828 1228.2081,-921.1764 1226.7295,-912.1817"/>
<polygon fill="#000000" stroke="#000000" points="1230.1464,-911.3902 1225.0706,-902.0904 1223.2391,-912.5257 1230.1464,-911.3902"/>
</g>
<!-- abusemail -->
<g id="node13" class="node">
<title>abusemail</title>
<ellipse fill="none" stroke="#000000" cx="1314.0969" cy="-884" rx="46.5926" ry="18"/>
<text text-anchor="middle" x="1314.0969" y="-880.3" font-family="Times,serif" font-size="14.00" fill="#000000">abusemail</text>
</g>
<!-- whois&#45;&gt;abusemail -->
<g id="edge13" class="edge">
<title>whois&#45;&gt;abusemail</title>
<path fill="none" stroke="#000000" d="M1253.8722,-938.9551C1264.3234,-929.4183 1277.2745,-917.6005 1288.4856,-907.3703"/>
<polygon fill="#000000" stroke="#000000" points="1290.8894,-909.915 1295.9171,-900.5891 1286.171,-904.7442 1290.8894,-909.915"/>
</g>
<!-- country -->
<g id="node14" class="node">
<title>country</title>
<ellipse fill="none" stroke="#000000" cx="1426.0969" cy="-582" rx="37.8943" ry="18"/>
<text text-anchor="middle" x="1426.0969" y="-578.3" font-family="Times,serif" font-size="14.00" fill="#000000">country</text>
</g>
<!-- whois&#45;&gt;country -->
<g id="edge14" class="edge">
<title>whois&#45;&gt;country</title>
<path fill="none" stroke="#000000" d="M1261.1256,-951.3497C1278.2948,-947.775 1300.9919,-943.0757 1321.0969,-939 1382.603,-926.5313 1598.0969,-946.7572 1598.0969,-884 1598.0969,-884 1598.0969,-884 1598.0969,-655 1598.0969,-627.3252 1521.6898,-604.1126 1470.7268,-591.7078"/>
<polygon fill="#000000" stroke="#000000" points="1471.442,-588.2804 1460.9037,-589.3729 1469.8232,-595.0906 1471.442,-588.2804"/>
</g>
<!-- netname -->
<g id="node15" class="node">
<title>netname</title>
<ellipse fill="none" stroke="#000000" cx="980.0969" cy="-884" rx="40.8928" ry="18"/>
<text text-anchor="middle" x="980.0969" y="-880.3" font-family="Times,serif" font-size="14.00" fill="#000000">netname</text>
</g>
<!-- whois&#45;&gt;netname -->
<g id="edge15" class="edge">
<title>whois&#45;&gt;netname</title>
<path fill="none" stroke="#000000" d="M1206.8329,-950.4079C1167.5157,-940.7303 1092.7368,-921.6827 1030.0969,-902 1027.1552,-901.0757 1024.1294,-900.0859 1021.0916,-899.0635"/>
<polygon fill="#000000" stroke="#000000" points="1022.0311,-895.6851 1011.4363,-895.7272 1019.7449,-902.3013 1022.0311,-895.6851"/>
</g>
<!-- csirt_contact -->
<g id="node16" class="node">
<title>csirt_contact</title>
<ellipse fill="none" stroke="#000000" cx="1365.0969" cy="-509" rx="55.7903" ry="18"/>
<text text-anchor="middle" x="1365.0969" y="-505.3" font-family="Times,serif" font-size="14.00" fill="#000000">csirt_contact</text>
</g>
<!-- whois&#45;&gt;csirt_contact -->
<g id="edge16" class="edge">
<title>whois&#45;&gt;csirt_contact</title>
<path fill="none" stroke="#000000" d="M1261.3574,-949.8588C1297.3059,-939.8267 1357.4958,-920.6885 1370.0969,-902 1379.0418,-888.7339 1370.7172,-881.988 1370.0969,-866 1366.1423,-764.0808 1351.1218,-738.9184 1355.0969,-637 1356.4347,-602.6996 1359.7817,-563.3465 1362.2365,-537.4324"/>
<polygon fill="#000000" stroke="#000000" points="1365.7469,-537.4934 1363.2255,-527.203 1358.7793,-536.8197 1365.7469,-537.4934"/>
</g>
<!-- incident_contact -->
<g id="node17" class="node">
<title>incident_contact</title>
<ellipse fill="none" stroke="#000000" cx="1108.0969" cy="-884" rx="68.7879" ry="18"/>
<text text-anchor="middle" x="1108.0969" y="-880.3" font-family="Times,serif" font-size="14.00" fill="#000000">incident_contact</text>
</g>
<!-- whois&#45;&gt;incident_contact -->
<g id="edge17" class="edge">
<title>whois&#45;&gt;incident_contact</title>
<path fill="none" stroke="#000000" d="M1207.0667,-941.3397C1189.1326,-930.9493 1165.3501,-917.1705 1145.5934,-905.7242"/>
<polygon fill="#000000" stroke="#000000" points="1147.2421,-902.6344 1136.8348,-900.6497 1143.7329,-908.6913 1147.2421,-902.6344"/>
</g>
<!-- cidr -->
<g id="node10" class="node">
<title>cidr</title>
<ellipse fill="none" stroke="#000000" stroke-dasharray="5,2" cx="1696.0969" cy="-811" rx="27" ry="18"/>
<text text-anchor="middle" x="1696.0969" y="-807.3" font-family="Times,serif" font-size="14.00" fill="#000000">cidr</text>
</g>
<!-- cidr&#45;&gt;ip -->
<g id="edge10" class="edge">
<title>cidr&#45;&gt;ip</title>
<path fill="none" stroke="#000000" d="M1702.7867,-828.7757C1709.0461,-848.753 1715.242,-881.1148 1699.0969,-902 1678.5926,-928.5241 1658.9342,-914.2425 1626.0969,-921 1368.6669,-973.9757 1054.2154,-1013.1904 948.0805,-1025.7321"/>
<polygon fill="#000000" stroke="#000000" points="947.4164,-1022.286 937.8933,-1026.9294 948.2335,-1029.2381 947.4164,-1022.286"/>
</g>
<!-- prefix&#45;&gt;cidr -->
<g id="edge44" class="edge">
<title>prefix&#45;&gt;cidr</title>
<path fill="none" stroke="#000000" d="M1667.1024,-866.7C1671.6928,-857.8815 1677.3714,-846.9727 1682.483,-837.153"/>
<polygon fill="#000000" stroke="#000000" points="1685.6432,-838.6621 1687.1561,-828.1758 1679.4341,-835.4299 1685.6432,-838.6621"/>
</g>
<!-- email -->
<g id="node39" class="node">
<title>email</title>
<ellipse fill="none" stroke="#000000" stroke-dasharray="5,2" cx="1145.0969" cy="-811" rx="30.5947" ry="18"/>
<text text-anchor="middle" x="1145.0969" y="-807.3" font-family="Times,serif" font-size="14.00" fill="#000000">email</text>
</g>
<!-- abusemail&#45;&gt;email -->
<g id="edge38" class="edge">
<title>abusemail&#45;&gt;email</title>
<path fill="none" stroke="#000000" stroke-dasharray="5,2" d="M1282.7053,-870.4403C1253.2474,-857.7159 1209.3082,-838.7362 1179.0463,-825.6646"/>
<polygon fill="#000000" stroke="#000000" points="1180.3054,-822.3959 1169.7373,-821.6435 1177.5296,-828.822 1180.3054,-822.3959"/>
</g>
<!-- country&#45;&gt;csirt_contact -->
<g id="edge41" class="edge">
<title>country&#45;&gt;csirt_contact</title>
<path fill="none" stroke="#000000" d="M1411.9489,-565.0688C1404.3396,-555.9626 1394.8023,-544.5491 1386.3222,-534.4008"/>
<polygon fill="#000000" stroke="#000000" points="1388.9029,-532.0308 1379.805,-526.6015 1383.5314,-536.5194 1388.9029,-532.0308"/>
</g>
<!-- plaintext -->
<g id="node18" class="node">
<title>plaintext</title>
<ellipse fill="none" stroke="#000000" stroke-dasharray="5,2" cx="244.0969" cy="-353" rx="41.6928" ry="18"/>
<text text-anchor="middle" x="244.0969" y="-349.3" font-family="Times,serif" font-size="14.00" fill="#000000">plaintext</text>
</g>
<!-- bytes -->
<g id="node19" class="node">
<title>bytes</title>
<ellipse fill="none" stroke="#000000" cx="198.0969" cy="-280" rx="29.4969" ry="18"/>
<text text-anchor="middle" x="198.0969" y="-276.3" font-family="Times,serif" font-size="14.00" fill="#000000">bytes</text>
</g>
<!-- plaintext&#45;&gt;bytes -->
<g id="edge18" class="edge">
<title>plaintext&#45;&gt;bytes</title>
<path fill="none" stroke="#000000" d="M227.4941,-326.6521C223.2145,-319.8606 218.6139,-312.5596 214.3522,-305.7965"/>
<polygon fill="#000000" stroke="#000000" points="224.6692,-328.7343 232.9616,-335.3287 230.5915,-325.0024 224.6692,-328.7343"/>
<polygon fill="#000000" stroke="#000000" points="217.1053,-303.6003 208.8129,-297.0059 211.183,-307.3322 217.1053,-303.6003"/>
</g>
<!-- custom -->
<g id="node23" class="node">
<title>custom</title>
<polygon fill="none" stroke="#000000" points="445.0969,-298 389.0969,-298 389.0969,-262 445.0969,-262 445.0969,-298"/>
<text text-anchor="middle" x="417.0969" y="-276.3" font-family="Times,serif" font-size="14.00" fill="#000000">custom</text>
</g>
<!-- plaintext&#45;&gt;custom -->
<g id="edge22" class="edge">
<title>plaintext&#45;&gt;custom</title>
<path fill="none" stroke="#000000" d="M274.2312,-340.2844C303.5337,-327.9197 348.1215,-309.1052 379.6804,-295.7885"/>
<polygon fill="#000000" stroke="#000000" points="381.1723,-298.9578 389.0249,-291.8454 378.4508,-292.5085 381.1723,-298.9578"/>
</g>
<!-- base64 -->
<g id="node20" class="node">
<title>base64</title>
<ellipse fill="none" stroke="#000000" stroke-dasharray="5,2" cx="35.0969" cy="-197" rx="35.194" ry="18"/>
<text text-anchor="middle" x="35.0969" y="-193.3" font-family="Times,serif" font-size="14.00" fill="#000000">base64</text>
</g>
<!-- bytes&#45;&gt;base64 -->
<g id="edge19" class="edge">
<title>bytes&#45;&gt;base64</title>
<path fill="none" stroke="#000000" d="M166.3459,-263.8323C138.4865,-249.6463 98.066,-229.064 69.4563,-214.4959"/>
<polygon fill="#000000" stroke="#000000" points="164.933,-267.0405 175.4324,-268.4592 168.1094,-260.8026 164.933,-267.0405"/>
<polygon fill="#000000" stroke="#000000" points="70.7413,-211.2226 60.2418,-209.8039 67.5649,-217.4605 70.7413,-211.2226"/>
</g>
<!-- quoted_printable -->
<g id="node21" class="node">
<title>quoted_printable</title>
<ellipse fill="none" stroke="#000000" stroke-dasharray="5,2" cx="158.0969" cy="-197" rx="70.3881" ry="18"/>
<text text-anchor="middle" x="158.0969" y="-193.3" font-family="Times,serif" font-size="14.00" fill="#000000">quoted_printable</text>
</g>
<!-- bytes&#45;&gt;quoted_printable -->
<g id="edge20" class="edge">
<title>bytes&#45;&gt;quoted_printable</title>
<path fill="none" stroke="#000000" d="M185.2531,-253.3491C180.7907,-244.0896 175.7808,-233.6941 171.2906,-224.3769"/>
<polygon fill="#000000" stroke="#000000" points="182.1195,-254.9089 189.6139,-262.3978 188.4254,-251.8699 182.1195,-254.9089"/>
<polygon fill="#000000" stroke="#000000" points="174.3386,-222.6395 166.8442,-215.1506 168.0327,-225.6785 174.3386,-222.6395"/>
</g>
<!-- charset -->
<g id="node27" class="node">
<title>charset</title>
<ellipse fill="none" stroke="#000000" cx="282.0969" cy="-197" rx="35.9954" ry="18"/>
<text text-anchor="middle" x="282.0969" y="-193.3" font-family="Times,serif" font-size="14.00" fill="#000000">charset</text>
</g>
<!-- bytes&#45;&gt;charset -->
<g id="edge26" class="edge">
<title>bytes&#45;&gt;charset</title>
<path fill="none" stroke="#000000" d="M213.8966,-264.3883C226.4076,-252.0263 244.0827,-234.5616 258.3042,-220.5094"/>
<polygon fill="#000000" stroke="#000000" points="261.1417,-222.6261 265.795,-213.1078 256.2217,-217.6468 261.1417,-222.6261"/>
<text text-anchor="middle" x="265.5969" y="-236" font-family="Times,serif" font-size="10.00" fill="#000000">encoding</text>
</g>
<!-- urlencode&#45;&gt;plaintext -->
<g id="edge21" class="edge">
<title>urlencode&#45;&gt;plaintext</title>
<path fill="none" stroke="#000000" d="M213.4155,-409.5901C218.5973,-400.0326 224.4493,-389.2389 229.6427,-379.66"/>
<polygon fill="#000000" stroke="#000000" points="210.3296,-407.9385 208.6402,-418.3978 216.4834,-411.275 210.3296,-407.9385"/>
<polygon fill="#000000" stroke="#000000" points="232.8779,-381.0361 234.5673,-370.5768 226.7241,-377.6997 232.8779,-381.0361"/>
</g>
<!-- external -->
<g id="node24" class="node">
<title>external</title>
<ellipse fill="none" stroke="#000000" cx="375.0969" cy="-197" rx="38.9931" ry="18"/>
<text text-anchor="middle" x="375.0969" y="-193.3" font-family="Times,serif" font-size="14.00" fill="#000000">external</text>
</g>
<!-- custom&#45;&gt;external -->
<g id="edge23" class="edge">
<title>custom&#45;&gt;external</title>
<path fill="none" stroke="#000000" d="M407.9835,-261.9902C402.3312,-250.8203 394.9659,-236.2649 388.6387,-223.7612"/>
<polygon fill="#000000" stroke="#000000" points="391.6863,-222.0319 384.0482,-214.6895 385.4404,-225.1925 391.6863,-222.0319"/>
</g>
<!-- code -->
<g id="node25" class="node">
<title>code</title>
<ellipse fill="none" stroke="#000000" cx="459.0969" cy="-197" rx="27.0966" ry="18"/>
<text text-anchor="middle" x="459.0969" y="-193.3" font-family="Times,serif" font-size="14.00" fill="#000000">code</text>
</g>
<!-- custom&#45;&gt;code -->
<g id="edge24" class="edge">
<title>custom&#45;&gt;code</title>
<path fill="none" stroke="#000000" d="M426.2103,-261.9902C431.9394,-250.6683 439.4286,-235.8683 445.8127,-223.252"/>
<polygon fill="#000000" stroke="#000000" points="449.0397,-224.6267 450.4319,-214.1237 442.7938,-221.4661 449.0397,-224.6267"/>
</g>
<!-- reg -->
<g id="node26" class="node">
<title>reg</title>
<ellipse fill="none" stroke="#000000" cx="531.0969" cy="-197" rx="27" ry="18"/>
<text text-anchor="middle" x="531.0969" y="-193.3" font-family="Times,serif" font-size="14.00" fill="#000000">reg</text>
</g>
<!-- custom&#45;&gt;reg -->
<g id="edge25" class="edge">
<title>custom&#45;&gt;reg</title>
<path fill="none" stroke="#000000" d="M441.8332,-261.9902C460.346,-248.5116 485.6292,-230.1037 504.5621,-216.3192"/>
<polygon fill="#000000" stroke="#000000" points="506.7428,-219.0609 512.767,-210.3455 502.6226,-213.4019 506.7428,-219.0609"/>
</g>
<!-- reg_s -->
<g id="node28" class="node">
<title>reg_s</title>
<ellipse fill="none" stroke="#000000" cx="490.0969" cy="-124" rx="29.795" ry="18"/>
<text text-anchor="middle" x="490.0969" y="-120.3" font-family="Times,serif" font-size="14.00" fill="#000000">reg_s</text>
</g>
<!-- reg&#45;&gt;reg_s -->
<g id="edge27" class="edge">
<title>reg&#45;&gt;reg_s</title>
<path fill="none" stroke="#000000" d="M521.5876,-180.0688C516.5526,-171.1041 510.2617,-159.9033 504.6293,-149.8747"/>
<polygon fill="#000000" stroke="#000000" points="507.6452,-148.0972 499.6966,-141.0922 501.542,-151.5251 507.6452,-148.0972"/>
</g>
<!-- reg_m -->
<g id="node29" class="node">
<title>reg_m</title>
<ellipse fill="none" stroke="#000000" cx="572.0969" cy="-124" rx="33.5952" ry="18"/>
<text text-anchor="middle" x="572.0969" y="-120.3" font-family="Times,serif" font-size="14.00" fill="#000000">reg_m</text>
</g>
<!-- reg&#45;&gt;reg_m -->
<g id="edge28" class="edge">
<title>reg&#45;&gt;reg_m</title>
<path fill="none" stroke="#000000" d="M540.6062,-180.0688C545.6049,-171.1686 551.8416,-160.0643 557.4428,-150.0914"/>
<polygon fill="#000000" stroke="#000000" points="560.5091,-151.7792 562.3545,-141.3463 554.4058,-148.3513 560.5091,-151.7792"/>
</g>
<!-- timestamp -->
<g id="node43" class="node">
<title>timestamp</title>
<ellipse fill="none" stroke="#000000" stroke-dasharray="5,2" cx="282.0969" cy="-124" rx="48.1917" ry="18"/>
<text text-anchor="middle" x="282.0969" y="-120.3" font-family="Times,serif" font-size="14.00" fill="#000000">timestamp</text>
</g>
<!-- charset&#45;&gt;timestamp -->
<!-- wrong_url -->
<g id="node30" class="node">
<title>wrong_url</title>
<ellipse fill="none" stroke="#000000" stroke-dasharray="5,2" cx="711.0969" cy="-884" rx="47.3916" ry="18"/>
<text text-anchor="middle" x="711.0969" y="-880.3" font-family="Times,serif" font-size="14.00" fill="#000000">wrong_url</text>
</g>
<!-- wrong_url&#45;&gt;url -->
<g id="edge29" class="edge">
<title>wrong_url&#45;&gt;url</title>
<path fill="none" stroke="#000000" d="M711.0969,-865.9551C711.0969,-857.8828 711.0969,-848.1764 711.0969,-839.1817"/>
<polygon fill="#000000" stroke="#000000" points="714.597,-839.0903 711.0969,-829.0904 707.597,-839.0904 714.597,-839.0903"/>
</g>
<!-- spf -->
<g id="node32" class="node">
<title>spf</title>
<ellipse fill="none" stroke="#000000" cx="832.0969" cy="-582" rx="27" ry="18"/>
<text text-anchor="middle" x="832.0969" y="-578.3" font-family="Times,serif" font-size="14.00" fill="#000000">spf</text>
</g>
<!-- dns&#45;&gt;spf -->
<g id="edge31" class="edge">
<title>dns&#45;&gt;spf</title>
<path fill="none" stroke="#000000" d="M1020.8472,-640.6264C1017.9306,-639.3141 1014.977,-638.0761 1012.0969,-637 950.1976,-613.8721 929.9962,-623.1279 868.0969,-600 866.2314,-599.303 864.335,-598.538 862.4378,-597.729"/>
<polygon fill="#000000" stroke="#000000" points="863.6315,-594.4255 853.0839,-593.4258 860.7059,-600.7849 863.6315,-594.4255"/>
</g>
<!-- txt -->
<g id="node33" class="node">
<title>txt</title>
<ellipse fill="none" stroke="#000000" cx="904.0969" cy="-582" rx="27" ry="18"/>
<text text-anchor="middle" x="904.0969" y="-578.3" font-family="Times,serif" font-size="14.00" fill="#000000">txt</text>
</g>
<!-- dns&#45;&gt;txt -->
<g id="edge32" class="edge">
<title>dns&#45;&gt;txt</title>
<path fill="none" stroke="#000000" d="M1021.0116,-641.2693C996.5938,-628.8908 960.7008,-610.6951 935.1343,-597.7342"/>
<polygon fill="#000000" stroke="#000000" points="936.3887,-594.4461 925.8867,-593.0462 933.2235,-600.6897 936.3887,-594.4461"/>
</g>
<!-- a -->
<g id="node34" class="node">
<title>a</title>
<ellipse fill="none" stroke="#000000" cx="976.0969" cy="-582" rx="27" ry="18"/>
<text text-anchor="middle" x="976.0969" y="-578.3" font-family="Times,serif" font-size="14.00" fill="#000000">a</text>
</g>
<!-- dns&#45;&gt;a -->
<g id="edge33" class="edge">
<title>dns&#45;&gt;a</title>
<path fill="none" stroke="#000000" d="M1030.2991,-636.9551C1020.6483,-627.1702 1008.6292,-614.9842 998.363,-604.5753"/>
<polygon fill="#000000" stroke="#000000" points="1000.7703,-602.0319 991.2563,-597.3699 995.7866,-606.9474 1000.7703,-602.0319"/>
</g>
<!-- aaaa -->
<g id="node35" class="node">
<title>aaaa</title>
<ellipse fill="none" stroke="#000000" cx="1048.0969" cy="-582" rx="27" ry="18"/>
<text text-anchor="middle" x="1048.0969" y="-578.3" font-family="Times,serif" font-size="14.00" fill="#000000">aaaa</text>
</g>
<!-- dns&#45;&gt;aaaa -->
<g id="edge34" class="edge">
<title>dns&#45;&gt;aaaa</title>
<path fill="none" stroke="#000000" d="M1048.0969,-636.9551C1048.0969,-628.8828 1048.0969,-619.1764 1048.0969,-610.1817"/>
<polygon fill="#000000" stroke="#000000" points="1051.597,-610.0903 1048.0969,-600.0904 1044.597,-610.0904 1051.597,-610.0903"/>
</g>
<!-- ns -->
<g id="node36" class="node">
<title>ns</title>
<ellipse fill="none" stroke="#000000" cx="1120.0969" cy="-582" rx="27" ry="18"/>
<text text-anchor="middle" x="1120.0969" y="-578.3" font-family="Times,serif" font-size="14.00" fill="#000000">ns</text>
</g>
<!-- dns&#45;&gt;ns -->
<g id="edge35" class="edge">
<title>dns&#45;&gt;ns</title>
<path fill="none" stroke="#000000" d="M1065.8946,-636.9551C1075.5454,-627.1702 1087.5646,-614.9842 1097.8308,-604.5753"/>
<polygon fill="#000000" stroke="#000000" points="1100.4072,-606.9474 1104.9375,-597.3699 1095.4234,-602.0319 1100.4072,-606.9474"/>
</g>
<!-- mx -->
<g id="node37" class="node">
<title>mx</title>
<ellipse fill="none" stroke="#000000" cx="1192.0969" cy="-582" rx="27" ry="18"/>
<text text-anchor="middle" x="1192.0969" y="-578.3" font-family="Times,serif" font-size="14.00" fill="#000000">mx</text>
</g>
<!-- dns&#45;&gt;mx -->
<g id="edge36" class="edge">
<title>dns&#45;&gt;mx</title>
<path fill="none" stroke="#000000" d="M1075.1822,-641.2693C1099.6,-628.8908 1135.4929,-610.6951 1161.0595,-597.7342"/>
<polygon fill="#000000" stroke="#000000" points="1162.9703,-600.6897 1170.307,-593.0462 1159.8051,-594.4461 1162.9703,-600.6897"/>
</g>
<!-- dmarc -->
<g id="node38" class="node">
<title>dmarc</title>
<ellipse fill="none" stroke="#000000" cx="1270.0969" cy="-582" rx="33.2948" ry="18"/>
<text text-anchor="middle" x="1270.0969" y="-578.3" font-family="Times,serif" font-size="14.00" fill="#000000">dmarc</text>
</g>
<!-- dns&#45;&gt;dmarc -->
<g id="edge37" class="edge">
<title>dns&#45;&gt;dmarc</title>
<path fill="none" stroke="#000000" d="M1075.2347,-647.6987C1110.7348,-637.9229 1174.7013,-619.5344 1228.0969,-600 1230.3599,-599.1721 1232.6771,-598.2873 1235.0039,-597.3706"/>
<polygon fill="#000000" stroke="#000000" points="1236.5745,-600.5099 1244.5083,-593.488 1233.9273,-594.0297 1236.5745,-600.5099"/>
</g>
<!-- email&#45;&gt;hostname -->
<g id="edge39" class="edge">
<title>email&#45;&gt;hostname</title>
<path fill="none" stroke="#000000" d="M1122.5352,-798.6165C1102.1219,-787.4123 1071.7105,-770.7202 1047.9658,-757.6875"/>
<polygon fill="#000000" stroke="#000000" points="1049.3518,-754.4557 1038.9014,-752.7122 1045.9837,-760.5921 1049.3518,-754.4557"/>
</g>
<!-- country_name -->
<g id="node40" class="node">
<title>country_name</title>
<ellipse fill="none" stroke="#000000" cx="1426.0969" cy="-655" rx="61.99" ry="18"/>
<text text-anchor="middle" x="1426.0969" y="-651.3" font-family="Times,serif" font-size="14.00" fill="#000000">country_name</text>
</g>
<!-- country_name&#45;&gt;country -->
<g id="edge40" class="edge">
<title>country_name&#45;&gt;country</title>
<path fill="none" stroke="#000000" d="M1426.0969,-626.8688C1426.0969,-621.3894 1426.0969,-615.6439 1426.0969,-610.1634"/>
<polygon fill="#000000" stroke="#000000" points="1422.597,-626.955 1426.0969,-636.9551 1429.597,-626.9551 1422.597,-626.955"/>
<polygon fill="#000000" stroke="#000000" points="1429.597,-610.0903 1426.0969,-600.0904 1422.597,-610.0904 1429.597,-610.0903"/>
</g>
<!-- phone -->
<g id="node41" class="node">
<title>phone</title>
<ellipse fill="none" stroke="#000000" stroke-dasharray="5,2" cx="1538.0969" cy="-655" rx="32.4942" ry="18"/>
<text text-anchor="middle" x="1538.0969" y="-651.3" font-family="Times,serif" font-size="14.00" fill="#000000">phone</text>
</g>
<!-- phone&#45;&gt;country -->
<g id="edge42" class="edge">
<title>phone&#45;&gt;country</title>
<path fill="none" stroke="#000000" d="M1517.0305,-641.2693C1500.1057,-630.2379 1476.0928,-614.5866 1456.9928,-602.1375"/>
<polygon fill="#000000" stroke="#000000" points="1458.8948,-599.1994 1448.606,-596.6711 1455.0725,-605.0637 1458.8948,-599.1994"/>
</g>
<!-- tld&#45;&gt;country -->
<g id="edge45" class="edge">
<title>tld&#45;&gt;country</title>
<path fill="none" stroke="#000000" stroke-dasharray="5,2" d="M1242.3642,-646.4831C1277.6583,-634.0962 1343.5703,-610.9637 1386.1062,-596.0352"/>
<polygon fill="#000000" stroke="#000000" points="1387.3185,-599.3191 1395.5952,-592.7049 1385.0003,-592.7141 1387.3185,-599.3191"/>
</g>
<!-- formatted_time -->
<g id="node44" class="node">
<title>formatted_time</title>
<ellipse fill="none" stroke="#000000" cx="89.0969" cy="-41" rx="65.7887" ry="18"/>
<text text-anchor="middle" x="89.0969" y="-37.3" font-family="Times,serif" font-size="14.00" fill="#000000">formatted_time</text>
</g>
<!-- timestamp&#45;&gt;formatted_time -->
<g id="edge46" class="edge">
<title>timestamp&#45;&gt;formatted_time</title>
<path fill="none" stroke="#000000" d="M250.2269,-110.2942C218.4816,-96.6421 169.4665,-75.5631 133.8302,-60.2376"/>
<polygon fill="#000000" stroke="#000000" points="135.1883,-57.0118 124.619,-56.2763 132.4228,-63.4424 135.1883,-57.0118"/>
<text text-anchor="middle" x="205.0969" y="-80" font-family="Times,serif" font-size="10.00" fill="#000000">fmt</text>
</g>
<!-- isotimestamp -->
<g id="node45" class="node">
<title>isotimestamp</title>
<ellipse fill="none" stroke="#000000" cx="231.0969" cy="-41" rx="58.4896" ry="18"/>
<text text-anchor="middle" x="231.0969" y="-37.3" font-family="Times,serif" font-size="14.00" fill="#000000">isotimestamp</text>
</g>
<!-- timestamp&#45;&gt;isotimestamp -->
<g id="edge47" class="edge">
<title>timestamp&#45;&gt;isotimestamp</title>
<path fill="none" stroke="#000000" d="M271.2811,-106.3978C264.3637,-95.1401 255.2593,-80.3232 247.466,-67.6399"/>
<polygon fill="#000000" stroke="#000000" points="250.2902,-65.5507 242.0729,-58.8629 244.3262,-69.2154 250.2902,-65.5507"/>
</g>
<!-- date -->
<g id="node46" class="node">
<title>date</title>
<ellipse fill="none" stroke="#000000" cx="334.0969" cy="-41" rx="27" ry="18"/>
<text text-anchor="middle" x="334.0969" y="-37.3" font-family="Times,serif" font-size="14.00" fill="#000000">date</text>
</g>
<!-- timestamp&#45;&gt;date -->
<g id="edge48" class="edge">
<title>timestamp&#45;&gt;date</title>
<path fill="none" stroke="#000000" d="M293.1247,-106.3978C300.4401,-94.7215 310.1541,-79.2164 318.2875,-66.2342"/>
<polygon fill="#000000" stroke="#000000" points="321.2737,-68.0601 323.6169,-57.7276 315.3417,-64.3437 321.2737,-68.0601"/>
</g>
<!-- time -->
<g id="node47" class="node">
<title>time</title>
<ellipse fill="none" stroke="#000000" cx="406.0969" cy="-41" rx="27" ry="18"/>
<text text-anchor="middle" x="406.0969" y="-37.3" font-family="Times,serif" font-size="14.00" fill="#000000">time</text>
</g>
<!-- timestamp&#45;&gt;time -->
<g id="edge49" class="edge">
<title>timestamp&#45;&gt;time</title>
<path fill="none" stroke="#000000" d="M305.7122,-108.193C326.4634,-94.3031 356.6725,-74.0825 378.5257,-59.4549"/>
<polygon fill="#000000" stroke="#000000" points="380.6726,-62.2296 387.036,-53.7585 376.7789,-56.4125 380.6726,-62.2296"/>
</g>
<!-- unit -->
<g id="node48" class="node">
<title>unit</title>
<ellipse fill="none" stroke="#000000" stroke-dasharray="5,2" cx="289.0969" cy="-436" rx="27" ry="18"/>
<text text-anchor="middle" x="289.0969" y="-432.3" font-family="Times,serif" font-size="14.00" fill="#000000">unit</text>
</g>
<!-- unit&#45;&gt;plaintext -->
<g id="edge50" class="edge">
<title>unit&#45;&gt;plaintext</title>
<path fill="none" stroke="#000000" d="M274.9975,-409.9944C269.7521,-400.3196 263.7955,-389.333 258.5214,-379.6052"/>
<polygon fill="#000000" stroke="#000000" points="271.9297,-411.6795 279.7729,-418.8023 278.0834,-408.3431 271.9297,-411.6795"/>
<polygon fill="#000000" stroke="#000000" points="261.5626,-377.8712 253.7195,-370.7483 255.4089,-381.2076 261.5626,-377.8712"/>
<text text-anchor="middle" x="278.5969" y="-392" font-family="Times,serif" font-size="10.00" fill="#000000">unit</text>
</g>
<!-- http_status -->
<g id="node50" class="node">
<title>http_status</title>
<ellipse fill="none" stroke="#000000" cx="782.0969" cy="-655" rx="48.9926" ry="18"/>
<text text-anchor="middle" x="782.0969" y="-651.3" font-family="Times,serif" font-size="14.00" fill="#000000">http_status</text>
</g>
<!-- web&#45;&gt;http_status -->
<g id="edge52" class="edge">
<title>web&#45;&gt;http_status</title>
<path fill="none" stroke="#000000" d="M636.1281,-725.0313C664.8441,-711.2542 710.5075,-689.3463 743.1122,-673.7036"/>
<polygon fill="#000000" stroke="#000000" points="744.8551,-676.7495 752.3571,-669.2682 741.8271,-670.4383 744.8551,-676.7495"/>
</g>
<!-- text -->
<g id="node51" class="node">
<title>text</title>
<ellipse fill="none" stroke="#000000" cx="486.0969" cy="-655" rx="27" ry="18"/>
<text text-anchor="middle" x="486.0969" y="-651.3" font-family="Times,serif" font-size="14.00" fill="#000000">text</text>
</g>
<!-- web&#45;&gt;text -->
<g id="edge53" class="edge">
<title>web&#45;&gt;text</title>
<path fill="none" stroke="#000000" d="M582.4077,-719.9902C562.0061,-706.2233 533.9838,-687.314 513.4253,-673.4411"/>
<polygon fill="#000000" stroke="#000000" points="515.3625,-670.526 505.1154,-667.8337 511.447,-676.3285 515.3625,-670.526"/>
</g>
<!-- html -->
<g id="node52" class="node">
<title>html</title>
<ellipse fill="none" stroke="#000000" cx="254.0969" cy="-655" rx="27.0966" ry="18"/>
<text text-anchor="middle" x="254.0969" y="-651.3" font-family="Times,serif" font-size="14.00" fill="#000000">html</text>
</g>
<!-- web&#45;&gt;html -->
<g id="edge54" class="edge">
<title>web&#45;&gt;html</title>
<path fill="none" stroke="#000000" d="M581.9983,-734.9179C526.1753,-728.043 394.8147,-709.1412 290.0969,-673 288.2144,-672.3503 286.3048,-671.6221 284.3976,-670.8411"/>
<polygon fill="#000000" stroke="#000000" points="285.5716,-667.5312 275.0166,-666.613 282.6952,-673.913 285.5716,-667.5312"/>
</g>
<!-- redirects -->
<g id="node53" class="node">
<title>redirects</title>
<ellipse fill="none" stroke="#000000" cx="890.0969" cy="-655" rx="40.8928" ry="18"/>
<text text-anchor="middle" x="890.0969" y="-651.3" font-family="Times,serif" font-size="14.00" fill="#000000">redirects</text>
</g>
<!-- web&#45;&gt;redirects -->
<g id="edge55" class="edge">
<title>web&#45;&gt;redirects</title>
<path fill="none" stroke="#000000" d="M636.3115,-731.0154C679.6965,-719.73 767.0917,-696.3795 840.0969,-673 843.0335,-672.0596 846.0555,-671.0579 849.0906,-670.027"/>
<polygon fill="#000000" stroke="#000000" points="850.4433,-673.2623 858.7406,-666.6741 848.1458,-666.6501 850.4433,-673.2623"/>
</g>
<!-- x_frame_options -->
<g id="node54" class="node">
<title>x_frame_options</title>
<ellipse fill="none" stroke="#000000" cx="370.0969" cy="-655" rx="70.6878" ry="18"/>
<text text-anchor="middle" x="370.0969" y="-651.3" font-family="Times,serif" font-size="14.00" fill="#000000">x_frame_options</text>
</g>
<!-- web&#45;&gt;x_frame_options -->
<g id="edge56" class="edge">
<title>web&#45;&gt;x_frame_options</title>
<path fill="none" stroke="#000000" d="M581.6805,-728.4788C542.7128,-714.9461 470.598,-689.9021 421.5011,-672.8517"/>
<polygon fill="#000000" stroke="#000000" points="422.6001,-669.5283 412.0053,-669.554 420.3036,-676.1409 422.6001,-669.5283"/>
</g>
<!-- csp -->
<g id="node55" class="node">
<title>csp</title>
<ellipse fill="none" stroke="#000000" cx="558.0969" cy="-655" rx="27" ry="18"/>
<text text-anchor="middle" x="558.0969" y="-651.3" font-family="Times,serif" font-size="14.00" fill="#000000">csp</text>
</g>
<!-- web&#45;&gt;csp -->
<g id="edge57" class="edge">
<title>web&#45;&gt;csp</title>
<path fill="none" stroke="#000000" d="M598.0306,-719.9902C590.9584,-708.4805 581.6776,-693.3765 573.8431,-680.6263"/>
<polygon fill="#000000" stroke="#000000" points="576.6636,-678.5309 568.4463,-671.8432 570.6995,-682.1956 576.6636,-678.5309"/>
</g>
<!-- form_names -->
<g id="node56" class="node">
<title>form_names</title>
<ellipse fill="none" stroke="#000000" cx="659.0969" cy="-655" rx="55.7903" ry="18"/>
<text text-anchor="middle" x="659.0969" y="-651.3" font-family="Times,serif" font-size="14.00" fill="#000000">form_names</text>
</g>
<!-- web&#45;&gt;form_names -->
<g id="edge58" class="edge">
<title>web&#45;&gt;form_names</title>
<path fill="none" stroke="#000000" d="M619.9461,-719.9902C626.741,-708.7107 635.6154,-693.9792 643.1969,-681.3941"/>
<polygon fill="#000000" stroke="#000000" points="646.2784,-683.0614 648.4406,-672.6895 640.2824,-679.4492 646.2784,-683.0614"/>
</g>
<!-- redirects&#45;&gt;url -->
<g id="edge59" class="edge">
<title>redirects&#45;&gt;url</title>
<path fill="none" stroke="#000000" stroke-dasharray="5,2" d="M871.4893,-671.2167C838.8755,-699.6399 771.4255,-758.4231 735.2569,-789.9444"/>
<polygon fill="#000000" stroke="#000000" points="732.8552,-787.3948 727.6159,-796.6035 737.4543,-792.6719 732.8552,-787.3948"/>
</g>
<!-- ports -->
<g id="node58" class="node">
<title>ports</title>
<ellipse fill="none" stroke="#000000" cx="507.0969" cy="-582" rx="28.6953" ry="18"/>
<text text-anchor="middle" x="507.0969" y="-578.3" font-family="Times,serif" font-size="14.00" fill="#000000">ports</text>
</g>
<!-- nmap&#45;&gt;ports -->
<g id="edge61" class="edge">
<title>nmap&#45;&gt;ports</title>
<path fill="none" stroke="#000000" d="M948.9741,-640.2515C946.0327,-639.0123 943.0387,-637.8939 940.0969,-637 866.5307,-614.6461 637.5149,-593.1719 545.723,-585.229"/>
<polygon fill="#000000" stroke="#000000" points="546.0012,-581.7401 535.7384,-584.3717 545.4023,-588.7144 546.0012,-581.7401"/>
</g>
<!-- ports&#45;&gt;port -->
<g id="edge63" class="edge">
<title>ports&#45;&gt;port</title>
<path fill="none" stroke="#000000" stroke-dasharray="5,2" d="M480.3027,-575.6494C424.7087,-562.4729 296.8246,-532.1627 234.5145,-517.3944"/>
<polygon fill="#000000" stroke="#000000" points="235.2792,-513.9788 224.7416,-515.0781 233.6648,-520.7901 235.2792,-513.9788"/>
</g>
</g>
</svg>
