<?xml version="1.0" encoding="UTF-8" standalone="no"?>
<!DOCTYPE svg PUBLIC "-//W3C//DTD SVG 1.1//EN"
 "http://www.w3.org/Graphics/SVG/1.1/DTD/svg11.dtd">
<!-- Generated by graphviz version 2.43.0 (0)
 -->
<!-- Title: %3 Pages: 1 -->
<svg width="1951pt" height="1129pt"
 viewBox="0.00 0.00 1951.10 1129.00" xmlns="http://www.w3.org/2000/svg" xmlns:xlink="http://www.w3.org/1999/xlink">
<g id="graph0" class="graph" transform="scale(1 1) rotate(0) translate(4 1125)">
<title>%3</title>
<polygon fill="white" stroke="transparent" points="-4,4 -4,-1125 1947.1,-1125 1947.1,4 -4,4"/>
<text text-anchor="middle" x="971.55" y="-7.8" font-family="Times,serif" font-size="14.00">Convey field types (dashed nodes = identifiable automatically, dashed edges = field identity)</text>
<!-- source_ip -->
<g id="node1" class="node">
<title>source_ip</title>
<ellipse fill="none" stroke="black" stroke-dasharray="5,2" cx="551.1" cy="-1103" rx="44.69" ry="18"/>
<text text-anchor="middle" x="551.1" y="-1099.3" font-family="Times,serif" font-size="14.00">source_ip</text>
</g>
<!-- ip -->
<g id="node2" class="node">
<title>ip</title>
<ellipse fill="none" stroke="black" stroke-dasharray="5,2" cx="551.1" cy="-1030" rx="27" ry="18"/>
<text text-anchor="middle" x="551.1" y="-1026.3" font-family="Times,serif" font-size="14.00">ip</text>
</g>
<!-- source_ip&#45;&gt;ip -->
<g id="edge1" class="edge">
<title>source_ip&#45;&gt;ip</title>
<path fill="none" stroke="black" stroke-dasharray="5,2" d="M551.1,-1084.81C551.1,-1076.79 551.1,-1067.05 551.1,-1058.07"/>
<polygon fill="black" stroke="black" points="554.6,-1058.03 551.1,-1048.03 547.6,-1058.03 554.6,-1058.03"/>
</g>
<!-- whois -->
<g id="node9" class="node">
<title>whois</title>
<polygon fill="none" stroke="black" points="1045.1,-975 991.1,-975 991.1,-939 1045.1,-939 1045.1,-975"/>
<text text-anchor="middle" x="1018.1" y="-953.3" font-family="Times,serif" font-size="14.00">whois</text>
</g>
<!-- ip&#45;&gt;whois -->
<g id="edge9" class="edge">
<title>ip&#45;&gt;whois</title>
<path fill="none" stroke="black" d="M577.21,-1025.03C655.72,-1013.09 889.87,-977.49 981.12,-963.62"/>
<polygon fill="black" stroke="black" points="981.65,-967.08 991.01,-962.12 980.6,-960.16 981.65,-967.08"/>
</g>
<!-- nmap -->
<g id="node60" class="node">
<title>nmap</title>
<polygon fill="none" stroke="black" points="508.1,-673 454.1,-673 454.1,-637 508.1,-637 508.1,-673"/>
<text text-anchor="middle" x="481.1" y="-651.3" font-family="Times,serif" font-size="14.00">nmap</text>
</g>
<!-- ip&#45;&gt;nmap -->
<g id="edge65" class="edge">
<title>ip&#45;&gt;nmap</title>
<path fill="none" stroke="black" d="M534.17,-1015.73C519.66,-1002.74 501.1,-981.52 501.1,-958 501.1,-958 501.1,-958 501.1,-737 501.1,-718.46 496.1,-698.22 491.1,-682.61"/>
<polygon fill="black" stroke="black" points="494.4,-681.42 487.87,-673.08 487.77,-683.67 494.4,-681.42"/>
</g>
<!-- destination_ip -->
<g id="node3" class="node">
<title>destination_ip</title>
<ellipse fill="none" stroke="black" stroke-dasharray="5,2" cx="674.1" cy="-1103" rx="60.39" ry="18"/>
<text text-anchor="middle" x="674.1" y="-1099.3" font-family="Times,serif" font-size="14.00">destination_ip</text>
</g>
<!-- destination_ip&#45;&gt;ip -->
<g id="edge2" class="edge">
<title>destination_ip&#45;&gt;ip</title>
<path fill="none" stroke="black" stroke-dasharray="5,2" d="M647.71,-1086.77C627.75,-1075.25 600.38,-1059.45 579.87,-1047.61"/>
<polygon fill="black" stroke="black" points="581.38,-1044.44 570.97,-1042.47 577.88,-1050.5 581.38,-1044.44"/>
</g>
<!-- any_ip -->
<g id="node4" class="node">
<title>any_ip</title>
<ellipse fill="none" stroke="black" stroke-dasharray="5,2" cx="454.1" cy="-1103" rx="34.39" ry="18"/>
<text text-anchor="middle" x="454.1" y="-1099.3" font-family="Times,serif" font-size="14.00">any_ip</text>
</g>
<!-- any_ip&#45;&gt;ip -->
<g id="edge3" class="edge">
<title>any_ip&#45;&gt;ip</title>
<path fill="none" stroke="black" d="M473.26,-1087.97C488.21,-1077.03 509.12,-1061.72 525.5,-1049.73"/>
<polygon fill="black" stroke="black" points="527.6,-1052.54 533.6,-1043.8 523.47,-1046.89 527.6,-1052.54"/>
</g>
<!-- port_ip -->
<g id="node5" class="node">
<title>port_ip</title>
<ellipse fill="none" stroke="black" stroke-dasharray="5,2" cx="261.1" cy="-1103" rx="36.29" ry="18"/>
<text text-anchor="middle" x="261.1" y="-1099.3" font-family="Times,serif" font-size="14.00">port_ip</text>
</g>
<!-- port_ip&#45;&gt;ip -->
<g id="edge4" class="edge">
<title>port_ip&#45;&gt;ip</title>
<path fill="none" stroke="black" d="M292.96,-1094.2C347.68,-1080.8 459.08,-1053.53 515.96,-1039.6"/>
<polygon fill="black" stroke="black" points="517.04,-1042.94 525.92,-1037.16 515.38,-1036.14 517.04,-1042.94"/>
</g>
<!-- port -->
<g id="node6" class="node">
<title>port</title>
<ellipse fill="none" stroke="black" stroke-dasharray="5,2" cx="190.1" cy="-509" rx="27" ry="18"/>
<text text-anchor="middle" x="190.1" y="-505.3" font-family="Times,serif" font-size="14.00">port</text>
</g>
<!-- port_ip&#45;&gt;port -->
<g id="edge5" class="edge">
<title>port_ip&#45;&gt;port</title>
<path fill="none" stroke="black" d="M226.12,-1097.73C188.22,-1090.93 133.1,-1073.69 133.1,-1031 133.1,-1031 133.1,-1031 133.1,-581 133.1,-559.93 148.55,-541.55 163.37,-528.77"/>
<polygon fill="black" stroke="black" points="165.85,-531.27 171.43,-522.27 161.45,-525.82 165.85,-531.27"/>
</g>
<!-- urlencode -->
<g id="node25" class="node">
<title>urlencode</title>
<ellipse fill="none" stroke="black" stroke-dasharray="5,2" cx="190.1" cy="-436" rx="45.49" ry="18"/>
<text text-anchor="middle" x="190.1" y="-432.3" font-family="Times,serif" font-size="14.00">urlencode</text>
</g>
<!-- port&#45;&gt;urlencode -->
<!-- url -->
<g id="node7" class="node">
<title>url</title>
<ellipse fill="none" stroke="black" stroke-dasharray="5,2" cx="990.1" cy="-811" rx="27" ry="18"/>
<text text-anchor="middle" x="990.1" y="-807.3" font-family="Times,serif" font-size="14.00">url</text>
</g>
<!-- url&#45;&gt;port -->
<g id="edge7" class="edge">
<title>url&#45;&gt;port</title>
<path fill="none" stroke="black" d="M982.86,-793.46C972.02,-768.04 951.6,-717.62 940.1,-673 927.86,-625.52 959.14,-597.23 923.1,-564 871.67,-516.58 370.51,-510.78 227.83,-510.09"/>
<polygon fill="black" stroke="black" points="227.43,-506.59 217.42,-510.04 227.4,-513.59 227.43,-506.59"/>
</g>
<!-- hostname -->
<g id="node8" class="node">
<title>hostname</title>
<ellipse fill="none" stroke="black" stroke-dasharray="5,2" cx="687.1" cy="-738" rx="44.69" ry="18"/>
<text text-anchor="middle" x="687.1" y="-734.3" font-family="Times,serif" font-size="14.00">hostname</text>
</g>
<!-- url&#45;&gt;hostname -->
<g id="edge6" class="edge">
<title>url&#45;&gt;hostname</title>
<path fill="none" stroke="black" d="M954.99,-801.77C900.54,-789.01 795.64,-764.44 734.51,-750.11"/>
<polygon fill="black" stroke="black" points="954.51,-805.26 965.04,-804.13 956.11,-798.44 954.51,-805.26"/>
<polygon fill="black" stroke="black" points="735.26,-746.69 724.73,-747.82 733.67,-753.51 735.26,-746.69"/>
</g>
<!-- web -->
<g id="node52" class="node">
<title>web</title>
<polygon fill="none" stroke="black" points="1254.1,-756 1200.1,-756 1200.1,-720 1254.1,-720 1254.1,-756"/>
<text text-anchor="middle" x="1227.1" y="-734.3" font-family="Times,serif" font-size="14.00">web</text>
</g>
<!-- url&#45;&gt;web -->
<g id="edge54" class="edge">
<title>url&#45;&gt;web</title>
<path fill="none" stroke="black" d="M1014.57,-802.67C1056.19,-790.2 1141.02,-764.79 1189.99,-750.12"/>
<polygon fill="black" stroke="black" points="1191.29,-753.38 1199.86,-747.16 1189.28,-746.68 1191.29,-753.38"/>
</g>
<!-- hostname&#45;&gt;ip -->
<g id="edge8" class="edge">
<title>hostname&#45;&gt;ip</title>
<path fill="none" stroke="black" d="M642.07,-752.6C616.32,-763.46 589.1,-781.65 589.1,-810 589.1,-958 589.1,-958 589.1,-958 589.1,-975.55 579.96,-992.95 570.65,-1006.14"/>
<polygon fill="black" stroke="black" points="643.41,-755.83 651.44,-748.92 640.85,-749.32 643.41,-755.83"/>
<polygon fill="black" stroke="black" points="567.83,-1004.07 564.6,-1014.16 573.42,-1008.28 567.83,-1004.07"/>
</g>
<!-- whoisdomain -->
<g id="node10" class="node">
<title>whoisdomain</title>
<ellipse fill="none" stroke="black" cx="584.1" cy="-655" rx="58.49" ry="18"/>
<text text-anchor="middle" x="584.1" y="-651.3" font-family="Times,serif" font-size="14.00">whoisdomain</text>
</g>
<!-- hostname&#45;&gt;whoisdomain -->
<g id="edge10" class="edge">
<title>hostname&#45;&gt;whoisdomain</title>
<path fill="none" stroke="black" d="M667.72,-721.76C652.2,-709.56 630.19,-692.25 612.65,-678.45"/>
<polygon fill="black" stroke="black" points="614.46,-675.43 604.44,-672 610.14,-680.93 614.46,-675.43"/>
</g>
<!-- dns -->
<g id="node34" class="node">
<title>dns</title>
<polygon fill="none" stroke="black" points="714.1,-673 660.1,-673 660.1,-637 714.1,-637 714.1,-673"/>
<text text-anchor="middle" x="687.1" y="-651.3" font-family="Times,serif" font-size="14.00">dns</text>
</g>
<!-- hostname&#45;&gt;dns -->
<g id="edge33" class="edge">
<title>hostname&#45;&gt;dns</title>
<path fill="none" stroke="black" d="M687.1,-719.82C687.1,-709.19 687.1,-695.31 687.1,-683.2"/>
<polygon fill="black" stroke="black" points="690.6,-683.15 687.1,-673.15 683.6,-683.15 690.6,-683.15"/>
</g>
<!-- tld -->
<g id="node45" class="node">
<title>tld</title>
<ellipse fill="none" stroke="black" cx="815.1" cy="-655" rx="27" ry="18"/>
<text text-anchor="middle" x="815.1" y="-651.3" font-family="Times,serif" font-size="14.00">tld</text>
</g>
<!-- hostname&#45;&gt;tld -->
<g id="edge46" class="edge">
<title>hostname&#45;&gt;tld</title>
<path fill="none" stroke="black" d="M709.98,-722.52C731.69,-708.78 764.35,-688.11 787.49,-673.47"/>
<polygon fill="black" stroke="black" points="789.58,-676.29 796.16,-667.98 785.84,-670.37 789.58,-676.29"/>
<text text-anchor="middle" x="808.1" y="-694" font-family="Times,serif" font-size="10.00">choose all,ccTLD,gTLD</text>
</g>
<!-- hostname&#45;&gt;nmap -->
<g id="edge63" class="edge">
<title>hostname&#45;&gt;nmap</title>
<path fill="none" stroke="black" d="M654.51,-725.62C622.02,-714.08 570.54,-695.27 517.65,-673.08"/>
<polygon fill="black" stroke="black" points="518.69,-669.72 508.12,-669.05 515.96,-676.17 518.69,-669.72"/>
</g>
<!-- prefix -->
<g id="node12" class="node">
<title>prefix</title>
<ellipse fill="none" stroke="black" cx="672.1" cy="-884" rx="31.7" ry="18"/>
<text text-anchor="middle" x="672.1" y="-880.3" font-family="Times,serif" font-size="14.00">prefix</text>
</g>
<!-- whois&#45;&gt;prefix -->
<g id="edge12" class="edge">
<title>whois&#45;&gt;prefix</title>
<path fill="none" stroke="black" d="M990.74,-951.42C940.21,-942.82 828.92,-923.19 736.1,-902 727.56,-900.05 718.43,-897.76 709.83,-895.49"/>
<polygon fill="black" stroke="black" points="710.59,-892.08 700.03,-892.88 708.79,-898.84 710.59,-892.08"/>
</g>
<!-- asn -->
<g id="node13" class="node">
<title>asn</title>
<ellipse fill="none" stroke="black" stroke-dasharray="5,2" cx="1736.1" cy="-884" rx="27" ry="18"/>
<text text-anchor="middle" x="1736.1" y="-880.3" font-family="Times,serif" font-size="14.00">asn</text>
</g>
<!-- whois&#45;&gt;asn -->
<g id="edge13" class="edge">
<title>whois&#45;&gt;asn</title>
<path fill="none" stroke="black" d="M1045.11,-955.65C1163.61,-953.97 1634.18,-945.76 1695.1,-921 1702.75,-917.89 1709.94,-912.72 1716.11,-907.26"/>
<polygon fill="black" stroke="black" points="1718.54,-909.77 1723.32,-900.32 1713.68,-904.73 1718.54,-909.77"/>
</g>
<!-- abusemail -->
<g id="node14" class="node">
<title>abusemail</title>
<ellipse fill="none" stroke="black" cx="792.1" cy="-884" rx="46.59" ry="18"/>
<text text-anchor="middle" x="792.1" y="-880.3" font-family="Times,serif" font-size="14.00">abusemail</text>
</g>
<!-- whois&#45;&gt;abusemail -->
<g id="edge14" class="edge">
<title>whois&#45;&gt;abusemail</title>
<path fill="none" stroke="black" d="M990.84,-947.44C952.66,-935.44 882.83,-913.5 836.93,-899.09"/>
<polygon fill="black" stroke="black" points="837.83,-895.7 827.24,-896.04 835.73,-902.38 837.83,-895.7"/>
</g>
<!-- country -->
<g id="node16" class="node">
<title>country</title>
<ellipse fill="none" stroke="black" cx="1741.1" cy="-582" rx="37.89" ry="18"/>
<text text-anchor="middle" x="1741.1" y="-578.3" font-family="Times,serif" font-size="14.00">country</text>
</g>
<!-- whois&#45;&gt;country -->
<g id="edge16" class="edge">
<title>whois&#45;&gt;country</title>
<path fill="none" stroke="black" d="M1045.32,-955.99C1170.08,-955.6 1681.1,-950.04 1681.1,-885 1681.1,-885 1681.1,-885 1681.1,-654 1681.1,-633.44 1695.96,-615.76 1710.89,-603.18"/>
<polygon fill="black" stroke="black" points="1713.39,-605.67 1719.1,-596.74 1709.07,-600.16 1713.39,-605.67"/>
</g>
<!-- netname -->
<g id="node17" class="node">
<title>netname</title>
<ellipse fill="none" stroke="black" cx="898.1" cy="-884" rx="40.89" ry="18"/>
<text text-anchor="middle" x="898.1" y="-880.3" font-family="Times,serif" font-size="14.00">netname</text>
</g>
<!-- whois&#45;&gt;netname -->
<g id="edge17" class="edge">
<title>whois&#45;&gt;netname</title>
<path fill="none" stroke="black" d="M990.87,-939.89C972.92,-929.27 949.33,-915.31 930.43,-904.13"/>
<polygon fill="black" stroke="black" points="931.96,-900.97 921.57,-898.89 928.4,-907 931.96,-900.97"/>
</g>
<!-- csirt_contact -->
<g id="node18" class="node">
<title>csirt_contact</title>
<ellipse fill="none" stroke="black" cx="1887.1" cy="-509" rx="55.79" ry="18"/>
<text text-anchor="middle" x="1887.1" y="-505.3" font-family="Times,serif" font-size="14.00">csirt_contact</text>
</g>
<!-- whois&#45;&gt;csirt_contact -->
<g id="edge18" class="edge">
<title>whois&#45;&gt;csirt_contact</title>
<path fill="none" stroke="black" d="M1045.28,-955.37C1198.07,-951.67 1943.1,-931.26 1943.1,-885 1943.1,-885 1943.1,-885 1943.1,-581 1943.1,-561.97 1930.54,-545.04 1917.32,-532.5"/>
<polygon fill="black" stroke="black" points="1919.36,-529.63 1909.55,-525.63 1914.73,-534.87 1919.36,-529.63"/>
</g>
<!-- incident_contact -->
<g id="node19" class="node">
<title>incident_contact</title>
<ellipse fill="none" stroke="black" cx="1138.1" cy="-884" rx="68.79" ry="18"/>
<text text-anchor="middle" x="1138.1" y="-880.3" font-family="Times,serif" font-size="14.00">incident_contact</text>
</g>
<!-- whois&#45;&gt;incident_contact -->
<g id="edge19" class="edge">
<title>whois&#45;&gt;incident_contact</title>
<path fill="none" stroke="black" d="M1045.33,-939.89C1062.32,-929.83 1084.38,-916.78 1102.72,-905.93"/>
<polygon fill="black" stroke="black" points="1104.56,-908.91 1111.39,-900.8 1101,-902.88 1104.56,-908.91"/>
</g>
<!-- registrar_abusemail -->
<g id="node15" class="node">
<title>registrar_abusemail</title>
<ellipse fill="none" stroke="black" cx="317.1" cy="-582" rx="80.69" ry="18"/>
<text text-anchor="middle" x="317.1" y="-578.3" font-family="Times,serif" font-size="14.00">registrar_abusemail</text>
</g>
<!-- whoisdomain&#45;&gt;registrar_abusemail -->
<g id="edge15" class="edge">
<title>whoisdomain&#45;&gt;registrar_abusemail</title>
<path fill="none" stroke="black" d="M541.2,-642.59C496.56,-630.72 426.33,-612.05 376.4,-598.77"/>
<polygon fill="black" stroke="black" points="377.26,-595.38 366.7,-596.19 375.46,-602.14 377.26,-595.38"/>
</g>
<!-- cidr -->
<g id="node11" class="node">
<title>cidr</title>
<ellipse fill="none" stroke="black" stroke-dasharray="5,2" cx="644.1" cy="-811" rx="27" ry="18"/>
<text text-anchor="middle" x="644.1" y="-807.3" font-family="Times,serif" font-size="14.00">cidr</text>
</g>
<!-- cidr&#45;&gt;ip -->
<g id="edge11" class="edge">
<title>cidr&#45;&gt;ip</title>
<path fill="none" stroke="black" d="M633.88,-827.84C619.14,-851.3 591.81,-897.04 575.1,-939 566.89,-959.59 560.59,-983.94 556.51,-1002.12"/>
<polygon fill="black" stroke="black" points="553.06,-1001.52 554.36,-1012.03 559.9,-1003 553.06,-1001.52"/>
</g>
<!-- prefix&#45;&gt;cidr -->
<g id="edge47" class="edge">
<title>prefix&#45;&gt;cidr</title>
<path fill="none" stroke="black" d="M665.46,-866.17C662.15,-857.77 658.07,-847.42 654.36,-838.03"/>
<polygon fill="black" stroke="black" points="657.61,-836.72 650.68,-828.71 651.1,-839.29 657.61,-836.72"/>
</g>
<!-- cc_contact -->
<g id="node20" class="node">
<title>cc_contact</title>
<ellipse fill="none" stroke="black" cx="817.1" cy="-811" rx="48.19" ry="18"/>
<text text-anchor="middle" x="817.1" y="-807.3" font-family="Times,serif" font-size="14.00">cc_contact</text>
</g>
<!-- abusemail&#45;&gt;cc_contact -->
<g id="edge20" class="edge">
<title>abusemail&#45;&gt;cc_contact</title>
<path fill="none" stroke="black" d="M798.15,-865.81C801.04,-857.62 804.55,-847.62 807.77,-838.48"/>
<polygon fill="black" stroke="black" points="811.08,-839.62 811.1,-829.03 804.48,-837.3 811.08,-839.62"/>
</g>
<!-- email -->
<g id="node42" class="node">
<title>email</title>
<ellipse fill="none" stroke="black" stroke-dasharray="5,2" cx="720.1" cy="-811" rx="30.59" ry="18"/>
<text text-anchor="middle" x="720.1" y="-807.3" font-family="Times,serif" font-size="14.00">email</text>
</g>
<!-- abusemail&#45;&gt;email -->
<g id="edge41" class="edge">
<title>abusemail&#45;&gt;email</title>
<path fill="none" stroke="black" stroke-dasharray="5,2" d="M775.76,-866.89C766.01,-857.28 753.49,-844.93 742.79,-834.38"/>
<polygon fill="black" stroke="black" points="744.96,-831.61 735.39,-827.08 740.05,-836.59 744.96,-831.61"/>
</g>
<!-- country&#45;&gt;csirt_contact -->
<g id="edge44" class="edge">
<title>country&#45;&gt;csirt_contact</title>
<path fill="none" stroke="black" d="M1766.53,-568.63C1789.08,-557.66 1822.37,-541.47 1848.26,-528.89"/>
<polygon fill="black" stroke="black" points="1849.97,-531.95 1857.43,-524.43 1846.91,-525.65 1849.97,-531.95"/>
</g>
<!-- plaintext -->
<g id="node21" class="node">
<title>plaintext</title>
<ellipse fill="none" stroke="black" stroke-dasharray="5,2" cx="235.1" cy="-353" rx="41.69" ry="18"/>
<text text-anchor="middle" x="235.1" y="-349.3" font-family="Times,serif" font-size="14.00">plaintext</text>
</g>
<!-- bytes -->
<g id="node22" class="node">
<title>bytes</title>
<ellipse fill="none" stroke="black" cx="189.1" cy="-280" rx="29.5" ry="18"/>
<text text-anchor="middle" x="189.1" y="-276.3" font-family="Times,serif" font-size="14.00">bytes</text>
</g>
<!-- plaintext&#45;&gt;bytes -->
<g id="edge21" class="edge">
<title>plaintext&#45;&gt;bytes</title>
<path fill="none" stroke="black" d="M218.98,-327.12C214.4,-320.06 209.43,-312.38 204.87,-305.35"/>
<polygon fill="black" stroke="black" points="216.05,-329.04 224.43,-335.53 221.93,-325.24 216.05,-329.04"/>
<polygon fill="black" stroke="black" points="207.77,-303.38 199.39,-296.89 201.89,-307.19 207.77,-303.38"/>
</g>
<!-- custom -->
<g id="node26" class="node">
<title>custom</title>
<polygon fill="none" stroke="black" points="445.1,-298 389.1,-298 389.1,-262 445.1,-262 445.1,-298"/>
<text text-anchor="middle" x="417.1" y="-276.3" font-family="Times,serif" font-size="14.00">custom</text>
</g>
<!-- plaintext&#45;&gt;custom -->
<g id="edge25" class="edge">
<title>plaintext&#45;&gt;custom</title>
<path fill="none" stroke="black" d="M265.15,-340.28C296.49,-328.05 345.66,-308.87 379.54,-295.65"/>
<polygon fill="black" stroke="black" points="381.05,-298.82 389.09,-291.92 378.5,-292.3 381.05,-298.82"/>
</g>
<!-- base64 -->
<g id="node23" class="node">
<title>base64</title>
<ellipse fill="none" stroke="black" stroke-dasharray="5,2" cx="35.1" cy="-197" rx="35.19" ry="18"/>
<text text-anchor="middle" x="35.1" y="-193.3" font-family="Times,serif" font-size="14.00">base64</text>
</g>
<!-- bytes&#45;&gt;base64 -->
<g id="edge22" class="edge">
<title>bytes&#45;&gt;base64</title>
<path fill="none" stroke="black" d="M158.72,-263.02C132.51,-249.24 94.75,-229.38 67.87,-215.24"/>
<polygon fill="black" stroke="black" points="157.2,-266.18 167.68,-267.74 160.46,-259.98 157.2,-266.18"/>
<polygon fill="black" stroke="black" points="69.33,-212.05 58.85,-210.5 66.07,-218.25 69.33,-212.05"/>
</g>
<!-- quoted_printable -->
<g id="node24" class="node">
<title>quoted_printable</title>
<ellipse fill="none" stroke="black" stroke-dasharray="5,2" cx="158.1" cy="-197" rx="70.39" ry="18"/>
<text text-anchor="middle" x="158.1" y="-193.3" font-family="Times,serif" font-size="14.00">quoted_printable</text>
</g>
<!-- bytes&#45;&gt;quoted_printable -->
<g id="edge23" class="edge">
<title>bytes&#45;&gt;quoted_printable</title>
<path fill="none" stroke="black" d="M179.08,-252.83C175.6,-243.73 171.69,-233.52 168.2,-224.4"/>
<polygon fill="black" stroke="black" points="175.83,-254.13 182.67,-262.22 182.37,-251.63 175.83,-254.13"/>
<polygon fill="black" stroke="black" points="171.46,-223.13 164.62,-215.04 164.92,-225.63 171.46,-223.13"/>
</g>
<!-- charset -->
<g id="node30" class="node">
<title>charset</title>
<ellipse fill="none" stroke="black" cx="282.1" cy="-197" rx="36" ry="18"/>
<text text-anchor="middle" x="282.1" y="-193.3" font-family="Times,serif" font-size="14.00">charset</text>
</g>
<!-- bytes&#45;&gt;charset -->
<g id="edge29" class="edge">
<title>bytes&#45;&gt;charset</title>
<path fill="none" stroke="black" d="M205.3,-264.89C219.61,-252.43 240.7,-234.05 257.16,-219.72"/>
<polygon fill="black" stroke="black" points="259.58,-222.25 264.82,-213.05 254.98,-216.97 259.58,-222.25"/>
<text text-anchor="middle" x="261.6" y="-236" font-family="Times,serif" font-size="10.00">encoding</text>
</g>
<!-- urlencode&#45;&gt;plaintext -->
<g id="edge24" class="edge">
<title>urlencode&#45;&gt;plaintext</title>
<path fill="none" stroke="black" d="M204.47,-409.13C209.7,-399.71 215.62,-389.07 220.84,-379.66"/>
<polygon fill="black" stroke="black" points="201.22,-407.78 199.42,-418.22 207.34,-411.17 201.22,-407.78"/>
<polygon fill="black" stroke="black" points="223.99,-381.2 225.78,-370.76 217.87,-377.8 223.99,-381.2"/>
</g>
<!-- external -->
<g id="node27" class="node">
<title>external</title>
<ellipse fill="none" stroke="black" cx="375.1" cy="-197" rx="38.99" ry="18"/>
<text text-anchor="middle" x="375.1" y="-193.3" font-family="Times,serif" font-size="14.00">external</text>
</g>
<!-- custom&#45;&gt;external -->
<g id="edge26" class="edge">
<title>custom&#45;&gt;external</title>
<path fill="none" stroke="black" d="M408.19,-261.82C402.43,-250.72 394.84,-236.07 388.38,-223.61"/>
<polygon fill="black" stroke="black" points="391.41,-221.87 383.7,-214.6 385.2,-225.09 391.41,-221.87"/>
</g>
<!-- code -->
<g id="node28" class="node">
<title>code</title>
<ellipse fill="none" stroke="black" cx="459.1" cy="-197" rx="27.1" ry="18"/>
<text text-anchor="middle" x="459.1" y="-193.3" font-family="Times,serif" font-size="14.00">code</text>
</g>
<!-- custom&#45;&gt;code -->
<g id="edge27" class="edge">
<title>custom&#45;&gt;code</title>
<path fill="none" stroke="black" d="M426,-261.82C431.8,-250.65 439.46,-235.88 445.95,-223.36"/>
<polygon fill="black" stroke="black" points="449.14,-224.81 450.63,-214.32 442.92,-221.59 449.14,-224.81"/>
</g>
<!-- reg -->
<g id="node29" class="node">
<title>reg</title>
<ellipse fill="none" stroke="black" cx="531.1" cy="-197" rx="27" ry="18"/>
<text text-anchor="middle" x="531.1" y="-193.3" font-family="Times,serif" font-size="14.00">reg</text>
</g>
<!-- custom&#45;&gt;reg -->
<g id="edge28" class="edge">
<title>custom&#45;&gt;reg</title>
<path fill="none" stroke="black" d="M441.27,-261.82C459.98,-248.53 485.83,-230.16 505,-216.54"/>
<polygon fill="black" stroke="black" points="507.17,-219.3 513.29,-210.65 503.11,-213.59 507.17,-219.3"/>
</g>
<!-- reg_s -->
<g id="node31" class="node">
<title>reg_s</title>
<ellipse fill="none" stroke="black" cx="572.1" cy="-124" rx="29.8" ry="18"/>
<text text-anchor="middle" x="572.1" y="-120.3" font-family="Times,serif" font-size="14.00">reg_s</text>
</g>
<!-- reg&#45;&gt;reg_s -->
<g id="edge30" class="edge">
<title>reg&#45;&gt;reg_s</title>
<path fill="none" stroke="black" d="M540.4,-179.89C545.41,-171.21 551.72,-160.29 557.38,-150.49"/>
<polygon fill="black" stroke="black" points="560.58,-151.95 562.55,-141.54 554.51,-148.45 560.58,-151.95"/>
</g>
<!-- reg_m -->
<g id="node32" class="node">
<title>reg_m</title>
<ellipse fill="none" stroke="black" cx="490.1" cy="-124" rx="33.6" ry="18"/>
<text text-anchor="middle" x="490.1" y="-120.3" font-family="Times,serif" font-size="14.00">reg_m</text>
</g>
<!-- reg&#45;&gt;reg_m -->
<g id="edge31" class="edge">
<title>reg&#45;&gt;reg_m</title>
<path fill="none" stroke="black" d="M521.79,-179.89C516.78,-171.21 510.48,-160.29 504.82,-150.49"/>
<polygon fill="black" stroke="black" points="507.68,-148.45 499.65,-141.54 501.62,-151.95 507.68,-148.45"/>
</g>
<!-- timestamp -->
<g id="node46" class="node">
<title>timestamp</title>
<ellipse fill="none" stroke="black" stroke-dasharray="5,2" cx="282.1" cy="-124" rx="48.19" ry="18"/>
<text text-anchor="middle" x="282.1" y="-120.3" font-family="Times,serif" font-size="14.00">timestamp</text>
</g>
<!-- charset&#45;&gt;timestamp -->
<!-- wrong_url -->
<g id="node33" class="node">
<title>wrong_url</title>
<ellipse fill="none" stroke="black" stroke-dasharray="5,2" cx="1004.1" cy="-884" rx="47.39" ry="18"/>
<text text-anchor="middle" x="1004.1" y="-880.3" font-family="Times,serif" font-size="14.00">wrong_url</text>
</g>
<!-- wrong_url&#45;&gt;url -->
<g id="edge32" class="edge">
<title>wrong_url&#45;&gt;url</title>
<path fill="none" stroke="black" d="M1000.71,-865.81C999.13,-857.79 997.2,-848.05 995.43,-839.07"/>
<polygon fill="black" stroke="black" points="998.82,-838.16 993.45,-829.03 991.96,-839.52 998.82,-838.16"/>
</g>
<!-- spf -->
<g id="node35" class="node">
<title>spf</title>
<ellipse fill="none" stroke="black" cx="671.1" cy="-582" rx="27" ry="18"/>
<text text-anchor="middle" x="671.1" y="-578.3" font-family="Times,serif" font-size="14.00">spf</text>
</g>
<!-- dns&#45;&gt;spf -->
<g id="edge34" class="edge">
<title>dns&#45;&gt;spf</title>
<path fill="none" stroke="black" d="M683.22,-636.81C681.42,-628.79 679.22,-619.05 677.2,-610.07"/>
<polygon fill="black" stroke="black" points="680.55,-609.01 674.93,-600.03 673.72,-610.55 680.55,-609.01"/>
</g>
<!-- txt -->
<g id="node36" class="node">
<title>txt</title>
<ellipse fill="none" stroke="black" cx="743.1" cy="-582" rx="27" ry="18"/>
<text text-anchor="middle" x="743.1" y="-578.3" font-family="Times,serif" font-size="14.00">txt</text>
</g>
<!-- dns&#45;&gt;txt -->
<g id="edge35" class="edge">
<title>dns&#45;&gt;txt</title>
<path fill="none" stroke="black" d="M700.65,-636.81C707.83,-627.71 716.76,-616.39 724.57,-606.48"/>
<polygon fill="black" stroke="black" points="727.37,-608.59 730.81,-598.58 721.87,-604.26 727.37,-608.59"/>
</g>
<!-- a -->
<g id="node37" class="node">
<title>a</title>
<ellipse fill="none" stroke="black" cx="815.1" cy="-582" rx="27" ry="18"/>
<text text-anchor="middle" x="815.1" y="-578.3" font-family="Times,serif" font-size="14.00">a</text>
</g>
<!-- dns&#45;&gt;a -->
<g id="edge36" class="edge">
<title>dns&#45;&gt;a</title>
<path fill="none" stroke="black" d="M714.24,-638.94C735.21,-627.31 764.18,-611.24 785.7,-599.31"/>
<polygon fill="black" stroke="black" points="787.66,-602.22 794.71,-594.31 784.27,-596.1 787.66,-602.22"/>
</g>
<!-- aaaa -->
<g id="node38" class="node">
<title>aaaa</title>
<ellipse fill="none" stroke="black" cx="887.1" cy="-582" rx="27" ry="18"/>
<text text-anchor="middle" x="887.1" y="-578.3" font-family="Times,serif" font-size="14.00">aaaa</text>
</g>
<!-- dns&#45;&gt;aaaa -->
<g id="edge37" class="edge">
<title>dns&#45;&gt;aaaa</title>
<path fill="none" stroke="black" d="M714.16,-646.21C746.98,-636.5 803.77,-618.88 851.1,-600 852.93,-599.27 854.79,-598.49 856.67,-597.69"/>
<polygon fill="black" stroke="black" points="858.28,-600.8 865.97,-593.51 855.41,-594.41 858.28,-600.8"/>
</g>
<!-- ns -->
<g id="node39" class="node">
<title>ns</title>
<ellipse fill="none" stroke="black" cx="443.1" cy="-582" rx="27" ry="18"/>
<text text-anchor="middle" x="443.1" y="-578.3" font-family="Times,serif" font-size="14.00">ns</text>
</g>
<!-- dns&#45;&gt;ns -->
<g id="edge38" class="edge">
<title>dns&#45;&gt;ns</title>
<path fill="none" stroke="black" d="M659.85,-640.34C656.93,-639.12 653.98,-637.98 651.1,-637 577.04,-611.92 553.16,-625.08 479.1,-600 477.18,-599.35 475.23,-598.63 473.29,-597.86"/>
<polygon fill="black" stroke="black" points="474.27,-594.47 463.7,-593.72 471.49,-600.9 474.27,-594.47"/>
</g>
<!-- mx -->
<g id="node40" class="node">
<title>mx</title>
<ellipse fill="none" stroke="black" cx="515.1" cy="-582" rx="27" ry="18"/>
<text text-anchor="middle" x="515.1" y="-578.3" font-family="Times,serif" font-size="14.00">mx</text>
</g>
<!-- dns&#45;&gt;mx -->
<g id="edge39" class="edge">
<title>dns&#45;&gt;mx</title>
<path fill="none" stroke="black" d="M660.08,-640.94C657.07,-639.57 654.03,-638.23 651.1,-637 607.41,-618.64 594.79,-618.36 551.1,-600 549.28,-599.24 547.42,-598.43 545.56,-597.61"/>
<polygon fill="black" stroke="black" points="546.83,-594.34 536.28,-593.38 543.93,-600.71 546.83,-594.34"/>
</g>
<!-- dmarc -->
<g id="node41" class="node">
<title>dmarc</title>
<ellipse fill="none" stroke="black" cx="593.1" cy="-582" rx="33.29" ry="18"/>
<text text-anchor="middle" x="593.1" y="-578.3" font-family="Times,serif" font-size="14.00">dmarc</text>
</g>
<!-- dns&#45;&gt;dmarc -->
<g id="edge40" class="edge">
<title>dns&#45;&gt;dmarc</title>
<path fill="none" stroke="black" d="M664.34,-636.81C651.02,-626.75 634.13,-613.99 620.13,-603.42"/>
<polygon fill="black" stroke="black" points="621.94,-600.4 611.85,-597.17 617.72,-605.99 621.94,-600.4"/>
</g>
<!-- email&#45;&gt;hostname -->
<g id="edge42" class="edge">
<title>email&#45;&gt;hostname</title>
<path fill="none" stroke="black" d="M712.44,-793.53C708.5,-785.05 703.6,-774.52 699.17,-764.97"/>
<polygon fill="black" stroke="black" points="702.33,-763.46 694.94,-755.87 695.98,-766.41 702.33,-763.46"/>
</g>
<!-- country_name -->
<g id="node43" class="node">
<title>country_name</title>
<ellipse fill="none" stroke="black" cx="1853.1" cy="-655" rx="61.99" ry="18"/>
<text text-anchor="middle" x="1853.1" y="-651.3" font-family="Times,serif" font-size="14.00">country_name</text>
</g>
<!-- country_name&#45;&gt;country -->
<g id="edge43" class="edge">
<title>country_name&#45;&gt;country</title>
<path fill="none" stroke="black" d="M1819.85,-632.93C1804.63,-623.28 1786.7,-611.91 1771.8,-602.46"/>
<polygon fill="black" stroke="black" points="1818.2,-636.02 1828.52,-638.42 1821.95,-630.11 1818.2,-636.02"/>
<polygon fill="black" stroke="black" points="1773.29,-599.26 1762.97,-596.86 1769.54,-605.17 1773.29,-599.26"/>
</g>
<!-- phone -->
<g id="node44" class="node">
<title>phone</title>
<ellipse fill="none" stroke="black" stroke-dasharray="5,2" cx="1741.1" cy="-655" rx="32.49" ry="18"/>
<text text-anchor="middle" x="1741.1" y="-651.3" font-family="Times,serif" font-size="14.00">phone</text>
</g>
<!-- phone&#45;&gt;country -->
<g id="edge45" class="edge">
<title>phone&#45;&gt;country</title>
<path fill="none" stroke="black" d="M1741.1,-636.81C1741.1,-628.79 1741.1,-619.05 1741.1,-610.07"/>
<polygon fill="black" stroke="black" points="1744.6,-610.03 1741.1,-600.03 1737.6,-610.03 1744.6,-610.03"/>
</g>
<!-- tld&#45;&gt;country -->
<g id="edge48" class="edge">
<title>tld&#45;&gt;country</title>
<path fill="none" stroke="black" stroke-dasharray="5,2" d="M841.37,-649.9C866.62,-646.08 905.89,-640.48 940.1,-637 1225.07,-608.05 1568.71,-590.78 1693.17,-585.09"/>
<polygon fill="black" stroke="black" points="1693.66,-588.58 1703.49,-584.63 1693.34,-581.58 1693.66,-588.58"/>
</g>
<!-- formatted_time -->
<g id="node47" class="node">
<title>formatted_time</title>
<ellipse fill="none" stroke="black" cx="89.1" cy="-41" rx="65.79" ry="18"/>
<text text-anchor="middle" x="89.1" y="-37.3" font-family="Times,serif" font-size="14.00">formatted_time</text>
</g>
<!-- timestamp&#45;&gt;formatted_time -->
<g id="edge49" class="edge">
<title>timestamp&#45;&gt;formatted_time</title>
<path fill="none" stroke="black" d="M251.09,-109.99C219.1,-96.56 168.94,-75.51 132.91,-60.39"/>
<polygon fill="black" stroke="black" points="134.19,-57.13 123.61,-56.49 131.48,-63.58 134.19,-57.13"/>
<text text-anchor="middle" x="205.1" y="-80" font-family="Times,serif" font-size="10.00">fmt</text>
</g>
<!-- isotimestamp -->
<g id="node48" class="node">
<title>isotimestamp</title>
<ellipse fill="none" stroke="black" cx="231.1" cy="-41" rx="58.49" ry="18"/>
<text text-anchor="middle" x="231.1" y="-37.3" font-family="Times,serif" font-size="14.00">isotimestamp</text>
</g>
<!-- timestamp&#45;&gt;isotimestamp -->
<g id="edge50" class="edge">
<title>timestamp&#45;&gt;isotimestamp</title>
<path fill="none" stroke="black" d="M271.53,-106.22C264.49,-95.03 255.1,-80.12 247.14,-67.48"/>
<polygon fill="black" stroke="black" points="249.94,-65.36 241.65,-58.76 244.02,-69.09 249.94,-65.36"/>
</g>
<!-- date -->
<g id="node49" class="node">
<title>date</title>
<ellipse fill="none" stroke="black" cx="334.1" cy="-41" rx="27" ry="18"/>
<text text-anchor="middle" x="334.1" y="-37.3" font-family="Times,serif" font-size="14.00">date</text>
</g>
<!-- timestamp&#45;&gt;date -->
<g id="edge51" class="edge">
<title>timestamp&#45;&gt;date</title>
<path fill="none" stroke="black" d="M292.87,-106.22C300.2,-94.81 310.01,-79.52 318.23,-66.72"/>
<polygon fill="black" stroke="black" points="321.41,-68.24 323.87,-57.94 315.52,-64.46 321.41,-68.24"/>
</g>
<!-- time -->
<g id="node50" class="node">
<title>time</title>
<ellipse fill="none" stroke="black" cx="406.1" cy="-41" rx="27" ry="18"/>
<text text-anchor="middle" x="406.1" y="-37.3" font-family="Times,serif" font-size="14.00">time</text>
</g>
<!-- timestamp&#45;&gt;time -->
<g id="edge52" class="edge">
<title>timestamp&#45;&gt;time</title>
<path fill="none" stroke="black" d="M305.13,-107.95C325.94,-94.36 356.59,-74.34 378.66,-59.92"/>
<polygon fill="black" stroke="black" points="380.78,-62.72 387.24,-54.32 376.96,-56.86 380.78,-62.72"/>
</g>
<!-- unit -->
<g id="node51" class="node">
<title>unit</title>
<ellipse fill="none" stroke="black" stroke-dasharray="5,2" cx="280.1" cy="-436" rx="27" ry="18"/>
<text text-anchor="middle" x="280.1" y="-432.3" font-family="Times,serif" font-size="14.00">unit</text>
</g>
<!-- unit&#45;&gt;plaintext -->
<g id="edge53" class="edge">
<title>unit&#45;&gt;plaintext</title>
<path fill="none" stroke="black" d="M266.33,-410.22C260.95,-400.54 254.78,-389.44 249.36,-379.67"/>
<polygon fill="black" stroke="black" points="263.29,-411.96 271.21,-419 269.41,-408.56 263.29,-411.96"/>
<polygon fill="black" stroke="black" points="252.35,-377.85 244.43,-370.81 246.23,-381.25 252.35,-377.85"/>
<text text-anchor="middle" x="269.6" y="-392" font-family="Times,serif" font-size="10.00">unit</text>
</g>
<!-- http_status -->
<g id="node53" class="node">
<title>http_status</title>
<ellipse fill="none" stroke="black" cx="1444.1" cy="-655" rx="48.99" ry="18"/>
<text text-anchor="middle" x="1444.1" y="-651.3" font-family="Times,serif" font-size="14.00">http_status</text>
</g>
<!-- web&#45;&gt;http_status -->
<g id="edge55" class="edge">
<title>web&#45;&gt;http_status</title>
<path fill="none" stroke="black" d="M1254.14,-726.91C1291.11,-713.11 1357.81,-688.21 1401.52,-671.89"/>
<polygon fill="black" stroke="black" points="1402.88,-675.12 1411.02,-668.35 1400.43,-668.56 1402.88,-675.12"/>
</g>
<!-- text -->
<g id="node54" class="node">
<title>text</title>
<ellipse fill="none" stroke="black" cx="1278.1" cy="-655" rx="27" ry="18"/>
<text text-anchor="middle" x="1278.1" y="-651.3" font-family="Times,serif" font-size="14.00">text</text>
</g>
<!-- web&#45;&gt;text -->
<g id="edge56" class="edge">
<title>web&#45;&gt;text</title>
<path fill="none" stroke="black" d="M1237.91,-719.82C1245.11,-708.39 1254.68,-693.19 1262.68,-680.49"/>
<polygon fill="black" stroke="black" points="1265.8,-682.11 1268.16,-671.78 1259.87,-678.38 1265.8,-682.11"/>
</g>
<!-- html -->
<g id="node55" class="node">
<title>html</title>
<ellipse fill="none" stroke="black" cx="1350.1" cy="-655" rx="27.1" ry="18"/>
<text text-anchor="middle" x="1350.1" y="-651.3" font-family="Times,serif" font-size="14.00">html</text>
</g>
<!-- web&#45;&gt;html -->
<g id="edge57" class="edge">
<title>web&#45;&gt;html</title>
<path fill="none" stroke="black" d="M1253.18,-719.82C1273.67,-706.33 1302.11,-687.6 1322.88,-673.92"/>
<polygon fill="black" stroke="black" points="1324.84,-676.82 1331.27,-668.4 1320.99,-670.98 1324.84,-676.82"/>
</g>
<!-- redirects -->
<g id="node56" class="node">
<title>redirects</title>
<ellipse fill="none" stroke="black" cx="990.1" cy="-655" rx="40.89" ry="18"/>
<text text-anchor="middle" x="990.1" y="-651.3" font-family="Times,serif" font-size="14.00">redirects</text>
</g>
<!-- web&#45;&gt;redirects -->
<g id="edge58" class="edge">
<title>web&#45;&gt;redirects</title>
<path fill="none" stroke="black" d="M1199.91,-727.71C1158.51,-713.56 1079.36,-686.51 1031,-669.98"/>
<polygon fill="black" stroke="black" points="1032.06,-666.64 1021.46,-666.72 1029.79,-673.27 1032.06,-666.64"/>
</g>
<!-- x_frame_options -->
<g id="node57" class="node">
<title>x_frame_options</title>
<ellipse fill="none" stroke="black" cx="1582.1" cy="-655" rx="70.69" ry="18"/>
<text text-anchor="middle" x="1582.1" y="-651.3" font-family="Times,serif" font-size="14.00">x_frame_options</text>
</g>
<!-- web&#45;&gt;x_frame_options -->
<g id="edge59" class="edge">
<title>web&#45;&gt;x_frame_options</title>
<path fill="none" stroke="black" d="M1254.36,-730.78C1311.08,-717.84 1442.96,-687.75 1521.04,-669.93"/>
<polygon fill="black" stroke="black" points="1522.25,-673.25 1531.22,-667.61 1520.69,-666.42 1522.25,-673.25"/>
</g>
<!-- csp -->
<g id="node58" class="node">
<title>csp</title>
<ellipse fill="none" stroke="black" cx="1076.1" cy="-655" rx="27" ry="18"/>
<text text-anchor="middle" x="1076.1" y="-651.3" font-family="Times,serif" font-size="14.00">csp</text>
</g>
<!-- web&#45;&gt;csp -->
<g id="edge60" class="edge">
<title>web&#45;&gt;csp</title>
<path fill="none" stroke="black" d="M1199.75,-722.33C1173.14,-708.06 1132.84,-686.44 1105.54,-671.79"/>
<polygon fill="black" stroke="black" points="1106.93,-668.57 1096.47,-666.93 1103.63,-674.74 1106.93,-668.57"/>
</g>
<!-- form_names -->
<g id="node59" class="node">
<title>form_names</title>
<ellipse fill="none" stroke="black" cx="1177.1" cy="-655" rx="55.79" ry="18"/>
<text text-anchor="middle" x="1177.1" y="-651.3" font-family="Times,serif" font-size="14.00">form_names</text>
</g>
<!-- web&#45;&gt;form_names -->
<g id="edge61" class="edge">
<title>web&#45;&gt;form_names</title>
<path fill="none" stroke="black" d="M1216.49,-719.82C1209.62,-708.69 1200.54,-693.98 1192.83,-681.49"/>
<polygon fill="black" stroke="black" points="1195.74,-679.55 1187.51,-672.88 1189.79,-683.22 1195.74,-679.55"/>
</g>
<!-- redirects&#45;&gt;url -->
<g id="edge62" class="edge">
<title>redirects&#45;&gt;url</title>
<path fill="none" stroke="black" stroke-dasharray="5,2" d="M990.1,-673.15C990.1,-699.67 990.1,-750.9 990.1,-782.61"/>
<polygon fill="black" stroke="black" points="986.6,-782.93 990.1,-792.93 993.6,-782.93 986.6,-782.93"/>
</g>
<!-- ports -->
<g id="node61" class="node">
<title>ports</title>
<ellipse fill="none" stroke="black" cx="190.1" cy="-582" rx="28.7" ry="18"/>
<text text-anchor="middle" x="190.1" y="-578.3" font-family="Times,serif" font-size="14.00">ports</text>
</g>
<!-- nmap&#45;&gt;ports -->
<g id="edge64" class="edge">
<title>nmap&#45;&gt;ports</title>
<path fill="none" stroke="black" d="M453.88,-650.24C406.82,-643.29 307.55,-626.67 227.1,-600 225.18,-599.37 223.24,-598.66 221.29,-597.91"/>
<polygon fill="black" stroke="black" points="222.26,-594.52 211.69,-593.89 219.56,-600.98 222.26,-594.52"/>
</g>
<!-- ports&#45;&gt;port -->
<g id="edge66" class="edge">
<title>ports&#45;&gt;port</title>
<path fill="none" stroke="black" stroke-dasharray="5,2" d="M190.1,-563.81C190.1,-555.79 190.1,-546.05 190.1,-537.07"/>
<polygon fill="black" stroke="black" points="193.6,-537.03 190.1,-527.03 186.6,-537.03 193.6,-537.03"/>
</g>
<!-- path -->
<g id="node62" class="node">
<title>path</title>
<ellipse fill="none" stroke="black" stroke-dasharray="5,2" cx="779.1" cy="-1103" rx="27" ry="18"/>
<text text-anchor="middle" x="779.1" y="-1099.3" font-family="Times,serif" font-size="14.00">path</text>
</g>
</g>
</svg>
