<?xml version="1.0" encoding="UTF-8" standalone="no"?>
<!DOCTYPE svg PUBLIC "-//W3C//DTD SVG 1.1//EN"
 "http://www.w3.org/Graphics/SVG/1.1/DTD/svg11.dtd">
<!-- Generated by graphviz version 2.40.1 (20161225.0304)
 -->
<!-- Title: %3 Pages: 1 -->
<svg width="1628pt" height="1129pt"
     viewBox="0.00 0.00 1628.10 1129.00" xmlns="http://www.w3.org/2000/svg">
<g id="graph0" class="graph" transform="scale(1 1) rotate(0) translate(4 1125)">
<title>%3</title>
<polygon fill="#ffffff" stroke="transparent" points="-4,4 -4,-1125 1624.0969,-1125 1624.0969,4 -4,4"/>
<text text-anchor="middle" x="810.0484" y="-7.8" font-family="Times,serif" font-size="14.00" fill="#000000">Convey field types (dashed nodes = identifiable automatically, dashed edges = field identity)</text>
<!-- source_ip -->
<g id="node1" class="node">
<title>source_ip</title>
<ellipse fill="none" stroke="#000000" stroke-dasharray="5,2" cx="554.0969" cy="-1103" rx="44.6926" ry="18"/>
<text text-anchor="middle" x="554.0969" y="-1099.3" font-family="Times,serif" font-size="14.00" fill="#000000">source_ip</text>
</g>
<!-- ip -->
<g id="node2" class="node">
<title>ip</title>
<ellipse fill="none" stroke="#000000" stroke-dasharray="5,2" cx="677.0969" cy="-1030" rx="27" ry="18"/>
<text text-anchor="middle" x="677.0969" y="-1026.3" font-family="Times,serif" font-size="14.00" fill="#000000">ip</text>
</g>
<!-- source_ip&#45;&gt;ip -->
<g id="edge1" class="edge">
<title>source_ip&#45;&gt;ip</title>
<path fill="none" stroke="#000000" stroke-dasharray="5,2" d="M579.2846,-1088.0512C599.2435,-1076.2057 627.1521,-1059.642 648.052,-1047.238"/>
<polygon fill="#000000" stroke="#000000" points="650.0083,-1050.147 656.8215,-1042.0334 646.4356,-1044.1274 650.0083,-1050.147"/>
</g>
<!-- url -->
<g id="node7" class="node">
<title>url</title>
<ellipse fill="none" stroke="#000000" stroke-dasharray="5,2" cx="1384.0969" cy="-811" rx="27" ry="18"/>
<text text-anchor="middle" x="1384.0969" y="-807.3" font-family="Times,serif" font-size="14.00" fill="#000000">url</text>
</g>
<!-- ip&#45;&gt;url -->
<g id="edge30" class="edge">
<title>ip&#45;&gt;url</title>
<path fill="none" stroke="#000000" d="M704.029,-1028.7196C795.4631,-1024.1178 1093.2946,-1006.9703 1183.0969,-975 1261.7912,-946.9843 1331.9627,-873.4792 1364.6541,-835.1047"/>
<polygon fill="#000000" stroke="#000000" points="1367.6756,-836.9483 1371.4158,-827.0356 1362.3103,-832.4523 1367.6756,-836.9483"/>
</g>
<!-- whois -->
<g id="node9" class="node">
<title>whois</title>
<polygon fill="none" stroke="#000000" points="871.0969,-975 817.0969,-975 817.0969,-939 871.0969,-939 871.0969,-975"/>
<text text-anchor="middle" x="844.0969" y="-953.3" font-family="Times,serif" font-size="14.00" fill="#000000">whois</text>
</g>
<!-- ip&#45;&gt;whois -->
<g id="edge9" class="edge">
<title>ip&#45;&gt;whois</title>
<path fill="none" stroke="#000000" d="M699.9674,-1020.0027C727.7735,-1007.8479 775.0416,-987.1858 807.8302,-972.8531"/>
<polygon fill="#000000" stroke="#000000" points="809.3232,-976.0203 817.0842,-968.8079 806.5195,-969.6063 809.3232,-976.0203"/>
</g>
<!-- nmap -->
<g id="node57" class="node">
<title>nmap</title>
<polygon fill="none" stroke="#000000" points="464.0969,-673 410.0969,-673 410.0969,-637 464.0969,-637 464.0969,-673"/>
<text text-anchor="middle" x="437.0969" y="-651.3" font-family="Times,serif" font-size="14.00" fill="#000000">nmap</text>
</g>
<!-- ip&#45;&gt;nmap -->
<g id="edge62" class="edge">
<title>ip&#45;&gt;nmap</title>
<path fill="none" stroke="#000000" d="M650.4884,-1026.7548C592.5432,-1018.9455 460.0969,-996.7482 460.0969,-957 460.0969,-957 460.0969,-957 460.0969,-738 460.0969,-719.1105 454.4961,-698.6523 448.8222,-682.7734"/>
<polygon fill="#000000" stroke="#000000" points="451.9585,-681.1726 445.1412,-673.0625 445.413,-683.6538 451.9585,-681.1726"/>
</g>
<!-- destination_ip -->
<g id="node3" class="node">
<title>destination_ip</title>
<ellipse fill="none" stroke="#000000" stroke-dasharray="5,2" cx="677.0969" cy="-1103" rx="60.3893" ry="18"/>
<text text-anchor="middle" x="677.0969" y="-1099.3" font-family="Times,serif" font-size="14.00" fill="#000000">destination_ip</text>
</g>
<!-- destination_ip&#45;&gt;ip -->
<g id="edge2" class="edge">
<title>destination_ip&#45;&gt;ip</title>
<path fill="none" stroke="#000000" stroke-dasharray="5,2" d="M677.0969,-1084.9551C677.0969,-1076.8828 677.0969,-1067.1764 677.0969,-1058.1817"/>
<polygon fill="#000000" stroke="#000000" points="680.597,-1058.0903 677.0969,-1048.0904 673.597,-1058.0904 680.597,-1058.0903"/>
</g>
<!-- any_ip -->
<g id="node4" class="node">
<title>any_ip</title>
<ellipse fill="none" stroke="#000000" stroke-dasharray="5,2" cx="790.0969" cy="-1103" rx="34.394" ry="18"/>
<text text-anchor="middle" x="790.0969" y="-1099.3" font-family="Times,serif" font-size="14.00" fill="#000000">any_ip</text>
</g>
<!-- any_ip&#45;&gt;ip -->
<g id="edge3" class="edge">
<title>any_ip&#45;&gt;ip</title>
<path fill="none" stroke="#000000" d="M768.3093,-1088.9249C750.2898,-1077.2839 724.5791,-1060.6743 705.0451,-1048.055"/>
<polygon fill="#000000" stroke="#000000" points="706.8534,-1045.0564 696.5544,-1042.5699 703.0549,-1050.9362 706.8534,-1045.0564"/>
</g>
<!-- port_ip -->
<g id="node5" class="node">
<title>port_ip</title>
<ellipse fill="none" stroke="#000000" stroke-dasharray="5,2" cx="357.0969" cy="-1103" rx="36.2938" ry="18"/>
<text text-anchor="middle" x="357.0969" y="-1099.3" font-family="Times,serif" font-size="14.00" fill="#000000">port_ip</text>
</g>
<!-- port_ip&#45;&gt;ip -->
<g id="edge4" class="edge">
<title>port_ip&#45;&gt;ip</title>
<path fill="none" stroke="#000000" d="M390.4369,-1095.3943C451.0915,-1081.5575 578.9678,-1052.3857 641.3518,-1038.1544"/>
<polygon fill="#000000" stroke="#000000" points="642.1677,-1041.5582 651.1387,-1035.9217 640.6107,-1034.7336 642.1677,-1041.5582"/>
</g>
<!-- port -->
<g id="node6" class="node">
<title>port</title>
<ellipse fill="none" stroke="#000000" stroke-dasharray="5,2" cx="190.0969" cy="-509" rx="27" ry="18"/>
<text text-anchor="middle" x="190.0969" y="-505.3" font-family="Times,serif" font-size="14.00" fill="#000000">port</text>
</g>
<!-- port_ip&#45;&gt;port -->
<g id="edge5" class="edge">
<title>port_ip&#45;&gt;port</title>
<path fill="none" stroke="#000000" d="M321.6034,-1098.8913C258.4415,-1090.5837 133.0969,-1069.1636 133.0969,-1030 133.0969,-1030 133.0969,-1030 133.0969,-582 133.0969,-560.6998 148.3592,-541.8969 163.0888,-528.7102"/>
<polygon fill="#000000" stroke="#000000" points="165.7008,-531.0878 171.1167,-521.9818 161.2043,-525.7228 165.7008,-531.0878"/>
</g>
<!-- urlencode -->
<g id="node22" class="node">
<title>urlencode</title>
<ellipse fill="none" stroke="#000000" stroke-dasharray="5,2" cx="190.0969" cy="-436" rx="45.4919" ry="18"/>
<text text-anchor="middle" x="190.0969" y="-432.3" font-family="Times,serif" font-size="14.00" fill="#000000">urlencode</text>
</g>
<!-- port&#45;&gt;urlencode -->
<!-- url&#45;&gt;port -->
<g id="edge7" class="edge">
<title>url&#45;&gt;port</title>
<path fill="none" stroke="#000000" d="M1411.1691,-808.408C1473.1587,-801.7254 1620.0969,-781.3164 1620.0969,-738 1620.0969,-738 1620.0969,-738 1620.0969,-582 1620.0969,-546.0771 453.6042,-515.4955 227.7181,-509.9102"/>
<polygon fill="#000000" stroke="#000000" points="227.4692,-506.4031 217.3861,-509.656 227.297,-513.401 227.4692,-506.4031"/>
</g>
<!-- hostname -->
<g id="node8" class="node">
<title>hostname</title>
<ellipse fill="none" stroke="#000000" stroke-dasharray="5,2" cx="574.0969" cy="-738" rx="44.6926" ry="18"/>
<text text-anchor="middle" x="574.0969" y="-734.3" font-family="Times,serif" font-size="14.00" fill="#000000">hostname</text>
</g>
<!-- url&#45;&gt;hostname -->
<g id="edge6" class="edge">
<title>url&#45;&gt;hostname</title>
<path fill="none" stroke="#000000" d="M1348.4366,-802.9258C1331.7125,-799.402 1311.4642,-795.51 1293.0969,-793 1046.6224,-759.318 749.584,-744.7871 628.9771,-739.9701"/>
<polygon fill="#000000" stroke="#000000" points="1347.8337,-806.3761 1358.346,-805.0566 1349.3053,-799.5325 1347.8337,-806.3761"/>
<polygon fill="#000000" stroke="#000000" points="629.0166,-736.4691 618.8868,-739.5735 628.7416,-743.4637 629.0166,-736.4691"/>
</g>
<!-- web -->
<g id="node49" class="node">
<title>web</title>
<polygon fill="none" stroke="#000000" points="1287.0969,-756 1233.0969,-756 1233.0969,-720 1287.0969,-720 1287.0969,-756"/>
<text text-anchor="middle" x="1260.0969" y="-734.3" font-family="Times,serif" font-size="14.00" fill="#000000">web</text>
</g>
<!-- url&#45;&gt;web -->
<g id="edge51" class="edge">
<title>url&#45;&gt;web</title>
<path fill="none" stroke="#000000" d="M1363.6208,-798.9455C1345.2415,-788.1255 1317.8522,-772.0011 1295.8619,-759.0552"/>
<polygon fill="#000000" stroke="#000000" points="1297.5109,-755.9646 1287.1177,-753.9074 1293.9596,-761.9969 1297.5109,-755.9646"/>
</g>
<!-- hostname&#45;&gt;ip -->
<g id="edge8" class="edge">
<title>hostname&#45;&gt;ip</title>
<path fill="none" stroke="#000000" d="M571.7599,-756.2662C570.0752,-771.0116 568.0969,-792.307 568.0969,-811 568.0969,-957 568.0969,-957 568.0969,-957 568.0969,-992.9648 609.57,-1012.3364 641.352,-1021.9012"/>
<polygon fill="#000000" stroke="#000000" points="640.6924,-1025.3509 651.2654,-1024.6707 642.5759,-1018.609 640.6924,-1025.3509"/>
</g>
<!-- dns -->
<g id="node31" class="node">
<title>dns</title>
<polygon fill="none" stroke="#000000" points="536.0969,-673 482.0969,-673 482.0969,-637 536.0969,-637 536.0969,-673"/>
<text text-anchor="middle" x="509.0969" y="-651.3" font-family="Times,serif" font-size="14.00" fill="#000000">dns</text>
</g>
<!-- hostname&#45;&gt;dns -->
<g id="edge31" class="edge">
<title>hostname&#45;&gt;dns</title>
<path fill="none" stroke="#000000" d="M560.6288,-720.8023C551.6608,-709.3508 539.7075,-694.0875 529.5712,-681.1441"/>
<polygon fill="#000000" stroke="#000000" points="532.1435,-678.752 523.2222,-673.0369 526.6323,-683.068 532.1435,-678.752"/>
</g>
<!-- tld -->
<g id="node42" class="node">
<title>tld</title>
<ellipse fill="none" stroke="#000000" cx="581.0969" cy="-655" rx="27" ry="18"/>
<text text-anchor="middle" x="581.0969" y="-651.3" font-family="Times,serif" font-size="14.00" fill="#000000">tld</text>
</g>
<!-- hostname&#45;&gt;tld -->
<g id="edge43" class="edge">
<title>hostname&#45;&gt;tld</title>
<path fill="none" stroke="#000000" d="M575.6158,-719.9902C576.5239,-709.2225 577.6973,-695.309 578.7253,-683.1199"/>
<polygon fill="#000000" stroke="#000000" points="582.2281,-683.2334 579.581,-672.9746 575.2529,-682.6451 582.2281,-683.2334"/>
<text text-anchor="middle" x="628.0969" y="-694" font-family="Times,serif" font-size="10.00" fill="#000000">choose all,ccTLD,gTLD</text>
</g>
<!-- hostname&#45;&gt;nmap -->
<g id="edge60" class="edge">
<title>hostname&#45;&gt;nmap</title>
<path fill="none" stroke="#000000" d="M549.2872,-722.9693C528.0914,-710.128 497.317,-691.4837 473.3586,-676.9688"/>
<polygon fill="#000000" stroke="#000000" points="474.9107,-673.8169 464.5443,-671.6287 471.2835,-679.8039 474.9107,-673.8169"/>
</g>
<!-- prefix -->
<g id="node11" class="node">
<title>prefix</title>
<ellipse fill="none" stroke="#000000" cx="1164.0969" cy="-884" rx="31.6951" ry="18"/>
<text text-anchor="middle" x="1164.0969" y="-880.3" font-family="Times,serif" font-size="14.00" fill="#000000">prefix</text>
</g>
<!-- whois&#45;&gt;prefix -->
<g id="edge11" class="edge">
<title>whois&#45;&gt;prefix</title>
<path fill="none" stroke="#000000" d="M871.1269,-953.6775C921.5217,-947.0447 1032.8936,-930.3151 1123.0969,-902 1125.4981,-901.2462 1127.9478,-900.3952 1130.3951,-899.4837"/>
<polygon fill="#000000" stroke="#000000" points="1131.7379,-902.7162 1139.7161,-895.745 1129.1319,-896.2193 1131.7379,-902.7162"/>
</g>
<!-- asn -->
<g id="node12" class="node">
<title>asn</title>
<ellipse fill="none" stroke="#000000" stroke-dasharray="5,2" cx="1241.0969" cy="-884" rx="27" ry="18"/>
<text text-anchor="middle" x="1241.0969" y="-880.3" font-family="Times,serif" font-size="14.00" fill="#000000">asn</text>
</g>
<!-- whois&#45;&gt;asn -->
<g id="edge12" class="edge">
<title>whois&#45;&gt;asn</title>
<path fill="none" stroke="#000000" d="M871.4724,-955.7381C932.65,-952.2951 1084.5498,-940.2719 1205.0969,-902 1206.995,-901.3974 1208.9167,-900.7058 1210.8332,-899.9526"/>
<polygon fill="#000000" stroke="#000000" points="1212.5049,-903.0406 1220.2388,-895.7992 1209.6772,-896.6371 1212.5049,-903.0406"/>
</g>
<!-- abusemail -->
<g id="node13" class="node">
<title>abusemail</title>
<ellipse fill="none" stroke="#000000" cx="643.0969" cy="-884" rx="46.5926" ry="18"/>
<text text-anchor="middle" x="643.0969" y="-880.3" font-family="Times,serif" font-size="14.00" fill="#000000">abusemail</text>
</g>
<!-- whois&#45;&gt;abusemail -->
<g id="edge13" class="edge">
<title>whois&#45;&gt;abusemail</title>
<path fill="none" stroke="#000000" d="M817.0193,-952.4828C788.2474,-947.1266 741.7992,-936.8718 704.0969,-921 693.9752,-916.739 683.5474,-910.9912 674.2398,-905.2977"/>
<polygon fill="#000000" stroke="#000000" points="676.0293,-902.2883 665.7057,-899.9058 672.2903,-908.2061 676.0293,-902.2883"/>
</g>
<!-- country -->
<g id="node14" class="node">
<title>country</title>
<ellipse fill="none" stroke="#000000" cx="791.0969" cy="-582" rx="37.8943" ry="18"/>
<text text-anchor="middle" x="791.0969" y="-578.3" font-family="Times,serif" font-size="14.00" fill="#000000">country</text>
</g>
<!-- whois&#45;&gt;country -->
<g id="edge14" class="edge">
<title>whois&#45;&gt;country</title>
<path fill="none" stroke="#000000" d="M817.0667,-953.4966C780.0438,-947.0113 718.0969,-929.3796 718.0969,-884 718.0969,-884 718.0969,-884 718.0969,-655 718.0969,-631.5304 737.1964,-612.9709 755.8565,-600.439"/>
<polygon fill="#000000" stroke="#000000" points="757.7281,-603.3966 764.3289,-595.1092 754.0007,-597.4714 757.7281,-603.3966"/>
</g>
<!-- netname -->
<g id="node15" class="node">
<title>netname</title>
<ellipse fill="none" stroke="#000000" cx="787.0969" cy="-884" rx="40.8928" ry="18"/>
<text text-anchor="middle" x="787.0969" y="-880.3" font-family="Times,serif" font-size="14.00" fill="#000000">netname</text>
</g>
<!-- whois&#45;&gt;netname -->
<g id="edge15" class="edge">
<title>whois&#45;&gt;netname</title>
<path fill="none" stroke="#000000" d="M830.007,-938.9551C823.0715,-930.0727 814.5909,-919.2116 807.0059,-909.4975"/>
<polygon fill="#000000" stroke="#000000" points="809.5452,-907.0626 800.6322,-901.3347 804.0279,-911.3706 809.5452,-907.0626"/>
</g>
<!-- csirt_contact -->
<g id="node16" class="node">
<title>csirt_contact</title>
<ellipse fill="none" stroke="#000000" cx="902.0969" cy="-884" rx="55.7903" ry="18"/>
<text text-anchor="middle" x="902.0969" y="-880.3" font-family="Times,serif" font-size="14.00" fill="#000000">csirt_contact</text>
</g>
<!-- whois&#45;&gt;csirt_contact -->
<g id="edge16" class="edge">
<title>whois&#45;&gt;csirt_contact</title>
<path fill="none" stroke="#000000" d="M858.434,-938.9551C865.51,-930.049 874.1667,-919.1535 881.9005,-909.4196"/>
<polygon fill="#000000" stroke="#000000" points="884.6444,-911.5924 888.1249,-901.5855 879.1637,-907.2378 884.6444,-911.5924"/>
</g>
<!-- incident_contact -->
<g id="node17" class="node">
<title>incident_contact</title>
<ellipse fill="none" stroke="#000000" cx="1045.0969" cy="-884" rx="68.7879" ry="18"/>
<text text-anchor="middle" x="1045.0969" y="-880.3" font-family="Times,serif" font-size="14.00" fill="#000000">incident_contact</text>
</g>
<!-- whois&#45;&gt;incident_contact -->
<g id="edge17" class="edge">
<title>whois&#45;&gt;incident_contact</title>
<path fill="none" stroke="#000000" d="M871.2046,-947.1549C902.816,-935.6742 955.7279,-916.4574 994.9007,-902.2305"/>
<polygon fill="#000000" stroke="#000000" points="996.338,-905.4322 1004.5425,-898.7287 993.9484,-898.8527 996.338,-905.4322"/>
</g>
<!-- cidr -->
<g id="node10" class="node">
<title>cidr</title>
<ellipse fill="none" stroke="#000000" stroke-dasharray="5,2" cx="1257.0969" cy="-811" rx="27" ry="18"/>
<text text-anchor="middle" x="1257.0969" y="-807.3" font-family="Times,serif" font-size="14.00" fill="#000000">cidr</text>
</g>
<!-- cidr&#45;&gt;ip -->
<g id="edge10" class="edge">
<title>cidr&#45;&gt;ip</title>
<path fill="none" stroke="#000000" d="M1268.2079,-827.6718C1279.8991,-847.5083 1294.3944,-880.6231 1277.0969,-902 1205.395,-990.6118 834.1603,-1020.5268 714.3914,-1027.9527"/>
<polygon fill="#000000" stroke="#000000" points="714.0204,-1024.4687 704.2494,-1028.5647 714.4421,-1031.456 714.0204,-1024.4687"/>
</g>
<!-- prefix&#45;&gt;cidr -->
<g id="edge44" class="edge">
<title>prefix&#45;&gt;cidr</title>
<path fill="none" stroke="#000000" d="M1182.9168,-869.2274C1196.8891,-858.2599 1216.1037,-843.1775 1231.4761,-831.111"/>
<polygon fill="#000000" stroke="#000000" points="1233.8583,-833.6906 1239.5633,-824.7629 1229.5361,-828.1843 1233.8583,-833.6906"/>
</g>
<!-- email -->
<g id="node39" class="node">
<title>email</title>
<ellipse fill="none" stroke="#000000" stroke-dasharray="5,2" cx="631.0969" cy="-811" rx="30.5947" ry="18"/>
<text text-anchor="middle" x="631.0969" y="-807.3" font-family="Times,serif" font-size="14.00" fill="#000000">email</text>
</g>
<!-- abusemail&#45;&gt;email -->
<g id="edge39" class="edge">
<title>abusemail&#45;&gt;email</title>
<path fill="none" stroke="#000000" stroke-dasharray="5,2" d="M640.1306,-865.9551C638.8037,-857.8828 637.2081,-848.1764 635.7295,-839.1817"/>
<polygon fill="#000000" stroke="#000000" points="639.1464,-838.3902 634.0706,-829.0904 632.2391,-839.5257 639.1464,-838.3902"/>
</g>
<!-- plaintext -->
<g id="node18" class="node">
<title>plaintext</title>
<ellipse fill="none" stroke="#000000" stroke-dasharray="5,2" cx="235.0969" cy="-353" rx="41.6928" ry="18"/>
<text text-anchor="middle" x="235.0969" y="-349.3" font-family="Times,serif" font-size="14.00" fill="#000000">plaintext</text>
</g>
<!-- bytes -->
<g id="node19" class="node">
<title>bytes</title>
<ellipse fill="none" stroke="#000000" cx="189.0969" cy="-280" rx="29.4969" ry="18"/>
<text text-anchor="middle" x="189.0969" y="-276.3" font-family="Times,serif" font-size="14.00" fill="#000000">bytes</text>
</g>
<!-- plaintext&#45;&gt;bytes -->
<g id="edge18" class="edge">
<title>plaintext&#45;&gt;bytes</title>
<path fill="none" stroke="#000000" d="M218.4941,-326.6521C214.2145,-319.8606 209.6139,-312.5596 205.3522,-305.7965"/>
<polygon fill="#000000" stroke="#000000" points="215.6692,-328.7343 223.9616,-335.3287 221.5915,-325.0024 215.6692,-328.7343"/>
<polygon fill="#000000" stroke="#000000" points="208.1053,-303.6003 199.8129,-297.0059 202.183,-307.3322 208.1053,-303.6003"/>
</g>
<!-- custom -->
<g id="node23" class="node">
<title>custom</title>
<polygon fill="none" stroke="#000000" points="445.0969,-298 389.0969,-298 389.0969,-262 445.0969,-262 445.0969,-298"/>
<text text-anchor="middle" x="417.0969" y="-276.3" font-family="Times,serif" font-size="14.00" fill="#000000">custom</text>
</g>
<!-- plaintext&#45;&gt;custom -->
<g id="edge22" class="edge">
<title>plaintext&#45;&gt;custom</title>
<path fill="none" stroke="#000000" d="M265.9707,-340.6165C297.3545,-328.0286 346.0079,-308.5137 379.5909,-295.0436"/>
<polygon fill="#000000" stroke="#000000" points="381.0862,-298.215 389.0645,-291.2438 378.4802,-291.7181 381.0862,-298.215"/>
</g>
<!-- base64 -->
<g id="node20" class="node">
<title>base64</title>
<ellipse fill="none" stroke="#000000" stroke-dasharray="5,2" cx="35.0969" cy="-197" rx="35.194" ry="18"/>
<text text-anchor="middle" x="35.0969" y="-193.3" font-family="Times,serif" font-size="14.00" fill="#000000">base64</text>
</g>
<!-- bytes&#45;&gt;base64 -->
<g id="edge19" class="edge">
<title>bytes&#45;&gt;base64</title>
<path fill="none" stroke="#000000" d="M158.1125,-263.3006C132.0922,-249.2767 95,-229.2854 68.3591,-214.927"/>
<polygon fill="#000000" stroke="#000000" points="156.569,-266.4447 167.0324,-268.1081 159.8901,-260.2827 156.569,-266.4447"/>
<polygon fill="#000000" stroke="#000000" points="69.8705,-211.7657 59.407,-210.1022 66.5494,-217.9277 69.8705,-211.7657"/>
</g>
<!-- quoted_printable -->
<g id="node21" class="node">
<title>quoted_printable</title>
<ellipse fill="none" stroke="#000000" stroke-dasharray="5,2" cx="158.0969" cy="-197" rx="70.3881" ry="18"/>
<text text-anchor="middle" x="158.0969" y="-193.3" font-family="Times,serif" font-size="14.00" fill="#000000">quoted_printable</text>
</g>
<!-- bytes&#45;&gt;quoted_printable -->
<g id="edge20" class="edge">
<title>bytes&#45;&gt;quoted_printable</title>
<path fill="none" stroke="#000000" d="M179.0057,-252.9816C175.6064,-243.8804 171.8103,-233.7167 168.3953,-224.5732"/>
<polygon fill="#000000" stroke="#000000" points="175.7449,-254.2545 182.5226,-262.3978 182.3024,-251.8053 175.7449,-254.2545"/>
<polygon fill="#000000" stroke="#000000" points="171.6537,-223.2939 164.876,-215.1506 165.0962,-225.7431 171.6537,-223.2939"/>
</g>
<!-- charset -->
<g id="node27" class="node">
<title>charset</title>
<ellipse fill="none" stroke="#000000" cx="282.0969" cy="-197" rx="35.9954" ry="18"/>
<text text-anchor="middle" x="282.0969" y="-193.3" font-family="Times,serif" font-size="14.00" fill="#000000">charset</text>
</g>
<!-- bytes&#45;&gt;charset -->
<g id="edge26" class="edge">
<title>bytes&#45;&gt;charset</title>
<path fill="none" stroke="#000000" d="M205.7234,-265.1613C219.9116,-252.4987 240.5344,-234.0934 256.7746,-219.5994"/>
<polygon fill="#000000" stroke="#000000" points="259.2174,-222.1106 264.3477,-212.8407 254.5563,-216.888 259.2174,-222.1106"/>
<text text-anchor="middle" x="261.5969" y="-236" font-family="Times,serif" font-size="10.00" fill="#000000">encoding</text>
</g>
<!-- urlencode&#45;&gt;plaintext -->
<g id="edge21" class="edge">
<title>urlencode&#45;&gt;plaintext</title>
<path fill="none" stroke="#000000" d="M204.4155,-409.5901C209.5973,-400.0326 215.4493,-389.2389 220.6427,-379.66"/>
<polygon fill="#000000" stroke="#000000" points="201.3296,-407.9385 199.6402,-418.3978 207.4834,-411.275 201.3296,-407.9385"/>
<polygon fill="#000000" stroke="#000000" points="223.8779,-381.0361 225.5673,-370.5768 217.7241,-377.6997 223.8779,-381.0361"/>
</g>
<!-- external -->
<g id="node24" class="node">
<title>external</title>
<ellipse fill="none" stroke="#000000" cx="375.0969" cy="-197" rx="38.9931" ry="18"/>
<text text-anchor="middle" x="375.0969" y="-193.3" font-family="Times,serif" font-size="14.00" fill="#000000">external</text>
</g>
<!-- custom&#45;&gt;external -->
<g id="edge23" class="edge">
<title>custom&#45;&gt;external</title>
<path fill="none" stroke="#000000" d="M407.9835,-261.9902C402.3312,-250.8203 394.9659,-236.2649 388.6387,-223.7612"/>
<polygon fill="#000000" stroke="#000000" points="391.6863,-222.0319 384.0482,-214.6895 385.4404,-225.1925 391.6863,-222.0319"/>
</g>
<!-- code -->
<g id="node25" class="node">
<title>code</title>
<ellipse fill="none" stroke="#000000" cx="459.0969" cy="-197" rx="27.0966" ry="18"/>
<text text-anchor="middle" x="459.0969" y="-193.3" font-family="Times,serif" font-size="14.00" fill="#000000">code</text>
</g>
<!-- custom&#45;&gt;code -->
<g id="edge24" class="edge">
<title>custom&#45;&gt;code</title>
<path fill="none" stroke="#000000" d="M426.2103,-261.9902C431.9394,-250.6683 439.4286,-235.8683 445.8127,-223.252"/>
<polygon fill="#000000" stroke="#000000" points="449.0397,-224.6267 450.4319,-214.1237 442.7938,-221.4661 449.0397,-224.6267"/>
</g>
<!-- reg -->
<g id="node26" class="node">
<title>reg</title>
<ellipse fill="none" stroke="#000000" cx="531.0969" cy="-197" rx="27" ry="18"/>
<text text-anchor="middle" x="531.0969" y="-193.3" font-family="Times,serif" font-size="14.00" fill="#000000">reg</text>
</g>
<!-- custom&#45;&gt;reg -->
<g id="edge25" class="edge">
<title>custom&#45;&gt;reg</title>
<path fill="none" stroke="#000000" d="M441.8332,-261.9902C460.346,-248.5116 485.6292,-230.1037 504.5621,-216.3192"/>
<polygon fill="#000000" stroke="#000000" points="506.7428,-219.0609 512.767,-210.3455 502.6226,-213.4019 506.7428,-219.0609"/>
</g>
<!-- reg_s -->
<g id="node28" class="node">
<title>reg_s</title>
<ellipse fill="none" stroke="#000000" cx="572.0969" cy="-124" rx="29.795" ry="18"/>
<text text-anchor="middle" x="572.0969" y="-120.3" font-family="Times,serif" font-size="14.00" fill="#000000">reg_s</text>
</g>
<!-- reg&#45;&gt;reg_s -->
<g id="edge27" class="edge">
<title>reg&#45;&gt;reg_s</title>
<path fill="none" stroke="#000000" d="M540.6062,-180.0688C545.6412,-171.1041 551.932,-159.9033 557.5645,-149.8747"/>
<polygon fill="#000000" stroke="#000000" points="560.6518,-151.5251 562.4972,-141.0922 554.5485,-148.0972 560.6518,-151.5251"/>
</g>
<!-- reg_m -->
<g id="node29" class="node">
<title>reg_m</title>
<ellipse fill="none" stroke="#000000" cx="490.0969" cy="-124" rx="33.5952" ry="18"/>
<text text-anchor="middle" x="490.0969" y="-120.3" font-family="Times,serif" font-size="14.00" fill="#000000">reg_m</text>
</g>
<!-- reg&#45;&gt;reg_m -->
<g id="edge28" class="edge">
<title>reg&#45;&gt;reg_m</title>
<path fill="none" stroke="#000000" d="M521.5876,-180.0688C516.5888,-171.1686 510.3522,-160.0643 504.7509,-150.0914"/>
<polygon fill="#000000" stroke="#000000" points="507.7879,-148.3513 499.8393,-141.3463 501.6847,-151.7792 507.7879,-148.3513"/>
</g>
<!-- timestamp -->
<g id="node43" class="node">
<title>timestamp</title>
<ellipse fill="none" stroke="#000000" stroke-dasharray="5,2" cx="282.0969" cy="-124" rx="48.1917" ry="18"/>
<text text-anchor="middle" x="282.0969" y="-120.3" font-family="Times,serif" font-size="14.00" fill="#000000">timestamp</text>
</g>
<!-- charset&#45;&gt;timestamp -->
<!-- wrong_url -->
<g id="node30" class="node">
<title>wrong_url</title>
<ellipse fill="none" stroke="#000000" stroke-dasharray="5,2" cx="1409.0969" cy="-884" rx="47.3916" ry="18"/>
<text text-anchor="middle" x="1409.0969" y="-880.3" font-family="Times,serif" font-size="14.00" fill="#000000">wrong_url</text>
</g>
<!-- wrong_url&#45;&gt;url -->
<g id="edge29" class="edge">
<title>wrong_url&#45;&gt;url</title>
<path fill="none" stroke="#000000" d="M1402.9171,-865.9551C1400.0501,-857.5833 1396.5811,-847.4538 1393.4063,-838.1836"/>
<polygon fill="#000000" stroke="#000000" points="1396.6705,-836.9121 1390.1193,-828.5855 1390.0481,-839.1801 1396.6705,-836.9121"/>
</g>
<!-- spf -->
<g id="node32" class="node">
<title>spf</title>
<ellipse fill="none" stroke="#000000" cx="348.0969" cy="-582" rx="27" ry="18"/>
<text text-anchor="middle" x="348.0969" y="-578.3" font-family="Times,serif" font-size="14.00" fill="#000000">spf</text>
</g>
<!-- dns&#45;&gt;spf -->
<g id="edge32" class="edge">
<title>dns&#45;&gt;spf</title>
<path fill="none" stroke="#000000" d="M482.0676,-641.2328C479.0553,-639.7739 476.0202,-638.3365 473.0969,-637 434.1379,-619.1882 423.0559,-617.8118 384.0969,-600 382.3334,-599.1937 380.5292,-598.3508 378.7138,-597.4885"/>
<polygon fill="#000000" stroke="#000000" points="380.2049,-594.3217 369.681,-593.0973 377.1444,-600.6173 380.2049,-594.3217"/>
</g>
<!-- txt -->
<g id="node33" class="node">
<title>txt</title>
<ellipse fill="none" stroke="#000000" cx="420.0969" cy="-582" rx="27" ry="18"/>
<text text-anchor="middle" x="420.0969" y="-578.3" font-family="Times,serif" font-size="14.00" fill="#000000">txt</text>
</g>
<!-- dns&#45;&gt;txt -->
<g id="edge33" class="edge">
<title>dns&#45;&gt;txt</title>
<path fill="none" stroke="#000000" d="M487.0969,-636.9551C474.3937,-626.5356 458.3709,-613.3933 445.1797,-602.5736"/>
<polygon fill="#000000" stroke="#000000" points="447.3388,-599.8177 437.3873,-596.182 442.8995,-605.23 447.3388,-599.8177"/>
</g>
<!-- a -->
<g id="node34" class="node">
<title>a</title>
<ellipse fill="none" stroke="#000000" cx="492.0969" cy="-582" rx="27" ry="18"/>
<text text-anchor="middle" x="492.0969" y="-578.3" font-family="Times,serif" font-size="14.00" fill="#000000">a</text>
</g>
<!-- dns&#45;&gt;a -->
<g id="edge34" class="edge">
<title>dns&#45;&gt;a</title>
<path fill="none" stroke="#000000" d="M504.8946,-636.9551C502.9801,-628.7337 500.6708,-618.8173 498.5439,-609.6841"/>
<polygon fill="#000000" stroke="#000000" points="501.9277,-608.7829 496.2508,-599.8374 495.1102,-610.3706 501.9277,-608.7829"/>
</g>
<!-- aaaa -->
<g id="node35" class="node">
<title>aaaa</title>
<ellipse fill="none" stroke="#000000" cx="564.0969" cy="-582" rx="27" ry="18"/>
<text text-anchor="middle" x="564.0969" y="-578.3" font-family="Times,serif" font-size="14.00" fill="#000000">aaaa</text>
</g>
<!-- dns&#45;&gt;aaaa -->
<g id="edge35" class="edge">
<title>dns&#45;&gt;aaaa</title>
<path fill="none" stroke="#000000" d="M522.6924,-636.9551C529.651,-627.7191 538.2215,-616.3438 545.7563,-606.343"/>
<polygon fill="#000000" stroke="#000000" points="548.5617,-608.4359 551.7838,-598.3429 542.9708,-604.2236 548.5617,-608.4359"/>
</g>
<!-- ns -->
<g id="node36" class="node">
<title>ns</title>
<ellipse fill="none" stroke="#000000" cx="636.0969" cy="-582" rx="27" ry="18"/>
<text text-anchor="middle" x="636.0969" y="-578.3" font-family="Times,serif" font-size="14.00" fill="#000000">ns</text>
</g>
<!-- dns&#45;&gt;ns -->
<g id="edge36" class="edge">
<title>dns&#45;&gt;ns</title>
<path fill="none" stroke="#000000" d="M536.3416,-639.3397C557.039,-627.4427 585.4646,-611.1036 606.6785,-598.9098"/>
<polygon fill="#000000" stroke="#000000" points="608.6486,-601.8144 615.5742,-593.7965 605.1601,-595.7456 608.6486,-601.8144"/>
</g>
<!-- mx -->
<g id="node37" class="node">
<title>mx</title>
<ellipse fill="none" stroke="#000000" cx="708.0969" cy="-582" rx="27" ry="18"/>
<text text-anchor="middle" x="708.0969" y="-578.3" font-family="Times,serif" font-size="14.00" fill="#000000">mx</text>
</g>
<!-- dns&#45;&gt;mx -->
<g id="edge37" class="edge">
<title>dns&#45;&gt;mx</title>
<path fill="none" stroke="#000000" d="M536.3827,-640.7209C539.2923,-639.3901 542.2343,-638.122 545.0969,-637 599.8332,-615.5447 617.3606,-621.4553 672.0969,-600 673.951,-599.2732 675.8385,-598.4852 677.729,-597.6585"/>
<polygon fill="#000000" stroke="#000000" points="679.4789,-600.7044 687.0649,-593.3082 676.5223,-594.3595 679.4789,-600.7044"/>
</g>
<!-- dmarc -->
<g id="node38" class="node">
<title>dmarc</title>
<ellipse fill="none" stroke="#000000" cx="270.0969" cy="-582" rx="33.2948" ry="18"/>
<text text-anchor="middle" x="270.0969" y="-578.3" font-family="Times,serif" font-size="14.00" fill="#000000">dmarc</text>
</g>
<!-- dns&#45;&gt;dmarc -->
<g id="edge38" class="edge">
<title>dns&#45;&gt;dmarc</title>
<path fill="none" stroke="#000000" d="M481.8751,-640.5503C478.953,-639.2528 475.9905,-638.0392 473.0969,-637 403.9966,-612.1852 381.8962,-622.7743 312.0969,-600 309.8061,-599.2525 307.4676,-598.4291 305.125,-597.5581"/>
<polygon fill="#000000" stroke="#000000" points="306.1696,-594.2075 295.5833,-593.7836 303.5947,-600.7167 306.1696,-594.2075"/>
</g>
<!-- email&#45;&gt;hostname -->
<g id="edge40" class="edge">
<title>email&#45;&gt;hostname</title>
<path fill="none" stroke="#000000" d="M618.1627,-794.4352C610.9575,-785.2075 601.8376,-773.5276 593.7663,-763.1906"/>
<polygon fill="#000000" stroke="#000000" points="596.4877,-760.9888 587.5746,-755.261 590.9703,-765.2969 596.4877,-760.9888"/>
</g>
<!-- country_name -->
<g id="node40" class="node">
<title>country_name</title>
<ellipse fill="none" stroke="#000000" cx="808.0969" cy="-655" rx="61.99" ry="18"/>
<text text-anchor="middle" x="808.0969" y="-651.3" font-family="Times,serif" font-size="14.00" fill="#000000">country_name</text>
</g>
<!-- country_name&#45;&gt;country -->
<g id="edge41" class="edge">
<title>country_name&#45;&gt;country</title>
<path fill="none" stroke="#000000" d="M801.614,-627.1618C800.2934,-621.4907 798.9038,-615.5236 797.583,-609.8521"/>
<polygon fill="#000000" stroke="#000000" points="798.2177,-628.0095 803.8946,-636.9551 805.0353,-626.4218 798.2177,-628.0095"/>
<polygon fill="#000000" stroke="#000000" points="800.9867,-609.0359 795.3097,-600.0904 794.1691,-610.6236 800.9867,-609.0359"/>
</g>
<!-- phone -->
<g id="node41" class="node">
<title>phone</title>
<ellipse fill="none" stroke="#000000" stroke-dasharray="5,2" cx="658.0969" cy="-655" rx="32.4942" ry="18"/>
<text text-anchor="middle" x="658.0969" y="-651.3" font-family="Times,serif" font-size="14.00" fill="#000000">phone</text>
</g>
<!-- phone&#45;&gt;country -->
<g id="edge42" class="edge">
<title>phone&#45;&gt;country</title>
<path fill="none" stroke="#000000" d="M675.9779,-639.8403C684.9569,-632.6679 696.2176,-624.3135 707.0969,-618 715.3177,-613.2293 734.243,-605.0386 752.0522,-597.6743"/>
<polygon fill="#000000" stroke="#000000" points="753.832,-600.7273 761.7564,-593.6949 751.1761,-594.2507 753.832,-600.7273"/>
</g>
<!-- tld&#45;&gt;country -->
<g id="edge45" class="edge">
<title>tld&#45;&gt;country</title>
<path fill="none" stroke="#000000" stroke-dasharray="5,2" d="M602.1289,-643.6918C606.971,-641.3118 612.1525,-638.9381 617.0969,-637 671.8332,-615.5447 688.3763,-618.7513 744.0969,-600 746.8142,-599.0856 749.6071,-598.1098 752.4115,-597.1035"/>
<polygon fill="#000000" stroke="#000000" points="753.7241,-600.35 761.8979,-593.6091 751.3044,-593.7815 753.7241,-600.35"/>
</g>
<!-- formatted_time -->
<g id="node44" class="node">
<title>formatted_time</title>
<ellipse fill="none" stroke="#000000" cx="89.0969" cy="-41" rx="65.7887" ry="18"/>
<text text-anchor="middle" x="89.0969" y="-37.3" font-family="Times,serif" font-size="14.00" fill="#000000">formatted_time</text>
</g>
<!-- timestamp&#45;&gt;formatted_time -->
<g id="edge46" class="edge">
<title>timestamp&#45;&gt;formatted_time</title>
<path fill="none" stroke="#000000" d="M250.2269,-110.2942C218.4816,-96.6421 169.4665,-75.5631 133.8302,-60.2376"/>
<polygon fill="#000000" stroke="#000000" points="135.1883,-57.0118 124.619,-56.2763 132.4228,-63.4424 135.1883,-57.0118"/>
<text text-anchor="middle" x="205.0969" y="-80" font-family="Times,serif" font-size="10.00" fill="#000000">fmt</text>
</g>
<!-- isotimestamp -->
<g id="node45" class="node">
<title>isotimestamp</title>
<ellipse fill="none" stroke="#000000" cx="231.0969" cy="-41" rx="58.4896" ry="18"/>
<text text-anchor="middle" x="231.0969" y="-37.3" font-family="Times,serif" font-size="14.00" fill="#000000">isotimestamp</text>
</g>
<!-- timestamp&#45;&gt;isotimestamp -->
<g id="edge47" class="edge">
<title>timestamp&#45;&gt;isotimestamp</title>
<path fill="none" stroke="#000000" d="M271.2811,-106.3978C264.3637,-95.1401 255.2593,-80.3232 247.466,-67.6399"/>
<polygon fill="#000000" stroke="#000000" points="250.2902,-65.5507 242.0729,-58.8629 244.3262,-69.2154 250.2902,-65.5507"/>
</g>
<!-- date -->
<g id="node46" class="node">
<title>date</title>
<ellipse fill="none" stroke="#000000" cx="334.0969" cy="-41" rx="27" ry="18"/>
<text text-anchor="middle" x="334.0969" y="-37.3" font-family="Times,serif" font-size="14.00" fill="#000000">date</text>
</g>
<!-- timestamp&#45;&gt;date -->
<g id="edge48" class="edge">
<title>timestamp&#45;&gt;date</title>
<path fill="none" stroke="#000000" d="M293.1247,-106.3978C300.4401,-94.7215 310.1541,-79.2164 318.2875,-66.2342"/>
<polygon fill="#000000" stroke="#000000" points="321.2737,-68.0601 323.6169,-57.7276 315.3417,-64.3437 321.2737,-68.0601"/>
</g>
<!-- time -->
<g id="node47" class="node">
<title>time</title>
<ellipse fill="none" stroke="#000000" cx="406.0969" cy="-41" rx="27" ry="18"/>
<text text-anchor="middle" x="406.0969" y="-37.3" font-family="Times,serif" font-size="14.00" fill="#000000">time</text>
</g>
<!-- timestamp&#45;&gt;time -->
<g id="edge49" class="edge">
<title>timestamp&#45;&gt;time</title>
<path fill="none" stroke="#000000" d="M305.7122,-108.193C326.4634,-94.3031 356.6725,-74.0825 378.5257,-59.4549"/>
<polygon fill="#000000" stroke="#000000" points="380.6726,-62.2296 387.036,-53.7585 376.7789,-56.4125 380.6726,-62.2296"/>
</g>
<!-- unit -->
<g id="node48" class="node">
<title>unit</title>
<ellipse fill="none" stroke="#000000" stroke-dasharray="5,2" cx="280.0969" cy="-436" rx="27" ry="18"/>
<text text-anchor="middle" x="280.0969" y="-432.3" font-family="Times,serif" font-size="14.00" fill="#000000">unit</text>
</g>
<!-- unit&#45;&gt;plaintext -->
<g id="edge50" class="edge">
<title>unit&#45;&gt;plaintext</title>
<path fill="none" stroke="#000000" d="M265.9975,-409.9944C260.7521,-400.3196 254.7955,-389.333 249.5214,-379.6052"/>
<polygon fill="#000000" stroke="#000000" points="262.9297,-411.6795 270.7729,-418.8023 269.0834,-408.3431 262.9297,-411.6795"/>
<polygon fill="#000000" stroke="#000000" points="252.5626,-377.8712 244.7195,-370.7483 246.4089,-381.2076 252.5626,-377.8712"/>
<text text-anchor="middle" x="269.5969" y="-392" font-family="Times,serif" font-size="10.00" fill="#000000">unit</text>
</g>
<!-- http_status -->
<g id="node50" class="node">
<title>http_status</title>
<ellipse fill="none" stroke="#000000" cx="1211.0969" cy="-655" rx="48.9926" ry="18"/>
<text text-anchor="middle" x="1211.0969" y="-651.3" font-family="Times,serif" font-size="14.00" fill="#000000">http_status</text>
</g>
<!-- web&#45;&gt;http_status -->
<g id="edge52" class="edge">
<title>web&#45;&gt;http_status</title>
<path fill="none" stroke="#000000" d="M1249.4646,-719.9902C1242.8056,-708.7107 1234.1087,-693.9792 1226.6789,-681.3941"/>
<polygon fill="#000000" stroke="#000000" points="1229.6379,-679.5215 1221.5401,-672.6895 1223.6099,-683.0802 1229.6379,-679.5215"/>
</g>
<!-- text -->
<g id="node51" class="node">
<title>text</title>
<ellipse fill="none" stroke="#000000" cx="1045.0969" cy="-655" rx="27" ry="18"/>
<text text-anchor="middle" x="1045.0969" y="-651.3" font-family="Times,serif" font-size="14.00" fill="#000000">text</text>
</g>
<!-- web&#45;&gt;text -->
<g id="edge53" class="edge">
<title>web&#45;&gt;text</title>
<path fill="none" stroke="#000000" d="M1233.0337,-729.2582C1197.6484,-717.5828 1133.9483,-695.719 1081.0969,-673 1079.3154,-672.2342 1077.4972,-671.4229 1075.671,-670.585"/>
<polygon fill="#000000" stroke="#000000" points="1077.141,-667.4085 1066.6085,-666.261 1074.1265,-673.7262 1077.141,-667.4085"/>
</g>
<!-- html -->
<g id="node52" class="node">
<title>html</title>
<ellipse fill="none" stroke="#000000" cx="1117.0969" cy="-655" rx="27.0966" ry="18"/>
<text text-anchor="middle" x="1117.0969" y="-651.3" font-family="Times,serif" font-size="14.00" fill="#000000">html</text>
</g>
<!-- web&#45;&gt;html -->
<g id="edge54" class="edge">
<title>web&#45;&gt;html</title>
<path fill="none" stroke="#000000" d="M1232.8631,-722.193C1208.1802,-707.8665 1171.8938,-686.8052 1146.5457,-672.0927"/>
<polygon fill="#000000" stroke="#000000" points="1148.1493,-668.9766 1137.7436,-666.9837 1144.6353,-675.0307 1148.1493,-668.9766"/>
</g>
<!-- redirects -->
<g id="node53" class="node">
<title>redirects</title>
<ellipse fill="none" stroke="#000000" cx="1551.0969" cy="-655" rx="40.8928" ry="18"/>
<text text-anchor="middle" x="1551.0969" y="-651.3" font-family="Times,serif" font-size="14.00" fill="#000000">redirects</text>
</g>
<!-- web&#45;&gt;redirects -->
<g id="edge55" class="edge">
<title>web&#45;&gt;redirects</title>
<path fill="none" stroke="#000000" d="M1287.414,-731.4098C1332.3188,-720.4033 1424.4078,-697.1012 1501.0969,-673 1504.0385,-672.0755 1507.0643,-671.0856 1510.1021,-670.0632"/>
<polygon fill="#000000" stroke="#000000" points="1511.4488,-673.301 1519.7573,-666.7268 1509.1626,-666.6848 1511.4488,-673.301"/>
</g>
<!-- x_frame_options -->
<g id="node54" class="node">
<title>x_frame_options</title>
<ellipse fill="none" stroke="#000000" cx="1349.0969" cy="-655" rx="70.6878" ry="18"/>
<text text-anchor="middle" x="1349.0969" y="-651.3" font-family="Times,serif" font-size="14.00" fill="#000000">x_frame_options</text>
</g>
<!-- web&#45;&gt;x_frame_options -->
<g id="edge56" class="edge">
<title>web&#45;&gt;x_frame_options</title>
<path fill="none" stroke="#000000" d="M1279.4086,-719.9902C1292.1768,-708.0827 1309.0703,-692.3281 1323.0265,-679.3129"/>
<polygon fill="#000000" stroke="#000000" points="1325.5066,-681.7858 1330.4328,-672.4058 1320.7324,-676.6665 1325.5066,-681.7858"/>
</g>
<!-- csp -->
<g id="node55" class="node">
<title>csp</title>
<ellipse fill="none" stroke="#000000" cx="1465.0969" cy="-655" rx="27" ry="18"/>
<text text-anchor="middle" x="1465.0969" y="-651.3" font-family="Times,serif" font-size="14.00" fill="#000000">csp</text>
</g>
<!-- web&#45;&gt;csp -->
<g id="edge57" class="edge">
<title>web&#45;&gt;csp</title>
<path fill="none" stroke="#000000" d="M1287.3521,-728.4357C1321.0315,-716.4078 1379.9138,-694.6936 1429.0969,-673 1430.8711,-672.2174 1432.6836,-671.393 1434.5054,-670.5451"/>
<polygon fill="#000000" stroke="#000000" points="1436.0603,-673.6811 1443.5558,-666.1932 1433.0268,-667.3725 1436.0603,-673.6811"/>
</g>
<!-- form_names -->
<g id="node56" class="node">
<title>form_names</title>
<ellipse fill="none" stroke="#000000" cx="944.0969" cy="-655" rx="55.7903" ry="18"/>
<text text-anchor="middle" x="944.0969" y="-651.3" font-family="Times,serif" font-size="14.00" fill="#000000">form_names</text>
</g>
<!-- web&#45;&gt;form_names -->
<g id="edge58" class="edge">
<title>web&#45;&gt;form_names</title>
<path fill="none" stroke="#000000" d="M1232.9435,-731.127C1186.8568,-719.4261 1090.4051,-694.7844 1009.0969,-673 1004.8466,-671.8613 1000.4436,-670.669 996.0242,-669.4634"/>
<polygon fill="#000000" stroke="#000000" points="996.9457,-666.087 986.3762,-666.8186 995.0951,-672.8379 996.9457,-666.087"/>
</g>
<!-- redirects&#45;&gt;url -->
<g id="edge59" class="edge">
<title>redirects&#45;&gt;url</title>
<path fill="none" stroke="#000000" stroke-dasharray="5,2" d="M1533.5596,-671.3821C1503.2868,-699.6609 1441.2237,-757.6361 1407.374,-789.2561"/>
<polygon fill="#000000" stroke="#000000" points="1404.7263,-786.9399 1399.8078,-796.3239 1409.5047,-792.0553 1404.7263,-786.9399"/>
</g>
<!-- ports -->
<g id="node58" class="node">
<title>ports</title>
<ellipse fill="none" stroke="#000000" cx="190.0969" cy="-582" rx="28.6953" ry="18"/>
<text text-anchor="middle" x="190.0969" y="-578.3" font-family="Times,serif" font-size="14.00" fill="#000000">ports</text>
</g>
<!-- nmap&#45;&gt;ports -->
<g id="edge61" class="edge">
<title>nmap&#45;&gt;ports</title>
<path fill="none" stroke="#000000" d="M409.8848,-649.5272C369.5248,-641.0343 291.7182,-623.2127 228.0969,-600 225.9796,-599.2275 223.8202,-598.3795 221.6598,-597.4854"/>
<polygon fill="#000000" stroke="#000000" points="222.8702,-594.194 212.308,-593.3623 220.0462,-600.5991 222.8702,-594.194"/>
</g>
<!-- ports&#45;&gt;port -->
<g id="edge63" class="edge">
<title>ports&#45;&gt;port</title>
<path fill="none" stroke="#000000" stroke-dasharray="5,2" d="M190.0969,-563.9551C190.0969,-555.8828 190.0969,-546.1764 190.0969,-537.1817"/>
<polygon fill="#000000" stroke="#000000" points="193.597,-537.0903 190.0969,-527.0904 186.597,-537.0904 193.597,-537.0903"/>
</g>
</g>
</svg>
