<?xml version="1.0" encoding="UTF-8" standalone="no"?>
<!DOCTYPE svg PUBLIC "-//W3C//DTD SVG 1.1//EN"
 "http://www.w3.org/Graphics/SVG/1.1/DTD/svg11.dtd">
<!-- Generated by graphviz version 2.40.1 (20161225.0304)
 -->
<!-- Title: %3 Pages: 1 -->
<svg width="2175pt" height="608pt"
     viewBox="0.00 0.00 2175.00 608.00" xmlns="http://www.w3.org/2000/svg">
<g id="graph0" class="graph" transform="scale(1 1) rotate(0) translate(4 604)">
<title>%3</title>
<polygon fill="#ffffff" stroke="transparent" points="-4,4 -4,-604 2171,-604 2171,4 -4,4"/>
<text text-anchor="middle" x="1083.5" y="-7.8" font-family="Times,serif" font-size="14.00" fill="#000000">Convey field types (dashed nodes = identifiable automatically)</text>
<!-- source_ip -->
<g id="node1" class="node">
<title>source_ip</title>
<ellipse fill="none" stroke="#000000" stroke-dasharray="5,2" cx="300" cy="-582" rx="44.6926" ry="18"/>
<text text-anchor="middle" x="300" y="-578.3" font-family="Times,serif" font-size="14.00" fill="#000000">source_ip</text>
</g>
<!-- ip -->
<g id="node2" class="node">
<title>ip</title>
<ellipse fill="none" stroke="#000000" stroke-dasharray="5,2" cx="479" cy="-499" rx="27" ry="18"/>
<text text-anchor="middle" x="479" y="-495.3" font-family="Times,serif" font-size="14.00" fill="#000000">ip</text>
</g>
<!-- source_ip&#45;&gt;ip -->
<g id="edge1" class="edge">
<title>source_ip&#45;&gt;ip</title>
<path fill="none" stroke="#000000" stroke-dasharray="5,2" d="M329.5582,-568.2942C362.0941,-553.2078 414.1896,-529.0518 447.4854,-513.6129"/>
<polygon fill="#000000" stroke="#000000" points="449.1592,-516.6948 456.7591,-509.3128 446.2145,-510.3443 449.1592,-516.6948"/>
</g>
<!-- url -->
<g id="node6" class="node">
<title>url</title>
<ellipse fill="none" stroke="#000000" stroke-dasharray="5,2" cx="871" cy="-426" rx="27" ry="18"/>
<text text-anchor="middle" x="871" y="-422.3" font-family="Times,serif" font-size="14.00" fill="#000000">url</text>
</g>
<!-- ip&#45;&gt;url -->
<g id="edge28" class="edge">
<title>ip&#45;&gt;url</title>
<path fill="none" stroke="#000000" d="M506.1005,-496.5836C554.0369,-492.0228 656.7701,-480.9595 742,-463 774.605,-456.1295 811.0404,-445.388 836.8506,-437.2448"/>
<polygon fill="#000000" stroke="#000000" points="838.0711,-440.5293 846.5335,-434.1544 835.9427,-433.8607 838.0711,-440.5293"/>
</g>
<!-- whois -->
<g id="node8" class="node">
<title>whois</title>
<polygon fill="none" stroke="#000000" points="506,-444 452,-444 452,-408 506,-408 506,-444"/>
<text text-anchor="middle" x="479" y="-422.3" font-family="Times,serif" font-size="14.00" fill="#000000">whois</text>
</g>
<!-- ip&#45;&gt;whois -->
<g id="edge7" class="edge">
<title>ip&#45;&gt;whois</title>
<path fill="none" stroke="#000000" d="M479,-480.9551C479,-472.8828 479,-463.1764 479,-454.1817"/>
<polygon fill="#000000" stroke="#000000" points="482.5001,-454.0903 479,-444.0904 475.5001,-454.0904 482.5001,-454.0903"/>
</g>
<!-- nmap -->
<g id="node55" class="node">
<title>nmap</title>
<polygon fill="none" stroke="#000000" points="127,-132 73,-132 73,-96 127,-96 127,-132"/>
<text text-anchor="middle" x="100" y="-110.3" font-family="Times,serif" font-size="14.00" fill="#000000">nmap</text>
</g>
<!-- ip&#45;&gt;nmap -->
<g id="edge59" class="edge">
<title>ip&#45;&gt;nmap</title>
<path fill="none" stroke="#000000" d="M451.8745,-497.7523C350.545,-492.7363 0,-472.0557 0,-426 0,-426 0,-426 0,-197 0,-162.844 34.97,-140.0595 63.5507,-127.1417"/>
<polygon fill="#000000" stroke="#000000" points="65.1138,-130.2801 72.9386,-123.1369 62.3672,-123.8414 65.1138,-130.2801"/>
</g>
<!-- destination_ip -->
<g id="node3" class="node">
<title>destination_ip</title>
<ellipse fill="none" stroke="#000000" stroke-dasharray="5,2" cx="423" cy="-582" rx="60.3893" ry="18"/>
<text text-anchor="middle" x="423" y="-578.3" font-family="Times,serif" font-size="14.00" fill="#000000">destination_ip</text>
</g>
<!-- destination_ip&#45;&gt;ip -->
<g id="edge2" class="edge">
<title>destination_ip&#45;&gt;ip</title>
<path fill="none" stroke="#000000" stroke-dasharray="5,2" d="M435.1512,-563.9902C443.0444,-552.2913 453.4431,-536.8789 462.133,-523.9993"/>
<polygon fill="#000000" stroke="#000000" points="465.1325,-525.8114 467.8242,-515.5642 459.3297,-521.8962 465.1325,-525.8114"/>
</g>
<!-- any_ip -->
<g id="node4" class="node">
<title>any_ip</title>
<ellipse fill="none" stroke="#000000" stroke-dasharray="5,2" cx="536" cy="-582" rx="34.394" ry="18"/>
<text text-anchor="middle" x="536" y="-578.3" font-family="Times,serif" font-size="14.00" fill="#000000">any_ip</text>
</g>
<!-- any_ip&#45;&gt;ip -->
<g id="edge3" class="edge">
<title>any_ip&#45;&gt;ip</title>
<path fill="none" stroke="#000000" d="M524.1896,-564.8023C516.1352,-553.0741 505.335,-537.3475 496.3128,-524.2099"/>
<polygon fill="#000000" stroke="#000000" points="498.9526,-521.8712 490.4064,-515.6092 493.1823,-525.834 498.9526,-521.8712"/>
</g>
<!-- port_ip -->
<g id="node5" class="node">
<title>port_ip</title>
<ellipse fill="none" stroke="#000000" stroke-dasharray="5,2" cx="625" cy="-582" rx="36.2938" ry="18"/>
<text text-anchor="middle" x="625" y="-578.3" font-family="Times,serif" font-size="14.00" fill="#000000">port_ip</text>
</g>
<!-- port_ip&#45;&gt;ip -->
<g id="edge4" class="edge">
<title>port_ip&#45;&gt;ip</title>
<path fill="none" stroke="#000000" d="M600.8911,-568.2942C575.5683,-553.8984 535.7192,-531.2445 508.5279,-515.7864"/>
<polygon fill="#000000" stroke="#000000" points="510.2542,-512.7418 499.831,-510.8423 506.7946,-518.8271 510.2542,-512.7418"/>
</g>
<!-- hostname -->
<g id="node7" class="node">
<title>hostname</title>
<ellipse fill="none" stroke="#000000" stroke-dasharray="5,2" cx="555" cy="-197" rx="44.6926" ry="18"/>
<text text-anchor="middle" x="555" y="-193.3" font-family="Times,serif" font-size="14.00" fill="#000000">hostname</text>
</g>
<!-- url&#45;&gt;hostname -->
<g id="edge5" class="edge">
<title>url&#45;&gt;hostname</title>
<path fill="none" stroke="#000000" d="M857.6375,-399.8866C836.6285,-361.5012 792.1943,-290.2659 734,-252 695.6384,-226.7752 645.1282,-212.6434 607.5471,-205.0421"/>
<polygon fill="#000000" stroke="#000000" points="854.6587,-401.738 862.4682,-408.8978 860.8282,-398.4306 854.6587,-401.738"/>
<polygon fill="#000000" stroke="#000000" points="607.7929,-201.5251 597.311,-203.0675 606.467,-208.3984 607.7929,-201.5251"/>
</g>
<!-- web -->
<g id="node30" class="node">
<title>web</title>
<polygon fill="none" stroke="#000000" points="1074,-361 1020,-361 1020,-325 1074,-325 1074,-361"/>
<text text-anchor="middle" x="1047" y="-339.3" font-family="Times,serif" font-size="14.00" fill="#000000">web</text>
</g>
<!-- url&#45;&gt;web -->
<g id="edge29" class="edge">
<title>url&#45;&gt;web</title>
<path fill="none" stroke="#000000" d="M893.2905,-415.488C922.7982,-401.5724 975.2067,-376.8571 1010.5236,-360.2019"/>
<polygon fill="#000000" stroke="#000000" points="1012.4465,-363.1648 1019.9983,-355.7337 1009.4607,-356.8335 1012.4465,-363.1648"/>
</g>
<!-- hostname&#45;&gt;ip -->
<g id="edge6" class="edge">
<title>hostname&#45;&gt;ip</title>
<path fill="none" stroke="#000000" d="M510.0241,-198.6513C384.2411,-203.8637 38,-222.5235 38,-270 38,-426 38,-426 38,-426 38,-466.7963 335.5416,-489.8254 441.8236,-496.7501"/>
<polygon fill="#000000" stroke="#000000" points="441.8741,-500.2604 452.0773,-497.4066 442.3214,-493.2747 441.8741,-500.2604"/>
</g>
<!-- dns -->
<g id="node37" class="node">
<title>dns</title>
<polygon fill="none" stroke="#000000" points="529,-132 475,-132 475,-96 529,-96 529,-132"/>
<text text-anchor="middle" x="502" y="-110.3" font-family="Times,serif" font-size="14.00" fill="#000000">dns</text>
</g>
<!-- hostname&#45;&gt;dns -->
<g id="edge36" class="edge">
<title>hostname&#45;&gt;dns</title>
<path fill="none" stroke="#000000" d="M543.7601,-179.3978C536.6203,-168.2167 527.2386,-153.5246 519.1765,-140.899"/>
<polygon fill="#000000" stroke="#000000" points="521.922,-138.6952 513.5901,-132.1506 516.0222,-142.4625 521.922,-138.6952"/>
</g>
<!-- tld -->
<g id="node48" class="node">
<title>tld</title>
<ellipse fill="none" stroke="#000000" cx="681" cy="-114" rx="27" ry="18"/>
<text text-anchor="middle" x="681" y="-110.3" font-family="Times,serif" font-size="14.00" fill="#000000">tld</text>
</g>
<!-- hostname&#45;&gt;tld -->
<g id="edge48" class="edge">
<title>hostname&#45;&gt;tld</title>
<path fill="none" stroke="#000000" d="M578.4043,-181.5829C599.5147,-167.6768 630.6,-147.2 653.0169,-132.4333"/>
<polygon fill="#000000" stroke="#000000" points="655.0165,-135.3073 661.4421,-126.8834 651.1658,-129.4616 655.0165,-135.3073"/>
<text text-anchor="middle" x="676" y="-153" font-family="Times,serif" font-size="10.00" fill="#000000">choose all,ccTLD,gTLD</text>
</g>
<!-- hostname&#45;&gt;nmap -->
<g id="edge57" class="edge">
<title>hostname&#45;&gt;nmap</title>
<path fill="none" stroke="#000000" d="M513.8193,-189.4879C425.936,-173.4565 221.1869,-136.1066 137.0791,-120.7639"/>
<polygon fill="#000000" stroke="#000000" points="137.6676,-117.3136 127.2018,-118.9621 136.4114,-124.1999 137.6676,-117.3136"/>
</g>
<!-- prefix -->
<g id="node10" class="node">
<title>prefix</title>
<ellipse fill="none" stroke="#000000" cx="668" cy="-343" rx="31.6951" ry="18"/>
<text text-anchor="middle" x="668" y="-339.3" font-family="Times,serif" font-size="14.00" fill="#000000">prefix</text>
</g>
<!-- whois&#45;&gt;prefix -->
<g id="edge9" class="edge">
<title>whois&#45;&gt;prefix</title>
<path fill="none" stroke="#000000" d="M506.0791,-414.1081C539.6229,-399.3773 596.8148,-374.2612 633.4777,-358.1606"/>
<polygon fill="#000000" stroke="#000000" points="635.0345,-361.2996 642.7832,-354.0741 632.2198,-354.8904 635.0345,-361.2996"/>
</g>
<!-- asn -->
<g id="node11" class="node">
<title>asn</title>
<ellipse fill="none" stroke="#000000" stroke-dasharray="5,2" cx="479" cy="-343" rx="27" ry="18"/>
<text text-anchor="middle" x="479" y="-339.3" font-family="Times,serif" font-size="14.00" fill="#000000">asn</text>
</g>
<!-- whois&#45;&gt;asn -->
<g id="edge10" class="edge">
<title>whois&#45;&gt;asn</title>
<path fill="none" stroke="#000000" d="M479,-407.9902C479,-397.2963 479,-383.4994 479,-371.3706"/>
<polygon fill="#000000" stroke="#000000" points="482.5001,-371.2612 479,-361.2612 475.5001,-371.2613 482.5001,-371.2612"/>
</g>
<!-- abusemail -->
<g id="node12" class="node">
<title>abusemail</title>
<ellipse fill="none" stroke="#000000" cx="571" cy="-343" rx="46.5926" ry="18"/>
<text text-anchor="middle" x="571" y="-339.3" font-family="Times,serif" font-size="14.00" fill="#000000">abusemail</text>
</g>
<!-- whois&#45;&gt;abusemail -->
<g id="edge11" class="edge">
<title>whois&#45;&gt;abusemail</title>
<path fill="none" stroke="#000000" d="M498.9626,-407.9902C512.4288,-395.8414 530.334,-379.6878 544.9243,-366.5248"/>
<polygon fill="#000000" stroke="#000000" points="547.5593,-368.8615 552.6397,-359.5642 542.8703,-363.664 547.5593,-368.8615"/>
</g>
<!-- country -->
<g id="node13" class="node">
<title>country</title>
<ellipse fill="none" stroke="#000000" cx="828" cy="-41" rx="37.8943" ry="18"/>
<text text-anchor="middle" x="828" y="-37.3" font-family="Times,serif" font-size="14.00" fill="#000000">country</text>
</g>
<!-- whois&#45;&gt;country -->
<g id="edge12" class="edge">
<title>whois&#45;&gt;country</title>
<path fill="none" stroke="#000000" d="M506.0003,-423.986C577.445,-417.92 766,-396.8132 766,-343 766,-343 766,-343 766,-114 766,-92.7607 781.4357,-74.5423 796.9035,-61.6179"/>
<polygon fill="#000000" stroke="#000000" points="799.1923,-64.2713 804.9135,-55.354 794.8801,-58.7571 799.1923,-64.2713"/>
</g>
<!-- netname -->
<g id="node14" class="node">
<title>netname</title>
<ellipse fill="none" stroke="#000000" cx="107" cy="-343" rx="40.8928" ry="18"/>
<text text-anchor="middle" x="107" y="-339.3" font-family="Times,serif" font-size="14.00" fill="#000000">netname</text>
</g>
<!-- whois&#45;&gt;netname -->
<g id="edge13" class="edge">
<title>whois&#45;&gt;netname</title>
<path fill="none" stroke="#000000" d="M451.9689,-421.9175C396.2156,-413.1973 264.6589,-391.0705 157,-361 153.89,-360.1313 150.6957,-359.1637 147.4984,-358.1405"/>
<polygon fill="#000000" stroke="#000000" points="148.5726,-354.8092 137.9786,-354.9471 146.3463,-361.4458 148.5726,-354.8092"/>
</g>
<!-- csirt_contact -->
<g id="node15" class="node">
<title>csirt_contact</title>
<ellipse fill="none" stroke="#000000" cx="222" cy="-343" rx="55.7903" ry="18"/>
<text text-anchor="middle" x="222" y="-339.3" font-family="Times,serif" font-size="14.00" fill="#000000">csirt_contact</text>
</g>
<!-- whois&#45;&gt;csirt_contact -->
<g id="edge14" class="edge">
<title>whois&#45;&gt;csirt_contact</title>
<path fill="none" stroke="#000000" d="M451.9822,-417.2744C409.1551,-403.4431 325.037,-376.2766 271.2702,-358.9122"/>
<polygon fill="#000000" stroke="#000000" points="272.1924,-355.5321 261.6007,-355.7893 270.0411,-362.1933 272.1924,-355.5321"/>
</g>
<!-- incident_contact -->
<g id="node16" class="node">
<title>incident_contact</title>
<ellipse fill="none" stroke="#000000" cx="365" cy="-343" rx="68.7879" ry="18"/>
<text text-anchor="middle" x="365" y="-339.3" font-family="Times,serif" font-size="14.00" fill="#000000">incident_contact</text>
</g>
<!-- whois&#45;&gt;incident_contact -->
<g id="edge15" class="edge">
<title>whois&#45;&gt;incident_contact</title>
<path fill="none" stroke="#000000" d="M454.2637,-407.9902C437.4934,-395.7803 415.1673,-379.5253 397.0388,-366.3265"/>
<polygon fill="#000000" stroke="#000000" points="398.6637,-363.1802 388.5193,-360.1237 394.5436,-368.8392 398.6637,-363.1802"/>
</g>
<!-- cidr -->
<g id="node9" class="node">
<title>cidr</title>
<ellipse fill="none" stroke="#000000" stroke-dasharray="5,2" cx="698" cy="-270" rx="27" ry="18"/>
<text text-anchor="middle" x="698" y="-266.3" font-family="Times,serif" font-size="14.00" fill="#000000">cidr</text>
</g>
<!-- cidr&#45;&gt;ip -->
<g id="edge8" class="edge">
<title>cidr&#45;&gt;ip</title>
<path fill="none" stroke="#000000" d="M705.9487,-287.3099C713.5263,-306.5739 722.0154,-338.0123 709,-361 666.9694,-435.2341 567.314,-473.8918 514.0295,-489.8761"/>
<polygon fill="#000000" stroke="#000000" points="512.9625,-486.5412 504.3327,-492.6875 514.9119,-493.2643 512.9625,-486.5412"/>
</g>
<!-- prefix&#45;&gt;cidr -->
<g id="edge49" class="edge">
<title>prefix&#45;&gt;cidr</title>
<path fill="none" stroke="#000000" d="M675.2622,-325.3287C678.7629,-316.8103 683.0379,-306.4078 686.9324,-296.9312"/>
<polygon fill="#000000" stroke="#000000" points="690.2408,-298.0884 690.8047,-287.5085 683.7662,-295.4275 690.2408,-298.0884"/>
</g>
<!-- email -->
<g id="node45" class="node">
<title>email</title>
<ellipse fill="none" stroke="#000000" stroke-dasharray="5,2" cx="568" cy="-270" rx="30.5947" ry="18"/>
<text text-anchor="middle" x="568" y="-266.3" font-family="Times,serif" font-size="14.00" fill="#000000">email</text>
</g>
<!-- abusemail&#45;&gt;email -->
<g id="edge44" class="edge">
<title>abusemail&#45;&gt;email</title>
<path fill="none" stroke="#000000" stroke-dasharray="5,2" d="M570.2584,-324.9551C569.9267,-316.8828 569.5278,-307.1764 569.1582,-298.1817"/>
<polygon fill="#000000" stroke="#000000" points="572.6512,-297.9382 568.7434,-288.0904 565.6571,-298.2257 572.6512,-297.9382"/>
</g>
<!-- plaintext -->
<g id="node17" class="node">
<title>plaintext</title>
<ellipse fill="none" stroke="#000000" stroke-dasharray="5,2" cx="1675" cy="-499" rx="41.6928" ry="18"/>
<text text-anchor="middle" x="1675" y="-495.3" font-family="Times,serif" font-size="14.00" fill="#000000">plaintext</text>
</g>
<!-- bytes -->
<g id="node18" class="node">
<title>bytes</title>
<ellipse fill="none" stroke="#000000" cx="1598" cy="-426" rx="29.4969" ry="18"/>
<text text-anchor="middle" x="1598" y="-422.3" font-family="Times,serif" font-size="14.00" fill="#000000">bytes</text>
</g>
<!-- plaintext&#45;&gt;bytes -->
<g id="edge16" class="edge">
<title>plaintext&#45;&gt;bytes</title>
<path fill="none" stroke="#000000" d="M1650.1012,-475.3946C1640.8702,-466.6432 1630.4423,-456.7569 1621.3539,-448.1407"/>
<polygon fill="#000000" stroke="#000000" points="1647.8624,-478.0951 1657.5275,-482.4352 1652.6785,-473.0151 1647.8624,-478.0951"/>
<polygon fill="#000000" stroke="#000000" points="1623.7556,-445.5947 1614.0904,-441.2546 1618.9395,-450.6746 1623.7556,-445.5947"/>
</g>
<!-- custom -->
<g id="node22" class="node">
<title>custom</title>
<polygon fill="none" stroke="#000000" points="1823,-444 1767,-444 1767,-408 1823,-408 1823,-444"/>
<text text-anchor="middle" x="1795" y="-422.3" font-family="Times,serif" font-size="14.00" fill="#000000">custom</text>
</g>
<!-- plaintext&#45;&gt;custom -->
<g id="edge20" class="edge">
<title>plaintext&#45;&gt;custom</title>
<path fill="none" stroke="#000000" d="M1699.2838,-484.2274C1716.1926,-473.9411 1739.0516,-460.0353 1758.1901,-448.3927"/>
<polygon fill="#000000" stroke="#000000" points="1760.2404,-451.2422 1766.9647,-443.0548 1756.6023,-445.2619 1760.2404,-451.2422"/>
</g>
<!-- base64 -->
<g id="node19" class="node">
<title>base64</title>
<ellipse fill="none" stroke="#000000" stroke-dasharray="5,2" cx="1413" cy="-343" rx="35.194" ry="18"/>
<text text-anchor="middle" x="1413" y="-339.3" font-family="Times,serif" font-size="14.00" fill="#000000">base64</text>
</g>
<!-- bytes&#45;&gt;base64 -->
<g id="edge17" class="edge">
<title>bytes&#45;&gt;base64</title>
<path fill="none" stroke="#000000" d="M1564.674,-411.0483C1532.0961,-396.4323 1482.6398,-374.2438 1449.1326,-359.2108"/>
<polygon fill="#000000" stroke="#000000" points="1563.6367,-414.419 1574.1932,-415.3191 1566.5021,-408.0323 1563.6367,-414.419"/>
<polygon fill="#000000" stroke="#000000" points="1450.2642,-355.8825 1439.7076,-354.9823 1447.3988,-362.2691 1450.2642,-355.8825"/>
</g>
<!-- quoted_printable -->
<g id="node20" class="node">
<title>quoted_printable</title>
<ellipse fill="none" stroke="#000000" stroke-dasharray="5,2" cx="1536" cy="-343" rx="70.3881" ry="18"/>
<text text-anchor="middle" x="1536" y="-339.3" font-family="Times,serif" font-size="14.00" fill="#000000">quoted_printable</text>
</g>
<!-- bytes&#45;&gt;quoted_printable -->
<g id="edge18" class="edge">
<title>bytes&#45;&gt;quoted_printable</title>
<path fill="none" stroke="#000000" d="M1579.6868,-401.484C1572.0698,-391.287 1563.2177,-379.4366 1555.4814,-369.08"/>
<polygon fill="#000000" stroke="#000000" points="1576.9622,-403.6849 1585.7508,-409.6019 1582.5703,-399.4957 1576.9622,-403.6849"/>
<polygon fill="#000000" stroke="#000000" points="1558.0856,-366.7178 1549.297,-360.8008 1552.4775,-370.907 1558.0856,-366.7178"/>
</g>
<!-- charset -->
<g id="node26" class="node">
<title>charset</title>
<ellipse fill="none" stroke="#000000" cx="1660" cy="-343" rx="35.9954" ry="18"/>
<text text-anchor="middle" x="1660" y="-339.3" font-family="Times,serif" font-size="14.00" fill="#000000">charset</text>
</g>
<!-- bytes&#45;&gt;charset -->
<g id="edge24" class="edge">
<title>bytes&#45;&gt;charset</title>
<path fill="none" stroke="#000000" d="M1610.2492,-409.6019C1619.0498,-397.8205 1631.0798,-381.7158 1641.1057,-368.294"/>
<polygon fill="#000000" stroke="#000000" points="1644.1701,-370.0401 1647.3506,-359.9339 1638.5619,-365.8509 1644.1701,-370.0401"/>
<text text-anchor="middle" x="1652.5" y="-382" font-family="Times,serif" font-size="10.00" fill="#000000">encoding</text>
</g>
<!-- urlencode -->
<g id="node21" class="node">
<title>urlencode</title>
<ellipse fill="none" stroke="#000000" stroke-dasharray="5,2" cx="1651" cy="-582" rx="45.4919" ry="18"/>
<text text-anchor="middle" x="1651" y="-578.3" font-family="Times,serif" font-size="14.00" fill="#000000">urlencode</text>
</g>
<!-- urlencode&#45;&gt;plaintext -->
<g id="edge19" class="edge">
<title>urlencode&#45;&gt;plaintext</title>
<path fill="none" stroke="#000000" d="M1659.0359,-554.2093C1661.5881,-545.3827 1664.4099,-535.6241 1666.9623,-526.7971"/>
<polygon fill="#000000" stroke="#000000" points="1655.6232,-553.4115 1656.2076,-563.9902 1662.3477,-555.356 1655.6232,-553.4115"/>
<polygon fill="#000000" stroke="#000000" points="1670.3869,-527.5533 1669.8025,-516.9746 1663.6624,-525.6088 1670.3869,-527.5533"/>
</g>
<!-- external -->
<g id="node23" class="node">
<title>external</title>
<ellipse fill="none" stroke="#000000" cx="1753" cy="-343" rx="38.9931" ry="18"/>
<text text-anchor="middle" x="1753" y="-339.3" font-family="Times,serif" font-size="14.00" fill="#000000">external</text>
</g>
<!-- custom&#45;&gt;external -->
<g id="edge21" class="edge">
<title>custom&#45;&gt;external</title>
<path fill="none" stroke="#000000" d="M1785.8866,-407.9902C1780.2343,-396.8203 1772.869,-382.2649 1766.5418,-369.7612"/>
<polygon fill="#000000" stroke="#000000" points="1769.5894,-368.0319 1761.9513,-360.6895 1763.3435,-371.1925 1769.5894,-368.0319"/>
</g>
<!-- code -->
<g id="node24" class="node">
<title>code</title>
<ellipse fill="none" stroke="#000000" cx="1837" cy="-343" rx="27.0966" ry="18"/>
<text text-anchor="middle" x="1837" y="-339.3" font-family="Times,serif" font-size="14.00" fill="#000000">code</text>
</g>
<!-- custom&#45;&gt;code -->
<g id="edge22" class="edge">
<title>custom&#45;&gt;code</title>
<path fill="none" stroke="#000000" d="M1804.1134,-407.9902C1809.8426,-396.6683 1817.3317,-381.8683 1823.7159,-369.252"/>
<polygon fill="#000000" stroke="#000000" points="1826.9428,-370.6267 1828.335,-360.1237 1820.6969,-367.4661 1826.9428,-370.6267"/>
</g>
<!-- reg -->
<g id="node25" class="node">
<title>reg</title>
<ellipse fill="none" stroke="#000000" cx="1909" cy="-343" rx="27" ry="18"/>
<text text-anchor="middle" x="1909" y="-339.3" font-family="Times,serif" font-size="14.00" fill="#000000">reg</text>
</g>
<!-- custom&#45;&gt;reg -->
<g id="edge23" class="edge">
<title>custom&#45;&gt;reg</title>
<path fill="none" stroke="#000000" d="M1819.7363,-407.9902C1838.2491,-394.5116 1863.5323,-376.1037 1882.4652,-362.3192"/>
<polygon fill="#000000" stroke="#000000" points="1884.6459,-365.0609 1890.6701,-356.3455 1880.5257,-359.4019 1884.6459,-365.0609"/>
</g>
<!-- reg_s -->
<g id="node27" class="node">
<title>reg_s</title>
<ellipse fill="none" stroke="#000000" cx="1868" cy="-270" rx="29.795" ry="18"/>
<text text-anchor="middle" x="1868" y="-266.3" font-family="Times,serif" font-size="14.00" fill="#000000">reg_s</text>
</g>
<!-- reg&#45;&gt;reg_s -->
<g id="edge25" class="edge">
<title>reg&#45;&gt;reg_s</title>
<path fill="none" stroke="#000000" d="M1899.4907,-326.0688C1894.4557,-317.1041 1888.1648,-305.9033 1882.5324,-295.8747"/>
<polygon fill="#000000" stroke="#000000" points="1885.5484,-294.0972 1877.5997,-287.0922 1879.4451,-297.5251 1885.5484,-294.0972"/>
</g>
<!-- reg_m -->
<g id="node28" class="node">
<title>reg_m</title>
<ellipse fill="none" stroke="#000000" cx="1950" cy="-270" rx="33.5952" ry="18"/>
<text text-anchor="middle" x="1950" y="-266.3" font-family="Times,serif" font-size="14.00" fill="#000000">reg_m</text>
</g>
<!-- reg&#45;&gt;reg_m -->
<g id="edge26" class="edge">
<title>reg&#45;&gt;reg_m</title>
<path fill="none" stroke="#000000" d="M1918.5093,-326.0688C1923.5081,-317.1686 1929.7447,-306.0643 1935.346,-296.0914"/>
<polygon fill="#000000" stroke="#000000" points="1938.4122,-297.7792 1940.2576,-287.3463 1932.309,-294.3513 1938.4122,-297.7792"/>
</g>
<!-- wrong_url -->
<g id="node29" class="node">
<title>wrong_url</title>
<ellipse fill="none" stroke="#000000" stroke-dasharray="5,2" cx="871" cy="-499" rx="47.3916" ry="18"/>
<text text-anchor="middle" x="871" y="-495.3" font-family="Times,serif" font-size="14.00" fill="#000000">wrong_url</text>
</g>
<!-- wrong_url&#45;&gt;url -->
<g id="edge27" class="edge">
<title>wrong_url&#45;&gt;url</title>
<path fill="none" stroke="#000000" d="M871,-480.9551C871,-472.8828 871,-463.1764 871,-454.1817"/>
<polygon fill="#000000" stroke="#000000" points="874.5001,-454.0903 871,-444.0904 867.5001,-454.0904 874.5001,-454.0903"/>
</g>
<!-- http_status -->
<g id="node31" class="node">
<title>http_status</title>
<ellipse fill="none" stroke="#000000" cx="1257" cy="-270" rx="48.9926" ry="18"/>
<text text-anchor="middle" x="1257" y="-266.3" font-family="Times,serif" font-size="14.00" fill="#000000">http_status</text>
</g>
<!-- web&#45;&gt;http_status -->
<g id="edge30" class="edge">
<title>web&#45;&gt;http_status</title>
<path fill="none" stroke="#000000" d="M1074.0239,-333.606C1108.79,-321.5206 1169.6848,-300.3524 1211.6134,-285.7773"/>
<polygon fill="#000000" stroke="#000000" points="1213.0122,-288.9965 1221.3085,-282.407 1210.7137,-282.3846 1213.0122,-288.9965"/>
</g>
<!-- text -->
<g id="node32" class="node">
<title>text</title>
<ellipse fill="none" stroke="#000000" cx="859" cy="-270" rx="27" ry="18"/>
<text text-anchor="middle" x="859" y="-266.3" font-family="Times,serif" font-size="14.00" fill="#000000">text</text>
</g>
<!-- web&#45;&gt;text -->
<g id="edge31" class="edge">
<title>web&#45;&gt;text</title>
<path fill="none" stroke="#000000" d="M1019.9995,-334.2905C989.3201,-324.151 937.9378,-306.4286 895,-288 893.2181,-287.2352 891.3995,-286.4247 889.5731,-285.5874"/>
<polygon fill="#000000" stroke="#000000" points="891.0425,-282.4106 880.5098,-281.2651 888.0293,-288.7289 891.0425,-282.4106"/>
</g>
<!-- html -->
<g id="node33" class="node">
<title>html</title>
<ellipse fill="none" stroke="#000000" cx="931" cy="-270" rx="27.0966" ry="18"/>
<text text-anchor="middle" x="931" y="-266.3" font-family="Times,serif" font-size="14.00" fill="#000000">html</text>
</g>
<!-- web&#45;&gt;html -->
<g id="edge32" class="edge">
<title>web&#45;&gt;html</title>
<path fill="none" stroke="#000000" d="M1019.8032,-325.8847C1001.618,-314.4406 977.7414,-299.4148 959.3267,-287.8263"/>
<polygon fill="#000000" stroke="#000000" points="961.1021,-284.8082 950.7743,-282.4442 957.3737,-290.7327 961.1021,-284.8082"/>
</g>
<!-- redirects -->
<g id="node34" class="node">
<title>redirects</title>
<ellipse fill="none" stroke="#000000" cx="1365" cy="-270" rx="40.8928" ry="18"/>
<text text-anchor="middle" x="1365" y="-266.3" font-family="Times,serif" font-size="14.00" fill="#000000">redirects</text>
</g>
<!-- web&#45;&gt;redirects -->
<g id="edge33" class="edge">
<title>web&#45;&gt;redirects</title>
<path fill="none" stroke="#000000" d="M1074.3161,-338.7242C1123.1326,-330.7894 1228.3495,-312.3533 1315,-288 1318.1086,-287.1263 1321.3018,-286.1551 1324.4984,-285.1293"/>
<polygon fill="#000000" stroke="#000000" points="1325.6524,-288.4339 1334.0169,-281.9312 1323.4229,-281.7984 1325.6524,-288.4339"/>
</g>
<!-- x_frame_options -->
<g id="node35" class="node">
<title>x_frame_options</title>
<ellipse fill="none" stroke="#000000" cx="1047" cy="-270" rx="70.6878" ry="18"/>
<text text-anchor="middle" x="1047" y="-266.3" font-family="Times,serif" font-size="14.00" fill="#000000">x_frame_options</text>
</g>
<!-- web&#45;&gt;x_frame_options -->
<g id="edge34" class="edge">
<title>web&#45;&gt;x_frame_options</title>
<path fill="none" stroke="#000000" d="M1047,-324.9551C1047,-316.8828 1047,-307.1764 1047,-298.1817"/>
<polygon fill="#000000" stroke="#000000" points="1050.5001,-298.0903 1047,-288.0904 1043.5001,-298.0904 1050.5001,-298.0903"/>
</g>
<!-- csp -->
<g id="node36" class="node">
<title>csp</title>
<ellipse fill="none" stroke="#000000" cx="1163" cy="-270" rx="27" ry="18"/>
<text text-anchor="middle" x="1163" y="-266.3" font-family="Times,serif" font-size="14.00" fill="#000000">csp</text>
</g>
<!-- web&#45;&gt;csp -->
<g id="edge35" class="edge">
<title>web&#45;&gt;csp</title>
<path fill="none" stroke="#000000" d="M1074.1968,-325.8847C1092.382,-314.4406 1116.2586,-299.4148 1134.6733,-287.8263"/>
<polygon fill="#000000" stroke="#000000" points="1136.6263,-290.7327 1143.2257,-282.4442 1132.8979,-284.8082 1136.6263,-290.7327"/>
</g>
<!-- redirects&#45;&gt;url -->
<g id="edge50" class="edge">
<title>redirects&#45;&gt;url</title>
<path fill="none" stroke="#000000" stroke-dasharray="5,2" d="M1333.3084,-281.5653C1327.2419,-283.7349 1320.933,-285.9608 1315,-288 1289.3473,-296.8171 1282.8431,-298.7575 1257,-307 1127.6796,-348.246 973.2438,-395.1513 905.6048,-415.5775"/>
<polygon fill="#000000" stroke="#000000" points="904.4517,-412.2695 895.8895,-418.5096 906.4742,-418.971 904.4517,-412.2695"/>
</g>
<!-- spf -->
<g id="node38" class="node">
<title>spf</title>
<ellipse fill="none" stroke="#000000" cx="429" cy="-41" rx="27" ry="18"/>
<text text-anchor="middle" x="429" y="-37.3" font-family="Times,serif" font-size="14.00" fill="#000000">spf</text>
</g>
<!-- dns&#45;&gt;spf -->
<g id="edge37" class="edge">
<title>dns&#45;&gt;spf</title>
<path fill="none" stroke="#000000" d="M483.9551,-95.9551C474.1702,-86.1702 461.9842,-73.9842 451.5753,-63.5753"/>
<polygon fill="#000000" stroke="#000000" points="453.9159,-60.9662 444.3699,-56.3699 448.9662,-65.9159 453.9159,-60.9662"/>
</g>
<!-- txt -->
<g id="node39" class="node">
<title>txt</title>
<ellipse fill="none" stroke="#000000" cx="501" cy="-41" rx="27" ry="18"/>
<text text-anchor="middle" x="501" y="-37.3" font-family="Times,serif" font-size="14.00" fill="#000000">txt</text>
</g>
<!-- dns&#45;&gt;txt -->
<g id="edge38" class="edge">
<title>dns&#45;&gt;txt</title>
<path fill="none" stroke="#000000" d="M501.7528,-95.9551C501.6422,-87.8828 501.5093,-78.1764 501.3861,-69.1817"/>
<polygon fill="#000000" stroke="#000000" points="504.8846,-69.0414 501.2478,-59.0904 497.8852,-69.1374 504.8846,-69.0414"/>
</g>
<!-- a -->
<g id="node40" class="node">
<title>a</title>
<ellipse fill="none" stroke="#000000" cx="573" cy="-41" rx="27" ry="18"/>
<text text-anchor="middle" x="573" y="-37.3" font-family="Times,serif" font-size="14.00" fill="#000000">a</text>
</g>
<!-- dns&#45;&gt;a -->
<g id="edge39" class="edge">
<title>dns&#45;&gt;a</title>
<path fill="none" stroke="#000000" d="M519.5506,-95.9551C529.0673,-86.1702 540.9195,-73.9842 551.0432,-63.5753"/>
<polygon fill="#000000" stroke="#000000" points="553.5879,-65.9788 558.0511,-56.3699 548.5699,-61.0983 553.5879,-65.9788"/>
</g>
<!-- aaaa -->
<g id="node41" class="node">
<title>aaaa</title>
<ellipse fill="none" stroke="#000000" cx="645" cy="-41" rx="27" ry="18"/>
<text text-anchor="middle" x="645" y="-37.3" font-family="Times,serif" font-size="14.00" fill="#000000">aaaa</text>
</g>
<!-- dns&#45;&gt;aaaa -->
<g id="edge40" class="edge">
<title>dns&#45;&gt;aaaa</title>
<path fill="none" stroke="#000000" d="M529.2338,-100.0974C553.521,-87.6991 589.0427,-69.5656 614.3238,-56.6599"/>
<polygon fill="#000000" stroke="#000000" points="616.1517,-59.6565 623.4669,-51.9924 612.9689,-53.4219 616.1517,-59.6565"/>
</g>
<!-- ns -->
<g id="node42" class="node">
<title>ns</title>
<ellipse fill="none" stroke="#000000" cx="717" cy="-41" rx="27" ry="18"/>
<text text-anchor="middle" x="717" y="-37.3" font-family="Times,serif" font-size="14.00" fill="#000000">ns</text>
</g>
<!-- dns&#45;&gt;ns -->
<g id="edge41" class="edge">
<title>dns&#45;&gt;ns</title>
<path fill="none" stroke="#000000" d="M529.167,-107.1585C564.6646,-97.8798 628.4858,-80.0282 681,-59 682.8001,-58.2792 684.633,-57.5031 686.4704,-56.6923"/>
<polygon fill="#000000" stroke="#000000" points="687.9861,-59.8473 695.5639,-52.4428 685.0225,-53.5056 687.9861,-59.8473"/>
</g>
<!-- mx -->
<g id="node43" class="node">
<title>mx</title>
<ellipse fill="none" stroke="#000000" cx="273" cy="-41" rx="27" ry="18"/>
<text text-anchor="middle" x="273" y="-37.3" font-family="Times,serif" font-size="14.00" fill="#000000">mx</text>
</g>
<!-- dns&#45;&gt;mx -->
<g id="edge42" class="edge">
<title>dns&#45;&gt;mx</title>
<path fill="none" stroke="#000000" d="M474.9474,-107.9755C437.1359,-99.1784 366.6435,-81.3997 309,-59 307.1437,-58.2787 305.2546,-57.4949 303.3629,-56.6714"/>
<polygon fill="#000000" stroke="#000000" points="304.5671,-53.3716 294.0236,-52.3298 301.6162,-59.7192 304.5671,-53.3716"/>
</g>
<!-- dmarc -->
<g id="node44" class="node">
<title>dmarc</title>
<ellipse fill="none" stroke="#000000" cx="351" cy="-41" rx="33.2948" ry="18"/>
<text text-anchor="middle" x="351" y="-37.3" font-family="Times,serif" font-size="14.00" fill="#000000">dmarc</text>
</g>
<!-- dns&#45;&gt;dmarc -->
<g id="edge43" class="edge">
<title>dns&#45;&gt;dmarc</title>
<path fill="none" stroke="#000000" d="M474.655,-100.7803C449.5669,-88.6515 412.3034,-70.6367 385.2437,-57.5549"/>
<polygon fill="#000000" stroke="#000000" points="386.6611,-54.3526 376.1346,-53.1512 383.6143,-60.6548 386.6611,-54.3526"/>
</g>
<!-- email&#45;&gt;hostname -->
<g id="edge45" class="edge">
<title>email&#45;&gt;hostname</title>
<path fill="none" stroke="#000000" d="M564.7865,-251.9551C563.349,-243.8828 561.6205,-234.1764 560.0187,-225.1817"/>
<polygon fill="#000000" stroke="#000000" points="563.4207,-224.3218 558.2216,-215.0904 556.5291,-225.5491 563.4207,-224.3218"/>
</g>
<!-- country_name -->
<g id="node46" class="node">
<title>country_name</title>
<ellipse fill="none" stroke="#000000" cx="856" cy="-114" rx="61.99" ry="18"/>
<text text-anchor="middle" x="856" y="-110.3" font-family="Times,serif" font-size="14.00" fill="#000000">country_name</text>
</g>
<!-- country_name&#45;&gt;country -->
<g id="edge46" class="edge">
<title>country_name&#45;&gt;country</title>
<path fill="none" stroke="#000000" d="M845.4058,-86.3795C843.1384,-80.468 840.7441,-74.2257 838.481,-68.3254"/>
<polygon fill="#000000" stroke="#000000" points="842.2295,-87.8717 849.0786,-95.9551 848.7652,-85.3648 842.2295,-87.8717"/>
<polygon fill="#000000" stroke="#000000" points="841.6909,-66.9207 834.8417,-58.8374 835.1552,-69.4276 841.6909,-66.9207"/>
</g>
<!-- phone -->
<g id="node47" class="node">
<title>phone</title>
<ellipse fill="none" stroke="#000000" stroke-dasharray="5,2" cx="968" cy="-114" rx="32.4942" ry="18"/>
<text text-anchor="middle" x="968" y="-110.3" font-family="Times,serif" font-size="14.00" fill="#000000">phone</text>
</g>
<!-- phone&#45;&gt;country -->
<g id="edge47" class="edge">
<title>phone&#45;&gt;country</title>
<path fill="none" stroke="#000000" d="M944.2509,-101.6165C921.8783,-89.9508 888.0965,-72.336 862.7056,-59.0965"/>
<polygon fill="#000000" stroke="#000000" points="864.2526,-55.9559 853.7673,-54.4358 861.0161,-62.1628 864.2526,-55.9559"/>
</g>
<!-- tld&#45;&gt;country -->
<g id="edge51" class="edge">
<title>tld&#45;&gt;country</title>
<path fill="none" stroke="#000000" stroke-dasharray="5,2" d="M702.679,-103.1213C717.4214,-95.7331 737.3752,-85.752 755,-77 767.1838,-70.9499 780.5269,-64.3594 792.4347,-58.4904"/>
<polygon fill="#000000" stroke="#000000" points="794.203,-61.521 801.6272,-53.9624 791.1098,-55.2414 794.203,-61.521"/>
</g>
<!-- timestamp -->
<g id="node49" class="node">
<title>timestamp</title>
<ellipse fill="none" stroke="#000000" stroke-dasharray="5,2" cx="2016" cy="-582" rx="48.1917" ry="18"/>
<text text-anchor="middle" x="2016" y="-578.3" font-family="Times,serif" font-size="14.00" fill="#000000">timestamp</text>
</g>
<!-- formatted_time -->
<g id="node50" class="node">
<title>formatted_time</title>
<ellipse fill="none" stroke="#000000" cx="1823" cy="-499" rx="65.7887" ry="18"/>
<text text-anchor="middle" x="1823" y="-495.3" font-family="Times,serif" font-size="14.00" fill="#000000">formatted_time</text>
</g>
<!-- timestamp&#45;&gt;formatted_time -->
<g id="edge52" class="edge">
<title>timestamp&#45;&gt;formatted_time</title>
<path fill="none" stroke="#000000" d="M1984.13,-568.2942C1952.3847,-554.6421 1903.3696,-533.5631 1867.7333,-518.2376"/>
<polygon fill="#000000" stroke="#000000" points="1869.0914,-515.0118 1858.5221,-514.2763 1866.3259,-521.4424 1869.0914,-515.0118"/>
<text text-anchor="middle" x="1939" y="-538" font-family="Times,serif" font-size="10.00" fill="#000000">fmt</text>
</g>
<!-- isotimestamp -->
<g id="node51" class="node">
<title>isotimestamp</title>
<ellipse fill="none" stroke="#000000" cx="1965" cy="-499" rx="58.4896" ry="18"/>
<text text-anchor="middle" x="1965" y="-495.3" font-family="Times,serif" font-size="14.00" fill="#000000">isotimestamp</text>
</g>
<!-- timestamp&#45;&gt;isotimestamp -->
<g id="edge53" class="edge">
<title>timestamp&#45;&gt;isotimestamp</title>
<path fill="none" stroke="#000000" d="M2005.1842,-564.3978C1998.2668,-553.1401 1989.1624,-538.3232 1981.3691,-525.6399"/>
<polygon fill="#000000" stroke="#000000" points="1984.1934,-523.5507 1975.976,-516.8629 1978.2293,-527.2154 1984.1934,-523.5507"/>
</g>
<!-- date -->
<g id="node52" class="node">
<title>date</title>
<ellipse fill="none" stroke="#000000" cx="2068" cy="-499" rx="27" ry="18"/>
<text text-anchor="middle" x="2068" y="-495.3" font-family="Times,serif" font-size="14.00" fill="#000000">date</text>
</g>
<!-- timestamp&#45;&gt;date -->
<g id="edge54" class="edge">
<title>timestamp&#45;&gt;date</title>
<path fill="none" stroke="#000000" d="M2027.0279,-564.3978C2034.3432,-552.7215 2044.0572,-537.2164 2052.1906,-524.2342"/>
<polygon fill="#000000" stroke="#000000" points="2055.1768,-526.0601 2057.52,-515.7276 2049.2448,-522.3437 2055.1768,-526.0601"/>
</g>
<!-- time -->
<g id="node53" class="node">
<title>time</title>
<ellipse fill="none" stroke="#000000" cx="2140" cy="-499" rx="27" ry="18"/>
<text text-anchor="middle" x="2140" y="-495.3" font-family="Times,serif" font-size="14.00" fill="#000000">time</text>
</g>
<!-- timestamp&#45;&gt;time -->
<g id="edge55" class="edge">
<title>timestamp&#45;&gt;time</title>
<path fill="none" stroke="#000000" d="M2039.6153,-566.193C2060.3665,-552.3031 2090.5756,-532.0825 2112.4288,-517.4549"/>
<polygon fill="#000000" stroke="#000000" points="2114.5758,-520.2296 2120.9391,-511.7585 2110.682,-514.4125 2114.5758,-520.2296"/>
</g>
<!-- unit -->
<g id="node54" class="node">
<title>unit</title>
<ellipse fill="none" stroke="#000000" stroke-dasharray="5,2" cx="1741" cy="-582" rx="27" ry="18"/>
<text text-anchor="middle" x="1741" y="-578.3" font-family="Times,serif" font-size="14.00" fill="#000000">unit</text>
</g>
<!-- unit&#45;&gt;plaintext -->
<g id="edge56" class="edge">
<title>unit&#45;&gt;plaintext</title>
<path fill="none" stroke="#000000" d="M1721.9889,-558.0921C1713.4813,-547.3932 1703.4515,-534.7799 1694.8477,-523.96"/>
<polygon fill="#000000" stroke="#000000" points="1719.3111,-560.3481 1728.2745,-565.9968 1724.7901,-555.9913 1719.3111,-560.3481"/>
<polygon fill="#000000" stroke="#000000" points="1697.5587,-521.7457 1688.5952,-516.097 1692.0797,-526.1025 1697.5587,-521.7457"/>
<text text-anchor="middle" x="1720.5" y="-538" font-family="Times,serif" font-size="10.00" fill="#000000">unit</text>
</g>
<!-- ports -->
<g id="node56" class="node">
<title>ports</title>
<ellipse fill="none" stroke="#000000" cx="100" cy="-41" rx="28.6953" ry="18"/>
<text text-anchor="middle" x="100" y="-37.3" font-family="Times,serif" font-size="14.00" fill="#000000">ports</text>
</g>
<!-- nmap&#45;&gt;ports -->
<g id="edge58" class="edge">
<title>nmap&#45;&gt;ports</title>
<path fill="none" stroke="#000000" d="M100,-95.9551C100,-87.8828 100,-78.1764 100,-69.1817"/>
<polygon fill="#000000" stroke="#000000" points="103.5001,-69.0903 100,-59.0904 96.5001,-69.0904 103.5001,-69.0903"/>
</g>
</g>
</svg>
